<svg width="32" height="32" viewBox="0 0 32 32" fill="none" xmlns="http://www.w3.org/2000/svg">
<path d="M25.8556 17.2158C25.3116 17.0238 24.7036 17.1838 24.3836 17.5998L22.7516 19.8398C22.6556 19.9678 22.4956 19.9678 22.3996 19.8398L20.7676 17.5998C20.4476 17.1838 19.8396 17.0238 19.2956 17.2158C18.6556 17.4398 18.1116 17.6638 17.6316 17.8878C17.4076 17.9838 17.4076 18.3038 17.6316 18.4318C19.5836 19.5518 20.5756 20.7678 20.9276 22.9438C20.9596 23.1038 21.0876 23.1998 21.2156 23.1998H29.6316C30.0476 23.1998 30.3996 22.9118 30.3996 22.5598C30.3996 19.4558 29.2156 18.4318 25.8556 17.2158ZM21.1836 7.32781C17.5356 7.42381 17.5996 11.4878 18.9436 13.9518C19.1356 14.3038 19.4556 14.6878 19.7756 14.9438C20.0316 15.1358 20.3516 15.2318 20.6716 15.2318C20.7356 15.2318 20.7996 15.1998 20.8316 15.1678C21.2476 15.6158 21.8556 16.0958 22.5916 16.0958H22.6236C23.2316 16.0958 23.8396 15.7758 24.3836 15.1678C24.4156 15.1998 24.4796 15.1998 24.5436 15.1998C24.8316 15.1998 25.0876 15.1358 25.3436 14.9758C25.6636 14.7518 25.9516 14.3998 26.1756 14.1438C28.7356 10.8478 26.1116 4.12781 21.1836 7.32781ZM25.3436 10.4638C25.4396 11.1998 25.1516 12.4798 24.7356 13.6958C24.1596 14.8158 23.2956 15.5198 22.6556 15.4558C21.4076 15.3598 20.6076 13.7918 20.6076 13.7598C20.2236 12.6398 19.9036 11.5198 19.9036 11.1678C19.9036 11.1038 19.9676 11.0398 20.0316 11.0078C21.1196 10.6238 21.7916 9.63181 22.0156 9.21581C22.0796 9.11981 22.2076 9.08781 22.2716 9.18381C22.9756 9.95181 24.7356 10.2398 25.2156 10.3358C25.2796 10.3038 25.3436 10.3678 25.3436 10.4638ZM15.3596 18.7838C14.8476 18.5598 14.2396 18.7518 13.9196 19.2318L12.1596 22.0158C12.0956 22.1118 11.9356 22.1118 11.9036 21.9838L11.1676 19.5518C11.1356 19.4558 11.1676 19.3278 11.2316 19.2638L11.7756 18.7198C11.9036 18.6238 11.8076 18.3998 11.6476 18.3998H9.72761C9.56761 18.3998 9.47161 18.5918 9.59961 18.7198L10.1436 19.2638C10.2076 19.3278 10.2396 19.4558 10.2076 19.5518L9.47161 21.9838C9.43961 22.1118 9.27961 22.1118 9.21561 22.0158L7.45561 19.2318C7.13561 18.7518 6.55961 18.5598 6.01561 18.7838C2.75161 20.1278 1.59961 21.3118 1.59961 24.7678C1.59961 25.1838 1.91961 25.5038 2.33561 25.5038H19.0396C19.4556 25.5038 19.7756 25.1838 19.7756 24.7678C19.7756 21.3118 18.5916 20.1278 15.3596 18.7838ZM10.6876 17.3438C14.9756 17.3438 17.2156 7.58381 10.6876 7.48781C4.15961 7.61581 6.39961 17.3438 10.6876 17.3438Z" fill="#C82325"/>
</svg>
