<svg width="33" height="32" viewBox="0 0 33 32" fill="none" xmlns="http://www.w3.org/2000/svg">
<path d="M25.9987 5.33317H24.6654V3.99984C24.6654 3.19984 24.132 2.6665 23.332 2.6665C22.532 2.6665 21.9987 3.19984 21.9987 3.99984V5.33317H11.332V3.99984C11.332 3.19984 10.7987 2.6665 9.9987 2.6665C9.1987 2.6665 8.66536 3.19984 8.66536 3.99984V5.33317H7.33203C5.06536 5.33317 3.33203 7.0665 3.33203 9.33317V10.6665H29.9987V9.33317C29.9987 7.0665 28.2654 5.33317 25.9987 5.33317ZM3.33203 25.3332C3.33203 27.5998 5.06536 29.3332 7.33203 29.3332H25.9987C28.2654 29.3332 29.9987 27.5998 29.9987 25.3332V13.3332H3.33203V25.3332ZM23.332 15.9998C24.132 15.9998 24.6654 16.5332 24.6654 17.3332C24.6654 18.1332 24.132 18.6665 23.332 18.6665C22.532 18.6665 21.9987 18.1332 21.9987 17.3332C21.9987 16.5332 22.532 15.9998 23.332 15.9998ZM23.332 21.3332C24.132 21.3332 24.6654 21.8665 24.6654 22.6665C24.6654 23.4665 24.132 23.9998 23.332 23.9998C22.532 23.9998 21.9987 23.4665 21.9987 22.6665C21.9987 21.8665 22.532 21.3332 23.332 21.3332ZM16.6654 15.9998C17.4654 15.9998 17.9987 16.5332 17.9987 17.3332C17.9987 18.1332 17.4654 18.6665 16.6654 18.6665C15.8654 18.6665 15.332 18.1332 15.332 17.3332C15.332 16.5332 15.8654 15.9998 16.6654 15.9998ZM16.6654 21.3332C17.4654 21.3332 17.9987 21.8665 17.9987 22.6665C17.9987 23.4665 17.4654 23.9998 16.6654 23.9998C15.8654 23.9998 15.332 23.4665 15.332 22.6665C15.332 21.8665 15.8654 21.3332 16.6654 21.3332ZM9.9987 15.9998C10.7987 15.9998 11.332 16.5332 11.332 17.3332C11.332 18.1332 10.7987 18.6665 9.9987 18.6665C9.1987 18.6665 8.66536 18.1332 8.66536 17.3332C8.66536 16.5332 9.1987 15.9998 9.9987 15.9998ZM9.9987 21.3332C10.7987 21.3332 11.332 21.8665 11.332 22.6665C11.332 23.4665 10.7987 23.9998 9.9987 23.9998C9.1987 23.9998 8.66536 23.4665 8.66536 22.6665C8.66536 21.8665 9.1987 21.3332 9.9987 21.3332Z" fill="#C82325"/>
</svg>
