<svg width="32" height="32" viewBox="0 0 32 32" fill="none" xmlns="http://www.w3.org/2000/svg">
<path d="M30.0814 21.7335L19.8548 4.77349C19.4412 4.12658 18.8715 3.59419 18.1981 3.22541C17.5247 2.85663 16.7692 2.66333 16.0014 2.66333C15.2336 2.66333 14.4782 2.85663 13.8048 3.22541C13.1314 3.59419 12.5616 4.12658 12.1481 4.77349L1.92144 21.7335C1.56017 22.3357 1.36382 23.0224 1.35212 23.7246C1.34042 24.4267 1.51378 25.1196 1.85477 25.7335C2.24901 26.4245 2.81965 26.9985 3.50837 27.3967C4.19709 27.795 4.9792 28.0032 5.77477 28.0002H26.2281C27.0184 28.0086 27.797 27.8084 28.4853 27.4198C29.1735 27.0312 29.7471 26.4679 30.1481 25.7868C30.4991 25.1665 30.678 24.4637 30.6663 23.7511C30.6546 23.0385 30.4526 22.3419 30.0814 21.7335ZM16.0014 22.6668C15.7377 22.6668 15.4799 22.5886 15.2607 22.4421C15.0414 22.2956 14.8705 22.0874 14.7696 21.8437C14.6687 21.6001 14.6423 21.332 14.6937 21.0734C14.7452 20.8147 14.8722 20.5772 15.0586 20.3907C15.2451 20.2042 15.4827 20.0772 15.7413 20.0258C16 19.9743 16.268 20.0007 16.5117 20.1017C16.7553 20.2026 16.9635 20.3735 17.1101 20.5927C17.2566 20.812 17.3348 21.0698 17.3348 21.3335C17.3348 21.6871 17.1943 22.0263 16.9442 22.2763C16.6942 22.5264 16.3551 22.6668 16.0014 22.6668ZM17.3348 17.3335C17.3348 17.6871 17.1943 18.0263 16.9442 18.2763C16.6942 18.5264 16.3551 18.6668 16.0014 18.6668C15.6478 18.6668 15.3087 18.5264 15.0586 18.2763C14.8086 18.0263 14.6681 17.6871 14.6681 17.3335V12.0002C14.6681 11.6465 14.8086 11.3074 15.0586 11.0574C15.3087 10.8073 15.6478 10.6668 16.0014 10.6668C16.3551 10.6668 16.6942 10.8073 16.9442 11.0574C17.1943 11.3074 17.3348 11.6465 17.3348 12.0002V17.3335Z" fill="#C82325"/>
</svg>
