<svg width="32" height="32" viewBox="0 0 32 32" fill="none" xmlns="http://www.w3.org/2000/svg">
<path d="M16 12C15.0111 12 14.0444 11.7068 13.2221 11.1573C12.3999 10.6079 11.759 9.82705 11.3806 8.91342C11.0022 7.99979 10.9031 6.99446 11.0961 6.02455C11.289 5.05465 11.7652 4.16373 12.4645 3.46447C13.1637 2.76521 14.0546 2.289 15.0245 2.09608C15.9945 1.90315 16.9998 2.00217 17.9134 2.3806C18.827 2.75904 19.6079 3.39991 20.1573 4.22215C20.7068 5.0444 21 6.0111 21 7C21 7.65661 20.8707 8.30679 20.6194 8.91342C20.3681 9.52005 19.9998 10.0712 19.5355 10.5355C19.0712 10.9998 18.52 11.3681 17.9134 11.6194C17.3068 11.8707 16.6566 12 16 12ZM16 22.68C16.6475 21.3346 17.588 20.1512 18.7526 19.2168C19.9172 18.2823 21.2762 17.6206 22.73 17.28H22.78C22.3936 15.7754 21.5177 14.442 20.2902 13.49C19.0627 12.5379 17.5534 12.0212 16 12.0212C14.4466 12.0212 12.9373 12.5379 11.7098 13.49C10.4823 14.442 9.6064 15.7754 9.22 17.28C10.6828 17.6138 12.0518 18.2725 13.2255 19.2072C14.3991 20.142 15.3474 21.3289 16 22.68ZM26.57 22C25.7504 21.9998 24.9317 22.0566 24.12 22.17C19.85 22.75 16.58 24.8 16.12 27.33C16.0578 27.5488 16.0176 27.7732 16 28C16.0015 27.7615 15.978 27.5236 15.93 27.29C15.42 24.76 12.15 22.71 7.93 22.13C7.10079 22.0276 6.26536 21.9842 5.43 22H2V30H30V22H26.57ZM17.08 22.77C16.7411 23.4032 16.4793 24.0746 16.3 24.77C17.81 22.99 20.56 21.67 23.98 21.21C24.8375 21.0803 25.7029 21.0102 26.57 21H28V18H25.06C24.3527 18.0013 23.6479 18.0852 22.96 18.25C21.7197 18.5536 20.5562 19.1123 19.5438 19.8905C18.5314 20.6687 17.6923 21.6494 17.08 22.77ZM8 21.18C11.42 21.64 14.17 22.96 15.69 24.74C15.3413 23.4595 14.7191 22.2698 13.8662 21.253C13.0134 20.2362 11.9502 19.4163 10.75 18.85C10.1895 18.5889 9.60286 18.3877 9 18.25C8.32514 18.0882 7.63396 18.0043 6.94 18H4V21H5.43C6.2898 21.0003 7.14854 21.0605 8 21.18Z" fill="#C82325"/>
</svg>
