<svg width="60" height="59" viewBox="0 0 60 59" fill="none" xmlns="http://www.w3.org/2000/svg">
<ellipse cx="30.0005" cy="29.9365" rx="13.5317" ry="13.9683" fill="white"/>
<circle cx="29.9988" cy="29.5" r="7.42063" fill="white"/>
<path opacity="0.2" d="M4.25218 20.8989C6.28327 14.6876 10.4459 9.40852 15.9932 6.00875C21.5405 2.60897 28.1094 1.31108 34.5212 2.34795C40.9329 3.38482 46.7679 6.68859 50.9792 11.6665C55.1905 16.6443 57.5024 22.9705 57.5001 29.5098C57.4977 36.0491 55.1814 42.3736 50.9666 47.3485C46.7518 52.3233 40.9144 55.6229 34.5019 56.6552C28.0894 57.6874 21.5215 56.3848 15.9766 52.981C10.4317 49.5773 6.27278 44.2952 4.24609 38.0825" stroke="#797979" stroke-width="4"/>
<path d="M46.3594 51.7644C41.7025 55.1238 36.1084 56.9537 30.3566 56.9991C24.6049 57.0445 18.9822 55.3032 14.2724 52.0178C9.5626 48.7324 6.00031 44.0666 4.08212 38.6709C2.16393 33.2752 1.98542 27.4185 3.57148 21.917C5.15754 16.4156 8.42912 11.5436 12.9302 7.98025C17.4313 4.41688 22.9376 2.33968 28.6815 2.03819C34.4254 1.73671 40.1207 3.22596 44.9736 6.29836C49.8265 9.37077 53.595 13.8732 55.754 19.1781" stroke="url(#paint0_linear_1252_16161)" stroke-width="4" stroke-linecap="round"/>
<defs>
<linearGradient id="paint0_linear_1252_16161" x1="38.6674" y1="26.7839" x2="43.7366" y2="52.2566" gradientUnits="userSpaceOnUse">
<stop stop-color="#797979"/>
<stop offset="1" stop-color="#797979" stop-opacity="0"/>
</linearGradient>
</defs>
</svg>
