<svg width="32" height="32" viewBox="0 0 32 32" fill="none" xmlns="http://www.w3.org/2000/svg">
<path d="M22.2641 23.9334C21.1974 23.9334 20.3307 24.8001 20.3307 25.9334C20.3307 27.0668 21.1974 27.9334 22.2641 27.9334H27.6641V23.9334H22.2641ZM22.3307 26.6001C21.9974 26.6001 21.6641 26.3335 21.6641 25.9334C21.6641 25.5334 21.9307 25.2668 22.3307 25.2668C22.6641 25.2668 22.9974 25.5334 22.9974 25.9334C22.9307 26.2668 22.6641 26.6001 22.3307 26.6001ZM21.3307 7.86678L17.3974 6.53345C16.8641 7.33345 15.9307 7.80011 14.9974 7.73345L12.6641 14.6001H21.0641L22.4641 10.3334C21.7307 9.73345 21.2641 8.80011 21.3307 7.86678ZM19.7974 10.1334C19.5974 10.8001 18.7974 11.2001 18.1307 11.0001C17.4641 10.8001 16.9974 10.0001 17.2641 9.33345C17.5307 8.66678 18.2641 8.26678 18.9307 8.46678C19.5974 8.66678 19.9974 9.46678 19.7974 10.1334Z" fill="#C82325"/>
<path d="M14.4641 2.80007L25.8641 6.60007C26.0641 6.66674 26.1974 6.80007 26.2641 6.9334C26.3307 7.06674 26.3307 7.26674 26.3307 7.46674L23.9307 14.6667H22.5307L23.9974 10.2667C24.0641 10.0667 24.0641 9.93341 23.9307 9.73341C23.8641 9.60007 23.7307 9.46674 23.5307 9.40007C22.8641 9.20007 22.4641 8.40007 22.6641 7.73341C22.7974 7.40007 22.5974 7.00007 22.2641 6.86674L17.1974 5.20007C16.9974 5.1334 16.8641 5.1334 16.6641 5.26674C16.5307 5.33341 16.3974 5.46674 16.3307 5.66674C16.1307 6.33341 15.3307 6.73341 14.6641 6.53341C14.3307 6.40007 13.9307 6.60007 13.7974 6.9334L11.1974 14.7334H9.7974L13.5974 3.3334C13.7307 2.86674 14.1307 2.66674 14.4641 2.80007ZM7.66406 14.6001V8.53341C8.5974 8.26674 9.33073 7.5334 9.5974 6.60007H11.1307L8.46406 14.6001H7.66406Z" fill="#C82325"/>
<path d="M5.2 4.13335C5.33333 4.00002 5.46667 3.93335 5.66667 3.93335H12L11.5333 5.26668H9C8.8 5.26668 8.66667 5.33335 8.53333 5.46668C8.4 5.60002 8.33333 5.73335 8.33333 5.93335C8.33333 6.66668 7.73333 7.26668 7 7.26668C6.6 7.26668 6.33333 7.53335 6.33333 7.93335V14.6667C5.86667 14.7333 5.4 15 5 15.2667V4.60002C5 4.40002 5.06667 4.26668 5.2 4.13335ZM27.6667 29.9333C27.6667 31.0667 26.8 31.9333 25.6667 31.9333H7C5.86667 31.9333 5 31.0667 5 29.9333V17.9333C5 16.8 5.86667 15.9333 7 15.9333H25.6C26.7333 15.9333 27.6 16.8 27.6 17.9333V22.6H22.2C20.4 22.6 18.9333 24.0667 18.9333 25.9333C18.9333 27.8 20.4 29.2667 22.2 29.2667H27.6V29.9333H27.6667Z" fill="#C82325"/>
</svg>
