<svg width="25" height="25" viewBox="0 0 25 25" fill="none" xmlns="http://www.w3.org/2000/svg">
<g clip-path="url(#clip0_233_9471)">
<path d="M24.6668 12.409C24.6668 5.5547 19.1446 -0.00146484 12.3335 -0.00146484C5.51932 7.68231e-05 -0.00292969 5.5547 -0.00292969 12.4105C-0.00292969 18.6034 4.50799 23.7371 10.4033 24.6683V15.9964H7.27374V12.4105H10.4064V9.67404C10.4064 6.56449 12.2487 4.84708 15.0653 4.84708C16.4158 4.84708 17.8264 5.08912 17.8264 5.08912V8.14162H16.2709C14.74 8.14162 14.2621 9.09899 14.2621 10.081V12.409H17.6815L17.1358 15.9949H14.2606V24.6667C20.1559 23.7356 24.6668 18.6018 24.6668 12.409Z" fill="#202020"/>
</g>
<defs>
<clipPath id="clip0_233_9471">
<rect width="24.6667" height="24.6667" fill="white"/>
</clipPath>
</defs>
</svg>
