<svg width="25" height="25" viewBox="0 0 25 25" fill="none" xmlns="http://www.w3.org/2000/svg">
<path d="M12.4974 8.76872C10.3082 8.76872 8.5216 10.5553 8.5216 12.7445C8.5216 14.9337 10.3082 16.7203 12.4974 16.7203C14.6866 16.7203 16.4731 14.9337 16.4731 12.7445C16.4731 10.5553 14.6866 8.76872 12.4974 8.76872ZM24.4217 12.7445C24.4217 11.0981 24.4366 9.46664 24.3441 7.82325C24.2517 5.9144 23.8162 4.2203 22.4204 2.82446C21.0216 1.42563 19.3304 0.993159 17.4216 0.9007C15.7752 0.80824 14.1437 0.823153 12.5003 0.823153C10.854 0.823153 9.2225 0.80824 7.57911 0.9007C5.67026 0.993159 3.97616 1.42861 2.58032 2.82446C1.18149 4.22328 0.749019 5.9144 0.656559 7.82325C0.564099 9.46963 0.579012 11.1011 0.579012 12.7445C0.579012 14.3879 0.564099 16.0223 0.656559 17.6657C0.749019 19.5746 1.18447 21.2687 2.58032 22.6645C3.97914 24.0633 5.67026 24.4958 7.57911 24.5883C9.22548 24.6807 10.8569 24.6658 12.5003 24.6658C14.1467 24.6658 15.7782 24.6807 17.4216 24.5883C19.3304 24.4958 21.0245 24.0604 22.4204 22.6645C23.8192 21.2657 24.2517 19.5746 24.3441 17.6657C24.4396 16.0223 24.4217 14.3909 24.4217 12.7445ZM12.4974 18.8617C9.11215 18.8617 6.38011 16.1297 6.38011 12.7445C6.38011 9.35927 9.11215 6.62723 12.4974 6.62723C15.8826 6.62723 18.6146 9.35927 18.6146 12.7445C18.6146 16.1297 15.8826 18.8617 12.4974 18.8617ZM18.8652 7.80535C18.0748 7.80535 17.4365 7.16708 17.4365 6.3767C17.4365 5.58632 18.0748 4.94805 18.8652 4.94805C19.6555 4.94805 20.2938 5.58632 20.2938 6.3767C20.294 6.56438 20.2572 6.75026 20.1855 6.9237C20.1138 7.09714 20.0086 7.25472 19.8759 7.38743C19.7432 7.52014 19.5856 7.62537 19.4122 7.69708C19.2387 7.76879 19.0528 7.80559 18.8652 7.80535Z" fill="#202020"/>
</svg>
