<svg width="25" height="25" viewBox="0 0 25 25" fill="none" xmlns="http://www.w3.org/2000/svg">
<g clip-path="url(#clip0_233_9473)">
<path d="M12.6222 0.493652C6.08309 0.493652 0.782227 5.79452 0.782227 12.3337C0.782227 18.8728 6.08309 24.1737 12.6222 24.1737C19.1614 24.1737 24.4622 18.8728 24.4622 12.3337C24.4622 5.79452 19.1614 0.493652 12.6222 0.493652ZM17.1757 13.8519C17.1757 13.8519 18.2228 14.8854 18.4806 15.3652C18.488 15.3751 18.4917 15.3849 18.4941 15.3899C18.599 15.5662 18.6236 15.7031 18.5718 15.8055C18.4855 15.9757 18.1895 16.0596 18.0884 16.067H16.2384C16.1101 16.067 15.8412 16.0337 15.5156 15.8092C15.2653 15.6341 15.0186 15.3467 14.7781 15.0667C14.4192 14.6499 14.1084 14.2897 13.7951 14.2897C13.7553 14.2897 13.7158 14.2959 13.678 14.3082C13.4412 14.3847 13.1378 14.7226 13.1378 15.623C13.1378 15.9042 12.9158 16.0657 12.7591 16.0657H11.9118C11.6232 16.0657 10.1198 15.9646 8.78779 14.5598C7.15733 12.8393 5.68966 9.38845 5.67733 9.35639C5.58483 9.13315 5.77599 9.01352 5.98443 9.01352H7.85293C8.10206 9.01352 8.18346 9.16522 8.24019 9.29965C8.30679 9.45629 8.55099 10.0791 8.95183 10.7797C9.60179 11.9217 10.0002 12.3855 10.3196 12.3855C10.3795 12.3847 10.4383 12.3695 10.491 12.3411C10.9079 12.1092 10.8302 10.623 10.8117 10.3147C10.8117 10.2567 10.8105 9.64992 10.5971 9.35885C10.4442 9.14795 10.1839 9.06779 10.0261 9.03819C10.09 8.95002 10.1741 8.87852 10.2715 8.82975C10.5576 8.68669 11.0732 8.66572 11.585 8.66572H11.8699C12.4249 8.67312 12.568 8.70889 12.769 8.75945C13.176 8.85689 13.1846 9.11959 13.1489 10.0187C13.1378 10.274 13.1267 10.5626 13.1267 10.903C13.1267 10.977 13.123 11.0559 13.123 11.1398C13.1106 11.5974 13.0958 12.1166 13.419 12.33C13.4611 12.3564 13.5098 12.3705 13.5596 12.3707C13.6718 12.3707 14.0097 12.3707 14.9249 10.8006C15.2071 10.2953 15.4523 9.77014 15.6587 9.22935C15.6772 9.19729 15.7315 9.09862 15.7956 9.06039C15.8429 9.03626 15.8954 9.02398 15.9485 9.02462H18.1451C18.3844 9.02462 18.5484 9.06039 18.5792 9.15289C18.6335 9.29965 18.5694 9.74735 17.5667 11.1053L17.119 11.696C16.21 12.8874 16.21 12.9479 17.1757 13.8519Z" fill="#202020"/>
</g>
<defs>
<clipPath id="clip0_233_9473">
<rect width="24.6667" height="24.6667" fill="white" transform="translate(0.289062)"/>
</clipPath>
</defs>
</svg>
