<svg width="18" height="18" viewBox="0 0 18 18" fill="none" xmlns="http://www.w3.org/2000/svg">
<path d="M1.14087 1.66492V7.69344C1.14087 7.83236 1.19606 7.9656 1.29429 8.06383C1.39252 8.16206 1.52576 8.21725 1.66468 8.21725H7.6932C7.83212 8.21725 7.96535 8.16206 8.06359 8.06383C8.16182 7.9656 8.21701 7.83236 8.21701 7.69344V1.66492C8.21701 1.526 8.16182 1.39277 8.06359 1.29453C7.96535 1.1963 7.83212 1.14111 7.6932 1.14111H1.66468C1.52576 1.14111 1.39252 1.1963 1.29429 1.29453C1.19606 1.39277 1.14087 1.526 1.14087 1.66492ZM2.18849 2.18873H7.16939V7.16963H2.18849V2.18873ZM16.3313 1.14111H10.3028C10.1639 1.14111 10.0307 1.1963 9.93243 1.29453C9.83419 1.39277 9.77901 1.526 9.77901 1.66492V7.69344C9.77901 7.83236 9.83419 7.9656 9.93243 8.06383C10.0307 8.16206 10.1639 8.21725 10.3028 8.21725H16.3313C16.4703 8.21725 16.6035 8.16206 16.7017 8.06383C16.8 7.9656 16.8551 7.83236 16.8551 7.69344V1.66492C16.8551 1.526 16.8 1.39277 16.7017 1.29453C16.6035 1.1963 16.4703 1.14111 16.3313 1.14111ZM15.8075 7.16963H10.8266V2.18873H15.8075V7.16963ZM8.21701 16.3316V10.3031C8.21701 10.1641 8.16182 10.0309 8.06359 9.93267C7.96535 9.83444 7.83212 9.77925 7.6932 9.77925H1.66468C1.52576 9.77925 1.39252 9.83444 1.29429 9.93267C1.19606 10.0309 1.14087 10.1641 1.14087 10.3031V16.3316C1.14087 16.4705 1.19606 16.6037 1.29429 16.702C1.39252 16.8002 1.52576 16.8554 1.66468 16.8554H7.6932C7.83212 16.8554 7.96535 16.8002 8.06359 16.702C8.16182 16.6037 8.21701 16.4705 8.21701 16.3316ZM7.16939 15.8078H2.18849V10.8269H7.16939V15.8078ZM16.3313 9.77925H10.3028C10.1639 9.77925 10.0307 9.83444 9.93243 9.93267C9.83419 10.0309 9.77901 10.1641 9.77901 10.3031V16.3316C9.77901 16.4705 9.83419 16.6037 9.93243 16.702C10.0307 16.8002 10.1639 16.8554 10.3028 16.8554H16.3313C16.4703 16.8554 16.6035 16.8002 16.7017 16.702C16.8 16.6037 16.8551 16.4705 16.8551 16.3316V10.3031C16.8551 10.1641 16.8 10.0309 16.7017 9.93267C16.6035 9.83444 16.4703 9.77925 16.3313 9.77925ZM15.8075 15.8078H10.8266V10.8269H15.8075V15.8078Z" fill="white"/>
</svg>
