<svg width="14" height="18" viewBox="0 0 14 18" fill="none" xmlns="http://www.w3.org/2000/svg">
<path d="M12.7684 0.877441H1.2402C0.760339 0.877441 0.371338 1.26644 0.371338 1.74631V16.4821C0.371338 16.962 0.760339 17.351 1.2402 17.351H12.7684C13.2483 17.351 13.6373 16.962 13.6373 16.4821V1.74631C13.6373 1.26644 13.2483 0.877441 12.7684 0.877441Z" fill="#202020"/>
<path d="M0.324829 6.1582V16.5005C0.324829 16.9741 0.766697 17.3506 1.24027 17.3506H12.7672C13.2408 17.3506 13.6522 16.9741 13.6522 16.5005V6.1582H0.324829Z" fill="white"/>
<path d="M12.7672 0.857422H1.24027C0.766697 0.857422 0.324829 1.26048 0.324829 1.73406V5.58024H13.6522V1.73406C13.6522 1.26048 13.2408 0.857422 12.7672 0.857422ZM12.8112 4.99797H1.35997V1.69847H12.8112V4.99797Z" fill="white"/>
<path d="M3.07588 6.91943H1.58722C1.44251 6.91943 1.3252 7.03675 1.3252 7.18146V8.08267C1.3252 8.22738 1.44251 8.34469 1.58722 8.34469H3.07588C3.22059 8.34469 3.3379 8.22738 3.3379 8.08267V7.18146C3.3379 7.03675 3.22059 6.91943 3.07588 6.91943Z" fill="#202020"/>
<path d="M6.2071 6.91943H4.71844C4.57373 6.91943 4.45642 7.03675 4.45642 7.18146V8.08267C4.45642 8.22738 4.57373 8.34469 4.71844 8.34469H6.2071C6.35181 8.34469 6.46912 8.22738 6.46912 8.08267V7.18146C6.46912 7.03675 6.35181 6.91943 6.2071 6.91943Z" fill="#202020"/>
<path d="M9.31318 6.91943H7.82452C7.67981 6.91943 7.5625 7.03675 7.5625 7.18146V8.08267C7.5625 8.22738 7.67981 8.34469 7.82452 8.34469H9.31318C9.45789 8.34469 9.5752 8.22738 9.5752 8.08267V7.18146C9.5752 7.03675 9.45789 6.91943 9.31318 6.91943Z" fill="#202020"/>
<path d="M12.4854 6.91943H10.9968C10.8521 6.91943 10.7347 7.03675 10.7347 7.18146V8.08267C10.7347 8.22738 10.8521 8.34469 10.9968 8.34469H12.4854C12.6301 8.34469 12.7474 8.22738 12.7474 8.08267V7.18146C12.7474 7.03675 12.6301 6.91943 12.4854 6.91943Z" fill="#202020"/>
<path d="M3.03486 9.63818H1.5462C1.40149 9.63818 1.28418 9.7555 1.28418 9.90021V10.8014C1.28418 10.9461 1.40149 11.0634 1.5462 11.0634H3.03486C3.17957 11.0634 3.29688 10.9461 3.29688 10.8014V9.90021C3.29688 9.7555 3.17957 9.63818 3.03486 9.63818Z" fill="#202020"/>
<path d="M6.17402 9.63818H4.68536C4.54065 9.63818 4.42334 9.7555 4.42334 9.90021V10.8014C4.42334 10.9461 4.54065 11.0634 4.68536 11.0634H6.17402C6.31873 11.0634 6.43604 10.9461 6.43604 10.8014V9.90021C6.43604 9.7555 6.31873 9.63818 6.17402 9.63818Z" fill="#202020"/>
<path d="M9.31318 9.63818H7.82452C7.67981 9.63818 7.5625 9.7555 7.5625 9.90021V10.8014C7.5625 10.9461 7.67981 11.0634 7.82452 11.0634H9.31318C9.45789 11.0634 9.5752 10.9461 9.5752 10.8014V9.90021C9.5752 9.7555 9.45789 9.63818 9.31318 9.63818Z" fill="#202020"/>
<path d="M12.4527 9.63818H10.964C10.8193 9.63818 10.702 9.7555 10.702 9.90021V10.8014C10.702 10.9461 10.8193 11.0634 10.964 11.0634H12.4527C12.5974 11.0634 12.7147 10.9461 12.7147 10.8014V9.90021C12.7147 9.7555 12.5974 9.63818 12.4527 9.63818Z" fill="#202020"/>
<path d="M3.0926 12.3569H1.60394C1.45923 12.3569 1.34192 12.4742 1.34192 12.619V13.5202C1.34192 13.6649 1.45923 13.7822 1.60394 13.7822H3.0926C3.23731 13.7822 3.35462 13.6649 3.35462 13.5202V12.619C3.35462 12.4742 3.23731 12.3569 3.0926 12.3569Z" fill="#202020"/>
<path d="M6.23176 12.3569H4.7431C4.59839 12.3569 4.48108 12.4742 4.48108 12.619V13.5202C4.48108 13.6649 4.59839 13.7822 4.7431 13.7822H6.23176C6.37647 13.7822 6.49378 13.6649 6.49378 13.5202V12.619C6.49378 12.4742 6.37647 12.3569 6.23176 12.3569Z" fill="#202020"/>
<path d="M9.36262 12.3569H7.87396C7.72925 12.3569 7.61194 12.4742 7.61194 12.619V13.5202C7.61194 13.6649 7.72925 13.7822 7.87396 13.7822H9.36262C9.50733 13.7822 9.62464 13.6649 9.62464 13.5202V12.619C9.62464 12.4742 9.50733 12.3569 9.36262 12.3569Z" fill="#202020"/>
<path d="M3.03486 15.0757H1.5462C1.40149 15.0757 1.28418 15.193 1.28418 15.3377V16.2389C1.28418 16.3836 1.40149 16.5009 1.5462 16.5009H3.03486C3.17957 16.5009 3.29688 16.3836 3.29688 16.2389V15.3377C3.29688 15.193 3.17957 15.0757 3.03486 15.0757Z" fill="#202020"/>
<path d="M6.17402 15.0757H4.68536C4.54065 15.0757 4.42334 15.193 4.42334 15.3377V16.2389C4.42334 16.3836 4.54065 16.5009 4.68536 16.5009H6.17402C6.31873 16.5009 6.43604 16.3836 6.43604 16.2389V15.3377C6.43604 15.193 6.31873 15.0757 6.17402 15.0757Z" fill="#202020"/>
<path d="M9.31318 15.0757H7.82452C7.67981 15.0757 7.5625 15.193 7.5625 15.3377V16.2389C7.5625 16.3836 7.67981 16.5009 7.82452 16.5009H9.31318C9.45789 16.5009 9.5752 16.3836 9.5752 16.2389V15.3377C9.5752 15.193 9.45789 15.0757 9.31318 15.0757Z" fill="#202020"/>
<path d="M12.4527 12.3569H10.964C10.8193 12.3569 10.702 12.4742 10.702 12.619V16.2387C10.702 16.3834 10.8193 16.5007 10.964 16.5007H12.4527C12.5974 16.5007 12.7147 16.3834 12.7147 16.2387V12.619C12.7147 12.4742 12.5974 12.3569 12.4527 12.3569Z" fill="#202020"/>
<path d="M11.2518 7.50585H11.6154V7.1416H11.8626V7.50585H12.2281V7.75298H11.8626V8.11528H11.6154V7.75298H11.2518V7.50585Z" fill="white"/>
<path d="M12.2275 10.2197V10.4766H11.2518V10.2197H12.2275Z" fill="white"/>
<path d="M11.2518 14.1543H12.254V14.3678H11.2518V14.1543ZM11.2518 14.4881H12.254V14.7016H11.2518V14.4881Z" fill="white"/>
</svg>
