<svg width="1360" height="573" viewBox="0 0 1360 573" fill="none" xmlns="http://www.w3.org/2000/svg">
<path d="M1268.17 0H94.1135V375.824H1268.17V0Z" fill="black"/>
<path d="M95.4677 0.22172H32.1473V36.032H95.4677V0.22172Z" fill="#F3F3F5"/>
<path d="M158.66 0.22172H95.3398V36.032H158.66V0.22172Z" fill="#F3F3F5"/>
<path d="M221.884 0.22172H158.563V36.032H221.884V0.22172Z" fill="#F3F3F5"/>
<path d="M285.146 0.22172H221.826V36.032H285.146V0.22172Z" fill="#F3F3F5"/>
<path d="M348.338 0.22172H285.018V36.032H348.338V0.22172Z" fill="#F3F3F5"/>
<path d="M411.562 0.22172H348.242V36.032H411.562V0.22172Z" fill="#F3F3F5"/>
<path d="M474.762 0.22172H411.442V36.032H474.762V0.22172Z" fill="#F3F3F5"/>
<path d="M537.986 0.22172H474.665V36.032H537.986V0.22172Z" fill="#F3F3F5"/>
<path d="M601.178 0.22172H537.858V36.032H601.178V0.22172Z" fill="#F3F3F5"/>
<path d="M664.433 0.22172H601.112V36.032H664.433V0.22172Z" fill="#F3F3F5"/>
<path d="M727.633 0.22172H664.313V36.032H727.633V0.22172Z" fill="#F3F3F5"/>
<path d="M790.857 0.22172H727.536V36.032H790.857V0.22172Z" fill="#F3F3F5"/>
<path d="M854.049 0.22172H790.729V36.032H854.049V0.22172Z" fill="#F3F3F5"/>
<path d="M64.7329 35.921H1.41256V71.7313H64.7329V35.921Z" fill="#F3F3F5"/>
<path d="M127.925 35.921H64.605V71.7313H127.925V35.921Z" fill="#F3F3F5"/>
<path d="M191.149 35.921H127.829V71.7313H191.149V35.921Z" fill="#F3F3F5"/>
<path d="M254.411 35.921H191.091V71.7313H254.411V35.921Z" fill="#F3F3F5"/>
<path d="M317.604 35.921H254.283V71.7313H317.604V35.921Z" fill="#F3F3F5"/>
<path d="M380.827 35.921H317.507V71.7313H380.827V35.921Z" fill="#F3F3F5"/>
<path d="M444.027 35.921H380.707V71.7313H444.027V35.921Z" fill="#F3F3F5"/>
<path d="M507.251 35.921H443.931V71.7313H507.251V35.921Z" fill="#F3F3F5"/>
<path d="M570.443 35.921H507.123V71.7313H570.443V35.921Z" fill="#F3F3F5"/>
<path d="M633.698 35.921H570.378V71.7313H633.698V35.921Z" fill="#F3F3F5"/>
<path d="M696.898 35.921H633.578V71.7313H696.898V35.921Z" fill="#F3F3F5"/>
<path d="M760.122 35.921H696.801V71.7313H760.122V35.921Z" fill="#F3F3F5"/>
<path d="M823.314 35.921H759.994V71.7313H823.314V35.921Z" fill="#F3F3F5"/>
<path d="M95.1262 71.7688H31.8058V107.579H95.1262V71.7688Z" fill="#F3F3F5"/>
<path d="M158.381 71.7688H95.0603V107.579H158.381V71.7688Z" fill="#F3F3F5"/>
<path d="M221.581 71.7688H158.261V107.579H221.581V71.7688Z" fill="#F3F3F5"/>
<path d="M284.804 71.7688H221.484V107.579H284.804V71.7688Z" fill="#F3F3F5"/>
<path d="M347.997 71.7688H284.677V107.579H347.997V71.7688Z" fill="#F3F3F5"/>
<path d="M411.22 71.7687H347.9V107.579H411.22V71.7687Z" fill="#F3F3F5"/>
<path d="M474.444 71.7688H411.124V107.579H474.444V71.7688Z" fill="#F3F3F5"/>
<path d="M537.667 71.7688H474.347V107.579H537.667V71.7688Z" fill="#F3F3F5"/>
<path d="M600.875 71.7688H537.555V107.579H600.875V71.7688Z" fill="#F3F3F5"/>
<path d="M664.091 71.7688H600.771V107.579H664.091V71.7688Z" fill="#F3F3F5"/>
<path d="M727.291 71.7688H663.971V107.579H727.291V71.7688Z" fill="#F3F3F5"/>
<path d="M790.538 71.7688H727.218V107.579H790.538V71.7688Z" fill="#F3F3F5"/>
<path d="M853.762 71.7688H790.441V107.579H853.762V71.7688Z" fill="#F3F3F5"/>
<path d="M64.3604 107.505H1.04001V143.316H64.3604V107.505Z" fill="#F3F3F5"/>
<path d="M127.607 107.505H64.2868V143.316H127.607V107.505Z" fill="#F3F3F5"/>
<path d="M190.815 107.505H127.495V143.316H190.815V107.505Z" fill="#F3F3F5"/>
<path d="M254.039 107.505H190.718V143.316H254.039V107.505Z" fill="#F3F3F5"/>
<path d="M317.231 107.505H253.911V143.316H317.231V107.505Z" fill="#F3F3F5"/>
<path d="M380.455 107.505H317.134V143.316H380.455V107.505Z" fill="#F3F3F5"/>
<path d="M443.678 107.505H380.358V143.316H443.678V107.505Z" fill="#F3F3F5"/>
<path d="M506.902 107.505H443.581V143.316H506.902V107.505Z" fill="#F3F3F5"/>
<path d="M570.102 107.505H506.782V143.316H570.102V107.505Z" fill="#F3F3F5"/>
<path d="M633.325 107.505H570.005V143.316H633.325V107.505Z" fill="#F3F3F5"/>
<path d="M696.526 107.505H633.205V143.316H696.526V107.505Z" fill="#F3F3F5"/>
<path d="M759.772 107.505H696.452V143.316H759.772V107.505Z" fill="#F3F3F5"/>
<path d="M822.996 107.505H759.676V143.316H822.996V107.505Z" fill="#F3F3F5"/>
<path d="M94.7692 143.353H31.4488V179.163H94.7692V143.353Z" fill="#F3F3F5"/>
<path d="M157.962 143.353H94.6412V179.163H157.962V143.353Z" fill="#F3F3F5"/>
<path d="M221.185 143.353H157.865V179.163H221.185V143.353Z" fill="#F3F3F5"/>
<path d="M284.447 143.353H221.127V179.163H284.447V143.353Z" fill="#F3F3F5"/>
<path d="M347.64 143.353H284.32V179.163H347.64V143.353Z" fill="#F3F3F5"/>
<path d="M410.863 143.353H347.543V179.163H410.863V143.353Z" fill="#F3F3F5"/>
<path d="M474.064 143.353H410.743V179.163H474.064V143.353Z" fill="#F3F3F5"/>
<path d="M537.287 143.353H473.967V179.163H537.287V143.353Z" fill="#F3F3F5"/>
<path d="M600.48 143.353H537.159V179.163H600.48V143.353Z" fill="#F3F3F5"/>
<path d="M663.734 143.353H600.414V179.163H663.734V143.353Z" fill="#F3F3F5"/>
<path d="M726.934 143.353H663.614V179.163H726.934V143.353Z" fill="#F3F3F5"/>
<path d="M790.158 143.353H726.838V179.163H790.158V143.353Z" fill="#F3F3F5"/>
<path d="M853.35 143.353H790.03V179.163H853.35V143.353Z" fill="#F3F3F5"/>
<path d="M64.0111 179.053H0.690755V214.863H64.0111V179.053Z" fill="#F3F3F5"/>
<path d="M127.204 179.053H63.8832V214.863H127.204V179.053Z" fill="#F3F3F5"/>
<path d="M190.427 179.053H127.107V214.863H190.427V179.053Z" fill="#F3F3F5"/>
<path d="M253.689 179.053H190.369V214.863H253.689V179.053Z" fill="#F3F3F5"/>
<path d="M316.882 179.053H253.562V214.863H316.882V179.053Z" fill="#F3F3F5"/>
<path d="M380.105 179.053H316.785V214.863H380.105V179.053Z" fill="#F3F3F5"/>
<path d="M443.305 179.053H379.985V214.863H443.305V179.053Z" fill="#F3F3F5"/>
<path d="M506.529 179.053H443.209V214.863H506.529V179.053Z" fill="#F3F3F5"/>
<path d="M569.722 179.053H506.401V214.863H569.722V179.053Z" fill="#F3F3F5"/>
<path d="M632.976 179.053H569.656V214.863H632.976V179.053Z" fill="#F3F3F5"/>
<path d="M696.176 179.053H632.856V214.863H696.176V179.053Z" fill="#F3F3F5"/>
<path d="M759.4 179.053H696.08V214.863H759.4V179.053Z" fill="#F3F3F5"/>
<path d="M822.592 179.053H759.272V214.863H822.592V179.053Z" fill="#F3F3F5"/>
<path d="M94.4587 214.899H31.1383V250.71H94.4587V214.899Z" fill="#F3F3F5"/>
<path d="M157.651 214.899H94.3308V250.71H157.651V214.899Z" fill="#F3F3F5"/>
<path d="M220.912 214.899H157.554V250.71H220.912V214.899Z" fill="#F3F3F5"/>
<path d="M284.075 214.899H220.755V250.71H284.075V214.899Z" fill="#F3F3F5"/>
<path d="M347.298 214.899H283.978V250.71H347.298V214.899Z" fill="#F3F3F5"/>
<path d="M410.491 214.899H347.171V250.71H410.491V214.899Z" fill="#F3F3F5"/>
<path d="M473.753 214.899H410.433V250.71H473.753V214.899Z" fill="#F3F3F5"/>
<path d="M536.977 214.899H473.656V250.71H536.977V214.899Z" fill="#F3F3F5"/>
<path d="M600.169 214.899H536.849V250.71H600.169V214.899Z" fill="#F3F3F5"/>
<path d="M663.393 214.899H600.072V250.71H663.393V214.899Z" fill="#F3F3F5"/>
<path d="M726.585 214.899H663.265V250.71H726.585V214.899Z" fill="#F3F3F5"/>
<path d="M789.848 214.899H726.527V250.71H789.848V214.899Z" fill="#F3F3F5"/>
<path d="M853.04 214.899H789.72V250.71H853.04V214.899Z" fill="#F3F3F5"/>
<path d="M63.6929 250.637H0.372542V286.447H63.6929V250.637Z" fill="#F3F3F5"/>
<path d="M126.885 250.637H63.565V286.447H126.885V250.637Z" fill="#F3F3F5"/>
<path d="M190.109 250.637H126.789V286.447H190.109V250.637Z" fill="#F3F3F5"/>
<path d="M253.309 250.637H189.989V286.447H253.309V250.637Z" fill="#F3F3F5"/>
<path d="M316.533 250.637H253.212V286.447H316.533V250.637Z" fill="#F3F3F5"/>
<path d="M379.725 250.637H316.405V286.447H379.725V250.637Z" fill="#F3F3F5"/>
<path d="M442.987 250.637H379.667V286.447H442.987V250.637Z" fill="#F3F3F5"/>
<path d="M506.211 250.637H442.891V286.447H506.211V250.637Z" fill="#F3F3F5"/>
<path d="M569.403 250.637H506.083V286.447H569.403V250.637Z" fill="#F3F3F5"/>
<path d="M632.627 250.637H569.307V286.447H632.627V250.637Z" fill="#F3F3F5"/>
<path d="M695.819 250.637H632.499V286.447H695.819V250.637Z" fill="#F3F3F5"/>
<path d="M759.082 250.637H695.761V286.447H759.082V250.637Z" fill="#F3F3F5"/>
<path d="M822.274 250.637H758.954V286.447H822.274V250.637Z" fill="#F3F3F5"/>
<path d="M94.0862 286.483H30.7658V322.294H94.0862V286.483Z" fill="#F3F3F5"/>
<path d="M157.279 286.483H93.9582V322.294H157.279V286.483Z" fill="#F3F3F5"/>
<path d="M220.502 286.483H157.182V322.294H220.502V286.483Z" fill="#F3F3F5"/>
<path d="M283.764 286.483H220.444V322.294H283.764V286.483Z" fill="#F3F3F5"/>
<path d="M346.957 286.483H283.637V322.294H346.957V286.483Z" fill="#F3F3F5"/>
<path d="M410.18 286.483H346.86V322.294H410.18V286.483Z" fill="#F3F3F5"/>
<path d="M473.381 286.483H410.06V322.294H473.381V286.483Z" fill="#F3F3F5"/>
<path d="M536.604 286.483H473.284V322.294H536.604V286.483Z" fill="#F3F3F5"/>
<path d="M599.828 286.483H536.507V322.294H599.828V286.483Z" fill="#F3F3F5"/>
<path d="M663.051 286.483H599.731V322.294H663.051V286.483Z" fill="#F3F3F5"/>
<path d="M726.251 286.483H662.931V322.294H726.251V286.483Z" fill="#F3F3F5"/>
<path d="M789.475 286.483H726.155V322.294H789.475V286.483Z" fill="#F3F3F5"/>
<path d="M852.667 286.483H789.347V322.294H852.667V286.483Z" fill="#F3F3F5"/>
<path d="M63.3204 322.184H0V357.994H63.3204V322.184Z" fill="#F3F3F5"/>
<path d="M126.513 322.184H63.1925V357.994H126.513V322.184Z" fill="#F3F3F5"/>
<path d="M189.736 322.184H126.416V357.994H189.736V322.184Z" fill="#F3F3F5"/>
<path d="M252.999 322.184H189.678V357.994H252.999V322.184Z" fill="#F3F3F5"/>
<path d="M316.191 322.184H252.871V357.994H316.191V322.184Z" fill="#F3F3F5"/>
<path d="M379.415 322.184H316.094V357.994H379.415V322.184Z" fill="#F3F3F5"/>
<path d="M442.615 322.184H379.294V357.994H442.615V322.184Z" fill="#F3F3F5"/>
<path d="M505.838 322.184H442.518V357.994H505.838V322.184Z" fill="#F3F3F5"/>
<path d="M569.062 322.184H505.742V357.994H569.062V322.184Z" fill="#F3F3F5"/>
<path d="M632.285 322.184H568.965V357.994H632.285V322.184Z" fill="#F3F3F5"/>
<path d="M695.486 322.184H632.165V357.994H695.486V322.184Z" fill="#F3F3F5"/>
<path d="M758.709 322.184H695.389V357.994H758.709V322.184Z" fill="#F3F3F5"/>
<path d="M821.902 322.184H758.581V357.994H821.902V322.184Z" fill="#F3F3F5"/>
<path d="M917.482 0.22172H854.162V36.032H917.482V0.22172Z" fill="#F3F3F5"/>
<path d="M980.674 0.22172H917.354V36.032H980.674V0.22172Z" fill="#F3F3F5"/>
<path d="M1043.9 0.22172H980.578V36.032H1043.9V0.22172Z" fill="#F3F3F5"/>
<path d="M1107.1 0.22172H1043.78V36.032H1107.1V0.22172Z" fill="#F3F3F5"/>
<path d="M1170.35 0.22172H1107.03V36.032H1170.35V0.22172Z" fill="#F3F3F5"/>
<path d="M1233.58 0.22172H1170.26V36.032H1233.58V0.22172Z" fill="#F3F3F5"/>
<path d="M1296.78 0.22172H1233.46V36.032H1296.78V0.22172Z" fill="#F3F3F5"/>
<path d="M1360 0.22172H1296.68V36.032H1360V0.22172Z" fill="#F3F3F5"/>
<path d="M886.74 35.921H823.419V71.7313H886.74V35.921Z" fill="#F3F3F5"/>
<path d="M949.932 35.921H886.612V71.7313H949.932V35.921Z" fill="#F3F3F5"/>
<path d="M1013.16 35.921H949.835V71.7313H1013.16V35.921Z" fill="#F3F3F5"/>
<path d="M1076.36 35.921H1013.04V71.7313H1076.36V35.921Z" fill="#F3F3F5"/>
<path d="M1139.58 35.921H1076.26V71.7313H1139.58V35.921Z" fill="#F3F3F5"/>
<path d="M1202.83 35.921H1139.51V71.7313H1202.83V35.921Z" fill="#F3F3F5"/>
<path d="M1266.03 35.921H1202.71V71.7313H1266.03V35.921Z" fill="#F3F3F5"/>
<path d="M1329.26 35.921H1265.94V71.7313H1329.26V35.921Z" fill="#F3F3F5"/>
<path d="M917.141 71.7688H853.82V107.579H917.141V71.7688Z" fill="#F3F3F5"/>
<path d="M980.333 71.7688H917.013V107.579H980.333V71.7688Z" fill="#F3F3F5"/>
<path d="M1043.6 71.7688H980.275V107.579H1043.6V71.7688Z" fill="#F3F3F5"/>
<path d="M1106.82 71.7688H1043.5V107.579H1106.82V71.7688Z" fill="#F3F3F5"/>
<path d="M1170.01 71.7688H1106.69V107.579H1170.01V71.7688Z" fill="#F3F3F5"/>
<path d="M1233.23 71.7688H1169.91V107.579H1233.23V71.7688Z" fill="#F3F3F5"/>
<path d="M1296.43 71.7688H1233.11V107.579H1296.43V71.7688Z" fill="#F3F3F5"/>
<path d="M1359.68 71.7688H1296.36V107.579H1359.68V71.7688Z" fill="#F3F3F5"/>
<path d="M886.367 107.505H823.047V143.316H886.367V107.505Z" fill="#F3F3F5"/>
<path d="M949.559 107.505H886.239V143.316H949.559V107.505Z" fill="#F3F3F5"/>
<path d="M1012.82 107.505H949.501V143.316H1012.82V107.505Z" fill="#F3F3F5"/>
<path d="M1076.05 107.505H1012.72V143.316H1076.05V107.505Z" fill="#F3F3F5"/>
<path d="M1139.24 107.505H1075.92V143.316H1139.24V107.505Z" fill="#F3F3F5"/>
<path d="M1202.46 107.505H1139.14V143.316H1202.46V107.505Z" fill="#F3F3F5"/>
<path d="M1265.66 107.505H1202.34V143.316H1265.66V107.505Z" fill="#F3F3F5"/>
<path d="M1328.91 107.505H1265.59V143.316H1328.91V107.505Z" fill="#F3F3F5"/>
<path d="M916.784 143.353H853.463V179.164H916.784V143.353Z" fill="#F3F3F5"/>
<path d="M979.976 143.353H916.656V179.164H979.976V143.353Z" fill="#F3F3F5"/>
<path d="M1043.2 143.353H979.879V179.164H1043.2V143.353Z" fill="#F3F3F5"/>
<path d="M1106.4 143.353H1043.08V179.164H1106.4V143.353Z" fill="#F3F3F5"/>
<path d="M1169.65 143.353H1106.33V179.164H1169.65V143.353Z" fill="#F3F3F5"/>
<path d="M1232.88 143.353H1169.56V179.164H1232.88V143.353Z" fill="#F3F3F5"/>
<path d="M1296.08 143.353H1232.76V179.164H1296.08V143.353Z" fill="#F3F3F5"/>
<path d="M1359.3 143.353H1295.98V179.164H1359.3V143.353Z" fill="#F3F3F5"/>
<path d="M886.026 179.053H822.705V214.863H886.026V179.053Z" fill="#F3F3F5"/>
<path d="M949.218 179.053H885.898V214.863H949.218V179.053Z" fill="#F3F3F5"/>
<path d="M1012.44 179.053H949.121V214.863H1012.44V179.053Z" fill="#F3F3F5"/>
<path d="M1075.64 179.053H1012.32V214.863H1075.64V179.053Z" fill="#F3F3F5"/>
<path d="M1138.9 179.053H1075.58V214.863H1138.9V179.053Z" fill="#F3F3F5"/>
<path d="M1202.12 179.053H1138.8V214.863H1202.12V179.053Z" fill="#F3F3F5"/>
<path d="M1265.32 179.053H1202V214.863H1265.32V179.053Z" fill="#F3F3F5"/>
<path d="M1328.54 179.053H1265.22V214.863H1328.54V179.053Z" fill="#F3F3F5"/>
<path d="M916.419 214.899H853.098V250.71H916.419V214.899Z" fill="#F3F3F5"/>
<path d="M979.666 214.899H916.345V250.71H979.666V214.899Z" fill="#F3F3F5"/>
<path d="M1042.87 214.899H979.553V250.71H1042.87V214.899Z" fill="#F3F3F5"/>
<path d="M1106.1 214.899H1042.78V250.71H1106.1V214.899Z" fill="#F3F3F5"/>
<path d="M1169.29 214.899H1105.97V250.71H1169.29V214.899Z" fill="#F3F3F5"/>
<path d="M1232.51 214.899H1169.19V250.71H1232.51V214.899Z" fill="#F3F3F5"/>
<path d="M1295.71 214.899H1232.39V250.71H1295.71V214.899Z" fill="#F3F3F5"/>
<path d="M1358.96 214.899H1295.64V250.71H1358.96V214.899Z" fill="#F3F3F5"/>
<path d="M885.668 250.637H822.348V286.447H885.668V250.637Z" fill="#F3F3F5"/>
<path d="M948.915 250.637H885.595V286.447H948.915V250.637Z" fill="#F3F3F5"/>
<path d="M1012.12 250.637H948.803V286.447H1012.12V250.637Z" fill="#F3F3F5"/>
<path d="M1075.35 250.637H1012.03V286.447H1075.35V250.637Z" fill="#F3F3F5"/>
<path d="M1138.54 250.637H1075.22V286.447H1138.54V250.637Z" fill="#F3F3F5"/>
<path d="M1201.76 250.637H1138.44V286.447H1201.76V250.637Z" fill="#F3F3F5"/>
<path d="M1264.96 250.637H1201.64V286.447H1264.96V250.637Z" fill="#F3F3F5"/>
<path d="M1328.21 250.637H1264.89V286.447H1328.21V250.637Z" fill="#F3F3F5"/>
<path d="M916.093 286.483H852.772V322.294H916.093V286.483Z" fill="#F3F3F5"/>
<path d="M979.285 286.483H915.965V322.294H979.285V286.483Z" fill="#F3F3F5"/>
<path d="M1042.51 286.483H979.188V322.294H1042.51V286.483Z" fill="#F3F3F5"/>
<path d="M1105.71 286.483H1042.39V322.294H1105.71V286.483Z" fill="#F3F3F5"/>
<path d="M1168.96 286.483H1105.64V322.294H1168.96V286.483Z" fill="#F3F3F5"/>
<path d="M1232.19 286.483H1168.87V322.294H1232.19V286.483Z" fill="#F3F3F5"/>
<path d="M1295.39 286.483H1232.07V322.294H1295.39V286.483Z" fill="#F3F3F5"/>
<path d="M1358.61 286.483H1295.29V322.294H1358.61V286.483Z" fill="#F3F3F5"/>
<path d="M885.335 322.184H822.014V357.994H885.335V322.184Z" fill="#F3F3F5"/>
<path d="M948.527 322.184H885.207V357.994H948.527V322.184Z" fill="#F3F3F5"/>
<path d="M1011.75 322.184H948.43V357.994H1011.75V322.184Z" fill="#F3F3F5"/>
<path d="M1074.95 322.184H1011.63V357.994H1074.95V322.184Z" fill="#F3F3F5"/>
<path d="M1138.21 322.184H1074.89V357.994H1138.21V322.184Z" fill="#F3F3F5"/>
<path d="M1201.43 322.184H1138.11V357.994H1201.43V322.184Z" fill="#F3F3F5"/>
<path d="M1264.63 322.184H1201.31V357.994H1264.63V322.184Z" fill="#F3F3F5"/>
<path d="M1327.85 322.184H1264.53V357.994H1327.85V322.184Z" fill="#F3F3F5"/>
<path d="M592.23 10.8686L532.557 141.068H841.828L782.155 16.2844L592.23 10.8686Z" fill="white"/>
<path d="M793.678 0H580.731V16.2841H793.678V0Z" fill="#303030"/>
<path d="M846.293 140.368H528.071V160.521H846.293V140.368Z" fill="#303030"/>
<path d="M1243.7 63.7733H1230.55V221.604H1243.7V63.7733Z" fill="#DBDBDC"/>
<path d="M1152.1 62.8171H1071.32V215.011H1152.1V62.8171Z" fill="white"/>
<path d="M1129.74 191.322C1129.74 194.822 1127.24 197.621 1124.14 197.621C1121.05 197.621 1118.54 194.785 1118.54 191.322C1118.54 187.858 1121.05 185.022 1124.14 185.022C1127.24 185.022 1129.74 187.858 1129.74 191.322Z" fill="#303030"/>
<path d="M1132.15 189.996C1132.15 193.496 1129.65 196.296 1126.56 196.296C1123.46 196.296 1120.96 193.459 1120.96 189.996C1120.96 186.532 1123.46 183.696 1126.56 183.696C1129.65 183.696 1132.15 186.532 1132.15 189.996Z" fill="#303030"/>
<path d="M1152.12 215.048H1232.91V62.854H1152.12V215.048Z" fill="white"/>
<path d="M1178.16 197.62C1181.25 197.62 1183.76 194.799 1183.76 191.32C1183.76 187.841 1181.25 185.02 1178.16 185.02C1175.07 185.02 1172.56 187.841 1172.56 191.32C1172.56 194.799 1175.07 197.62 1178.16 197.62Z" fill="#303030"/>
<path d="M1170.17 189.994C1170.17 193.494 1172.68 196.294 1175.77 196.294C1178.86 196.294 1181.37 193.457 1181.37 189.994C1181.37 186.531 1178.86 183.694 1175.77 183.694C1172.68 183.694 1170.17 186.531 1170.17 189.994Z" fill="#303030"/>
<path d="M980.641 62.8171H899.86V215.011H980.641V62.8171Z" fill="white"/>
<path d="M958.278 191.322C958.278 194.822 955.773 197.621 952.679 197.621C949.585 197.621 947.08 194.785 947.08 191.322C947.08 187.858 949.585 185.022 952.679 185.022C955.773 185.022 958.278 187.858 958.278 191.322Z" fill="#303030"/>
<path d="M960.692 189.996C960.692 193.496 958.187 196.296 955.093 196.296C951.998 196.296 949.494 193.459 949.494 189.996C949.494 186.532 951.998 183.696 955.093 183.696C958.187 183.696 960.692 186.532 960.692 189.996Z" fill="#303030"/>
<path d="M980.67 215.048H1061.45V62.854H980.67V215.048Z" fill="white"/>
<path d="M1001.13 191.32C1001.13 194.82 1003.63 197.62 1006.73 197.62C1009.82 197.62 1012.33 194.783 1012.33 191.32C1012.33 187.857 1009.82 185.02 1006.73 185.02C1003.63 185.02 1001.13 187.857 1001.13 191.32Z" fill="#303030"/>
<path d="M998.716 189.994C998.716 193.494 1001.22 196.294 1004.31 196.294C1007.41 196.294 1009.91 193.457 1009.91 189.994C1009.91 186.531 1007.41 183.694 1004.31 183.694C1001.22 183.694 998.716 186.531 998.716 189.994Z" fill="#303030"/>
<path d="M1252.46 55.0797H882.886V67.2375H1252.46V55.0797Z" fill="#DBDBDC"/>
<path d="M905.505 63.7738H892.355V221.604H905.505V63.7738Z" fill="#DBDBDC"/>
<path d="M1074.57 57.1795H1061.42V215.01H1074.57V57.1795Z" fill="#DBDBDC"/>
<path d="M483.26 63.7733H470.109V221.604H483.26V63.7733Z" fill="#DBDBDC"/>
<path d="M391.721 62.8171H310.941V215.011H391.721V62.8171Z" fill="white"/>
<path d="M369.335 191.322C369.335 194.822 366.83 197.621 363.736 197.621C360.642 197.621 358.137 194.785 358.137 191.322C358.137 187.858 360.642 185.022 363.736 185.022C366.83 185.022 369.335 187.858 369.335 191.322Z" fill="#303030"/>
<path d="M371.749 189.996C371.749 193.496 369.244 196.296 366.15 196.296C363.056 196.296 360.551 193.459 360.551 189.996C360.551 186.532 363.056 183.696 366.15 183.696C369.244 183.696 371.749 186.532 371.749 189.996Z" fill="#303030"/>
<path d="M391.743 215.048H472.523V62.854H391.743V215.048Z" fill="white"/>
<path d="M412.164 191.32C412.164 194.82 414.668 197.62 417.763 197.62C420.857 197.62 423.362 194.783 423.362 191.32C423.362 187.857 420.857 185.02 417.763 185.02C414.668 185.02 412.164 187.857 412.164 191.32Z" fill="#303030"/>
<path d="M409.75 189.994C409.75 193.494 412.255 196.294 415.349 196.294C418.443 196.294 420.948 193.457 420.948 189.994C420.948 186.531 418.443 183.694 415.349 183.694C412.255 183.694 409.75 186.531 409.75 189.994Z" fill="#303030"/>
<path d="M220.259 62.8169H139.478V215.011H220.259V62.8169Z" fill="white"/>
<path d="M197.904 191.321C197.904 194.821 195.399 197.621 192.305 197.621C189.211 197.621 186.706 194.784 186.706 191.321C186.706 187.858 189.211 185.021 192.305 185.021C195.399 185.021 197.904 187.858 197.904 191.321Z" fill="#303030"/>
<path d="M200.318 189.995C200.318 193.495 197.813 196.295 194.719 196.295C191.624 196.295 189.12 193.458 189.12 189.995C189.12 186.532 191.624 183.695 194.719 183.695C197.813 183.695 200.318 186.532 200.318 189.995Z" fill="#303030"/>
<path d="M220.257 215.048H301.038V62.8539H220.257V215.048Z" fill="white"/>
<path d="M240.748 191.32C240.748 194.82 243.253 197.62 246.347 197.62C249.441 197.62 251.946 194.783 251.946 191.32C251.946 187.857 249.441 185.02 246.347 185.02C243.253 185.02 240.748 187.857 240.748 191.32Z" fill="#303030"/>
<path d="M238.334 189.994C238.334 193.494 240.839 196.294 243.933 196.294C247.027 196.294 249.532 193.457 249.532 189.994C249.532 186.531 247.027 183.694 243.933 183.694C240.839 183.694 238.334 186.531 238.334 189.994Z" fill="#303030"/>
<path d="M492.076 55.0797H122.504V67.2375H492.076V55.0797Z" fill="#DBDBDC"/>
<path d="M145.123 63.7738H131.973V221.604H145.123V63.7738Z" fill="#DBDBDC"/>
<path d="M314.188 57.1795H301.037V215.01H314.188V57.1795Z" fill="#DBDBDC"/>
<path d="M946.414 375.123H929.174V572.669H946.414V375.123Z" fill="#DBDBDC"/>
<path d="M397.075 422.391H136.242V572.964H397.075V422.391Z" fill="white"/>
<path d="M397.075 388.57H136.242V422.391H397.075V388.57Z" fill="white"/>
<path d="M271.588 453.779C271.588 457.389 268.789 460.3 265.326 460.3C261.864 460.3 259.064 457.389 259.064 453.779C259.064 450.168 261.864 447.258 265.326 447.258C268.789 447.258 271.588 450.168 271.588 453.779Z" fill="#303030"/>
<path d="M274.32 452.379C274.32 455.99 271.521 458.9 268.058 458.9C264.596 458.9 261.796 455.99 261.796 452.379C261.796 448.769 264.596 445.858 268.058 445.858C271.521 445.858 274.32 448.769 274.32 452.379Z" fill="#303030"/>
<path d="M271.588 405.884C271.588 409.495 268.789 412.405 265.326 412.405C261.864 412.405 259.064 409.495 259.064 405.884C259.064 402.274 261.864 399.363 265.326 399.363C268.789 399.363 271.588 402.274 271.588 405.884Z" fill="#303030"/>
<path d="M274.32 404.484C274.32 408.095 271.521 411.005 268.058 411.005C264.596 411.005 261.796 408.095 261.796 404.484C261.796 400.874 264.596 397.963 268.058 397.963C271.521 397.963 274.32 400.874 274.32 404.484Z" fill="#303030"/>
<path d="M143.113 375.454H125.027V573H143.113V375.454Z" fill="#DBDBDC"/>
<path d="M405.352 375.454H396.695V573H405.352V375.454Z" fill="#DBDBDC"/>
<path d="M1219.6 375.454H1201.51V573H1219.6V375.454Z" fill="#DBDBDC"/>
<path d="M665.515 422.391H404.682V572.964H665.515V422.391Z" fill="white"/>
<path d="M665.515 388.57H404.682V422.391H665.515V388.57Z" fill="white"/>
<path d="M540.028 453.779C540.028 457.389 537.229 460.3 533.766 460.3C530.304 460.3 527.504 457.389 527.504 453.779C527.504 450.168 530.304 447.258 533.766 447.258C537.229 447.258 540.028 450.168 540.028 453.779Z" fill="#303030"/>
<path d="M542.76 452.379C542.76 455.99 539.961 458.9 536.498 458.9C533.036 458.9 530.236 455.99 530.236 452.379C530.236 448.769 533.036 445.858 536.498 445.858C539.961 445.858 542.76 448.769 542.76 452.379Z" fill="#303030"/>
<path d="M540.028 405.884C540.028 409.495 537.229 412.405 533.766 412.405C530.304 412.405 527.504 409.495 527.504 405.884C527.504 402.274 530.304 399.363 533.766 399.363C537.229 399.363 540.028 402.274 540.028 405.884Z" fill="#303030"/>
<path d="M542.76 404.484C542.76 408.095 539.961 411.005 536.498 411.005C533.036 411.005 530.236 408.095 530.236 404.484C530.236 400.874 533.036 397.963 536.498 397.963C539.961 397.963 542.76 400.874 542.76 404.484Z" fill="#303030"/>
<path d="M673.753 375.454H665.096V573H673.753V375.454Z" fill="#DBDBDC"/>
<path d="M933.815 422.391H672.982V572.964H933.815V422.391Z" fill="white"/>
<path d="M933.815 388.57H672.982L672.982 422.391H933.815L933.815 388.57Z" fill="white"/>
<path d="M808.266 453.779C808.266 457.389 805.467 460.3 802.004 460.3C798.542 460.3 795.742 457.389 795.742 453.779C795.742 450.168 798.542 447.258 802.004 447.258C805.467 447.258 808.266 450.168 808.266 453.779Z" fill="#303030"/>
<path d="M810.998 452.379C810.998 455.99 808.199 458.9 804.736 458.9C801.274 458.9 798.474 455.99 798.474 452.379C798.474 448.769 801.274 445.858 804.736 445.858C808.199 445.858 810.998 448.769 810.998 452.379Z" fill="#303030"/>
<path d="M808.266 405.884C808.266 409.495 805.467 412.405 802.004 412.405C798.542 412.405 795.742 409.495 795.742 405.884C795.742 402.274 798.542 399.363 802.004 399.363C805.467 399.363 808.266 402.274 808.266 405.884Z" fill="#303030"/>
<path d="M810.998 404.484C810.998 408.095 808.199 411.005 804.736 411.005C801.274 411.005 798.474 408.095 798.474 404.484C798.474 400.874 801.274 397.963 804.736 397.963C808.199 397.963 810.998 400.874 810.998 404.484Z" fill="#303030"/>
<path d="M1202.12 422.391H941.29V572.964H1202.12V422.391Z" fill="white"/>
<path d="M1202.12 388.57H941.29V422.391H1202.12V388.57Z" fill="white"/>
<path d="M1076.58 453.779C1076.58 457.389 1073.78 460.3 1070.32 460.3C1066.86 460.3 1064.06 457.389 1064.06 453.779C1064.06 450.168 1066.86 447.258 1070.32 447.258C1073.78 447.258 1076.58 450.168 1076.58 453.779Z" fill="#303030"/>
<path d="M1079.31 452.379C1079.31 455.99 1076.51 458.9 1073.05 458.9C1069.59 458.9 1066.79 455.99 1066.79 452.379C1066.79 448.769 1069.59 445.858 1073.05 445.858C1076.51 445.858 1079.31 448.769 1079.31 452.379Z" fill="#303030"/>
<path d="M1076.58 405.884C1076.58 409.495 1073.78 412.405 1070.32 412.405C1066.86 412.405 1064.06 409.495 1064.06 405.884C1064.06 402.274 1066.86 399.363 1070.32 399.363C1073.78 399.363 1076.58 402.274 1076.58 405.884Z" fill="#303030"/>
<path d="M1079.31 404.484C1079.31 408.095 1076.51 411.005 1073.05 411.005C1069.59 411.005 1066.79 408.095 1066.79 404.484C1066.79 400.874 1069.59 397.963 1073.05 397.963C1076.51 397.963 1079.31 400.874 1079.31 404.484Z" fill="#303030"/>
<path d="M161.156 359.208L124.468 372.913L1224.97 373.392L1182.83 359.208H161.156Z" fill="#303030"/>
<path d="M124.468 372.913L124.799 390.193H1223.75L1224.97 373.392L124.468 372.913Z" fill="#303030"/>
<path d="M530.705 359.356L519.875 370.224H855.152L846.791 359.356H530.705Z" fill="#303030"/>
<path d="M960.035 350.808C984.42 350.219 1008.81 350.734 1033.15 350.145C1033.89 350.145 1033.89 349.003 1033.15 349.04C1008.77 349.629 984.383 349.113 960.035 349.703C959.298 349.703 959.298 350.845 960.035 350.808Z" fill="white"/>
<path d="M800.901 337.546H768.523C765.907 337.546 761.45 341.156 758.872 340.788C757.435 340.567 754.599 337.546 754.599 337.546C752.683 337.546 751.099 336.256 751.099 334.709C751.099 333.161 752.683 331.872 754.599 331.872H800.901C802.816 331.872 804.4 333.161 804.4 334.709C804.4 336.256 802.816 337.546 800.901 337.546Z" fill="#3C3C3C"/>
<path d="M707.712 324.761V353.35C707.712 359.576 712.795 364.661 719.02 364.661H747.568C753.793 364.661 758.876 359.576 758.876 353.35V324.761H707.675H707.712Z" fill="#3C3C3C"/>
<path d="M335.553 512.214H1007.07L1041.25 543.235H292.787L335.553 512.214Z" fill="#303030"/>
<path d="M1041.51 543.234L292.787 543.235V563.019H1041.51V543.234Z" fill="#303030"/>
</svg>
