<svg width="246" height="146" viewBox="0 0 246 146" fill="none" xmlns="http://www.w3.org/2000/svg">
<g style="mix-blend-mode:multiply">
<path d="M124.59 0H123.291V19.6808H124.59V0Z" fill="#797979"/>
<path d="M124.582 19.6809H123.283L111.469 28.376H137.114L124.582 19.6809Z" fill="#797979"/>
<path d="M242.696 12.683H0V15.283H242.696V12.683Z" fill="#797979"/>
<path d="M103.308 0H90.0637V13.9872H103.308V0Z" fill="#797979"/>
<path d="M25.5204 0H20.9519V13.9872H25.5204V0Z" fill="#797979"/>
<path d="M37.924 0H33.3555V13.9872H37.924V0Z" fill="#797979"/>
<path d="M110.563 144.414L105.203 119.026L106.344 95.1524H106.403V91.2031L100.298 76.426C98.3207 71.1207 94.7015 67.2372 89.9682 64.1173L88.6234 63.2352C87.9312 62.7811 87.1401 62.5375 86.3425 62.4915C85.6437 61.774 84.8065 60.8261 84.1604 59.8454C85.1097 60.655 86.059 59.2003 86.059 59.2003C85.1361 58.8515 85.057 57.9431 85.057 57.9431C85.6437 57.7786 85.7492 57.0019 85.7492 57.0019C85.169 57.0414 85.0767 55.9882 85.0636 55.613C85.0701 55.5406 85.0833 55.4616 85.0899 55.3827L85.1822 55.3629L85.2416 54.7573L85.1427 54.7705C85.3009 52.5721 84.9977 50.2419 83.3891 49.0045C83.5012 47.9842 81.8993 47.9711 81.8993 47.9711C80.3303 46.8784 79.025 47.7078 79.025 47.7078C77.5549 47.3129 76.1244 48.5832 76.1244 48.5832C75.5706 48.5437 74.0939 48.8004 74.0939 48.8004C69.275 49.9721 71.5955 54.3295 73.2831 54.2242C73.3029 55.0338 73.5006 55.9751 73.9291 57.0809C73.9687 57.173 74.0082 57.2718 74.0412 57.3705L73.382 57.6206L73.6325 58.2854L73.7248 58.2525C73.7907 58.4631 74.2324 59.8981 74.5158 60.3062C74.5422 60.3456 74.5686 60.372 74.5884 60.3917H74.6015C74.6015 60.3917 74.6477 60.4246 74.6675 60.4181C74.7136 60.3983 74.7334 60.3456 74.74 60.2864C74.7532 60.5694 74.74 60.8196 74.6807 60.9841C74.6807 60.9841 74.239 61.0236 74.1005 61.2408C73.9687 61.458 74.9378 62.2677 76.0584 61.9122C76.2892 62.3598 76.5265 62.7745 76.7572 63.1563C76.81 63.2484 76.8627 63.334 76.9221 63.413C77.2187 63.8803 77.5154 64.2621 77.7988 64.5451C77.845 64.5978 77.8779 64.6307 77.8779 64.6307C78.1812 64.9137 78.4713 65.0783 78.7349 65.0651C79.3744 65.0388 80.1061 64.7755 80.8181 64.374C81.095 64.7623 81.3719 65.1638 81.6421 65.5456L76.276 73.6154L64.0868 75.3597C63.8099 74.5961 63.3089 73.4706 62.709 73.3455C62.4189 73.2797 62.0366 73.2139 61.6476 73.1678C61.3576 72.0949 61.028 71.1866 60.7313 70.6797C59.5842 68.7314 54.1522 68.863 54.1522 68.863V65.0256H63.5528V65.9932H66.2557V63.7487H65.7547L65.7415 63.7092C65.7415 63.7092 65.7283 63.6499 65.7151 63.6104C65.6953 63.538 65.669 63.4525 65.6426 63.3669C65.6294 63.334 65.6228 63.3011 65.6096 63.2616L65.5964 63.2221C65.1482 61.8069 63.9484 59.2201 61.1071 58.8317H61.1334V57.7786H58.3119V56.8768C58.8657 56.6267 59.2546 56.0804 59.2546 55.4353C59.2546 54.5599 58.5427 53.849 57.6659 53.849C56.7891 53.849 56.0771 54.5599 56.0771 55.4353C56.0771 56.054 56.4397 56.5872 56.9605 56.8505V57.7852H54.139V58.7857H25.8184V58.891C25.8184 57.489 24.7636 56.3502 23.4122 56.1857V56.0606C23.4122 55.4287 22.898 54.9153 22.2651 54.9153H17.8615C17.2286 54.9153 16.7144 55.4287 16.7144 56.0606V56.1462H15.7585C14.2423 56.1462 13.0095 57.3771 13.0095 58.891V66.1972C13.0095 67.7111 14.2423 68.942 15.7585 68.942H15.864V92.2299H13.0161V95.5671H15.864V144.427C6.16009 144.591 0.266549 144.815 0.266549 145.052C0.266549 145.572 28.1323 146 62.5112 146C73.0392 146 82.9606 145.961 91.6559 145.888C111.347 145.73 124.763 145.414 124.763 145.052C124.763 144.822 119.436 144.611 110.563 144.453V144.414ZM62.6958 87.0826C62.6958 87.0826 61.819 87.0431 60.2501 87.3525C60.0919 87.3854 59.9468 87.4117 59.8084 87.4446C57.8966 87.7342 55.7343 88.1687 55.7212 88.6755H53.0051C53.0579 88.6426 53.1106 88.6031 53.1633 88.5702C53.3545 88.4385 53.5391 88.3003 53.7237 88.1555C53.8094 88.0897 53.8885 88.0173 53.9676 87.9449C54.0929 87.8396 54.2181 87.7277 54.3368 87.6092C54.4225 87.5302 54.5016 87.4446 54.5873 87.3591C54.6928 87.2472 54.7916 87.1353 54.8971 87.0234C54.9696 86.9378 55.0487 86.8522 55.1212 86.7667C55.2663 86.5824 55.4113 86.3981 55.5432 86.2006C55.6025 86.115 55.6552 86.0229 55.7146 85.9307C55.7805 85.8254 55.853 85.7201 55.9123 85.6148C56.6704 84.3115 57.1187 82.8107 57.1649 81.2047H58.8789C58.8789 80.9019 58.8591 80.5794 58.8195 80.2568L59.2678 80.1449C59.3865 81.2376 59.3799 82.4356 59.2019 83.7323C59.1162 84.3642 59.5579 84.95 60.1907 85.0355C60.2435 85.0421 60.2962 85.0487 60.349 85.0487C60.9225 85.0487 61.4169 84.6274 61.496 84.0482C61.6476 82.9292 61.6938 81.8761 61.6476 80.8822C62.1948 80.5201 62.4058 79.5262 62.4058 78.2756C62.9925 78.1571 63.7704 77.9597 64.3109 77.6503L71.8394 78.1769L70.6857 79.3617L70.9296 79.6184L62.7024 87.0826H62.6958ZM39.6557 65.0059C38.7196 66.9147 37.5198 69.5015 36.7221 71.8185C36.1881 70.0939 37.144 67.1977 38.1196 65.0059H39.6557ZM42.0816 64.5846H40.5127C40.5918 64.4266 40.6709 64.2752 40.7434 64.1238H42.0816V64.5846ZM40.0973 64.1238C40.0248 64.2686 39.9457 64.4266 39.8666 64.5846H38.3174C38.3899 64.4266 38.4625 64.2752 38.535 64.1238H40.0973ZM36.8869 73.2007C37.3549 73.7405 37.9351 74.2012 38.5284 74.5764C38.0801 75.5703 37.7703 76.6959 37.5923 77.9202C37.1704 77.4857 36.8012 76.9921 36.5573 76.4128C36.2936 75.7941 36.4716 74.6225 36.8869 73.2007ZM57.0001 75.0898L57.4945 74.7739C58.0021 75.6361 58.4833 76.663 58.8195 77.8543L58.3251 77.9794C58.0087 76.9789 57.5604 75.985 57.0001 75.0898ZM42.0882 71.0088C40.605 71.6078 39.5304 72.6676 38.7921 74.0498C38.1526 73.6351 37.5461 73.1283 37.0978 72.5293C37.8757 70.1531 39.1942 67.257 40.3083 64.9993H42.0882V71.0088ZM54.1456 64.5846V64.1238H63.5462V64.5846H54.1456ZM25.825 64.1238H37.8955C37.823 64.2752 37.7505 64.4266 37.678 64.5846H25.825V64.1238ZM25.825 66.1643V65.0059H37.4934C36.4057 67.4742 35.3772 70.8048 36.465 72.6215C35.931 74.346 35.6805 75.8402 36.0167 76.6498C36.3595 77.4528 36.9001 78.1176 37.4934 78.6574C37.4077 79.4736 37.3549 80.3227 37.3549 81.2047H38.6141C38.6536 82.5935 38.9898 83.9034 39.5766 85.075H39.57C39.5897 85.1145 39.6095 85.1408 39.6227 85.1738C39.7611 85.4436 39.9128 85.7069 40.0776 85.9636C40.0974 85.9965 40.1171 86.036 40.1435 86.0689C40.3413 86.3651 40.5522 86.6482 40.783 86.9181C40.783 86.9246 40.7961 86.9312 40.8027 86.9444C41.3697 87.6092 42.0289 88.2016 42.7607 88.6821H36.2738V92.2036H22.0146V68.9157H23.0628C24.579 68.9157 25.8118 67.6848 25.8118 66.1709L25.825 66.1643ZM39.2206 105.921H62.5178V103.69H67.4225V102.011H71.8328V105.914H74.0346V102.301H75.1817V100.333H74.0346V96.719H71.8328V100.622H67.4225V95.521H77.2912V92.1838H61.1334V89.5707C61.5026 89.7681 61.9443 89.88 62.3992 89.7418C63.0189 89.5509 64.0407 88.7677 64.1989 88.6426L74.9905 83.9363L75.2146 84.1733L77.6208 83.028L77.4099 82.7976L78.3592 82.2973L83.6858 78.4994L93.1655 91.1373L92.2162 95.1392H92.3349L91.4977 98.404L91.3263 99.0227H91.3395L86.2106 118.987L87.918 144.144C81.8333 144.104 75.2278 144.078 68.2993 144.065V142.729H39.2206V105.908V105.921ZM91.0296 144.177L93.1721 118.993L96.5144 112.668L97.879 119.27L107.761 144.368C102.955 144.289 97.3055 144.223 91.0296 144.177Z" fill="#797979"/>
<path d="M221.439 143.973V109.147H224.788V106.474H229.304V103.466H220.483V101.445H191.398C191.095 101.202 190.33 101.018 190.317 101.011C189.335 100.28 188.412 99.7341 187.68 99.3984L187.423 97.924L187.159 98.0293L185.083 92.4937L185.175 92.441L184.535 90.7823L184.331 90.9074L183.883 89.9595L175.695 75.426L171.766 74.4189L171.825 73.7936C172.162 73.866 172.478 73.8989 172.762 73.8594C173.52 73.7475 174.021 72.9379 174.443 71.7202C174.462 71.6544 174.489 71.582 174.508 71.5162C174.522 71.4701 174.541 71.4174 174.555 71.3713V71.3516C174.706 70.8777 174.845 70.3577 174.99 69.7982C175.689 69.6205 176.13 68.3567 176.13 68.3567C176.183 68.2185 176.229 68.1 176.262 67.9815C176.328 67.784 176.361 67.6195 176.381 67.4878C176.381 67.4747 176.387 67.4483 176.387 67.4352C176.387 67.3957 176.387 67.3694 176.387 67.3364C176.387 67.3035 176.387 67.2706 176.387 67.2443C176.387 67.2311 176.387 67.2245 176.387 67.2114C176.368 67.0205 176.282 66.9283 176.196 66.8954C176.196 66.8954 176.143 66.9152 175.853 66.8954C175.866 66.8296 175.84 66.7506 175.774 66.6782C175.807 66.5663 175.834 66.4544 175.867 66.3425C176.783 64.7562 176.651 63.9664 176.651 63.9664H176.644C177.732 62.9264 176.651 61.2018 176.651 61.2018C175.827 62.1957 170.903 59.6813 169.294 60.0039C167.685 60.3264 167.296 61.7416 167.296 61.7416C166.472 62.7092 166.242 64.1441 166.321 65.5592L166.242 65.5461L166.308 66.2965L166.387 66.3162C166.637 68.2119 167.362 69.8969 167.85 70.1076C167.85 70.2458 167.87 70.384 167.903 70.5222C167.659 72.5956 167.086 74.1227 167.086 74.1227H167.125L164.218 75.1693L161.495 76.1369L160.836 76.3607C159.827 76.7029 157.461 93.5534 157.461 93.5534L158.72 96.4167L162.629 97.3448L162.524 97.5488L162.721 97.5883L162.899 100.34H162.985L163.044 103.677L163.249 120.251L162.273 143.848C153.189 143.98 148.957 144.204 148.957 144.454C148.957 144.862 160.427 145.197 186.203 145.197C211.979 145.197 232.877 144.868 232.877 144.454C232.877 144.269 228.552 144.098 221.406 143.967L221.439 143.973ZM185.669 101.353C185.781 101.32 186.091 101.255 186.421 101.255C186.75 101.255 187.139 101.288 187.423 101.373C187.489 101.399 187.561 101.426 187.64 101.452H185.65C185.65 101.452 185.709 101.399 185.729 101.373C185.729 101.373 185.702 101.373 185.663 101.36L185.669 101.353ZM165.49 143.684L168.424 122.535C168.424 122.535 168.364 122.581 168.266 122.647L170.019 109.351L173.434 122.851L173.104 137.852L172.966 143.749C171.028 143.763 169.215 143.776 167.521 143.789C166.921 143.67 166.196 143.651 165.484 143.677L165.49 143.684ZM180.039 93.5666L179.881 93.6653L180.87 94.9488L181.127 94.7975L184.872 98.9574L184.634 99.0561L185.511 99.7473C184.832 100.425 184.179 101.366 184.179 101.366C184.179 101.366 184.12 101.399 184.034 101.445H178.128C177.923 101.083 177.515 100.623 177.04 100.155L177.08 96.0217L177.066 96.0481L177.099 91.401L179.618 93.0597L180.033 93.5732L180.039 93.5666ZM177.811 143.73C177.231 143.657 176.578 143.657 175.939 143.69L178.207 122.93C178.128 122.996 178.042 123.042 177.963 123.094L178.207 120.6L177.073 103.769C177.099 103.677 177.126 103.585 177.145 103.486H177.337C177.37 103.901 177.462 104.23 177.699 104.184C177.904 104.144 178.042 103.848 178.128 103.486H188.484V106.468H196.678V109.14H203.37V141.702H197.878V143.736C194.154 143.723 190.251 143.71 186.223 143.71C183.224 143.71 180.422 143.71 177.805 143.723L177.811 143.73Z" fill="#797979"/>
<path d="M232.73 73.3648V83.3698H233.593V98.0086H235.617C235.604 98.1469 235.334 98.3114 235.208 98.3838V98.6208C235.32 98.5945 235.578 98.555 235.617 98.6998C235.657 98.8446 235.34 99.0355 235.208 99.1079V99.3777C235.32 99.3514 235.578 99.3119 235.617 99.4567C235.657 99.6015 235.34 99.7924 235.208 99.8648V100.135C235.32 100.108 235.578 100.069 235.617 100.214C235.657 100.358 235.34 100.549 235.208 100.622V100.839C235.32 100.813 235.578 100.773 235.617 100.918C235.657 101.063 235.34 101.254 235.208 101.326V101.451H237.272V98.114C237.364 98.0942 237.443 98.0613 237.522 98.0218H240.621V83.3829H241.682V71.6929C242.183 71.1071 242.242 70.5016 242.157 70.0013L244.187 68.0859C244.378 68.2504 244.629 68.3557 244.899 68.3557C245.506 68.3557 246 67.8621 246 67.2565C246 66.651 245.506 66.1573 244.899 66.1573C244.293 66.1573 243.798 66.651 243.798 67.2565C243.798 67.4803 243.864 67.6909 243.983 67.8621L242.071 69.659C241.919 69.1917 241.682 68.8823 241.682 68.8823V65.8216H239.381V64.9001H239.394L240.1 64.1563H241.016V62.0302H236.777V64.1431H237.694L238.399 64.8935H238.412V65.815H232.736V70.7846C232.288 71.0479 231.985 71.5218 231.985 72.0813C231.985 72.6408 232.288 73.1147 232.736 73.378L232.73 73.3648Z" fill="#797979"/>
<path d="M242.695 12.683H193.912V29.3952H242.695V12.683Z" fill="#797979"/>
<path d="M200.834 0H193.912V29.3896H200.834V0Z" fill="#797979"/>
<path d="M72.7847 34.8456L72.6924 23.8862C72.6924 23.5439 72.5474 23.2082 72.2969 22.9713C72.2639 22.9383 72.2177 22.912 72.1848 22.8791C72.2177 22.4644 72.2112 22.1485 72.2112 22.0958C72.6528 21.5429 72.5012 20.5095 72.5012 20.5095H72.31C72.3957 21.0032 72.2771 21.3915 72.0661 21.6416C71.8288 21.3454 71.4596 21.3915 71.2553 21.4244C71.0773 21.4771 70.952 21.5824 70.8531 21.7141C70.4708 21.3389 70.2598 20.5029 70.6158 19.0614H69.8445C69.8445 19.0614 69.5545 21.4771 70.6554 22.2209C70.6422 22.4118 70.6554 22.6158 70.7015 22.833C70.6158 22.8923 70.5301 22.9581 70.4642 23.0371C70.2335 23.2938 70.1214 23.6426 70.1478 23.9849L71.0905 35.3261L71.4794 45.9366C71.5124 46.7725 72.0727 47.4308 72.7385 47.4044L73.556 47.3715L73.1011 34.8192L72.7979 34.8324L72.7847 34.8456ZM71.8486 21.8325C71.8947 21.7996 71.9409 21.7601 71.987 21.7206C71.9409 21.7601 71.9013 21.8062 71.8486 21.8325ZM71.3146 21.7009C71.5717 21.6614 71.7299 21.6746 71.842 21.8325C71.6047 21.9905 71.3212 22.0168 71.0641 21.8852C71.13 21.7996 71.2091 21.7338 71.308 21.7009H71.3146ZM70.9322 22.3723C71.0905 22.4249 71.2553 22.4578 71.4596 22.4513C71.6442 22.4513 71.7958 22.4052 71.9211 22.3328C71.9211 22.4381 71.9145 22.5763 71.9079 22.7211C71.7365 22.6487 71.5519 22.6092 71.3607 22.6158C71.2223 22.6158 71.0905 22.6553 70.9652 22.7014C70.9454 22.5829 70.9322 22.471 70.9322 22.3657V22.3723ZM71.2816 24.3733C71.3805 24.5576 71.453 24.6826 71.4662 24.7024C71.4926 24.7484 71.5453 24.7748 71.5915 24.7748C71.6178 24.7748 71.6376 24.7748 71.664 24.755C71.7365 24.7155 71.7563 24.6366 71.7167 24.5641C71.7035 24.5378 71.6772 24.4983 71.664 24.4654C71.7761 24.6036 71.8552 24.8209 71.8749 25.0776C71.9079 25.5186 71.7497 25.8872 71.519 25.9003C71.2882 25.9135 71.0839 25.5712 71.0509 25.1368C71.0245 24.7879 71.1234 24.4917 71.2816 24.3733Z" fill="#797979"/>
<path d="M77.1807 47.3914L76.7126 34.7009L73.1066 35.2604L73.5285 46.9372L77.1807 47.3914Z" fill="#797979"/>
<path d="M221.326 44.4503C221.267 44.2462 221.195 44.029 221.109 43.8118C220.951 43.3708 220.759 42.9166 220.581 42.5151C220.496 42.311 220.41 42.1267 220.331 41.9622C220.219 41.7121 220.12 41.5146 220.061 41.3961C220.061 41.3171 220.034 41.0933 220.001 40.7905C219.916 40.0994 219.724 38.9673 219.329 37.9997C219.197 37.6772 219.045 37.3744 218.861 37.1111L218.907 33.1354L219.355 33.0959C219.428 33.0894 219.487 33.0301 219.487 32.9577L219.56 31.22C219.56 31.22 219.56 31.1871 219.56 31.1739C219.553 31.0949 219.481 31.0291 219.401 31.0423L219.111 31.0686L216.962 31.2595L216.072 31.1279C215.908 29.8114 215.492 27.9552 214.971 27.376C214.84 27.2312 214.681 27.1522 214.549 27.1588C214.464 27.1588 214.325 27.1851 214.207 27.3167C213.699 27.8499 213.679 29.9431 213.692 30.7658L211.003 30.3577C210.963 30.3577 210.93 30.3577 210.897 30.3841C210.871 30.4104 210.851 30.4433 210.851 30.4828L210.805 32.0494C210.805 32.1152 210.851 32.1744 210.917 32.181L211.267 32.2337L211.016 35.7222C210.258 36.1303 207.298 37.7956 207.522 38.6447C207.562 38.783 207.667 38.9607 207.99 39.0133C208.63 39.1121 209.829 38.6382 210.324 38.4275C210.264 38.8685 210.166 39.8427 210.251 40.8103C210.08 41.3632 208.933 45.1611 209.889 45.7075C209.935 45.7338 209.988 45.7535 210.04 45.7601C210.62 45.8457 211.128 44.4963 211.464 43.272C211.398 44.707 211.464 46.4381 212.13 46.5763C212.255 46.6026 212.387 46.5697 212.493 46.4776C212.961 46.0892 213.205 44.5227 213.323 43.2523C213.475 44.4766 213.758 45.8259 214.266 45.8983C214.332 47.1292 214.536 48.3798 215.077 48.6958C215.116 48.7221 215.156 48.7419 215.202 48.755C215.261 48.7748 215.321 48.7814 215.38 48.7748C215.42 48.7748 215.459 48.7616 215.499 48.7484C215.512 48.7484 215.519 48.7353 215.532 48.7287C215.558 48.7155 215.584 48.7024 215.604 48.6826C215.617 48.6695 215.631 48.6563 215.644 48.6431C215.664 48.6234 215.683 48.6102 215.703 48.5839C215.716 48.5707 215.73 48.551 215.743 48.5312C215.762 48.5115 215.776 48.4852 215.789 48.4654C215.802 48.4457 215.815 48.4193 215.828 48.393C215.842 48.3667 215.855 48.3403 215.868 48.314C215.881 48.2877 215.894 48.2548 215.901 48.2284C215.914 48.2021 215.927 48.1758 215.934 48.1429C215.947 48.11 215.954 48.0771 215.967 48.0376C215.973 48.0112 215.987 47.9783 215.993 47.952C216.006 47.9125 216.013 47.873 216.026 47.8335C216.033 47.8006 216.039 47.7743 216.053 47.7414C216.066 47.6953 216.072 47.6492 216.086 47.6031C216.086 47.5768 216.099 47.5505 216.105 47.5176C216.112 47.4649 216.125 47.4123 216.132 47.3596C216.132 47.3333 216.138 47.3069 216.145 47.2806C216.151 47.2214 216.165 47.1621 216.171 47.1029C216.171 47.0831 216.171 47.0568 216.178 47.0371C216.184 46.9712 216.191 46.9054 216.198 46.8396C216.198 46.8199 216.198 46.8001 216.198 46.7869C216.204 46.7145 216.211 46.6421 216.217 46.5697V46.5237C216.231 46.4447 216.231 46.3657 216.237 46.2933V46.2604C216.244 46.1748 216.25 46.0892 216.25 46.0037C216.25 45.8852 216.257 45.7733 216.263 45.668C216.54 47.0831 216.995 48.7221 217.635 49.0446C217.674 49.0644 217.714 49.0776 217.753 49.0907C217.793 49.1039 217.832 49.1105 217.879 49.1039C217.951 49.1039 218.024 49.0841 218.083 49.0512C218.116 49.0315 218.142 49.0117 218.175 48.9854C218.202 48.9591 218.228 48.9327 218.254 48.8998C218.36 48.7616 218.426 48.5444 218.465 48.2811C218.498 48.0836 218.511 47.8533 218.511 47.6031C218.511 47.353 218.505 47.0897 218.485 46.8133C218.446 46.2669 218.38 45.6811 218.301 45.148L218.314 45.1875C218.729 46.2735 219.27 47.4188 219.771 47.715C219.81 47.7414 219.856 47.7611 219.896 47.7743H219.909C219.955 47.7874 219.995 47.794 220.041 47.794C220.074 47.794 220.107 47.7809 220.14 47.7743C220.193 47.7545 220.239 47.7282 220.278 47.6821C220.318 47.6426 220.351 47.59 220.377 47.5307C220.403 47.4715 220.423 47.3925 220.443 47.3069C220.443 47.274 220.443 47.2345 220.45 47.2016C220.45 47.1424 220.463 47.0897 220.463 47.0173C220.463 46.9647 220.463 46.912 220.456 46.8593C220.456 46.8001 220.456 46.7474 220.45 46.6816C220.45 46.6092 220.43 46.5368 220.423 46.4644C220.417 46.4118 220.41 46.3591 220.403 46.3064C220.39 46.2209 220.371 46.1287 220.357 46.0366C220.351 45.9905 220.344 45.951 220.331 45.9049C220.311 45.7996 220.285 45.6877 220.258 45.5758C220.252 45.5429 220.245 45.5166 220.239 45.4837C220.206 45.352 220.173 45.227 220.14 45.0953L220.127 45.0558C220.08 44.8913 220.041 44.7267 219.995 44.5687C220.305 45.0953 220.634 45.5627 220.931 45.747C220.977 45.7733 221.023 45.7996 221.069 45.8128C221.115 45.8259 221.155 45.8325 221.201 45.8259C221.234 45.8259 221.267 45.8128 221.293 45.8062C221.346 45.7864 221.425 45.7338 221.471 45.6219C221.491 45.5758 221.498 45.5297 221.504 45.4705C221.524 45.2335 221.452 44.8781 221.326 44.47V44.4503ZM214.503 27.5669C214.536 27.534 214.556 27.534 214.563 27.534C214.563 27.534 214.629 27.5537 214.681 27.6195C215.11 28.0934 215.505 29.7851 215.677 31.0423L214.101 30.8053C214.075 29.6534 214.161 27.9289 214.503 27.5735V27.5669Z" fill="#797979"/>
</g>
</svg>
