<svg width="90" height="90" viewBox="0 0 90 90" fill="none" xmlns="http://www.w3.org/2000/svg">
<path d="M38 12C38 8.13145 41.1365 5 45 5C48.8635 5 52 8.13654 52 12C52 15.8635 48.8635 19 45 19C41.1365 19 38 15.8635 38 12Z" fill="#797979"/>
<path d="M67.4915 12H22.5085C20.0185 12 18 14.0227 18 16.5178V80.4822C18 82.9773 20.0185 85 22.5085 85H67.4915C69.9815 85 72 82.9773 72 80.4822V16.5178C72 14.0227 69.9815 12 67.4915 12Z" fill="#303030"/>
<path d="M69 20H21V82H69V20Z" fill="white"/>
<path d="M60 14.5455C60 12.0339 57.9721 10 55.4679 10H35.5321C33.0279 10 31 12.0339 31 14.5455V20H59.9949V14.5455H60Z" fill="#454C53"/>
<path d="M55 27H28V29H55V27Z" fill="#797979"/>
<path d="M33 33H28V35H33V33Z" fill="#797979"/>
<path d="M62 33H38V35H62V33Z" fill="#797979"/>
<path d="M33 38H28V40H33V38Z" fill="#303030"/>
<path d="M62 38H38V40H62V38Z" fill="#797979"/>
<path d="M33 44H28V46H33V44Z" fill="#797979"/>
<path d="M62 44H38V46H62V44Z" fill="#797979"/>
<path d="M33 49H28V51H33V49Z" fill="#303030"/>
<path d="M62 49H38V51H62V49Z" fill="#797979"/>
<path d="M33 54H28V56H33V54Z" fill="#303030"/>
<path d="M62 54H38V56H62V54Z" fill="#797979"/>
<path d="M33 60H28V62H33V60Z" fill="#303030"/>
<path d="M62 60H38V62H62V60Z" fill="#797979"/>
<path d="M33 65H28V67H33V65Z" fill="#797979"/>
<path d="M62 65H38V67H62V65Z" fill="#797979"/>
<path d="M33 71H28V73H33V71Z" fill="#303030"/>
<path d="M62 71H38V73H62V71Z" fill="#797979"/>
</svg>
