<svg width="36" height="77" viewBox="0 0 36 77" fill="none" xmlns="http://www.w3.org/2000/svg">
<path d="M20.353 20.6454C20.4178 20.5234 20.4745 20.4014 20.5392 20.2794C23.154 19.2386 26.0117 18.954 28.7399 18.2304C31.6461 17.4579 34.6171 15.9861 35.9609 13.2865C30.7961 12.2539 25.1779 14.2298 21.6645 18.149C22.1097 17.3928 22.555 16.6448 22.984 15.9211C23.656 14.7095 24.3845 13.6687 25.0241 12.7092C27.2827 11.644 29.2742 10.0015 30.7313 7.96867C32.399 5.65938 33.3704 2.85408 33.508 0C30.4561 1.25222 27.9222 3.73226 26.5865 6.7571C25.9308 8.24513 25.5422 9.86326 24.9836 11.3838C24.9026 11.4895 24.8298 11.5871 24.7488 11.6928C23.9636 12.7661 23.0083 13.9452 22.134 15.3844C21.8183 15.8723 21.4945 16.3846 21.1707 16.8968C22.2717 12.0343 20.9359 6.61074 17.5278 2.95166C15.9492 5.52115 16.273 8.83871 17.1554 11.7172C17.9487 14.3029 19.1387 16.7911 19.6811 19.4338C19.5597 19.6533 19.4464 19.8729 19.3168 20.1006C18.3211 21.8081 17.463 23.7434 16.5239 25.7518C16.0625 26.8333 15.6091 27.9635 15.1801 29.1182C15.3744 24.0361 12.9539 18.8565 8.79283 15.9129C7.76472 18.7508 8.75236 21.9301 10.2014 24.5728C11.5129 26.9715 13.1967 29.1751 14.2653 31.6795C13.4315 34.1514 12.6786 36.7616 12.0634 39.4856C11.8448 40.5182 11.6505 41.5346 11.4805 42.5511C10.671 37.4771 7.20614 32.8423 2.49462 30.8013C2.07366 33.7855 3.69275 36.6965 5.65183 38.9814C7.42472 41.0549 9.52951 42.86 11.0838 45.0961C10.671 48.1291 10.4443 51.0727 10.3633 53.8373C10.3633 54.5528 10.3633 55.244 10.3633 55.9352C8.81712 51.1458 4.84228 47.1534 0.00124359 45.7954C-0.0230446 48.8122 1.96843 51.4792 4.21894 53.4795C6.25898 55.3009 8.59854 56.8215 10.4362 58.838C10.4605 59.2771 10.4848 59.7162 10.5252 60.1472C10.6062 61.1311 10.6386 62.0905 10.7519 62.9931C10.8733 63.8876 10.9948 64.7576 11.1081 65.6033C11.2053 66.4571 11.351 67.2539 11.5048 68.0101C9.26237 63.6762 4.90705 60.4399 0.0741119 59.765C0.454594 62.7573 2.78605 65.1317 5.28753 66.8148C7.57852 68.3598 10.1205 69.5551 12.2253 71.3277C12.2658 71.5066 12.3062 71.6936 12.3548 71.8644C12.5086 72.3766 12.6543 72.8726 12.8 73.3605C13.3424 75.1575 13.6905 76.1252 13.7796 76.1008C13.8686 76.0764 13.7067 75.0518 13.3263 73.2304C13.2291 72.7588 13.1239 72.2791 13.0186 71.7912C14.3948 69.116 16.5968 66.9775 18.3616 64.5462C20.1345 62.1068 21.5269 59.082 20.8711 56.1384C15.7387 58.8624 12.46 64.7576 12.8162 70.5796C12.7839 70.3601 12.7515 70.1405 12.711 69.9047C12.5248 68.6037 12.2172 67.132 12.0957 65.4732C12.0067 64.6275 11.9176 63.7737 11.8286 62.8874C11.7395 61.9848 11.7396 61.0497 11.6829 60.074C11.6586 59.6837 11.6424 59.2934 11.6262 58.895C13.3181 56.7076 15.5525 55.0001 17.4711 52.9998C19.5597 50.8287 21.3407 48.0153 21.0816 45.0067C16.4673 46.698 12.8729 50.8206 11.61 55.5693C11.6181 55.0082 11.6262 54.439 11.6343 53.8698C11.7557 51.1052 12.0148 48.1779 12.4519 45.1449C14.3786 43.3073 16.7344 41.9493 18.8311 40.2824C21.1869 38.4041 23.324 35.859 23.4698 32.8423C19.0416 33.818 15.1963 36.973 13.1562 41.0224C13.2372 40.6077 13.3181 40.193 13.4072 39.7783C14.0144 37.0787 14.751 34.4848 15.5606 32.0292C17.8354 30.6143 20.434 29.7768 22.8302 28.5734C25.5179 27.2236 28.1327 25.1745 28.9018 22.2554C24.1741 22.296 19.5921 24.776 16.7749 28.5652C17.0744 27.7765 17.3739 26.9959 17.6816 26.2397C18.5721 24.2475 19.3735 22.3285 20.3126 20.621L20.353 20.6454Z" fill="#C82325"/>
</svg>
