<svg width="90" height="90" viewBox="0 0 90 90" fill="none" xmlns="http://www.w3.org/2000/svg">
<path d="M87 14H58V39.9995H87V14Z" fill="#303030"/>
<path d="M73 14H58V40H73V14Z" fill="#303030"/>
<path d="M74 14H71V22H74V14Z" fill="#303030"/>
<path d="M74 32H71V40H74V32Z" fill="#303030"/>
<path d="M26 13C23.0236 13 20 17.2569 20 23" stroke="#303030" stroke-width="3.41" stroke-miterlimit="10"/>
<path d="M25.5938 9H25.4063C24.9141 9 24.4453 9.08199 24 9.23424V17.7658C24.4453 17.9122 24.9141 18 25.4063 18H25.5938C28.0254 18 30 16.0267 30 13.5966V13.4093C30 10.9792 28.0254 9.00586 25.5938 9.00586V9Z" fill="#303030"/>
<path d="M65.5753 66.9943C66.8745 64.1311 68.5549 60.065 69.704 55.9086C71.8405 48.1943 70.6914 40 70.6914 40H54.425C40.9534 40 40.3297 46.9123 38.4415 53.435C36.9459 58.5911 35.5255 64.6733 35 67H65.5753V66.9943Z" fill="#797979"/>
<path d="M89 40H59V43H89V40Z" fill="#303030"/>
<path d="M60.6302 49.7795C70.5893 46.0073 71 40 71 40H54.7079C41.9438 40 40.6946 46.4744 39 52.9546C39 52.9546 50.486 53.6287 60.636 49.7795H60.6302Z" fill="#303030"/>
<path d="M8.62141 59.6922C8.62141 59.6922 3.84645 29.1479 20.7691 22C20.7691 22 19.6517 35.2282 20.7691 46.2584C21.8865 57.2943 29 67 29 67L8.62141 59.6922Z" fill="#303030"/>
<path d="M15.964 60.7645C15.2653 55.7603 14.8684 50.739 15.1088 45.6838C15.4945 37.7212 17.2162 29.5716 20 22C4.04616 29.4072 8.60203 59.2343 8.60203 59.2343L16.1373 62C16.0758 61.5863 16.0143 61.1726 15.9584 60.7702L15.964 60.7645Z" fill="#797979"/>
<path d="M69.2857 61H18V71H70L69.2857 61Z" fill="#303030"/>
<path d="M4 71.5C4 65.6999 8.69991 61 14.5 61C20.3001 61 25 65.6999 25 71.5C25 77.3001 20.3001 82 14.5 82C8.69991 82 4 77.3001 4 71.5Z" fill="#303030"/>
<path d="M8 71C8 67.6869 10.6869 65 14 65C17.3131 65 20 67.6869 20 71C20 74.3131 17.3131 77 14 77C10.6869 77 8 74.3131 8 71Z" fill="white"/>
<path d="M10 71C10 68.7903 11.7903 67 14 67C16.2097 67 18 68.7903 18 71C18 73.2097 16.2097 75 14 75C11.7903 75 10 73.2097 10 71Z" fill="white"/>
<path d="M29 71C28.9141 63.257 22.457 57 14.5 57C6.54305 57 0.0858666 63.257 0 71H29Z" fill="#303030"/>
<path d="M49 71.5C49 65.6999 53.6999 61 59.5 61C65.3001 61 70 65.6999 70 71.5C70 77.3001 65.3001 82 59.5 82C53.6999 82 49 77.3001 49 71.5Z" fill="#303030"/>
<path d="M54 72C54 68.6869 56.6869 66 60 66C63.3131 66 66 68.6869 66 72C66 75.3131 63.3131 78 60 78C56.6869 78 54 75.3131 54 72Z" fill="white"/>
<path d="M55 71C55 68.7903 56.7903 67 59 67C61.2097 67 63 68.7903 63 71C63 73.2097 61.2097 75 59 75C56.7903 75 55 73.2097 55 71Z" fill="white"/>
<path d="M74 71C73.9141 63.257 67.457 57 59.5 57C51.543 57 45.0859 63.257 45 71H74Z" fill="#303030"/>
<path d="M29 25.3777C29 27.9695 27.1335 30 24.4959 30H14.9568C12.3191 30 10 27.9695 10 25.3777V23.969C10 21.3772 12.3191 19 14.9568 19H24.4959C27.1279 19 29 21.3772 29 23.969V25.3777Z" fill="#303030"/>
<path d="M11.9688 27.9386C12.7187 26.3379 12.7448 26.4699 13.2239 24.7659C13.5104 23.7332 13.8229 22.6833 13.9896 21.6162C13.9427 21.7596 13.9896 20.8416 14 20.3482C13.9583 20.1474 13.7552 19.1205 13.7292 19C11.5625 19.327 10 21.7309 10 24.2037V25.6724C10 27.0493 10.6094 28.1107 11.4375 29C11.6458 28.5869 11.7656 28.3517 11.9635 27.9329L11.9688 27.9386Z" fill="white"/>
<path d="M27 24C27 26.2099 25.21 28 23 28C20.7901 28 19 26.2099 19 24C19 21.7901 20.7901 20 23 20C25.21 20 27 21.7901 27 24Z" fill="#303030"/>
<path d="M25 24C25 25.1077 24.1015 26 23 26C21.8985 26 21 25.1015 21 24C21 22.8985 21.8985 22 23 22C24.1015 22 25 22.8985 25 24Z" fill="white"/>
</svg>
