<svg width="174" height="174" viewBox="0 0 174 174" fill="none" xmlns="http://www.w3.org/2000/svg">
<path d="M135.627 41.4631H31.2266C32.4327 40.579 33.8476 40.0229 35.333 39.8493L125.352 29.083C130.141 28.5088 134.487 31.9231 135.061 36.7173L135.627 41.4631Z" fill="white"/>
<path d="M149.544 50.837V134.3C149.544 140.203 144.759 144.98 138.865 144.98H27.9878C22.0936 144.98 17.3086 140.203 17.3086 134.3V50.837C17.3086 44.934 22.0936 40.1577 27.9878 40.1577H138.865C144.759 40.1577 149.544 44.934 149.544 50.837Z" fill="#797979"/>
<path opacity="0.6" d="M130.762 133.898H125.519C125.288 133.898 125.067 133.806 124.904 133.643C124.741 133.48 124.649 133.259 124.649 133.028C124.649 132.797 124.741 132.576 124.904 132.413C125.067 132.25 125.288 132.158 125.519 132.158H130.762C130.993 132.158 131.214 132.25 131.377 132.413C131.54 132.576 131.632 132.797 131.632 133.028C131.632 133.259 131.54 133.48 131.377 133.643C131.214 133.806 130.993 133.898 130.762 133.898ZM120.277 133.898H115.034C114.803 133.898 114.582 133.806 114.419 133.643C114.256 133.48 114.164 133.259 114.164 133.028C114.164 132.797 114.256 132.576 114.419 132.413C114.582 132.25 114.803 132.158 115.034 132.158H120.277C120.507 132.158 120.729 132.25 120.892 132.413C121.055 132.576 121.147 132.797 121.147 133.028C121.147 133.259 121.055 133.48 120.892 133.643C120.729 133.806 120.507 133.898 120.277 133.898ZM109.791 133.898H104.549C104.318 133.898 104.097 133.806 103.934 133.643C103.77 133.48 103.679 133.259 103.679 133.028C103.679 132.797 103.77 132.576 103.934 132.413C104.097 132.25 104.318 132.158 104.549 132.158H109.791C110.022 132.158 110.243 132.25 110.407 132.413C110.57 132.576 110.661 132.797 110.661 133.028C110.661 133.259 110.57 133.48 110.407 133.643C110.243 133.806 110.022 133.898 109.791 133.898ZM99.3057 133.898H94.0631C93.8323 133.898 93.611 133.806 93.4479 133.643C93.2847 133.48 93.1931 133.259 93.1931 133.028C93.1931 132.797 93.2847 132.576 93.4479 132.413C93.611 132.25 93.8323 132.158 94.0631 132.158H99.3057C99.5364 132.158 99.7577 132.25 99.9209 132.413C100.084 132.576 100.176 132.797 100.176 133.028C100.176 133.259 100.084 133.48 99.9209 133.643C99.7577 133.806 99.5364 133.898 99.3057 133.898ZM88.8204 133.898H83.5778C83.3471 133.898 83.1258 133.806 82.9626 133.643C82.7995 133.48 82.7078 133.259 82.7078 133.028C82.7078 132.797 82.7995 132.576 82.9626 132.413C83.1258 132.25 83.3471 132.158 83.5778 132.158H88.8204C89.0512 132.158 89.2725 132.25 89.4356 132.413C89.5988 132.576 89.6904 132.797 89.6904 133.028C89.6904 133.259 89.5988 133.48 89.4356 133.643C89.2725 133.806 89.0512 133.898 88.8204 133.898ZM78.3352 133.898H73.0926C72.8618 133.898 72.6406 133.806 72.4774 133.643C72.3142 133.48 72.2226 133.259 72.2226 133.028C72.2226 132.797 72.3142 132.576 72.4774 132.413C72.6406 132.25 72.8618 132.158 73.0926 132.158H78.3352C78.5659 132.158 78.7872 132.25 78.9504 132.413C79.1135 132.576 79.2052 132.797 79.2052 133.028C79.2052 133.259 79.1135 133.48 78.9504 133.643C78.7872 133.806 78.5659 133.898 78.3352 133.898ZM67.85 133.898H62.6073C62.3766 133.898 62.1553 133.806 61.9922 133.643C61.829 133.48 61.7373 133.259 61.7373 133.028C61.7373 132.797 61.829 132.576 61.9922 132.413C62.1553 132.25 62.3766 132.158 62.6073 132.158H67.85C68.0807 132.158 68.302 132.25 68.4651 132.413C68.6283 132.576 68.72 132.797 68.72 133.028C68.72 133.259 68.6283 133.48 68.4651 133.643C68.302 133.806 68.0807 133.898 67.85 133.898ZM57.3647 133.898H52.1221C51.8914 133.898 51.6701 133.806 51.5069 133.643C51.3438 133.48 51.2521 133.259 51.2521 133.028C51.2521 132.797 51.3438 132.576 51.5069 132.413C51.6701 132.25 51.8914 132.158 52.1221 132.158H57.3647C57.5955 132.158 57.8167 132.25 57.9799 132.413C58.1431 132.576 58.2347 132.797 58.2347 133.028C58.2347 133.259 58.1431 133.48 57.9799 133.643C57.8167 133.806 57.5955 133.898 57.3647 133.898ZM46.879 133.898H41.6364C41.4057 133.898 41.1844 133.806 41.0212 133.643C40.8581 133.48 40.7664 133.259 40.7664 133.028C40.7664 132.797 40.8581 132.576 41.0212 132.413C41.1844 132.25 41.4057 132.158 41.6364 132.158H46.879C47.1098 132.158 47.3311 132.25 47.4942 132.413C47.6574 132.576 47.749 132.797 47.749 133.028C47.749 133.259 47.6574 133.48 47.4942 133.643C47.3311 133.806 47.1098 133.898 46.879 133.898ZM36.3938 133.898H35.8618C34.0632 133.899 32.3261 133.243 30.9763 132.054C30.8031 131.902 30.6977 131.687 30.683 131.457C30.6684 131.226 30.7459 131 30.8984 130.826C31.051 130.653 31.266 130.548 31.4963 130.533C31.7266 130.519 31.9533 130.596 32.1264 130.749C33.1585 131.658 34.4869 132.159 35.8622 132.158H36.3942C36.625 132.158 36.8462 132.25 37.0094 132.413C37.1725 132.576 37.2641 132.797 37.264 133.028C37.264 133.259 37.1722 133.48 37.009 133.643C36.8459 133.806 36.6245 133.898 36.3938 133.898ZM135.525 132.068C135.351 132.068 135.182 132.016 135.038 131.919C134.894 131.822 134.783 131.684 134.718 131.523C134.653 131.363 134.638 131.186 134.674 131.017C134.71 130.847 134.796 130.692 134.92 130.572C135.469 130.046 135.905 129.414 136.202 128.715C136.499 128.015 136.651 127.263 136.648 126.503C136.648 126.022 137.038 125.619 137.518 125.619C137.998 125.619 138.388 125.995 138.388 126.476V126.503C138.388 128.528 137.586 130.418 136.128 131.824C135.96 131.987 135.742 132.068 135.525 132.068ZM29.3433 127.672C29.1195 127.672 28.9043 127.586 28.7425 127.431C28.5808 127.276 28.4848 127.065 28.4746 126.841C28.4694 126.729 28.4668 126.616 28.4668 126.503V121.561C28.4668 121.33 28.5585 121.109 28.7216 120.945C28.8848 120.782 29.1061 120.691 29.3368 120.691C29.5675 120.691 29.7888 120.782 29.952 120.945C30.1151 121.109 30.2068 121.33 30.2068 121.561V126.503C30.2068 126.59 30.209 126.677 30.2129 126.764C30.218 126.878 30.2006 126.992 30.1617 127.099C30.1228 127.207 30.0631 127.305 29.986 127.39C29.9089 127.474 29.816 127.542 29.7125 127.591C29.609 127.639 29.497 127.667 29.3829 127.672L29.3433 127.672ZM137.519 122.103C137.288 122.103 137.067 122.012 136.904 121.849C136.74 121.685 136.649 121.464 136.649 121.233V115.991C136.649 115.76 136.74 115.539 136.904 115.376C137.067 115.212 137.288 115.121 137.519 115.121C137.749 115.121 137.971 115.212 138.134 115.376C138.297 115.539 138.389 115.76 138.389 115.991V121.233C138.389 121.464 138.297 121.685 138.134 121.849C137.971 122.012 137.749 122.103 137.519 122.103ZM29.3368 117.187C29.1061 117.187 28.8848 117.095 28.7216 116.932C28.5585 116.769 28.4668 116.548 28.4668 116.317V111.074C28.4668 110.844 28.5585 110.622 28.7216 110.459C28.8848 110.296 29.1061 110.204 29.3368 110.204C29.5675 110.204 29.7888 110.296 29.952 110.459C30.1151 110.622 30.2068 110.844 30.2068 111.074V116.317C30.2068 116.548 30.1151 116.769 29.952 116.932C29.7888 117.095 29.5675 117.187 29.3368 117.187ZM137.519 111.618C137.288 111.618 137.067 111.527 136.904 111.363C136.74 111.2 136.649 110.979 136.649 110.748V105.506C136.649 105.275 136.74 105.054 136.904 104.89C137.067 104.727 137.288 104.636 137.519 104.636C137.749 104.636 137.971 104.727 138.134 104.89C138.297 105.054 138.389 105.275 138.389 105.506V110.748C138.389 110.979 138.297 111.2 138.134 111.363C137.971 111.527 137.749 111.618 137.519 111.618ZM29.3368 106.702C29.1061 106.702 28.8848 106.61 28.7216 106.447C28.5585 106.284 28.4668 106.063 28.4668 105.832V100.589C28.4668 100.358 28.5585 100.137 28.7216 99.974C28.8848 99.8109 29.1061 99.7192 29.3368 99.7192C29.5675 99.7192 29.7888 99.8109 29.952 99.974C30.1151 100.137 30.2068 100.358 30.2068 100.589V105.832C30.2068 106.063 30.1151 106.284 29.952 106.447C29.7888 106.61 29.5675 106.702 29.3368 106.702ZM137.519 101.133C137.288 101.133 137.067 101.041 136.904 100.878C136.74 100.715 136.649 100.494 136.649 100.263V95.0199C136.649 94.7891 136.74 94.5679 136.904 94.4047C137.067 94.2415 137.288 94.1499 137.519 94.1499C137.749 94.1499 137.971 94.2415 138.134 94.4047C138.297 94.5679 138.389 94.7891 138.389 95.0199V100.263C138.389 100.494 138.297 100.715 138.134 100.878C137.971 101.041 137.749 101.133 137.519 101.133ZM29.3368 96.2166C29.1061 96.2166 28.8848 96.1249 28.7216 95.9618C28.5585 95.7986 28.4668 95.5773 28.4668 95.3466V90.1035C28.4668 89.8728 28.5585 89.6515 28.7216 89.4883C28.8848 89.3252 29.1061 89.2335 29.3368 89.2335C29.5675 89.2335 29.7888 89.3252 29.952 89.4883C30.1151 89.6515 30.2068 89.8728 30.2068 90.1035V95.3466C30.2068 95.5773 30.1151 95.7986 29.952 95.9618C29.7888 96.1249 29.5675 96.2166 29.3368 96.2166ZM137.519 90.6477C137.288 90.6477 137.067 90.556 136.904 90.3929C136.74 90.2297 136.649 90.0084 136.649 89.7777V84.5351C136.649 84.3043 136.74 84.0831 136.904 83.9199C137.067 83.7567 137.288 83.6651 137.519 83.6651C137.749 83.6651 137.971 83.7567 138.134 83.9199C138.297 84.0831 138.389 84.3043 138.389 84.5351V89.7777C138.389 90.0084 138.297 90.2297 138.134 90.3929C137.971 90.556 137.749 90.6477 137.519 90.6477ZM29.3368 85.7313C29.1061 85.7313 28.8848 85.6397 28.7216 85.4765C28.5585 85.3134 28.4668 85.0921 28.4668 84.8613V79.6187C28.4668 79.388 28.5585 79.1667 28.7216 79.0035C28.8848 78.8404 29.1061 78.7487 29.3368 78.7487C29.5675 78.7487 29.7888 78.8404 29.952 79.0035C30.1151 79.1667 30.2068 79.388 30.2068 79.6187V84.8613C30.2068 85.0921 30.1151 85.3134 29.952 85.4765C29.7888 85.6397 29.5675 85.7313 29.3368 85.7313ZM137.519 80.162C137.288 80.162 137.067 80.0704 136.904 79.9072C136.74 79.7441 136.649 79.5228 136.649 79.292V74.0494C136.649 73.8187 136.74 73.5974 136.904 73.4342C137.067 73.2711 137.288 73.1794 137.519 73.1794C137.749 73.1794 137.971 73.2711 138.134 73.4342C138.297 73.5974 138.389 73.8187 138.389 74.0494V79.292C138.389 79.5228 138.297 79.7441 138.134 79.9072C137.971 80.0704 137.749 80.162 137.519 80.162ZM29.3368 75.2457C29.1061 75.2457 28.8848 75.154 28.7216 74.9908C28.5585 74.8277 28.4668 74.6064 28.4668 74.3757V69.133C28.4668 68.9023 28.5585 68.681 28.7216 68.5179C28.8848 68.3547 29.1061 68.263 29.3368 68.263C29.5675 68.263 29.7888 68.3547 29.952 68.5179C30.1151 68.681 30.2068 68.9023 30.2068 69.133V74.3757C30.2068 74.6064 30.1151 74.8277 29.952 74.9908C29.7888 75.154 29.5675 75.2457 29.3368 75.2457ZM137.519 69.6768C137.288 69.6768 137.067 69.5851 136.904 69.422C136.74 69.2588 136.649 69.0375 136.649 68.8068V63.5642C136.649 63.3334 136.74 63.1121 136.904 62.949C137.067 62.7858 137.288 62.6942 137.519 62.6942C137.749 62.6942 137.971 62.7858 138.134 62.949C138.297 63.1121 138.389 63.3334 138.389 63.5642V68.8068C138.389 69.0375 138.297 69.2588 138.134 69.422C137.971 69.5851 137.749 69.6768 137.519 69.6768ZM29.3368 64.7609C29.1061 64.7609 28.8848 64.6692 28.7216 64.506C28.5585 64.3429 28.4668 64.1216 28.4668 63.8909V58.6478C28.4668 58.4171 28.5585 58.1958 28.7216 58.0326C28.8848 57.8695 29.1061 57.7778 29.3368 57.7778C29.5675 57.7778 29.7888 57.8695 29.952 58.0326C30.1151 58.1958 30.2068 58.4171 30.2068 58.6478V63.8909C30.2068 64.1216 30.1151 64.3429 29.952 64.506C29.7888 64.6692 29.5675 64.7609 29.3368 64.7609ZM137.511 59.1915C137.287 59.1915 137.073 59.1053 136.911 58.951C136.749 58.7967 136.653 58.5861 136.643 58.3629C136.609 57.6037 136.421 56.8592 136.091 56.1748C135.76 55.4904 135.294 54.8804 134.721 54.3818C134.547 54.2296 134.441 54.0148 134.426 53.7846C134.411 53.5543 134.488 53.3275 134.64 53.154C134.792 52.9804 135.007 52.8745 135.237 52.8593C135.468 52.8442 135.694 52.9212 135.868 53.0733C137.393 54.4105 138.285 56.2596 138.38 58.2807C138.385 58.3948 138.368 58.5089 138.33 58.6164C138.291 58.724 138.232 58.8228 138.155 58.9074C138.078 58.9919 137.985 59.0605 137.882 59.1092C137.778 59.1579 137.666 59.1857 137.552 59.1911L137.511 59.1915ZM31.3213 54.8189C31.148 54.8189 30.9788 54.7672 30.8351 54.6704C30.6915 54.5736 30.58 54.4361 30.515 54.2756C30.4499 54.115 30.4343 53.9387 30.4701 53.7693C30.5058 53.5998 30.5914 53.4448 30.7157 53.3243C32.0927 51.9844 33.9392 51.2364 35.8605 51.2402H36.0806C36.3113 51.2402 36.5326 51.3318 36.6958 51.495C36.8589 51.6582 36.9506 51.8794 36.9506 52.1102C36.9506 52.3409 36.8589 52.5622 36.6958 52.7254C36.5326 52.8885 36.3113 52.9802 36.0806 52.9802H35.8609C34.3918 52.9771 32.9798 53.5492 31.9272 54.574C31.7576 54.7371 31.5392 54.8189 31.3213 54.8189ZM130.448 52.9797H125.206C124.975 52.9797 124.754 52.8881 124.59 52.7249C124.427 52.5618 124.336 52.3405 124.336 52.1097C124.336 51.879 124.427 51.6577 124.59 51.4946C124.754 51.3314 124.975 51.2397 125.206 51.2397H130.448C130.679 51.2397 130.9 51.3314 131.063 51.4946C131.227 51.6577 131.318 51.879 131.318 52.1097C131.318 52.3405 131.227 52.5618 131.063 52.7249C130.9 52.8881 130.679 52.9797 130.448 52.9797ZM119.963 52.9797H114.72C114.49 52.9797 114.268 52.8881 114.105 52.7249C113.942 52.5618 113.85 52.3405 113.85 52.1097C113.85 51.879 113.942 51.6577 114.105 51.4946C114.268 51.3314 114.49 51.2397 114.72 51.2397H119.963C120.194 51.2397 120.415 51.3314 120.578 51.4946C120.741 51.6577 120.833 51.879 120.833 52.1097C120.833 52.3405 120.741 52.5618 120.578 52.7249C120.415 52.8881 120.194 52.9797 119.963 52.9797ZM109.478 52.9797H104.235C104.004 52.9797 103.783 52.8881 103.62 52.7249C103.457 52.5618 103.365 52.3405 103.365 52.1097C103.365 51.879 103.457 51.6577 103.62 51.4946C103.783 51.3314 104.004 51.2397 104.235 51.2397H109.478C109.708 51.2397 109.93 51.3314 110.093 51.4946C110.256 51.6577 110.348 51.879 110.348 52.1097C110.348 52.3405 110.256 52.5618 110.093 52.7249C109.93 52.8881 109.708 52.9797 109.478 52.9797ZM98.9925 52.9797H93.7499C93.5191 52.9797 93.2978 52.8881 93.1347 52.7249C92.9715 52.5618 92.8799 52.3405 92.8799 52.1097C92.8799 51.879 92.9715 51.6577 93.1347 51.4946C93.2978 51.3314 93.5191 51.2397 93.7499 51.2397H98.9925C99.2232 51.2397 99.4445 51.3314 99.6077 51.4946C99.7708 51.6577 99.8625 51.879 99.8625 52.1097C99.8625 52.3405 99.7708 52.5618 99.6077 52.7249C99.4445 52.8881 99.2232 52.9797 98.9925 52.9797ZM88.5072 52.9797H83.2646C83.0339 52.9797 82.8126 52.8881 82.6494 52.7249C82.4863 52.5618 82.3946 52.3405 82.3946 52.1097C82.3946 51.879 82.4863 51.6577 82.6494 51.4946C82.8126 51.3314 83.0339 51.2397 83.2646 51.2397H88.5072C88.738 51.2397 88.9593 51.3314 89.1224 51.4946C89.2856 51.6577 89.3772 51.879 89.3772 52.1097C89.3772 52.3405 89.2856 52.5618 89.1224 52.7249C88.9593 52.8881 88.738 52.9797 88.5072 52.9797ZM78.0216 52.9797H72.7789C72.5482 52.9797 72.3269 52.8881 72.1638 52.7249C72.0006 52.5618 71.9089 52.3405 71.9089 52.1097C71.9089 51.879 72.0006 51.6577 72.1638 51.4946C72.3269 51.3314 72.5482 51.2397 72.7789 51.2397H78.0216C78.2523 51.2397 78.4736 51.3314 78.6367 51.4946C78.7999 51.6577 78.8916 51.879 78.8916 52.1097C78.8916 52.3405 78.7999 52.5618 78.6367 52.7249C78.4736 52.8881 78.2523 52.9797 78.0216 52.9797ZM67.5363 52.9797H62.2937C62.063 52.9797 61.8417 52.8881 61.6785 52.7249C61.5154 52.5618 61.4237 52.3405 61.4237 52.1097C61.4237 51.879 61.5154 51.6577 61.6785 51.4946C61.8417 51.3314 62.063 51.2397 62.2937 51.2397H67.5363C67.7671 51.2397 67.9883 51.3314 68.1515 51.4946C68.3147 51.6577 68.4063 51.879 68.4063 52.1097C68.4063 52.3405 68.3147 52.5618 68.1515 52.7249C67.9883 52.8881 67.7671 52.9797 67.5363 52.9797ZM57.0511 52.9797H51.8085C51.5777 52.9797 51.3564 52.8881 51.1933 52.7249C51.0301 52.5618 50.9385 52.3405 50.9385 52.1097C50.9385 51.879 51.0301 51.6577 51.1933 51.4946C51.3564 51.3314 51.5777 51.2397 51.8085 51.2397H57.0511C57.2818 51.2397 57.5031 51.3314 57.6663 51.4946C57.8294 51.6577 57.9211 51.879 57.9211 52.1097C57.9211 52.3405 57.8294 52.5618 57.6663 52.7249C57.5031 52.8881 57.2818 52.9797 57.0511 52.9797ZM46.5658 52.9797H41.3232C41.0925 52.9797 40.8712 52.8881 40.708 52.7249C40.5449 52.5618 40.4532 52.3405 40.4532 52.1097C40.4532 51.879 40.5449 51.6577 40.708 51.4946C40.8712 51.3314 41.0925 51.2397 41.3232 51.2397H46.5658C46.7966 51.2397 47.0179 51.3314 47.181 51.4946C47.3442 51.6577 47.4358 51.879 47.4358 52.1097C47.4358 52.3405 47.3442 52.5618 47.181 52.7249C47.0179 52.8881 46.7966 52.9797 46.5658 52.9797Z" fill="#F3F3F5"/>
<path d="M156.69 84.7389V100.399C156.69 104.001 153.771 106.924 150.165 106.924H127.177C119.247 106.924 112.822 100.495 112.822 92.5689C112.822 84.6393 119.247 78.2139 127.177 78.2139H150.165C153.771 78.2139 156.69 81.1371 156.69 84.7389Z" fill="#303030"/>
<path d="M128.261 101.962C133.448 101.962 137.654 97.7565 137.654 92.5687C137.654 87.3809 133.448 83.1753 128.261 83.1753C123.073 83.1753 118.867 87.3809 118.867 92.5687C118.867 97.7565 123.073 101.962 128.261 101.962Z" fill="#F3F3F5"/>
</svg>
