<svg width="149" height="149" viewBox="0 0 149 149" fill="none" xmlns="http://www.w3.org/2000/svg">
<path d="M120.104 29.5361C121.993 31.5708 123.044 34.2449 123.044 37.0218V129.162C123.044 135.237 118.119 140.162 112.044 140.162H36.9551C30.8799 140.162 25.9551 135.237 25.9551 129.162V19.8384C25.9551 13.7633 30.8799 8.83838 36.9551 8.83838H95.5306C98.4609 8.83838 101.27 10.0076 103.335 12.0866L112 20.8104L120.104 29.5361Z" fill="white" fill-opacity="0.4"/>
<path d="M74.4337 55.6245V79.8428H44.0312V55.6245H48.152H70.31H74.4337Z" fill="white"/>
<path d="M70.3085 55.1095V55.6246H48.1506V49.8014C48.1421 48.3393 48.4222 46.89 48.9747 45.5363C49.5273 44.1826 50.3414 42.9512 51.3705 41.9126C52.3997 40.874 53.6235 40.0487 54.9721 39.4838C56.3207 38.9189 57.7674 38.6256 59.2295 38.6206H59.3256C65.4136 38.6206 70.3085 43.6494 70.3085 49.8014V55.1095Z" fill="white" fill-opacity="0.4"/>
<path d="M105.251 121.176H41.9727C41.3552 121.176 40.763 120.931 40.3264 120.494C39.8898 120.057 39.6445 119.465 39.6445 118.848C39.6445 118.23 39.8898 117.638 40.3264 117.202C40.763 116.765 41.3552 116.52 41.9727 116.52H105.251C105.869 116.52 106.461 116.765 106.897 117.202C107.334 117.638 107.579 118.23 107.579 118.848C107.579 119.465 107.334 120.057 106.897 120.494C106.461 120.931 105.869 121.176 105.251 121.176ZM78.6319 105.642H41.9727C41.3552 105.642 40.763 105.396 40.3264 104.96C39.8898 104.523 39.6445 103.931 39.6445 103.313C39.6445 102.696 39.8898 102.104 40.3264 101.667C40.763 101.231 41.3552 100.985 41.9727 100.985H78.6319C79.2494 100.985 79.8415 101.231 80.2781 101.667C80.7147 102.104 80.96 102.696 80.96 103.313C80.96 103.931 80.7147 104.523 80.2781 104.96C79.8415 105.396 79.2494 105.642 78.6319 105.642ZM72.637 55.1096H67.9807V49.8014C67.9807 44.9199 64.0983 40.9487 59.3259 40.9487H59.2299C56.8963 40.9649 54.6645 41.906 53.024 43.5656C51.3834 45.2253 50.4682 47.4679 50.479 49.8014V55.1096H45.8228V49.8014C45.8135 46.2334 47.2198 42.8074 49.7332 40.2749C52.2466 37.7424 55.6619 36.3102 59.2299 36.2925H59.3259C66.6656 36.2925 72.637 42.3526 72.637 49.8014V55.1096ZM58.9738 73.4115C58.3563 73.4115 57.7642 73.1662 57.3276 72.7296C56.8909 72.293 56.6457 71.7009 56.6457 71.0834V67.4777C56.6457 66.8603 56.8909 66.2681 57.3276 65.8315C57.7642 65.3949 58.3563 65.1496 58.9738 65.1496C59.5912 65.1496 60.1834 65.3949 60.62 65.8315C61.0566 66.2681 61.3019 66.8603 61.3019 67.4777V71.0834C61.3019 71.7009 61.0566 72.293 60.62 72.7296C60.1834 73.1662 59.5912 73.4115 58.9738 73.4115Z" fill="#303030"/>
</svg>
