<svg width="390" height="180" viewBox="0 0 390 180" fill="none" xmlns="http://www.w3.org/2000/svg">
<path d="M249.145 36.406L181.312 75.5667V180L249.145 140.839V36.406Z" fill="white"/>
<path d="M127.014 148.616L127.195 44.3635L181.269 75.5112V179.944L127 148.616H127.014Z" fill="#797979"/>
<path d="M181.307 75.5667L185.842 78.2098V166.951L181.266 164.336L181.307 75.5667Z" fill="#797979"/>
<path d="M185.828 78.1685L253.66 39.0078V127.777L185.828 166.937V78.1685Z" fill="#797979" fill-opacity="0.4"/>
<path style="mix-blend-mode:overlay" opacity="0.3" d="M185.828 78.1685L253.66 39.0078V127.777L185.828 166.937V78.1685Z" fill="url(#paint0_linear_1315_15474)"/>
<path d="M177.052 172.669L131.172 146.181V51.3191L177.052 77.8065V172.669ZM131.728 145.861L176.509 171.709V78.1264L131.728 52.279V145.861Z" fill="#303030"/>
<path d="M181.877 164.669L181.32 164.349V75.3579H181.877V164.669Z" fill="#303030"/>
<path d="M181.312 164.349V75.3579L181.591 75.5109L181.549 164.489L181.312 164.349Z" fill="#797979" fill-opacity="0.4"/>
<path d="M177.052 172.669L131.172 146.181V51.3191L131.492 51.5138L131.464 145.973L177.052 172.362V172.669Z" fill="#797979" fill-opacity="0.4"/>
<path d="M253.66 85.1238L185.828 124.284V123.283L253.66 84.4004V85.1238Z" fill="#F3F3F5"/>
<path d="M185.595 166.798L185.539 77.7786L186.179 78.1542L186.137 166.77L185.831 166.937L185.595 166.798Z" fill="#797979" fill-opacity="0.4"/>
<g style="mix-blend-mode:multiply" opacity="0.43">
<path d="M253.754 47.9109V53.1416L186.172 92.1076V76.4155L253.754 47.9109Z" fill="#303030"/>
</g>
<path d="M127.209 44.3638L194.888 5.06396L258.213 41.5815L190.367 80.77L127.195 44.3638H127.209Z" fill="#797979" fill-opacity="0.4"/>
<path d="M195.023 78.3214L262.856 39.1606V44.3774L195.023 83.5382V78.3214Z" fill="#F3F3F5"/>
<path d="M195.027 78.3214L127.195 39.1606V44.3774L195.027 83.5382V78.3214Z" fill="#454545"/>
<path d="M195.027 0L262.86 39.1607L195.027 78.3214L127.195 39.1607L195.027 0Z" fill="#8B8B8B"/>
<g style="mix-blend-mode:overlay" opacity="0.3">
<path d="M195.027 0L262.86 39.1607L195.027 78.3214L127.195 39.1607L195.027 0Z" fill="#F3F3F5"/>
</g>
<path d="M194.735 83.3714V78.405L127.209 39.606L127.195 39.1608L127.627 38.9661L195.027 77.9181L262.526 38.9661L262.86 39.1608V39.606L195.361 78.4189L195.403 83.3296L195.027 83.5383L194.735 83.3714Z" fill="#BCBCBC"/>
<path d="M185.969 124.215L253.662 85.1239V84.8179L186.094 123.77L185.969 124.215Z" fill="#797979" fill-opacity="0.4"/>
<defs>
<linearGradient id="paint0_linear_1315_15474" x1="185.828" y1="102.973" x2="253.66" y2="102.973" gradientUnits="userSpaceOnUse">
<stop stop-color="white"/>
<stop offset="1" stop-color="#808080"/>
</linearGradient>
</defs>
</svg>
