<svg width="390" height="180" viewBox="0 0 390 180" fill="none" xmlns="http://www.w3.org/2000/svg">
<g clip-path="url(#clip0_1172_15680)">
<path d="M169.477 93.4343L279.498 29.5474L382.44 88.9113L272.171 152.617L169.477 93.4343Z" fill="#E3F2F2"/>
<path d="M279.727 148.637L389.996 84.9766V93.4571L279.727 157.118V148.637Z" fill="#666666"/>
<path d="M279.731 148.637L169.461 84.9766V93.4571L279.731 157.118V148.637Z" fill="#454545"/>
<path d="M279.731 21.3154L390.001 84.9762L279.731 148.637L169.461 84.9762L279.731 21.3154Z" fill="#8B8B8B"/>
<path style="mix-blend-mode:overlay" opacity="0.3" d="M279.731 21.3154L390.001 84.9762L279.731 148.637L169.461 84.9762L279.731 21.3154Z" fill="url(#paint0_linear_1172_15680)"/>
<path d="M267.776 130.183C297.153 113.222 326.507 96.261 355.883 79.3225C358.009 78.1013 358.009 75.0257 355.883 73.8045C331.414 59.6702 306.945 45.5586 282.475 31.4243C280.825 30.4745 278.789 30.4745 277.116 31.4243C247.739 48.3854 218.385 65.3465 189.008 82.2851C186.883 83.5063 186.883 86.5819 189.008 87.8031C213.478 101.937 237.947 116.049 262.416 130.183C264.067 131.133 266.102 131.133 267.776 130.183Z" fill="#666666"/>
<path style="mix-blend-mode:overlay" opacity="0.3" d="M267.776 130.183C297.153 113.222 326.507 96.261 355.883 79.3225C358.009 78.1013 358.009 75.0257 355.883 73.8045C331.414 59.6702 306.945 45.5586 282.475 31.4243C280.825 30.4745 278.789 30.4745 277.116 31.4243C247.739 48.3854 218.385 65.3465 189.008 82.2851C186.883 83.5063 186.883 86.5819 189.008 87.8031C213.478 101.937 237.947 116.049 262.416 130.183C264.067 131.133 266.102 131.133 267.776 130.183Z" fill="url(#paint1_linear_1172_15680)"/>
<path d="M198.93 85.0439L265.078 123.24L345.949 76.5634L279.8 38.3669L198.93 85.0439Z" fill="#4D4D4D"/>
<path d="M235.695 63.8085L301.844 102.005L345.943 76.5407L279.794 38.3442L235.695 63.8085Z" fill="#414141"/>
<path d="M345.937 76.5633L331.238 85.0438L279.789 55.328V38.3442L345.937 76.5407V76.5633Z" fill="#4D4D4D"/>
<path d="M235.695 63.8085L279.794 38.3442V55.328L250.395 72.3117L235.695 63.8311V63.8085Z" fill="#6B6B6B"/>
<path d="M276.004 70.0055C278.243 70.0055 281.568 70.9327 282.631 72.7871C282.857 72.4026 282.97 71.9956 282.97 71.5433C282.97 68.8521 278.696 67.5178 276.004 67.5178C273.313 67.5178 269.039 68.8521 269.039 71.5433C269.039 71.9956 269.152 72.4026 269.378 72.7871C270.441 70.9327 273.766 70.0055 276.004 70.0055Z" fill="#4D4D4D"/>
<path d="M276.001 75.5459C278.217 75.5459 281.564 74.6187 282.627 72.7643C281.564 70.9099 278.24 69.9827 276.001 69.9827C273.762 69.9827 270.438 70.9099 269.375 72.7643C270.438 74.6187 273.785 75.5459 276.001 75.5459Z" fill="#333333"/>
<path d="M205.067 86.2206C204.457 85.8588 204.457 84.9542 205.067 84.6149L235.326 67.0885C235.62 66.9302 235.959 66.9302 236.253 67.0885C236.864 67.4503 236.864 68.3549 236.253 68.6941L205.995 86.2206C205.701 86.3789 205.361 86.3789 205.067 86.2206Z" fill="#606060"/>
<path d="M209.02 88.1652C208.41 87.8033 208.41 86.8987 209.02 86.5595L239.279 69.033C239.573 68.8747 239.912 68.8747 240.206 69.033C240.84 69.3949 240.84 70.2995 240.206 70.6387L209.948 88.1652C209.654 88.3235 209.314 88.3235 209.02 88.1652Z" fill="#606060"/>
<path d="M212.341 90.5172C211.73 90.1554 211.73 89.2508 212.341 88.9116L242.599 71.3851C242.893 71.2268 243.233 71.2268 243.527 71.3851C244.137 71.7469 244.137 72.6515 243.527 72.9907L213.268 90.5172C212.974 90.6755 212.612 90.6755 212.341 90.5172Z" fill="#606060"/>
<path d="M216.28 92.4616C215.646 92.0997 215.646 91.1951 216.28 90.8559L246.538 73.3294C246.832 73.1711 247.171 73.1711 247.465 73.3294C248.099 73.6913 248.099 74.5733 247.465 74.9351L217.207 92.4616C216.913 92.6199 216.574 92.6199 216.28 92.4616Z" fill="#606060"/>
<path d="M220.358 94.3615C219.725 93.9996 219.725 93.095 220.358 92.7558L250.616 75.2293C250.91 75.071 251.25 75.071 251.544 75.2293C252.154 75.5912 252.154 76.4958 251.544 76.835L221.285 94.3615C220.991 94.5198 220.652 94.5198 220.358 94.3615Z" fill="#606060"/>
<path d="M224.317 96.3065C223.707 95.9447 223.707 95.0401 224.317 94.7009L254.576 77.1744C254.87 77.0161 255.209 77.0161 255.503 77.1744C256.136 77.5362 256.136 78.4408 255.503 78.78L225.245 96.3065C224.951 96.4648 224.589 96.4648 224.317 96.3065Z" fill="#606060"/>
<path d="M227.653 98.6356C227.043 98.2738 227.043 97.3692 227.653 97.03L257.912 79.5035C258.206 79.3452 258.545 79.3452 258.839 79.5035C259.472 79.8653 259.472 80.7699 258.839 81.1091L228.58 98.6356C228.286 98.7939 227.947 98.7939 227.653 98.6356Z" fill="#606060"/>
<path d="M231.576 100.58C230.943 100.219 230.943 99.314 231.576 98.9748L261.835 81.4483C262.129 81.29 262.468 81.29 262.762 81.4483C263.396 81.8102 263.396 82.7147 262.762 83.054L232.504 100.58C232.21 100.739 231.848 100.739 231.576 100.58Z" fill="#606060"/>
<path d="M235.145 102.797C234.535 102.435 234.535 101.531 235.145 101.191L265.404 83.6649C265.698 83.5066 266.037 83.5066 266.331 83.6649C266.942 84.0267 266.942 84.9313 266.331 85.2705L236.073 102.797C235.779 102.955 235.439 102.955 235.145 102.797Z" fill="#606060"/>
<path d="M238.678 104.9C238.045 104.538 238.045 103.633 238.678 103.294L268.937 85.7677C269.231 85.6093 269.57 85.6093 269.864 85.7677C270.475 86.1295 270.475 87.0341 269.864 87.3733L239.605 104.9C239.311 105.058 238.972 105.058 238.678 104.9Z" fill="#606060"/>
<path d="M241.81 107.388C241.199 107.026 241.199 106.121 241.81 105.782L272.068 88.2557C272.362 88.0974 272.724 88.0974 272.995 88.2557C273.629 88.6175 273.629 89.5221 272.995 89.8613L242.737 107.388C242.443 107.546 242.104 107.546 241.81 107.388Z" fill="#606060"/>
<path d="M245.755 109.332C245.144 108.971 245.144 108.066 245.755 107.727L276.013 90.2003C276.307 90.042 276.647 90.042 276.941 90.2003C277.574 90.5621 277.574 91.4667 276.941 91.8059L246.682 109.332C246.388 109.491 246.049 109.491 245.755 109.332Z" fill="#606060"/>
<path d="M249.849 111.232C249.238 110.87 249.238 109.966 249.849 109.627L280.107 92.1002C280.401 91.9419 280.74 91.9419 281.034 92.1002C281.668 92.462 281.668 93.3666 281.034 93.7058L250.776 111.232C250.482 111.391 250.12 111.391 249.849 111.232Z" fill="#606060"/>
<path d="M253.786 113.177C253.175 112.815 253.175 111.911 253.786 111.571L284.045 94.045C284.339 93.8867 284.678 93.8867 284.972 94.045C285.605 94.4068 285.605 95.3114 284.972 95.6506L254.713 113.177C254.419 113.335 254.08 113.335 253.786 113.177Z" fill="#606060"/>
<path d="M257.106 115.507C256.496 115.145 256.496 114.24 257.106 113.878L287.365 96.3519C287.659 96.1936 287.998 96.1936 288.292 96.3519C288.903 96.7137 288.903 97.6183 288.292 97.9576L258.034 115.484C257.74 115.642 257.378 115.642 257.106 115.484V115.507Z" fill="#606060"/>
<path d="M261.052 117.451C260.441 117.089 260.441 116.185 261.052 115.846L291.31 98.3192C291.604 98.1609 291.944 98.1609 292.238 98.3192C292.871 98.681 292.871 99.5856 292.238 99.9474L261.979 117.474C261.685 117.632 261.346 117.632 261.052 117.474V117.451Z" fill="#606060"/>
<path d="M264.139 119.849C263.506 119.487 263.506 118.582 264.139 118.243L294.398 100.717C294.692 100.558 295.031 100.558 295.325 100.717C295.935 101.078 295.935 101.96 295.325 102.322L265.066 119.849C264.772 120.007 264.433 120.007 264.139 119.849Z" fill="#606060"/>
<path d="M224.477 32.6684C224.477 31.3793 226.535 30.7461 227.824 30.7461C229.113 30.7461 231.171 31.3793 231.171 32.6684V65.6182C231.171 66.9072 229.113 67.5404 227.824 67.5404C226.535 67.5404 224.477 66.9072 224.477 65.6182V32.6684Z" fill="#B1B1B1"/>
<path d="M245.87 60.0775C246.571 60.4846 247.566 59.5574 247.973 58.8563C248.38 58.1553 248.674 56.821 247.973 56.4366L230.627 46.1694C229.926 45.7623 228.931 46.6896 228.524 47.3906C228.117 48.0917 227.823 49.426 228.524 49.8104L245.87 60.0775Z" fill="#D1D1D1"/>
<path d="M219.797 30.6553V33.8892L241.846 46.6213L249.196 42.3698L219.797 30.6553Z" fill="#999999"/>
<path d="M227.147 26.4041L219.797 30.6557L241.846 43.3878L249.196 39.1362L227.147 26.4041Z" fill="#CACACA"/>
<path style="mix-blend-mode:overlay" opacity="0.3" d="M227.147 26.4041L219.797 30.6557L241.846 43.3878L249.196 39.1362L227.147 26.4041Z" fill="url(#paint2_linear_1172_15680)"/>
<path d="M241.844 46.6212L249.194 42.3697V39.1357L241.844 43.3873V46.6212Z" fill="#B3B3B3"/>
<g style="mix-blend-mode:overlay" opacity="0.65">
<path opacity="0.06" d="M228.967 47.5716C228.696 48.0013 230.957 49.8557 234.01 51.6649C237.063 53.4967 239.732 54.6274 240.003 54.1751C240.275 53.7454 238.013 51.891 234.96 50.0818C231.907 48.25 229.239 47.1193 228.967 47.5716Z" fill="white"/>
<path opacity="0.12" d="M229.183 47.6845C228.935 48.1142 231.106 49.8781 234.046 51.6195C236.986 53.3834 239.564 54.4689 239.812 54.0393C240.061 53.6096 237.89 51.8456 234.95 50.1043C232.01 48.3403 229.432 47.2548 229.183 47.6845Z" fill="white"/>
<path opacity="0.19" d="M229.387 47.8201C229.138 48.2272 231.242 49.9233 234.046 51.6194C236.85 53.3155 239.338 54.3558 239.586 53.9488C239.835 53.5417 237.732 51.8456 234.928 50.1495C232.124 48.4534 229.636 47.4131 229.387 47.8201Z" fill="white"/>
<path opacity="0.25" d="M229.601 47.9558C229.375 48.3402 231.365 49.9685 234.056 51.5968C236.747 53.225 239.122 54.2201 239.37 53.8356C239.596 53.4512 237.606 51.8229 234.893 50.1947C232.201 48.5664 229.827 47.5713 229.578 47.9558H229.601Z" fill="white"/>
<path opacity="0.31" d="M229.815 48.0695C229.589 48.4314 231.511 49.9918 234.089 51.5522C236.667 53.09 238.951 54.0625 239.177 53.678C239.404 53.3162 237.481 51.7557 234.903 50.1953C232.325 48.6349 230.041 47.6851 229.815 48.0695Z" fill="white"/>
<path opacity="0.38" d="M230.015 48.2048C229.811 48.5667 231.62 50.0366 234.085 51.5292C236.55 52.9992 238.722 53.9264 238.925 53.5645C239.129 53.2027 237.319 51.7327 234.832 50.2402C232.367 48.7702 230.196 47.843 229.992 48.2048H230.015Z" fill="white"/>
<path opacity="0.44" d="M230.227 48.3178C230.024 48.657 231.765 50.0817 234.117 51.4839C236.469 52.886 238.527 53.768 238.73 53.4287C238.934 53.0895 237.192 51.6648 234.841 50.2627C232.489 48.8605 230.431 47.9786 230.227 48.3178Z" fill="white"/>
<path opacity="0.5" d="M230.443 48.4535C230.262 48.7701 231.913 50.127 234.129 51.4612C236.368 52.7955 238.336 53.6323 238.517 53.3157C238.698 52.999 237.047 51.6422 234.831 50.3079C232.592 48.9736 230.624 48.1369 230.443 48.4535Z" fill="white"/>
<path opacity="0.56" d="M230.655 48.5669C230.474 48.8609 232.034 50.1499 234.16 51.4164C236.286 52.6828 238.14 53.4743 238.321 53.1577C238.502 52.8637 236.942 51.5746 234.816 50.3082C232.69 49.0418 230.836 48.2503 230.655 48.5669Z" fill="white"/>
<path opacity="0.62" d="M230.866 48.7025C230.686 48.9965 232.178 50.1951 234.168 51.3937C236.181 52.5923 237.922 53.3386 238.103 53.0446C238.284 52.7506 236.792 51.552 234.801 50.3534C232.811 49.1548 231.047 48.4085 230.866 48.7025Z" fill="white"/>
<path opacity="0.69" d="M231.075 48.8382C230.916 49.1095 232.318 50.2403 234.196 51.371C236.073 52.5017 237.746 53.2028 237.904 52.9314C238.063 52.6601 236.661 51.5293 234.784 50.3986C232.906 49.2678 231.233 48.5668 231.075 48.8382Z" fill="white"/>
<path opacity="0.75" d="M231.286 48.9511C231.128 49.1999 232.44 50.2628 234.204 51.3257C235.968 52.3886 237.528 53.0444 237.686 52.7956C237.845 52.5469 236.533 51.484 234.769 50.4211C233.005 49.3582 231.445 48.7024 231.286 48.9511Z" fill="white"/>
<path opacity="0.81" d="M231.518 49.0868C231.382 49.3356 232.604 50.3306 234.255 51.303C235.905 52.2981 237.353 52.9087 237.511 52.6599C237.647 52.4112 236.426 51.4161 234.775 50.4437C233.124 49.4486 231.676 48.838 231.518 49.0868Z" fill="white"/>
<path opacity="0.88" d="M231.714 49.1997C231.578 49.4258 232.709 50.3531 234.247 51.2577C235.785 52.1849 237.142 52.7502 237.277 52.5241C237.413 52.2979 236.26 51.3707 234.745 50.4661C233.207 49.5389 231.85 48.9735 231.714 49.1997Z" fill="white"/>
<path opacity="0.94" d="M231.922 49.3353C231.809 49.5389 232.85 50.3982 234.274 51.2576C235.699 52.1169 236.943 52.6371 237.056 52.4335C237.169 52.23 236.129 51.3707 234.704 50.5113C233.279 49.6519 232.036 49.1318 231.922 49.3353Z" fill="white"/>
<path d="M232.111 49.4485C231.997 49.6294 232.97 50.421 234.259 51.2125C235.571 52.004 236.701 52.4789 236.814 52.298C236.927 52.1171 235.955 51.3256 234.666 50.534C233.354 49.7425 232.224 49.2676 232.111 49.4485Z" fill="white"/>
</g>
<path d="M244.449 63.1531C243.16 63.1531 241.102 62.5199 241.102 61.2309C241.102 59.9418 243.16 59.3086 244.449 59.3086C245.738 59.3086 247.796 59.9418 247.796 61.2309C247.796 62.5199 245.738 63.1531 244.449 63.1531Z" fill="#B1B1B1"/>
<path d="M240.997 51.8453C241.788 50.7597 243.281 50.0813 244.638 50.0813C245.882 50.0813 247.284 50.7145 248.03 51.7322C249.545 53.8128 249.161 57.612 249.161 59.376C249.161 61.14 246.334 62.0445 244.57 62.0445C242.806 62.0445 239.979 61.1626 239.979 59.376C239.979 57.5894 239.55 53.9032 241.042 51.8453H240.997Z" fill="#999999"/>
<g style="mix-blend-mode:overlay" opacity="0.3">
<path opacity="0.06" d="M241.662 52.7276C241.277 53.3608 241.775 54.3558 242.747 54.9438C243.719 55.5318 244.828 55.4866 245.212 54.876C245.597 54.2427 245.099 53.2477 244.127 52.6597C243.154 52.0717 242.046 52.117 241.662 52.7276Z" fill="white"/>
<path opacity="0.12" d="M241.723 52.7731C241.361 53.3837 241.836 54.3336 242.763 54.8989C243.713 55.4643 244.754 55.4191 245.115 54.8311C245.477 54.2205 245.002 53.2707 244.075 52.7053C243.125 52.1399 242.085 52.1851 241.723 52.7731Z" fill="white"/>
<path opacity="0.19" d="M241.787 52.8182C241.448 53.4062 241.878 54.3108 242.783 54.8536C243.687 55.3963 244.705 55.3737 245.044 54.7857C245.383 54.1978 244.954 53.2932 244.049 52.7504C243.144 52.2076 242.127 52.2303 241.787 52.8182Z" fill="white"/>
<path opacity="0.25" d="M241.866 52.8406C241.527 53.406 241.956 54.2654 242.838 54.7855C243.698 55.3056 244.67 55.283 245.009 54.7177C245.349 54.1523 244.919 53.2929 244.037 52.7728C243.178 52.2526 242.205 52.2752 241.866 52.8406Z" fill="white"/>
<path opacity="0.31" d="M241.92 52.8857C241.603 53.4285 242.01 54.2652 242.847 54.7627C243.684 55.2603 244.611 55.2376 244.927 54.6949C245.244 54.1521 244.837 53.3154 244 52.8179C243.164 52.3203 242.236 52.343 241.92 52.8857Z" fill="white"/>
<path opacity="0.38" d="M241.998 52.9308C241.682 53.4509 242.089 54.2424 242.88 54.7174C243.672 55.1923 244.554 55.1697 244.87 54.6495C245.187 54.1294 244.78 53.3379 243.988 52.8629C243.197 52.388 242.315 52.4106 241.998 52.9308Z" fill="white"/>
<path opacity="0.44" d="M242.068 52.9764C241.774 53.4739 242.158 54.2202 242.905 54.6725C243.651 55.1248 244.51 55.1022 244.804 54.6046C245.098 54.1071 244.714 53.3608 243.967 52.9085C243.221 52.4562 242.362 52.4788 242.068 52.9764Z" fill="white"/>
<path opacity="0.5" d="M242.137 53.0219C241.866 53.4742 242.228 54.1979 242.929 54.6276C243.652 55.0573 244.444 55.0347 244.738 54.5597C245.009 54.1075 244.67 53.3838 243.946 52.9541C243.223 52.5244 242.431 52.547 242.137 53.0219Z" fill="white"/>
<path opacity="0.56" d="M242.203 53.0444C241.932 53.4741 242.271 54.1752 242.949 54.5822C243.628 54.9893 244.397 54.9667 244.645 54.537C244.917 54.1073 244.578 53.4063 243.899 52.9992C243.221 52.5921 242.452 52.6148 242.203 53.0444Z" fill="white"/>
<path opacity="0.62" d="M242.272 53.0893C242.023 53.4963 242.34 54.1522 242.996 54.5366C243.629 54.9211 244.353 54.8985 244.602 54.4914C244.85 54.0843 244.534 53.4285 243.878 53.044C243.245 52.6596 242.521 52.6822 242.272 53.0893Z" fill="white"/>
<path opacity="0.69" d="M242.334 53.1348C242.108 53.5193 242.402 54.1299 243.012 54.4917C243.623 54.8536 244.301 54.831 244.527 54.4465C244.754 54.062 244.46 53.4514 243.849 53.0896C243.238 52.7278 242.56 52.7504 242.334 53.1348Z" fill="white"/>
<path opacity="0.75" d="M242.405 53.1797C242.178 53.5415 242.472 54.1069 243.038 54.4687C243.603 54.808 244.236 54.7853 244.463 54.4235C244.689 54.0617 244.395 53.4737 243.829 53.1344C243.264 52.7952 242.631 52.8179 242.405 53.1797Z" fill="white"/>
<path opacity="0.81" d="M242.466 53.225C242.263 53.5642 242.534 54.107 243.054 54.4236C243.574 54.7402 244.185 54.7176 244.389 54.3784C244.592 54.0392 244.321 53.4964 243.801 53.1798C243.28 52.8632 242.67 52.8858 242.466 53.225Z" fill="white"/>
<path opacity="0.88" d="M242.554 53.2481C242.373 53.5647 242.599 54.0623 243.097 54.3563C243.594 54.6503 244.137 54.6276 244.341 54.311C244.522 53.9944 244.295 53.4969 243.798 53.2029C243.3 52.9089 242.758 52.9315 242.554 53.2481Z" fill="white"/>
<path opacity="0.94" d="M242.602 53.2928C242.421 53.5868 242.647 54.0391 243.099 54.3104C243.551 54.5818 244.071 54.5592 244.252 54.2652C244.433 53.9712 244.207 53.5189 243.755 53.2475C243.303 52.9762 242.782 52.9988 242.602 53.2928Z" fill="white"/>
<path d="M242.678 53.3384C242.52 53.6097 242.724 54.0394 243.153 54.2882C243.56 54.5369 244.035 54.5143 244.194 54.243C244.352 53.9716 244.148 53.5419 243.719 53.2931C243.289 53.0444 242.837 53.067 242.678 53.3384Z" fill="white"/>
</g>
<path d="M47.9531 165.231L136.965 113.85V42.7034L47.9531 94.0843V165.231Z" fill="#666666"/>
<path d="M47.9365 94.0614L0.015625 66.3809V137.527L47.9365 165.208V94.0614Z" fill="#999999"/>
<path d="M0 66.4034L89.012 15.0225L136.933 42.703L47.9208 94.0839L0 66.4034Z" fill="#B3B3B3"/>
<path style="mix-blend-mode:overlay" opacity="0.3" d="M0 66.4034L89.012 15.0225L136.933 42.703L47.9208 94.0839L0 66.4034Z" fill="url(#paint3_linear_1172_15680)"/>
<path d="M68.471 145.465L54.7891 153.38V98.0417L68.471 90.1265V145.465Z" fill="white"/>
<path d="M58.8453 117.378C58.1216 116.97 57.1039 117.898 56.6742 118.621C56.2672 119.345 55.9506 120.702 56.6742 121.109C57.3979 121.516 58.4156 120.589 58.8453 119.865C59.2523 119.142 59.5689 117.785 58.8453 117.378Z" fill="#666666"/>
<path d="M62.7046 114.98C61.981 114.573 60.9633 115.5 60.5336 116.224C60.1265 116.948 59.8099 118.304 60.5336 118.712C61.2573 119.119 62.275 118.191 62.7046 117.468C63.1117 116.744 63.4283 115.387 62.7046 114.98Z" fill="#666666"/>
<path d="M66.5883 112.764C65.8646 112.357 64.8469 113.284 64.4399 114.008C64.0328 114.732 63.7162 116.088 64.4399 116.496C65.1635 116.903 66.1812 115.975 66.5883 115.252C66.9953 114.528 67.3119 113.171 66.5883 112.764Z" fill="#666666"/>
<path d="M58.8453 111.973C58.1216 111.566 57.1039 112.493 56.6742 113.217C56.2672 113.94 55.9506 115.297 56.6742 115.704C57.3979 116.111 58.4156 115.184 58.8453 114.46C59.2523 113.737 59.5689 112.38 58.8453 111.973Z" fill="#666666"/>
<path d="M62.7046 109.576C61.981 109.168 60.9633 110.096 60.5336 110.819C60.1265 111.543 59.8099 112.9 60.5336 113.307C61.2573 113.714 62.275 112.787 62.7046 112.063C63.1117 111.339 63.4283 109.983 62.7046 109.576Z" fill="#666666"/>
<path d="M66.5883 107.337C65.8646 106.93 64.8469 107.857 64.4399 108.581C64.0328 109.304 63.7162 110.661 64.4399 111.068C65.1635 111.475 66.1812 110.548 66.5883 109.824C66.9953 109.101 67.3119 107.744 66.5883 107.337Z" fill="#666666"/>
<path d="M58.8453 136.645C58.1216 136.238 57.1039 137.165 56.6742 137.889C56.2672 138.613 55.9506 139.97 56.6742 140.377C57.3979 140.784 58.4156 139.857 58.8453 139.133C59.2523 138.409 59.5689 137.052 58.8453 136.645Z" fill="#666666"/>
<path d="M62.7046 134.248C61.981 133.841 60.9633 134.768 60.5336 135.492C60.1265 136.216 59.8099 137.573 60.5336 137.98C61.2573 138.387 62.275 137.459 62.7046 136.736C63.1117 136.012 63.4283 134.655 62.7046 134.248Z" fill="#666666"/>
<path d="M66.5883 132.009C65.8646 131.602 64.8469 132.53 64.4399 133.253C64.0328 133.977 63.7162 135.334 64.4399 135.741C65.1635 136.148 66.1812 135.221 66.5883 134.497C66.9953 133.773 67.3119 132.416 66.5883 132.009Z" fill="#666666"/>
<path d="M58.8453 131.24C58.1216 130.833 57.1039 131.76 56.6742 132.484C56.2672 133.208 55.9506 134.565 56.6742 134.972C57.3979 135.379 58.4156 134.452 58.8453 133.728C59.2523 133.004 59.5689 131.647 58.8453 131.24Z" fill="#666666"/>
<path d="M62.7046 128.843C61.981 128.436 60.9633 129.363 60.5336 130.087C60.1265 130.811 59.8099 132.168 60.5336 132.575C61.2573 132.982 62.275 132.054 62.7046 131.331C63.1117 130.607 63.4283 129.25 62.7046 128.843Z" fill="#666666"/>
<path d="M66.5883 126.604C65.8646 126.197 64.8469 127.124 64.4399 127.848C64.0328 128.572 63.7162 129.929 64.4399 130.336C65.1635 130.743 66.1812 129.816 66.5883 129.092C66.9953 128.368 67.3119 127.011 66.5883 126.604Z" fill="#666666"/>
<path d="M56.2422 101.366V109.869L67.0069 103.627V95.1243L56.2422 101.366Z" fill="#666666"/>
<path d="M56.2969 101.298V106.477L67.0163 100.009V95.1243L56.2969 101.298Z" fill="#414141"/>
<path style="mix-blend-mode:overlay" opacity="0.5" d="M68.4844 145.374V90.0586L130.087 54.5081V109.824L68.4844 145.374Z" fill="url(#paint4_linear_1172_15680)"/>
<path style="mix-blend-mode:overlay" opacity="0.5" d="M130.107 54.4856V109.801L93.5391 130.901L110.387 65.8609L130.107 54.4856Z" fill="url(#paint5_linear_1172_15680)"/>
<path d="M51.4219 127.577L53.4572 128.753L75.8459 115.817L73.8105 114.641L51.4219 127.577Z" fill="white"/>
<path d="M53.4531 128.753V131.105L75.8418 118.169V115.817L53.4531 128.753Z" fill="#797979"/>
<path d="M51.4219 129.929V127.577L53.4572 128.753V131.105L51.4219 129.929Z" fill="#303030"/>
<path d="M47.4685 164.959V94.1524L0 67.1728V66.5396L0.701054 66.1326L47.9435 93.3608L136.232 42.2739L136.955 42.681V43.2011L48.4862 94.1749L48.554 164.869L47.9435 165.231L47.4685 164.959Z" fill="#DFDFDF"/>
<path style="mix-blend-mode:overlay" opacity="0.12" d="M136.241 42.2735L47.9531 93.3604L89.0217 15L136.241 42.2735Z" fill="url(#paint6_linear_1172_15680)"/>
</g>
<defs>
<linearGradient id="paint0_linear_1172_15680" x1="169.484" y1="84.9762" x2="390.001" y2="84.9762" gradientUnits="userSpaceOnUse">
<stop stop-color="#808080"/>
<stop offset="1" stop-color="white"/>
</linearGradient>
<linearGradient id="paint1_linear_1172_15680" x1="187.425" y1="80.7925" x2="357.489" y2="80.7925" gradientUnits="userSpaceOnUse">
<stop stop-color="#808080"/>
<stop offset="1" stop-color="white"/>
</linearGradient>
<linearGradient id="paint2_linear_1172_15680" x1="219.797" y1="34.9072" x2="249.196" y2="34.9072" gradientUnits="userSpaceOnUse">
<stop stop-color="#808080"/>
<stop offset="1" stop-color="white"/>
</linearGradient>
<linearGradient id="paint3_linear_1172_15680" x1="0" y1="54.5306" x2="136.955" y2="54.5306" gradientUnits="userSpaceOnUse">
<stop stop-color="#808080"/>
<stop offset="1" stop-color="white"/>
</linearGradient>
<linearGradient id="paint4_linear_1172_15680" x1="130.087" y1="99.9186" x2="68.4844" y2="99.9186" gradientUnits="userSpaceOnUse">
<stop stop-color="white"/>
<stop offset="1" stop-color="#808080"/>
</linearGradient>
<linearGradient id="paint5_linear_1172_15680" x1="130.107" y1="92.7047" x2="93.5391" y2="92.7047" gradientUnits="userSpaceOnUse">
<stop stop-color="#808080"/>
<stop offset="1" stop-color="white"/>
</linearGradient>
<linearGradient id="paint6_linear_1172_15680" x1="47.9531" y1="54.1915" x2="136.241" y2="54.1915" gradientUnits="userSpaceOnUse">
<stop stop-color="white"/>
<stop offset="1" stop-color="#808080"/>
</linearGradient>
<clipPath id="clip0_1172_15680">
<rect width="390" height="180" fill="white"/>
</clipPath>
</defs>
</svg>
