<svg width="271" height="46" viewBox="0 0 271 46" fill="none" xmlns="http://www.w3.org/2000/svg">
<path fill-rule="evenodd" clip-rule="evenodd" d="M135.143 0.011186H269.046C269.708 0.011186 270.256 0.626749 270.256 1.38782V44.6119C270.256 45.373 269.717 45.9885 269.046 45.9885H135.143V0V0.011186Z" fill="#303030"/>
<path fill-rule="evenodd" clip-rule="evenodd" d="M1.21003 0.0112305H135.142V45.9998H1.21003C0.538856 45.9998 0 45.3842 0 44.6231V1.39906C0 0.637997 0.548309 0.0224335 1.21003 0.0224335" fill="#C82325"/>
<path fill-rule="evenodd" clip-rule="evenodd" d="M12.26 21.332L19.5674 7.5433H25.0407C25.5228 7.5433 25.7119 7.94622 25.4567 8.43867L18.8584 21.0522C18.6032 21.5447 18.6315 22.3281 18.9245 22.7982L28.0563 37.4935C28.3399 37.9636 28.1792 38.3329 27.6971 38.3329H21.3823L12.2506 23.8391V21.3432L12.26 21.332ZM132.324 38.3217C132.806 38.3217 133.203 37.8517 133.203 37.2697V8.56179C133.203 7.99099 132.806 7.52092 132.324 7.52092H127.957L115.602 26.0551V7.52092H110.752C110.261 7.52092 109.873 7.99099 109.873 8.56179V37.2697C109.873 37.8517 110.27 38.3217 110.752 38.3217H114.685C118.948 31.7295 123.221 24.9023 127.484 18.3102V38.3217H132.334H132.324ZM105.723 8.59536C105.723 8.02456 105.317 7.5433 104.844 7.5433H99.9946L99.9567 19.7651H88.4995L88.5374 7.5433H83.6879C83.2058 7.5433 82.8087 8.02456 82.8087 8.59536L82.771 37.2808C82.771 37.8628 83.168 38.3329 83.6501 38.3329H88.4995V25.7865H99.9567V38.3329H104.806C105.279 38.3329 105.685 37.8628 105.685 37.2808L105.723 8.59536ZM184.77 7.5433C185.262 7.5433 185.649 8.01337 185.649 8.59536V13.0498H177.302V38.3329H172.453C171.961 38.3329 171.564 37.8628 171.564 37.2808V13.0498H163.227V8.59536C163.227 8.01337 163.624 7.5433 164.106 7.5433H184.761H184.77ZM189.761 37.2808C189.761 37.8628 190.159 38.3329 190.641 38.3329H195.49V25.9096H200.056C206.9 25.9096 210.067 16.206 205.577 10.2742C204.206 8.44986 202.353 7.5433 200.018 7.5433H189.761V37.2808ZM246.149 26.0663L257.975 8.32676L258.514 7.49854H262.891C263.382 7.49854 263.77 7.9686 263.77 8.5394L263.713 37.2697C263.713 37.8517 263.316 38.3217 262.834 38.3217H257.975L258.032 18.3325L245.185 38.3217H241.253C240.761 38.3217 240.374 37.8517 240.374 37.2697L240.43 8.5394C240.43 7.9686 240.827 7.49854 241.309 7.49854H246.159V26.0663H246.149ZM70.8128 21.444C70.5481 21.9028 70.5481 22.6191 70.8128 23.078L79.7838 37.4823C80.0674 37.9524 79.9161 38.3217 79.4246 38.3217H72.864C70.9545 35.2103 69.0545 32.0989 67.145 28.9987V28.9763H67.1355C66.8519 28.5286 66.3982 28.5398 66.1241 28.9987L60.5088 38.3217H54.0619C53.5703 38.3217 53.4096 37.9412 53.6932 37.4711C56.5953 32.6921 59.5068 27.8906 62.4184 23.1116C62.7114 22.6415 62.702 21.8804 62.4184 21.4104L54.2603 8.38271C53.9673 7.91264 54.128 7.53211 54.6101 7.53211H61.18C62.8154 10.2294 64.4886 12.9043 66.1523 15.5793C66.4359 15.9934 66.8803 15.9822 67.1544 15.5233L71.9944 7.53211H78.4509C78.933 7.53211 79.1031 7.91264 78.8101 8.38271C76.1632 12.77 73.4975 17.0342 70.8506 21.4328M37.0934 38.3217H42.8221V25.0254C42.8221 24.477 43.0111 23.7048 43.2474 23.2123L51.4149 8.43867V8.4163C51.6796 7.92385 51.5 7.53211 51.0179 7.53211H44.9773C43.3324 10.7443 41.6309 13.9452 39.9577 17.1462L34.9759 7.53211H28.8976C28.4155 7.53211 28.2264 7.92385 28.5006 8.4163L36.6208 23.1787C36.876 23.66 37.0934 24.4994 37.1029 25.0926V38.3217H37.0934ZM12.2979 37.2697V7.53211H7.44841C6.9663 7.53211 6.56934 8.01338 6.56934 8.58417V37.2697C6.56934 37.8517 6.9663 38.3217 7.44841 38.3217H12.2979V37.2697ZM159.2 28.4838V34.147C159.2 34.729 158.802 35.5349 158.368 35.7587C158.368 35.7587 155.05 38.2322 150.162 38.2546C146.06 38.2881 142.808 36.7324 140.378 33.6994C137.958 30.6663 136.748 27.4094 136.748 22.9437C136.748 18.478 138.024 15.2883 140.577 12.1768C143.129 9.07662 146.476 7.50972 150.597 7.50972C153.698 7.50972 156.354 8.28199 158.528 9.91604C158.916 10.207 158.944 10.7331 158.944 10.7331V16.0493C158.944 16.6313 158.585 16.8999 158.15 16.6425C158.15 16.6425 154.87 13.9676 151.023 13.9676C148.565 13.9676 146.561 14.8518 145.01 16.6201C143.451 18.3885 142.675 20.0785 142.675 22.8206C142.675 25.5627 143.441 27.3758 144.982 29.1665C146.513 30.9573 148.48 31.8526 150.881 31.8526C152.072 31.8526 153.206 31.64 154.312 31.2259C155.418 30.8118 157.054 29.894 159.228 28.4726M223.66 31.8862C225.835 31.8862 227.583 31.0244 228.907 29.2785C230.24 27.5325 230.902 25.697 230.902 22.8654C230.902 20.0337 230.24 18.3213 228.907 16.5866C227.583 14.8518 225.825 13.99 223.66 13.99C221.496 13.99 219.709 14.8518 218.376 16.5866C217.043 18.3213 216.372 20.0225 216.372 22.8654C216.372 25.7082 217.043 27.5325 218.376 29.2785C219.718 31.0132 221.477 31.8862 223.66 31.8862ZM223.66 7.52092C227.583 7.52092 230.75 9.1214 233.18 12.3112C235.609 15.5009 236.819 18.6235 236.819 22.8542C236.819 27.0848 235.59 30.4089 233.132 33.5539C230.665 36.71 227.508 38.2769 223.66 38.2769C219.813 38.2769 216.58 36.71 214.132 33.5762C211.683 30.4424 210.454 27.1631 210.454 22.843C210.454 18.5228 211.664 15.4673 214.103 12.2888C216.542 9.09901 219.728 7.50972 223.66 7.50972M195.566 13.0163H198.203L198.269 13.0386H198.458L198.525 13.061H198.714L198.77 13.0834H198.893L198.95 13.1058H199.063L199.12 13.1282H199.177L199.234 13.1506H199.29L199.347 13.173H199.394L199.451 13.1953H199.498L199.545 13.2177H199.593L199.64 13.2401H199.687L199.735 13.2737H199.782L199.829 13.2961H199.876C202.211 14.0683 202.476 18.3997 200.387 19.7092L200.311 19.7539L200.236 19.7987L200.16 19.8323C198.761 20.4926 196.917 20.224 195.537 20.224V13.0275L195.566 13.0163Z" fill="white"/>
<path d="M250.091 0.0112305H255.168C255.565 0.0112305 255.896 0.391768 255.896 0.873031V6.80487C255.896 7.27494 255.574 7.66666 255.168 7.66666H250.101C249.704 7.66666 249.373 7.27494 249.373 6.80487V0.884217C249.373 0.414146 249.694 0.0224335 250.101 0.0224335L250.091 0.0112305Z" fill="white"/>
</svg>
