<svg width="270" height="39" viewBox="0 0 270 39" fill="none" xmlns="http://www.w3.org/2000/svg">
<path fill-rule="evenodd" clip-rule="evenodd" d="M135.014 0.009439H268.791C269.452 0.009439 270 0.528866 270 1.17107V37.6445C270 38.2868 269.461 38.8062 268.791 38.8062H135.014V0V0.009439Z" fill="#303030"/>
<path fill-rule="evenodd" clip-rule="evenodd" d="M1.20888 0.00952148H135.014V38.8157H1.20888C0.538347 38.8157 0 38.2963 0 37.6541V1.18061C0 0.538401 0.547791 0.0189749 1.20888 0.0189749" fill="#C82325"/>
<path fill-rule="evenodd" clip-rule="evenodd" d="M12.2488 18.0007L19.5492 6.36541H25.0173C25.499 6.36541 25.6879 6.7054 25.433 7.12095L18.8409 17.7646C18.5859 18.1801 18.6142 18.8412 18.907 19.2378L28.0301 31.6381C28.3134 32.0347 28.1529 32.3464 27.6712 32.3464H21.3625L12.2393 20.1162V18.0101L12.2488 18.0007ZM132.199 32.3369C132.681 32.3369 133.078 31.9403 133.078 31.4492V7.22483C133.078 6.74318 132.681 6.34653 132.199 6.34653H127.836L115.493 21.9861V6.34653H110.648C110.157 6.34653 109.77 6.74318 109.77 7.22483V31.4492C109.77 31.9403 110.166 32.3369 110.648 32.3369H114.577C118.836 26.7743 123.105 21.0134 127.364 15.4507V32.3369H132.209H132.199ZM105.623 7.25316C105.623 6.77151 105.217 6.36541 104.745 6.36541H99.9004L99.8626 16.6785H88.4162L88.454 6.36541H83.6091C83.1275 6.36541 82.7308 6.77151 82.7308 7.25316L82.6931 31.4586C82.6931 31.9497 83.0897 32.3464 83.5713 32.3464H88.4162V21.7594H99.8626V32.3464H104.707C105.18 32.3464 105.586 31.9497 105.586 31.4586L105.623 7.25316ZM184.596 6.36541C185.087 6.36541 185.474 6.76207 185.474 7.25316V11.012H177.135V32.3464H172.29C171.799 32.3464 171.402 31.9497 171.402 31.4586V11.012H163.073V7.25316C163.073 6.76207 163.469 6.36541 163.951 6.36541H184.586H184.596ZM189.582 31.4586C189.582 31.9497 189.979 32.3464 190.461 32.3464H195.306V21.8633H199.867C206.705 21.8633 209.868 13.6752 205.382 8.66979C204.013 7.13039 202.162 6.36541 199.829 6.36541H189.582V31.4586ZM245.917 21.9955L257.732 7.02651L258.27 6.32764H262.643C263.134 6.32764 263.521 6.72429 263.521 7.20594L263.464 31.4492C263.464 31.9403 263.068 32.3369 262.586 32.3369H257.732L257.788 15.4696L244.954 32.3369H241.025C240.534 32.3369 240.147 31.9403 240.147 31.4492L240.203 7.20594C240.203 6.72429 240.6 6.32764 241.082 6.32764H245.926V21.9955H245.917ZM70.7462 18.0951C70.4817 18.4823 70.4817 19.0867 70.7462 19.4739L79.7087 31.6286C79.992 32.0253 79.8409 32.3369 79.3498 32.3369H72.7955C70.8878 29.7114 68.9895 27.086 67.0818 24.4699V24.451H67.0724C66.789 24.0733 66.3358 24.0827 66.0619 24.4699L60.452 32.3369H54.0111C53.52 32.3369 53.3594 32.0158 53.6427 31.6192C56.5421 27.5865 59.4509 23.535 62.3597 19.5023C62.6525 19.1056 62.643 18.4634 62.3597 18.0668L54.2094 7.07372C53.9166 6.67707 54.0772 6.35597 54.5588 6.35597H61.1225C62.7563 8.63202 64.428 10.8892 66.0901 13.1463C66.3735 13.4958 66.8174 13.4863 67.0913 13.0991L71.9267 6.35597H78.377C78.8587 6.35597 79.0287 6.67707 78.7359 7.07372C76.0915 10.7758 73.4284 14.3741 70.784 18.0857M37.0587 32.3369H42.7819V21.1172C42.7819 20.6545 42.9708 20.0028 43.2069 19.5873L51.3667 7.12095V7.10207C51.6311 6.68652 51.4516 6.35597 50.97 6.35597H44.9351C43.2918 9.06645 41.5919 11.7675 39.9203 14.4685L34.9432 6.35597H28.8707C28.389 6.35597 28.2001 6.68652 28.474 7.10207L36.5865 19.5589C36.8415 19.965 37.0587 20.6734 37.0681 21.1739V32.3369H37.0587ZM12.2866 31.4492V6.35597H7.44172C6.96007 6.35597 6.56348 6.76207 6.56348 7.24372V31.4492C6.56348 31.9403 6.96007 32.3369 7.44172 32.3369H12.2866V31.4492ZM159.049 24.0355V28.8143C159.049 29.3054 158.653 29.9853 158.218 30.1742C158.218 30.1742 154.903 32.2614 150.021 32.2803C145.922 32.3086 142.673 30.9959 140.246 28.4365C137.828 25.8771 136.619 23.1289 136.619 19.3606C136.619 15.5924 137.894 12.9008 140.444 10.2753C142.994 7.65926 146.337 6.33708 150.455 6.33708C153.553 6.33708 156.207 6.98873 158.379 8.36759C158.766 8.61313 158.794 9.05701 158.794 9.05701V13.543C158.794 14.0341 158.436 14.2608 158.001 14.0435C158.001 14.0435 154.724 11.7864 150.88 11.7864C148.425 11.7864 146.422 12.5325 144.874 14.0246C143.315 15.5168 142.541 16.9429 142.541 19.2567C142.541 21.5706 143.306 23.1005 144.845 24.6116C146.375 26.1227 148.34 26.8782 150.738 26.8782C151.928 26.8782 153.062 26.6988 154.167 26.3493C155.272 25.9999 156.906 25.2255 159.078 24.0261M223.449 26.9065C225.621 26.9065 227.369 26.1793 228.691 24.706C230.022 23.2327 230.684 21.6839 230.684 19.2945C230.684 16.9051 230.022 15.4602 228.691 13.9963C227.369 12.5325 225.612 11.8053 223.449 11.8053C221.287 11.8053 219.502 12.5325 218.17 13.9963C216.838 15.4602 216.168 16.8957 216.168 19.2945C216.168 21.6933 216.838 23.2327 218.17 24.706C219.511 26.1699 221.268 26.9065 223.449 26.9065ZM223.449 6.34653C227.369 6.34653 230.532 7.69705 232.96 10.3886C235.387 13.0802 236.596 15.7152 236.596 19.2851C236.596 22.855 235.368 25.6599 232.912 28.3137C230.447 30.977 227.293 32.2992 223.449 32.2992C219.605 32.2992 216.376 30.977 213.93 28.3326C211.483 25.6882 210.256 22.9211 210.256 19.2756C210.256 15.6302 211.465 13.0519 213.901 10.3697C216.338 7.67815 219.52 6.33708 223.449 6.33708M195.381 10.9836H198.016L198.082 11.0025H198.271L198.337 11.0214H198.526L198.583 11.0403H198.706L198.762 11.0592H198.875L198.932 11.0781H198.989L199.045 11.097H199.102L199.159 11.1158H199.206L199.263 11.1347H199.31L199.357 11.1536H199.404L199.452 11.1725H199.499L199.546 11.2008H199.593L199.64 11.2197H199.688C202.02 11.8714 202.285 15.5263 200.198 16.6313L200.122 16.669L200.047 16.7068L199.971 16.7351C198.573 17.2923 196.732 17.0657 195.353 17.0657V10.9931L195.381 10.9836Z" fill="white"/>
<path d="M249.855 0.00952148H254.927C255.324 0.00952148 255.654 0.330628 255.654 0.736728V5.74215C255.654 6.13881 255.333 6.46934 254.927 6.46934H249.865C249.468 6.46934 249.138 6.13881 249.138 5.74215V0.746167C249.138 0.349511 249.459 0.0189749 249.865 0.0189749L249.855 0.00952148Z" fill="white"/>
</svg>
