<svg width="87" height="87" viewBox="0 0 87 87" fill="none" xmlns="http://www.w3.org/2000/svg">
<path d="M23.846 9.05026C42.9888 -2.00179 67.4362 4.50455 78.4509 23.5826C89.4656 42.6606 82.8765 67.0859 63.7338 78.1379C44.5911 89.19 20.1437 82.6836 9.12899 63.6056C-1.88571 44.5276 4.70333 20.1023 23.846 9.05026Z" fill="white"/>
<path d="M26.2812 13.0869L22.6627 3.40085L30.3859 0.505859L34.0045 10.1919L32.5947 10.7203L29.4712 2.35939L24.5674 4.19752L27.691 12.5584L26.2812 13.0869Z" fill="#202020" fill-opacity="0.4"/>
<path d="M41.0342 9.1499C40.2573 9.17764 39.5777 9.02695 38.9954 8.69784C38.4132 8.36872 37.9561 7.90333 37.6242 7.30165C37.297 6.69502 37.1201 5.98954 37.0937 5.18524C37.0671 4.37614 37.2019 3.65955 37.4983 3.03544C37.7946 2.40655 38.2225 1.91197 38.782 1.55168C39.3414 1.1866 40.0024 0.990445 40.765 0.963221C41.542 0.935484 42.2216 1.08617 42.8038 1.41529C43.386 1.7444 43.8431 2.2098 44.175 2.81148C44.5069 3.41315 44.686 4.11374 44.7123 4.91326C44.7389 5.72235 44.6041 6.44134 44.3079 7.07024C44.0163 7.69417 43.5909 8.19108 43.0316 8.56094C42.4722 8.92602 41.8064 9.12234 41.0342 9.1499ZM40.9877 7.73519C41.7311 7.70865 42.2769 7.43992 42.625 6.929C42.9778 6.41313 43.1412 5.76022 43.1152 4.97028C43.0886 4.16118 42.8803 3.52154 42.4903 3.05136C42.1049 2.57621 41.5453 2.35174 40.8115 2.37794C40.3079 2.39592 39.8969 2.52562 39.5783 2.76707C39.2595 3.00372 39.0276 3.32595 38.8826 3.73376C38.7374 4.13677 38.6735 4.6016 38.6908 5.12823C38.7175 5.94211 38.926 6.58653 39.3162 7.06151C39.7063 7.53648 40.2635 7.76104 40.9877 7.73519Z" fill="#202020" fill-opacity="0.4"/>
<path d="M48.1684 8.76997L50.2187 1.27802L56.544 2.98603L54.4937 10.478L53.0426 10.0861L54.7189 3.96077L51.2959 3.03646L49.6196 9.16182L48.1684 8.76997Z" fill="#202020" fill-opacity="0.4"/>
<path d="M57.382 15.1483L60.8205 12.4568L60.201 13.4956L61.7214 4.63037L63.0545 5.4528L61.8088 12.2545L61.4174 12.0131L66.8703 7.8069L68.1668 8.60669L58.5989 15.8991L57.382 15.1483Z" fill="#202020" fill-opacity="0.4"/>
<path d="M66.0964 16.2851L67.0493 15.438C67.2009 15.6875 67.3512 15.8453 67.5002 15.9115C67.656 15.978 67.8278 15.9758 68.0155 15.905C68.2065 15.8377 68.4307 15.7248 68.6883 15.5663C69.069 15.3368 69.4867 15.0584 69.9412 14.7312C70.4025 14.4043 70.8932 14.0418 71.4131 13.6437C71.9331 13.2455 72.4732 12.823 73.0334 12.3762L76.7412 16.5359L70.927 21.7045L69.9236 20.5788L74.6773 16.353L72.8712 14.3268C72.5685 14.5574 72.2447 14.8004 71.8998 15.0557C71.5617 15.3115 71.2222 15.562 70.8813 15.8074C70.5404 16.0529 70.2176 16.2789 69.913 16.4857C69.6084 16.6924 69.3416 16.8623 69.1128 16.9952C68.6615 17.2683 68.2589 17.4373 67.9049 17.5021C67.5578 17.5673 67.2404 17.5036 66.9528 17.3108C66.6617 17.1213 66.3762 16.7794 66.0964 16.2851Z" fill="#202020" fill-opacity="0.4"/>
<path d="M75.4944 29.1914L77.944 28.0525L77.2971 26.6588C77.2205 26.4939 77.1353 26.2933 77.0416 26.0571C76.9498 25.8252 76.875 25.6014 76.8172 25.3855C76.6691 24.8156 76.6942 24.2708 76.8924 23.751C77.095 23.2293 77.5163 22.8196 78.1565 22.5219C78.7749 22.2344 79.348 22.1686 79.8757 22.3244C80.4098 22.4826 80.8501 22.7925 81.1968 23.2542C81.3519 23.4513 81.485 23.6639 81.5962 23.892C81.7137 24.1224 81.8098 24.318 81.8843 24.4786L83.1812 27.2725L76.1292 30.5591L75.4944 29.1914ZM73.3268 24.5219L76.9415 25.003L77.6096 26.4423L74.0009 25.9742L73.3268 24.5219ZM78.3401 26.0314L79.0415 27.5423L81.452 26.4216L80.7506 24.9107C80.7063 24.8152 80.6475 24.7 80.5743 24.5651C80.5011 24.4302 80.4146 24.3067 80.315 24.1947C80.2133 24.0783 80.0832 23.9805 79.9246 23.9011C79.768 23.8261 79.5931 23.786 79.4001 23.7808C79.2114 23.7735 79.0169 23.8164 78.8165 23.9095C78.5161 24.0492 78.3071 24.2493 78.1897 24.5098C78.0767 24.7682 78.0442 25.0288 78.092 25.2916C78.1156 25.4337 78.1523 25.5697 78.202 25.6997C78.2518 25.8296 78.2978 25.9402 78.3401 26.0314Z" fill="#202020" fill-opacity="0.4"/>
<path d="M77.8526 37.3783C77.7483 36.6434 77.839 36.0014 78.1247 35.4521C78.4152 34.9022 78.8487 34.455 79.4253 34.1105C80.0019 33.766 80.675 33.5382 81.4447 33.4272C82.2144 33.3161 82.9236 33.342 83.5721 33.5048C84.2214 33.6724 84.7568 33.9774 85.1784 34.4197C85.6054 34.8661 85.8704 35.4521 85.9733 36.1775C86.0756 36.8981 85.9856 37.545 85.7032 38.1179C85.4263 38.6949 85.0016 39.1699 84.429 39.5428C83.8612 39.9151 83.1901 40.1571 82.4157 40.2688C81.6459 40.3799 80.9321 40.3378 80.274 40.1424C79.6214 39.9511 79.0799 39.6204 78.6496 39.1503C78.2199 38.6849 77.9542 38.0943 77.8526 37.3783ZM74.1328 34.2283L85.2508 32.6239L85.4385 33.9467L79.9009 34.7458L79.9251 34.9165L74.3447 35.7218L74.1328 34.2283ZM79.1703 36.9777C79.2376 37.4518 79.4143 37.8255 79.7003 38.0987C79.9871 38.3767 80.3455 38.562 80.7757 38.6548C81.2112 38.7516 81.6832 38.7633 82.1916 38.69C82.6952 38.6173 83.1403 38.4733 83.5267 38.2578C83.9137 38.0471 84.2059 37.7655 84.4031 37.4128C84.6004 37.0602 84.664 36.6374 84.594 36.1443C84.5281 35.6796 84.3595 35.312 84.0884 35.0415C83.818 34.7757 83.468 34.5988 83.0385 34.5108C82.6097 34.4275 82.1292 34.4243 81.5971 34.5011C81.065 34.5779 80.6047 34.7169 80.2163 34.9181C79.8278 35.1193 79.5391 35.3907 79.35 35.7325C79.1609 36.0743 79.101 36.4894 79.1703 36.9777Z" fill="#202020" fill-opacity="0.4"/>
<path d="M78.9217 44.1051L86.599 45.3024L86.3625 46.7862L83.2276 46.2974L82.6315 50.039L85.7664 50.5279L85.5299 52.0117L77.8526 50.8145L78.0891 49.3307L81.2311 49.8206L81.8272 46.079L78.6852 45.589L78.9217 44.1051Z" fill="#202020" fill-opacity="0.4"/>
<path d="M77.3175 54.4071L84.2189 57.9592L83.5231 59.3009L81.1268 58.0675L80.6563 58.9748C80.5547 59.1707 80.4411 59.3794 80.3155 59.6007C80.1899 59.8221 80.0692 60.0028 79.9534 60.1429C79.6846 60.4739 79.39 60.7298 79.0697 60.9103C78.7494 61.0908 78.4026 61.1767 78.0293 61.168C77.6581 61.1658 77.2573 61.054 76.827 60.8325C76.2263 60.5234 75.8277 60.1212 75.6311 59.6261C75.4388 59.1332 75.4189 58.5887 75.5714 57.9927C75.6214 57.8026 75.7008 57.5871 75.8095 57.3463C75.9203 57.1119 76.0264 56.8967 76.1281 56.7008L77.3175 54.4071ZM77.6953 56.3014L77.1618 57.33C77.1044 57.4408 77.0446 57.5665 76.9825 57.7072C76.9203 57.8478 76.8743 57.9834 76.8445 58.1137C76.8003 58.3446 76.8279 58.5881 76.9271 58.8443C77.0264 59.1004 77.2293 59.3074 77.5361 59.4653C77.8513 59.6275 78.1446 59.676 78.416 59.6106C78.6852 59.5495 78.9104 59.4118 79.0917 59.1975C79.179 59.1021 79.2589 58.9948 79.3314 58.8757C79.4018 58.7608 79.4646 58.6501 79.5198 58.5436L80.0533 57.515L77.6953 56.3014ZM74.1898 60.4384L81.0912 63.9905L80.3987 65.3258L73.4973 61.7737L74.1898 60.4384Z" fill="#202020" fill-opacity="0.4"/>
<path d="M69.0162 67.1889C69.57 66.6495 70.1739 66.2953 70.8277 66.1262C71.4815 65.9639 72.1362 65.9846 72.7917 66.1882C73.4471 66.3986 74.0542 66.7897 74.6129 67.3615C75.2052 67.9676 75.6053 68.6038 75.8132 69.27C76.0178 69.9396 76.0341 70.5954 75.8624 71.2372C75.6906 71.879 75.333 72.4646 74.7895 72.9939C74.222 73.5467 73.6099 73.8857 72.9532 74.0106C72.2999 74.1391 71.6393 74.0573 70.9715 73.7655C70.3002 73.477 69.6606 72.9806 69.0528 72.2761L70.1311 71.2257L70.5126 71.6161C71.1485 72.2531 71.7374 72.6085 72.2793 72.6821C72.8178 72.7591 73.3313 72.5597 73.8197 72.0839C74.3598 71.5579 74.6 70.9931 74.5405 70.3894C74.481 69.7857 74.1384 69.1638 73.5127 68.5234C72.9171 67.914 72.3195 67.5738 71.7198 67.5029C71.1235 67.4354 70.5691 67.6513 70.0566 68.1505C69.7195 68.4789 69.5024 68.8373 69.4054 69.2258C69.3084 69.6212 69.3299 70.0279 69.47 70.4461L68.0861 71.1425C67.8176 70.435 67.7696 69.7298 67.9423 69.027C68.1182 68.3276 68.4762 67.715 69.0162 67.1889ZM73.5674 67.8787L74.3855 68.7159L70.4075 72.5906L69.5894 71.7534L73.5674 67.8787Z" fill="#202020" fill-opacity="0.4"/>
<path d="M42.999 78.8169L41.5265 86.4415L40.2896 86.2069L38.5495 80.0807L34.6567 85.1386L33.4127 84.9026L34.8853 77.2781L36.3129 77.5489L35.424 82.1518L38.61 77.9845L39.2814 78.1119L40.6894 83.1505L41.5784 78.5475L42.999 78.8169Z" fill="#202020" fill-opacity="0.4"/>
<path d="M28.2788 74.5365C28.9568 74.9144 29.459 75.3948 29.7856 75.9778C30.1121 76.5608 30.2611 77.1959 30.2325 77.8831C30.1974 78.5722 29.9825 79.2682 29.588 79.9712C29.1911 80.6784 28.7042 81.2229 28.1274 81.6046C27.5483 81.9904 26.9264 82.1932 26.2616 82.2127C25.5945 82.2365 24.9283 82.0629 24.2629 81.6921C23.585 81.3143 23.0828 80.8339 22.7562 80.2509C22.4297 79.6678 22.2807 79.0327 22.3093 78.3455C22.3379 77.6583 22.5483 76.9653 22.9405 76.2665C23.3374 75.5593 23.8254 75.0127 24.4045 74.6269C24.9771 74.2428 25.5982 74.0368 26.2676 74.0089C26.9347 73.9852 27.6051 74.161 28.2788 74.5365ZM27.5849 75.7731C26.9362 75.4116 26.3308 75.3598 25.7685 75.6177C25.1997 75.8775 24.7215 76.3526 24.334 77.0431C23.9371 77.7503 23.7833 78.4062 23.8725 79.0107C23.9552 79.6171 24.3166 80.0987 24.9569 80.4556C25.3963 80.7005 25.8147 80.8018 26.212 80.7595C26.6069 80.7214 26.9721 80.5651 27.3074 80.2906C27.6404 80.0202 27.9361 79.6549 28.1945 79.1946C28.5937 78.4832 28.7499 77.8232 28.663 77.2144C28.5761 76.6057 28.2168 76.1252 27.5849 75.7731Z" fill="#202020" fill-opacity="0.4"/>
<path d="M23.7792 70.5579L21.6509 72.5843C21.3566 72.2762 21.044 72.154 20.7132 72.2178C20.3756 72.2815 19.9201 72.5102 19.3467 72.9041C18.9979 73.1437 18.6382 73.4101 18.2676 73.7035C17.8937 73.9934 17.497 74.3149 17.0774 74.6681C16.6543 75.0247 16.1912 75.4193 15.6882 75.852L11.8493 71.8325L16.6067 67.3029L16.081 66.7524L18.2093 64.726L19.1914 65.7542L17.9394 66.9462L21.5403 70.7165L22.7922 69.5245L23.7792 70.5579ZM20.1679 71.0316L17.6483 68.3934L13.7672 72.0887L15.642 74.0517C15.8848 73.847 16.1361 73.6374 16.3961 73.423C16.6528 73.205 16.911 72.9922 17.1708 72.7845C17.4273 72.5733 17.6767 72.3756 17.9189 72.1912C18.1611 72.0069 18.3858 71.8458 18.5929 71.7081C18.9074 71.4881 19.1848 71.3197 19.4254 71.2031C19.6626 71.083 19.9101 71.0258 20.1679 71.0316Z" fill="#202020" fill-opacity="0.4"/>
<path d="M13.4565 60.3261C13.7971 61.0173 13.9457 61.6993 13.9023 62.3718C13.8524 63.0422 13.6281 63.6572 13.2292 64.2169C12.824 64.7744 12.2617 65.2305 11.5424 65.5853C10.78 65.9614 10.049 66.1458 9.34945 66.1386C8.64777 66.1271 8.01815 65.9413 7.46059 65.5812C6.90303 65.2211 6.45712 64.7018 6.12287 64.0234C5.77381 63.315 5.64241 62.6299 5.72866 61.9682C5.81061 61.3087 6.09495 60.7068 6.58168 60.1625C7.0663 59.6139 7.7391 59.1593 8.60009 58.7986L9.26331 60.1447L8.77228 60.3869C7.96676 60.7949 7.44421 61.2448 7.20465 61.7366C6.96297 62.224 6.99233 62.7726 7.29273 63.3823C7.62487 64.0565 8.08771 64.458 8.68125 64.5868C9.2748 64.7157 9.97429 64.5815 10.7797 64.1842C11.5464 63.806 12.0573 63.3433 12.3122 62.7958C12.5629 62.2506 12.5306 61.658 12.2154 61.0183C12.0081 60.5975 11.7346 60.2814 11.3949 60.07C11.0487 59.8565 10.6546 59.752 10.2125 59.7566L9.98191 58.2291C10.7397 58.1916 11.4263 58.3626 12.0417 58.7422C12.6528 59.124 13.1243 59.6519 13.4565 60.3261ZM11.3767 64.4341L10.3236 64.9536L7.877 59.9879L8.93011 59.4684L11.3767 64.4341Z" fill="#202020" fill-opacity="0.4"/>
<path d="M10.31 54.8093L9.05138 55.0102C9.05889 54.718 9.01793 54.5039 8.92849 54.3679C8.83358 54.2278 8.68809 54.1371 8.49205 54.0957C8.29526 54.0495 8.04581 54.0238 7.7437 54.0187C7.29965 54.0071 6.7982 54.0168 6.23935 54.0478C5.67502 54.0749 5.06677 54.1162 4.4146 54.1718C3.76242 54.2274 3.08018 54.2926 2.36787 54.3675L1.50187 48.8612L9.18178 47.6355L9.41614 49.1256L3.1371 50.1278L3.55894 52.8099C3.93791 52.7785 4.34134 52.7481 4.76921 52.7186C5.1916 52.6851 5.61236 52.6568 6.0315 52.6335C6.45063 52.6103 6.84407 52.5936 7.2118 52.5834C7.57953 52.5732 7.89549 52.5737 8.15967 52.5848C8.68654 52.5977 9.11619 52.6722 9.44861 52.8083C9.77554 52.9404 10.0077 53.1652 10.1451 53.4827C10.2873 53.7994 10.3422 54.2417 10.31 54.8093Z" fill="#202020" fill-opacity="0.4"/>
<path d="M1.90505 35.9931L9.59524 37.1065L9.38349 38.5359L4.03596 37.7617L8.81461 42.3761L8.63551 43.5851L0.945312 42.4718L1.15706 41.0423L6.39779 41.8011L1.72701 37.195L1.90505 35.9931Z" fill="#202020" fill-opacity="0.4"/>
</svg>
