<svg width="346" height="166" viewBox="0 0 346 166" fill="none" xmlns="http://www.w3.org/2000/svg">
<g style="mix-blend-mode:multiply">
<path d="M189.536 21.4751H189.284V8.45753H188.418V21.4751H188.41L178.16 29.0643H200.407L189.536 21.4751Z" fill="#797979"/>
<path d="M58.4239 84.7724L60.0174 87.3406L59.2207 84.4034L58.4239 84.7724Z" fill="#797979"/>
<path d="M76.9946 93.9694L82.5488 107.164V109.563L79.2162 112.016L75.2326 109.132L76.1978 107.871L74.3822 105.372L76.9946 93.9694Z" fill="#797979"/>
<path d="M50.4588 110.162L54.7336 107.155L54.182 106.033L60.4486 101.835L57.8439 94.4147L46.498 104.457L47.0267 107.578L50.4588 110.162Z" fill="#797979"/>
<path d="M109.613 164.916C109.613 165.331 88.9211 165.67 63.3948 165.67C37.8686 165.67 26.5074 165.331 26.5074 164.916C26.5074 164.501 37.8686 164.163 63.3948 164.163C88.9211 164.163 109.613 164.501 109.613 164.916Z" fill="#797979"/>
<path d="M71.8201 126.301L74.7849 164.501H77.8799L78.6613 119.719L62.1137 118.974L62.6423 164.501H65.7296L68.7021 126.301H71.8201Z" fill="#797979"/>
<path d="M61.9351 120.973H78.7279L78.7049 107.471L76.9889 93.9694L57.8365 94.4154L61.7512 108.087L61.9351 120.973Z" fill="#797979"/>
<path d="M57.3164 111.968C57.3164 111.968 58.4655 111.584 58.9558 111.584C59.4538 111.584 60.6489 112.207 60.5263 112.399C60.3118 112.722 59.7066 112.683 58.9941 112.43C58.4425 112.237 58.2051 112.999 58.2051 112.999L57.3164 111.968Z" fill="#797979"/>
<path d="M62.3895 143.002H67.3997L68.7021 126.301H71.8201L73.1148 143.002H78.2553L78.6613 119.719L62.1137 118.974L62.3895 143.002Z" fill="#797979"/>
<path d="M81.7614 109.116L79.2639 110.292L77.0193 107.955L78.1991 105.51L76.5673 106.394L75.7935 105.164L74.5218 102.918L73.7097 104.825L61.5365 105.287L59.6979 99.043L59.3148 100.119L53.8909 103.987L52.351 103.457L53.8909 106.747L50.8495 108.754L48.0456 107.155L46.498 104.457L47.0267 107.578L50.4588 110.162L54.7336 107.155L54.182 106.033L60.0579 102.096L61.7587 108.085L61.9425 120.972H78.7353V111.661L79.218 112.014L82.5505 109.562V107.163L81.7614 109.116Z" fill="#797979"/>
<path d="M75.2326 109.132L75.7534 108.455C74.1982 106.325 73.6466 101.789 73.6466 101.789H61.0673L61.7032 110.293V122.472H76.9944V110.416L75.2324 109.139L75.2326 109.132Z" fill="#797979"/>
<path d="M61.6998 122.464H76.991V110.408L75.229 109.132L75.75 108.455C74.9149 107.317 74.371 105.487 74.0492 104.026L73.7122 104.826L61.5389 105.287L61.2631 104.357L61.4623 107.071L61.7458 108.086L61.6998 122.472V122.464Z" fill="#797979"/>
<path d="M61.2701 110.141L55.3094 116.463L56.3444 117.446L62.3051 111.124L61.2701 110.141Z" fill="#797979"/>
<path d="M61.931 110.775L55.9702 117.097L56.343 117.451L62.3038 111.129L61.931 110.775Z" fill="#797979"/>
<path d="M63.8489 112.623C63.8489 112.623 62.7764 111.984 61.5966 110.87C60.4168 109.747 59.6967 108.686 59.6967 108.686L61.52 106.756C61.52 106.756 62.5082 107.31 63.7876 108.524C65.067 109.739 65.6722 110.693 65.6722 110.693L63.8489 112.623Z" fill="#797979"/>
<path d="M60.3907 107.955L59.7089 108.678C59.7089 108.678 60.429 109.739 61.6088 110.861C62.7886 111.984 63.8611 112.615 63.8611 112.615L64.543 111.892C64.543 111.892 63.4704 111.254 62.2906 110.139C61.1109 109.016 60.3907 107.955 60.3907 107.955Z" fill="#797979"/>
<path d="M62.7045 107.579L60.59 109.816C60.59 109.816 60.6513 109.893 60.6896 109.924L62.8194 107.663C62.7811 107.633 62.7428 107.602 62.7045 107.571V107.579Z" fill="#797979"/>
<path d="M64.6962 109.463L62.5665 111.716C62.6048 111.746 62.6431 111.777 62.6814 111.808L64.7881 109.57C64.7881 109.57 64.7268 109.493 64.6885 109.463H64.6962Z" fill="#797979"/>
<path d="M74.7849 164.501C74.7849 164.501 79.2218 163.624 80.9149 164.501C80.9149 164.501 80.6608 165.185 74.7849 164.501Z" fill="#797979"/>
<path d="M65.7336 164.5C65.7336 164.5 61.2979 163.624 59.6049 164.5C59.6049 164.5 59.8577 165.185 65.7336 164.5Z" fill="#797979"/>
<path d="M57.8365 94.4154L66.6696 92.4694L76.9889 93.9694C76.9889 93.9694 64.2181 96.8759 57.8365 94.4154Z" fill="#797979"/>
<path d="M61.14 113.075C61.14 113.075 61.6992 114.014 61.5 114.306C61.3009 114.598 60.6573 114.098 60.6573 114.098L61.1476 113.075H61.14Z" fill="#797979"/>
<path d="M60.634 114.122C60.634 114.122 61.3542 114.868 60.9558 115.144C60.5574 115.421 59.8986 114.852 59.8986 114.852L60.634 114.122Z" fill="#797979"/>
<path d="M59.9332 114.921C59.9332 114.921 60.7147 115.575 60.3393 115.836C59.9639 116.098 59.2438 115.59 59.2438 115.59L59.9332 114.921Z" fill="#797979"/>
<path d="M59.2528 115.69C59.2528 115.69 59.904 116.159 59.5823 116.351C59.2605 116.544 58.4178 116.267 58.4178 116.267L59.2528 115.69Z" fill="#797979"/>
<path d="M57.4834 111.853C57.4834 111.853 61.6356 112.353 61.1453 113.437C60.655 114.521 59.2148 116.121 58.5329 116.259C57.8511 116.398 55.8593 114.445 55.7061 113.483C55.5299 112.368 57.4911 111.853 57.4911 111.853H57.4834Z" fill="#797979"/>
<path d="M70.3131 114.883C70.3131 114.883 72.259 112.992 75.2774 109.117L79.2611 112C79.2611 112 73.7375 115.56 71.3396 116.759L70.3131 114.883Z" fill="#797979"/>
<path d="M63.007 93.2844C63.007 93.2844 64.2941 94.9068 66.8222 94.9068C69.3503 94.9068 71.12 93.1076 71.12 93.1076L66.6766 92.4617L63.007 93.2767V93.2844Z" fill="#797979"/>
<path d="M63.8312 93.0998C63.8312 93.0998 64.2373 92.154 63.0805 88.8324L67.9298 86.7486C67.9298 86.7486 68.3895 90.9007 70.3584 93.0306C70.3584 93.0306 66.5892 95.2912 63.8312 93.0998Z" fill="#797979"/>
<path d="M50.457 110.162L54.7318 107.156L57.3212 111.969L55.9269 114.061L50.457 110.162Z" fill="#797979"/>
<path d="M68.4808 88.6712C69.132 87.8869 68.8486 84.5114 68.0595 81.2512C67.5156 78.9983 65.8378 78.7907 65.2862 79.0982C63.8077 78.2371 62.0073 78.2986 60.8122 78.9368C58.4144 80.2131 57.6406 82.2431 57.7632 83.7424C57.8245 84.4268 59.303 84.9958 59.9465 85.2726C62.8117 86.5336 67.8297 89.4554 68.4808 88.6635V88.6712Z" fill="#797979"/>
<path d="M68.5113 88.8408C68.6492 89.5405 67.2856 91.6703 66.5885 92.5238C66.2054 92.9929 65.447 93.1467 64.9337 93.1928C64.4204 93.2389 62.0532 92.2778 61.5246 91.0245C60.95 89.6635 58.736 84.1966 58.736 84.1966L66.3816 81.4977C66.3816 81.4977 68.3811 88.1411 68.519 88.8408H68.5113Z" fill="#797979"/>
<path d="M65.3386 81.7356C65.3386 81.7356 64.2737 83.3042 63.1399 83.9731L63.6685 82.9889C63.6685 82.9889 62.2895 84.6574 60.0449 84.9804L60.2211 84.3883C60.2211 84.3883 59.3018 85.1034 58.3288 85.311C58.3288 85.311 57.0494 83.5733 58.3595 82.5583C59.6695 81.5434 65.3386 81.7356 65.3386 81.7356Z" fill="#797979"/>
<path d="M64.8664 82.3657C64.8664 82.3657 65.6938 82.0582 66.0615 82.9732C66.4292 83.8882 67.0421 86.2103 67.0421 86.2103L67.7009 85.8643L67.5171 82.6041L66.0768 80.5665L64.4144 81.4046L64.8664 82.358V82.3657Z" fill="#797979"/>
<path d="M67.0884 86.4031L67.8162 85.9418L67.9387 86.3186L67.2033 86.8876L67.0884 86.4031Z" fill="#797979"/>
<path d="M67.2536 87.0643L67.9661 86.4953L68.058 86.8874L67.3532 87.5026L67.2536 87.0643Z" fill="#797979"/>
<path d="M67.2922 86.2263C67.5834 87.0798 67.9281 87.7334 68.4797 87.5411C69.0236 87.3489 69.5675 86.3955 69.2764 85.542C68.9853 84.6885 68.3035 84.1579 67.7596 84.3425C67.2156 84.5347 67.0088 85.3728 67.2999 86.2263H67.2922Z" fill="#797979"/>
<path d="M67.7197 86.0802C67.8883 86.5646 68.0798 86.9337 68.3939 86.8261C68.7003 86.7184 69.0144 86.1725 68.8459 85.6958C68.6773 85.219 68.2943 84.9115 67.9878 85.0191C67.6814 85.1268 67.5588 85.6035 67.7274 86.0879L67.7197 86.0802Z" fill="#797979"/>
<path d="M65.0873 86.7949C65.1792 87.1409 65.0873 87.4639 64.8804 87.5177C64.6736 87.5715 64.4361 87.3332 64.3518 86.9872C64.2599 86.6412 64.3518 86.3182 64.5587 86.2644C64.7655 86.2106 65.003 86.4489 65.0873 86.7949Z" fill="#797979"/>
<path d="M61.8678 87.7718C62.0363 88.0871 62.0363 88.4177 61.8678 88.51C61.6992 88.6022 61.4158 88.4177 61.2549 88.1024C61.0864 87.7872 61.0864 87.4566 61.2549 87.3643C61.4234 87.272 61.7069 87.4566 61.8678 87.7718Z" fill="#797979"/>
<path d="M65.5031 84.6424C65.5261 84.8346 65.0818 85.0422 64.5149 85.1191C63.9479 85.1883 63.4653 85.096 63.4423 84.9115C63.4193 84.7193 63.8637 84.5117 64.4306 84.4348C64.9975 84.3656 65.4801 84.4578 65.5031 84.6424Z" fill="#797979"/>
<path d="M61.1795 85.6568C61.2868 85.8106 61.0493 86.1719 60.6433 86.4564C60.2372 86.7409 59.8235 86.8409 59.7163 86.6871C59.609 86.5333 59.8465 86.172 60.2525 85.8875C60.6586 85.603 61.0723 85.503 61.1795 85.6568Z" fill="#797979"/>
<path d="M63.0009 89.1478C63.0009 89.1478 63.7593 89.1247 64.3339 88.5864C64.3339 88.5864 64.2803 90.701 63.0009 89.1478Z" fill="#797979"/>
<path d="M64.1452 91.6235C64.1452 91.6235 65.0262 91.6235 65.5701 91.0622C65.5701 91.0622 65.302 92.5693 64.1452 91.6235Z" fill="#797979"/>
<path d="M63.1608 91.2471C63.0076 91.2471 62.9156 91.2394 62.9003 91.2394C62.7624 91.224 62.6628 91.101 62.6782 90.9626C62.6935 90.8242 62.8161 90.7243 62.9539 90.7396C62.9693 90.7396 64.67 90.9011 65.8804 89.5171C65.9724 89.4094 66.1332 89.4017 66.2328 89.494C66.3401 89.5863 66.3478 89.7477 66.2558 89.8477C65.1526 91.1087 63.7277 91.2548 63.1531 91.2548L63.1608 91.2471Z" fill="#797979"/>
<path d="M66.3822 90.0403C66.3362 90.0403 66.2826 90.0249 66.2443 90.0018L65.7003 89.6404C65.5854 89.5635 65.5548 89.4098 65.6314 89.2944C65.708 89.1791 65.8612 89.1484 65.9761 89.2252L66.52 89.5866C66.635 89.6635 66.6656 89.8173 66.589 89.9403C66.543 90.0172 66.4588 90.0557 66.3822 90.0557V90.0403Z" fill="#797979"/>
<path d="M62.7585 91.4851H62.7431C62.6053 91.4851 62.498 91.3621 62.5057 91.216L62.5286 90.7162C62.5286 90.5778 62.6589 90.4625 62.7891 90.4779C62.927 90.4779 63.0343 90.6009 63.0266 90.7393L63.0036 91.2391C63.0036 91.3775 62.8887 91.4774 62.7508 91.4774L62.7585 91.4851Z" fill="#797979"/>
<path d="M60.2596 93.8299L62.5962 102.18H63.1478L61.0487 93.6915L60.2596 93.8299Z" fill="#797979"/>
<path d="M72.8641 93.1925L72.2589 101.95H72.7722L73.6455 93.3232L72.8641 93.1925Z" fill="#797979"/>
<path d="M98.0188 122.464H38.2864V125.078H98.0188V122.464Z" fill="#797979"/>
<path d="M47.1869 124.079C47.8381 124.04 48.4969 123.994 49.1328 123.94C51.2779 123.771 53.4995 123.602 55.6599 124.002C57.3607 124.317 59.1457 124.609 61.0149 124.609C62.0338 124.609 63.0834 124.525 64.1636 124.309C65.6115 124.017 67.0518 123.771 68.6529 123.925C69.1968 123.979 69.7331 124.063 70.254 124.148C71.2806 124.317 72.3455 124.486 73.441 124.402C78.4359 124.002 83.5764 124.056 88.5484 124.117C90.3181 124.14 92.1414 124.156 93.9417 124.156C94.9529 124.156 95.8416 124.002 96.8529 123.771C97.2206 123.687 97.6113 123.633 97.9867 123.617H98.002V123.464H97.9714C97.5883 123.487 97.1899 123.541 96.8146 123.625C95.811 123.856 94.93 124.002 93.934 124.002C92.1337 124.002 90.3104 123.979 88.5407 123.963C83.5611 123.91 78.4206 123.848 73.418 124.256C72.3378 124.34 71.3342 124.179 70.2694 124.01C69.7484 123.925 69.2045 123.833 68.6529 123.779C67.0288 123.617 65.5809 123.871 64.1176 124.163C61.0992 124.771 58.2876 124.348 55.6676 123.863C53.4842 123.456 51.2549 123.633 49.1022 123.802C48.4663 123.848 47.8075 123.902 47.1639 123.94C44.3141 124.094 41.2573 124.063 38.2619 123.856V124.01C41.2573 124.217 44.3141 124.248 47.1716 124.094L47.1869 124.079Z" fill="#797979"/>
<path d="M51.1951 124.325C50.2451 124.371 49.2722 124.456 48.3376 124.533C46.5372 124.686 44.6756 124.84 42.8523 124.748C41.3354 124.671 39.8186 124.656 38.2864 124.648V124.802C39.8186 124.802 41.3354 124.825 42.8447 124.902C44.6756 124.994 46.5449 124.84 48.3529 124.686C49.2875 124.61 50.2528 124.525 51.2027 124.479C52.7426 124.41 54.6885 124.479 56.3586 125.079H56.7799C55.0102 124.34 52.8575 124.248 51.1951 124.325Z" fill="#797979"/>
<path d="M41.6557 123.656C41.786 123.656 41.9162 123.663 42.0464 123.663C43.0807 123.663 44.1302 123.502 45.1491 123.348C45.4709 123.302 45.7926 123.248 46.1144 123.202C47.026 123.079 47.9454 122.91 48.834 122.741C49.2401 122.664 49.6461 122.594 50.0521 122.518C50.1824 122.495 50.3126 122.479 50.4428 122.456H49.5235C49.2784 122.502 49.0409 122.541 48.7957 122.587C47.907 122.748 46.9877 122.917 46.0837 123.04C45.762 123.087 45.4402 123.133 45.1185 123.187C43.977 123.363 42.7972 123.54 41.6481 123.494C40.9356 123.463 40.2078 123.34 39.5106 123.217C39.1046 123.148 38.6833 123.071 38.2619 123.017V123.171C38.6679 123.225 39.0816 123.294 39.48 123.363C40.1848 123.486 40.9126 123.617 41.6327 123.648L41.6557 123.656Z" fill="#797979"/>
<path d="M57.3212 123.01C57.6659 123.141 58.026 123.218 58.3707 123.287C58.4627 123.302 58.5546 123.325 58.6389 123.341C59.3667 123.502 60.217 123.671 61.0521 123.71C61.121 123.71 61.1976 123.71 61.2666 123.71C62.5 123.71 63.81 123.233 64.8136 122.449H64.5608C63.5419 123.179 62.2548 123.602 61.0597 123.548C60.2323 123.51 59.3973 123.341 58.6772 123.179C58.5852 123.156 58.4933 123.141 58.4014 123.118C58.0566 123.049 57.7042 122.972 57.3748 122.849C57.1986 122.779 57.0147 122.68 56.8156 122.572C56.7389 122.533 56.6623 122.487 56.5857 122.449H56.2333C56.4019 122.518 56.5704 122.618 56.7389 122.71C56.9381 122.818 57.1297 122.926 57.3135 122.995L57.3212 123.01Z" fill="#797979"/>
<path d="M65.73 125.079H66.4424C67.7908 124.825 69.2157 124.825 70.7172 125.079H71.4987C69.4532 124.617 67.515 124.617 65.7376 125.079H65.73Z" fill="#797979"/>
<path d="M70.6364 122.741C70.851 122.772 71.0808 122.803 71.2953 122.841C71.9082 122.949 72.567 123.033 73.3791 123.11C73.8923 123.156 74.421 123.164 74.9419 123.164C75.4705 123.164 76.0221 123.164 76.543 123.225C77.9756 123.372 79.5998 123.51 81.1932 123.51C81.5916 123.51 81.9823 123.502 82.3654 123.479C83.3843 123.425 84.4185 123.356 85.4144 123.295C86.372 123.233 87.368 123.164 88.3409 123.11C88.8925 123.079 89.4517 123.072 89.988 123.056C91.367 123.018 92.6617 122.987 94.0023 122.741C94.4313 122.664 94.868 122.572 95.3047 122.472H94.5463C94.3547 122.51 94.1632 122.556 93.9717 122.587C92.6464 122.833 91.3516 122.864 89.9803 122.902C89.4441 122.918 88.8848 122.933 88.3332 122.956C87.3526 123.002 86.3644 123.072 85.3991 123.141C84.4032 123.21 83.3689 123.279 82.35 123.325C80.4118 123.418 78.328 123.248 76.5507 123.072C76.0221 123.018 75.4705 123.018 74.9342 123.01C74.421 123.01 73.8923 123.01 73.3867 122.956C72.5747 122.879 71.9158 122.795 71.3106 122.687C71.0884 122.649 70.8586 122.618 70.6441 122.587C70.3913 122.556 70.1232 122.518 69.8703 122.464H69.3034C69.4107 122.51 69.5256 122.549 69.6482 122.58C69.97 122.656 70.2994 122.695 70.6211 122.741H70.6364Z" fill="#797979"/>
<path d="M96.4257 124.579C96.6402 124.548 96.87 124.51 97.1152 124.464C97.4063 124.41 97.7051 124.364 98.0192 124.318V124.164C97.6974 124.21 97.3833 124.264 97.0922 124.318C96.8547 124.356 96.6249 124.402 96.4103 124.433C96.012 124.494 95.6136 124.556 95.2152 124.617C94.4568 124.74 93.6754 124.864 92.9093 124.956C92.5109 125.002 92.1049 125.048 91.6989 125.079H93.1161C93.8286 124.987 94.5411 124.879 95.2382 124.764C95.6366 124.702 96.035 124.633 96.4333 124.579H96.4257Z" fill="#797979"/>
<path d="M78.2065 125.078H79.1718C80.4512 124.909 81.6616 124.901 82.8797 125.055C82.9487 125.063 83.0253 125.07 83.0942 125.078H84.6571C84.0672 125.032 83.4849 124.978 82.895 124.901C81.3705 124.717 79.8536 124.77 78.2065 125.078Z" fill="#797979"/>
<path d="M98.0188 122.464H38.2864V123.002H98.0188V122.464Z" fill="#797979"/>
<path d="M58.9616 122.464L59.0382 122.979H55.6904L55.9661 124.117H55.0162L54.7098 122.733H53.8977L54.1735 124.117H53.461C53.461 124.117 52.8864 122.733 51.5841 122.733C50.2817 122.733 49.8604 124.117 49.8604 124.117H49.2475L48.9257 122.733H48.106L48.4278 124.117H48.0677L47.8915 123.456H47.3552L47.5314 124.117H45.6698C45.6698 124.117 44.6892 122.733 43.1341 122.733C41.5789 122.733 40.5523 124.117 40.5523 124.117H39.9318L39.3572 122.464H58.9616Z" fill="#797979"/>
<path d="M84.6575 122.464L83.7075 124.117H81.8306L82.5124 122.787H81.5318L80.8347 124.117H78.7586C78.7586 124.117 77.7167 122.733 75.1426 122.733C75.1426 122.733 72.3387 122.933 71.6262 124.117H70.5537L69.9561 122.787H69.0368L69.5271 124.117H67.6732L67.1522 122.787H66.1257L66.5087 124.117H66.0184C66.0184 124.117 64.5628 122.733 62.8621 122.733C61.1614 122.733 59.8284 124.117 59.8284 124.117H59.2308L58.7788 122.464H84.6575Z" fill="#797979"/>
<path d="M63.7046 122.464C63.7046 122.464 64.984 122.564 66.0105 123.725H66.4166L66.1331 122.787H67.5887L67.9871 123.771H69.4043L69.0368 122.787H69.9636L70.3619 123.671H71.5111C71.5111 123.671 72.3691 122.779 74.8896 122.733C77.4637 122.687 78.2757 123.679 78.2757 123.679H80.4821L80.9341 122.787H82.5275L82.0219 123.771H83.0561L83.715 122.464C61.1765 122.464 87.0781 122.464 63.7046 122.464Z" fill="#797979"/>
<path d="M43.6772 122.471C43.6772 122.471 44.8034 122.556 45.6461 123.617H47.3928L47.1783 122.74H47.9597L48.1665 123.617H48.3044L48.0976 122.74H49.2467L49.4306 123.617H49.9285C50.1967 123.178 50.7789 122.74 51.5756 122.74C52.7554 122.74 53.3836 123.471 53.3836 123.471H54.0348L53.8816 122.74H55.0614L55.2223 123.471H55.8045L55.6896 122.971H59.5124L59.6426 123.471H59.8571C59.8571 123.471 61.3127 122.471 62.4082 122.471H43.6772Z" fill="#797979"/>
<path d="M40.1075 123.694H40.4905C41.5554 122.456 43.0799 122.471 43.0799 122.471H39.6632L40.1075 123.694Z" fill="#797979"/>
<path d="M70.3939 116.697L68.8157 117.881L66.3489 115.144C66.1267 114.898 66.0271 114.559 66.0808 114.213C66.1344 113.867 66.3336 113.544 66.6323 113.321L66.6936 113.275C66.9924 113.052 67.3601 112.952 67.7125 112.999C68.0649 113.045 68.3561 113.237 68.5323 113.529L70.4015 116.697H70.3939Z" fill="#797979"/>
<path d="M67.7025 112.991C67.3501 112.945 66.9824 113.045 66.6836 113.268L66.6223 113.314C66.4921 113.414 66.3848 113.529 66.2929 113.66C66.4844 113.599 66.6913 113.576 66.8905 113.599C67.2429 113.645 67.534 113.837 67.7102 114.129L69.5795 117.297L70.3915 116.69L68.5222 113.522C68.3537 113.23 68.0549 113.037 67.7025 112.991Z" fill="#797979"/>
<path d="M69.7511 117.186L69.4136 117.439L72.2424 121.24L72.58 120.987L69.7511 117.186Z" fill="#797979"/>
<path d="M70.3545 116.722L68.7894 117.896L69.0462 118.241L70.6113 117.067L70.3545 116.722Z" fill="#797979"/>
<path d="M72.5899 120.973L72.2528 121.226L72.5362 121.918L73.3943 122.756L73.7313 122.503L73.1721 121.442L72.5899 120.973Z" fill="#797979"/>
<path d="M71.4604 116.652C72.1729 116.021 70.7096 115.045 70.3725 114.868C70.1121 114.729 67.7065 114.107 67.3082 114.468C67.0171 114.737 67.04 115.06 67.4537 115.783C67.8674 116.506 68.6718 117.236 69.2617 117.667L69.7137 117.413C69.7137 117.413 71.5677 116.798 71.4604 116.652Z" fill="#797979"/>
<path d="M67.3122 114.468C67.3122 114.468 65.4276 115.867 65.78 116.359C66.0175 116.69 67.542 115.475 67.5727 115.437C67.588 115.421 67.8255 114.998 67.7565 114.76C67.6876 114.522 67.3122 114.468 67.3122 114.468Z" fill="#797979"/>
<path d="M67.6301 115.537C67.6301 115.537 65.9064 116.798 66.1516 117.297C66.3967 117.797 68.1894 116.275 68.1894 116.275C68.1894 116.275 68.4882 115.875 68.2507 115.59C68.0132 115.306 67.6301 115.537 67.6301 115.537Z" fill="#797979"/>
<path d="M68.1311 116.459C68.1311 116.459 66.415 117.682 66.89 118.043C67.365 118.397 68.7057 117.09 68.6827 117.074C68.675 117.067 68.9585 116.751 68.7133 116.505C68.4299 116.221 68.1234 116.459 68.1234 116.459H68.1311Z" fill="#797979"/>
<path d="M68.7942 117.052C68.7942 117.052 67.5608 118.174 67.8059 118.374C68.0511 118.574 69.2615 117.659 69.2615 117.659C69.2615 117.659 69.4377 117.367 69.2615 117.144C69.0777 116.929 68.7942 117.052 68.7942 117.052Z" fill="#797979"/>
<path d="M69.6371 117.021C68.3807 116.121 67.9057 114.914 67.7448 114.361C67.5457 114.361 67.3848 114.399 67.3082 114.468C67.0171 114.737 67.04 115.06 67.4537 115.783C67.8674 116.506 68.6718 117.236 69.2617 117.667L69.7137 117.413C69.7137 117.413 71.0467 116.967 71.3838 116.752C70.0508 117.167 69.6371 117.021 69.6371 117.021Z" fill="#797979"/>
<path d="M102.881 125.071H33.4035V127.532H102.881V125.071Z" fill="#797979"/>
<path d="M39.0116 127.44H37.0198V164.916H39.0116V127.44Z" fill="#797979"/>
<path d="M99.2835 127.44H97.2916V164.916H99.2835V127.44Z" fill="#797979"/>
<path d="M97.8223 127.44H38.5495V146.024H97.8223V127.44Z" fill="#797979"/>
<path d="M245.944 0H0V9.99581H245.944V0Z" fill="#797979"/>
<path d="M91.602 115.321H0V165.139H91.602V115.321Z" fill="#797979"/>
<path d="M21.0676 101.496H0V97.1517L21.0676 99.3277V101.496Z" fill="#797979"/>
<path d="M15.3219 99.3279H0V117.643H15.3219V99.3279Z" fill="#797979"/>
<path d="M51.3301 6.53603H45.8066V121.488H51.3301V6.53603Z" fill="#797979"/>
<path d="M48.5628 17.3236H0V20.7068H48.5628V17.3236Z" fill="#797979"/>
<path d="M48.1797 27.658H0V38.6534H48.1797V27.658Z" fill="#797979"/>
<path d="M312.672 17.3235H51.3259V20.7067H312.672V17.3235Z" fill="#797979"/>
<path d="M314.483 9.9957H311.449V165.138H314.483V9.9957Z" fill="#797979"/>
<path d="M318.15 159.933H309.149V164.162H318.15V159.933Z" fill="#797979"/>
<path d="M327.169 162.532H301.145V165.131H327.169V162.532Z" fill="#797979"/>
<path d="M36.5664 60.2511C36.4821 59.9666 36.3825 59.6668 36.2676 59.3592C36.0454 58.7441 35.785 58.1136 35.5398 57.5523C35.4172 57.2755 35.3023 57.0063 35.1951 56.7757C35.0342 56.4297 34.904 56.1529 34.8273 55.9837C34.8197 55.8684 34.7967 55.5608 34.7431 55.1379C34.6205 54.1768 34.36 52.5928 33.8084 51.2472C33.6246 50.8013 33.4101 50.3784 33.1573 50.0093L33.2262 44.4654L33.8467 44.4116C33.9463 44.404 34.0306 44.3194 34.0306 44.2117L34.1379 41.7897C34.1379 41.7897 34.1379 41.7435 34.1379 41.7205C34.1302 41.6051 34.0306 41.5205 33.9157 41.5359L33.5173 41.5744L30.5372 41.8435L29.3038 41.6589C29.074 39.8289 28.4994 37.2377 27.7716 36.4304C27.5878 36.2305 27.3732 36.1228 27.1894 36.1305C27.0668 36.1305 26.8829 36.1689 26.7067 36.3535C26.0019 37.0916 25.9713 40.0058 25.9943 41.1591L22.2711 40.5902C22.2174 40.5825 22.1638 40.5902 22.1255 40.6286C22.0872 40.6594 22.0642 40.7132 22.0565 40.767L21.9876 42.9507C21.9876 43.043 22.0489 43.1276 22.1408 43.1353L22.6311 43.2121L22.2864 48.0716C21.2368 48.6406 17.1306 50.9627 17.437 52.1392C17.4906 52.3314 17.6438 52.5774 18.0882 52.6466C18.9768 52.785 20.6316 52.1238 21.3211 51.8316C21.2445 52.4467 21.0989 53.8 21.2215 55.1456C20.984 55.9145 19.3905 61.2123 20.7235 61.9658C20.7925 62.0043 20.8614 62.0273 20.9304 62.0427C21.7348 62.1657 22.4396 60.2819 22.9069 58.5749C22.815 60.5741 22.9069 62.9808 23.8339 63.1807C24.0101 63.2191 24.1863 63.173 24.3395 63.0423C24.9907 62.4963 25.3201 60.3204 25.4887 58.5442C25.7032 60.2512 26.0939 62.1273 26.7987 62.2349C26.8906 63.9496 27.1741 65.6873 27.9172 66.1333C27.9708 66.1641 28.0321 66.1948 28.0934 66.2102C28.1776 66.2332 28.2619 66.241 28.3385 66.2333C28.3922 66.2333 28.4534 66.2179 28.4994 66.1948C28.5147 66.1948 28.53 66.1794 28.5454 66.1717C28.5837 66.1564 28.6143 66.1333 28.6526 66.1102C28.6679 66.0949 28.6909 66.0795 28.7062 66.0564C28.7369 66.0333 28.7599 66.0103 28.7905 65.9795C28.8058 65.9564 28.8288 65.9334 28.8441 65.9026C28.8671 65.8719 28.8901 65.8411 28.9131 65.8103C28.9284 65.7796 28.9514 65.7488 28.9667 65.7104C28.9897 65.6719 29.005 65.6412 29.0203 65.6028C29.0357 65.5643 29.051 65.5259 29.0663 65.4797C29.0816 65.4413 29.097 65.4028 29.1123 65.3644C29.1276 65.3183 29.1429 65.2721 29.1582 65.2183C29.1736 65.1799 29.1889 65.1414 29.1965 65.0953C29.2119 65.0414 29.2272 64.9876 29.2425 64.9261C29.2502 64.8877 29.2655 64.8415 29.2732 64.8031C29.2885 64.7416 29.3038 64.6724 29.3115 64.6109C29.3191 64.5724 29.3268 64.534 29.3344 64.4955C29.3498 64.4263 29.3574 64.3494 29.3728 64.2725C29.3728 64.2341 29.3881 64.2033 29.3881 64.1649C29.4034 64.0803 29.4111 63.9957 29.4264 63.9111C29.4264 63.8804 29.434 63.8496 29.4417 63.8189C29.4494 63.7266 29.4647 63.6344 29.4723 63.5421C29.4723 63.519 29.4723 63.4883 29.48 63.4652C29.4877 63.3652 29.4953 63.2653 29.503 63.1653V63.0961C29.5183 62.9885 29.526 62.8808 29.5336 62.7732V62.7347C29.5413 62.6194 29.549 62.4964 29.5566 62.381V62.3656C29.5566 62.2118 29.5719 62.0581 29.5719 61.912C29.9626 63.8881 30.5908 66.1717 31.4795 66.6177C31.5331 66.6408 31.5868 66.6638 31.6404 66.6792C31.694 66.6946 31.7553 66.7023 31.8089 66.7023C31.9085 66.7023 32.0081 66.6715 32.0924 66.6254C32.1384 66.6023 32.1767 66.5716 32.215 66.5331C32.2533 66.4947 32.2916 66.4562 32.3222 66.4101C32.4678 66.2179 32.5597 65.918 32.6133 65.5489C32.6516 65.2721 32.6746 64.9492 32.6746 64.6109C32.6746 64.2725 32.667 63.8958 32.6363 63.5113C32.5827 62.7424 32.4908 61.935 32.3758 61.1892L32.3988 61.243C32.9811 62.7578 33.7242 64.3571 34.4137 64.7723C34.4749 64.8108 34.5286 64.8338 34.5899 64.8492H34.6052C34.6665 64.8723 34.7278 64.88 34.7814 64.8723C34.8273 64.8723 34.8733 64.8569 34.9193 64.8415C34.9959 64.8108 35.0572 64.7723 35.1108 64.7185C35.1644 64.6647 35.2104 64.5955 35.2487 64.5109C35.287 64.4263 35.3176 64.3187 35.333 64.2033C35.333 64.1572 35.333 64.1034 35.3406 64.0572C35.3406 63.9727 35.356 63.8958 35.356 63.8035C35.356 63.7343 35.356 63.6574 35.3483 63.5805C35.3483 63.4959 35.3483 63.419 35.333 63.3345C35.3253 63.2345 35.31 63.1346 35.2947 63.0269C35.287 62.95 35.2793 62.8808 35.264 62.8039C35.2487 62.6809 35.2181 62.5502 35.1951 62.4272C35.1798 62.3656 35.1721 62.3041 35.1644 62.2426C35.1338 62.0965 35.1031 61.9427 35.0648 61.789C35.0572 61.7428 35.0495 61.7044 35.0342 61.6582C34.9882 61.4814 34.9423 61.2969 34.8963 61.12L34.881 61.0662C34.8197 60.8355 34.7584 60.6125 34.6971 60.3896C35.1261 61.1277 35.5858 61.7813 35.9918 62.035C36.0531 62.0735 36.122 62.1042 36.1833 62.1273C36.2446 62.1503 36.3059 62.158 36.3595 62.1503C36.4055 62.1503 36.4438 62.135 36.4898 62.1196C36.5664 62.0888 36.6736 62.0196 36.7349 61.8582C36.7579 61.7967 36.7732 61.7275 36.7809 61.6429C36.8039 61.3122 36.7043 60.8201 36.5357 60.2511H36.5664ZM27.1051 36.7302C27.1511 36.6841 27.1741 36.6841 27.1894 36.6841C27.1894 36.6918 27.2737 36.7149 27.3579 36.7994C27.9478 37.4607 28.4994 39.8212 28.7369 41.5667L26.5535 41.236C26.5229 39.629 26.6378 37.23 27.1128 36.7302H27.1051Z" fill="#797979"/>
<path d="M308.082 54.7696L307.545 69.4327L308.495 69.4711C309.269 69.5019 309.928 68.733 309.959 67.7565L310.411 55.3617L311.506 42.1134C311.537 41.7058 311.407 41.306 311.138 41.0061C311.054 40.9139 310.962 40.837 310.863 40.7678C310.916 40.514 310.939 40.2757 310.916 40.0527C312.196 39.1838 311.859 36.3619 311.859 36.3619H310.962C311.384 38.0382 311.131 39.0147 310.686 39.4606C310.572 39.3069 310.426 39.1838 310.219 39.1223C309.982 39.0839 309.553 39.03 309.277 39.376C309.032 39.0839 308.894 38.6302 308.993 38.0535H308.771C308.771 38.0535 308.595 39.253 309.108 39.9066C309.108 39.9604 309.101 40.3372 309.139 40.8216C309.093 40.8524 309.047 40.8831 309.009 40.9293C308.718 41.2061 308.549 41.5905 308.549 41.998L308.442 54.8003L308.089 54.785L308.082 54.7696ZM309.361 39.4452C309.415 39.4914 309.461 39.5375 309.522 39.576C309.468 39.5375 309.415 39.4914 309.361 39.4452ZM310.426 39.6452C310.127 39.7913 309.798 39.7605 309.522 39.5837C309.652 39.3991 309.828 39.3837 310.135 39.4299C310.257 39.4683 310.349 39.5452 310.418 39.6452H310.426ZM310.549 40.6063C310.403 40.5525 310.25 40.514 310.089 40.5063C309.867 40.4987 309.652 40.5448 309.453 40.6294C309.445 40.4525 309.438 40.291 309.438 40.1757C309.583 40.2526 309.76 40.3064 309.974 40.3141C310.204 40.3218 310.403 40.2834 310.587 40.2218C310.587 40.3449 310.572 40.4756 310.549 40.614V40.6063ZM310.449 43.4513C310.411 43.9664 310.173 44.3663 309.905 44.3432C309.637 44.3201 309.461 43.8972 309.491 43.3821C309.514 43.0822 309.606 42.8284 309.737 42.667C309.714 42.7054 309.691 42.7516 309.675 42.7823C309.629 42.8592 309.66 42.9592 309.737 43.0053C309.76 43.0207 309.79 43.0284 309.821 43.0284C309.882 43.0284 309.936 42.9976 309.966 42.9438C309.982 42.9207 310.066 42.7746 310.181 42.5593C310.357 42.6977 310.472 43.0438 310.449 43.4513Z" fill="#797979"/>
<path d="M303.323 69.4405L303.867 54.616L308.058 55.2773L307.568 68.91L303.323 69.4405Z" fill="#797979"/>
<path d="M136.276 164.954C136.276 165.531 171.922 166 215.896 166C259.87 166 295.516 165.531 295.516 164.954C295.516 164.724 290 164.516 280.646 164.347L280.347 135.89L281.972 115.936L282.393 111.254H282.868C282.868 111.254 280.907 87.4022 278.746 81.9813C277.344 78.4597 275.199 75.8608 272.909 74.9151C272.817 74.8689 272.732 74.8382 272.64 74.8074C272.617 74.7998 272.587 74.7844 272.564 74.7767C272.495 74.7536 272.426 74.7305 272.357 74.7075C272.158 74.6229 271.928 74.5537 271.69 74.4999C271.3 73.8924 270.082 71.9087 269.224 69.4251C269.385 68.0411 269.614 60.5365 265.516 58.9679C265.516 58.9679 264.114 56.7688 260.145 58.9679C260.145 58.9679 254.116 62.8663 255.166 66.2034C255.564 67.4721 256.307 67.8873 257.089 67.8796C257.319 68.4178 257.633 68.9868 258.039 69.6019C258.445 70.2094 258.95 70.6169 259.41 71.2551C259.579 71.8548 259.793 72.7083 259.747 73.1235C259.747 73.1235 259.31 73.2619 259.226 73.5157C259.142 73.7617 260.306 74.3538 261.341 73.7386C261.678 74.1385 262.007 74.4999 262.321 74.8305L262.344 74.8536C262.382 74.8997 262.428 74.9382 262.467 74.9766C262.49 74.9997 262.513 75.0304 262.543 75.0535C262.98 75.4764 263.386 75.8224 263.754 76.0454L263.784 76.0684C264.152 76.2837 264.482 76.376 264.742 76.3068C265.217 76.1761 265.684 75.9147 266.121 75.5763C266.374 76.1223 266.619 76.6528 266.826 77.1142C266.221 78.0061 265.792 79.0134 265.447 80.0514C265.094 81.0586 264.819 82.1044 264.596 83.1116L260.513 89.1706L251.259 96.2369L249.742 97.3288C249.367 97.3211 247.765 97.2903 246.218 97.3288L244.67 81.4124L242.786 81.5969L243.069 84.488L240.855 91.8003L241.935 100.789L241.047 101.927L241.384 108.363H242.035V111.992H239.131V115.767H237.461V156.481H239.131V163.947C232.826 163.924 226.192 163.909 219.328 163.901V163.332H217.091V128.693H224.468V124.871C224.468 124.31 224.399 123.764 224.277 123.241C224.162 122.749 223.993 122.28 223.787 121.834H225.526V133.66H232.765V91.908H225.526V94.676H209.905V92.8383H208.028V82.1813H200.597V80.6665C200.597 79.9207 199.992 79.3209 199.256 79.3209C198.521 79.3209 197.854 79.9514 197.854 80.728V82.1813H197.425V92.8383H195.548V94.676H182.379V92.8383H180.502V82.1813H173.071V80.6665C173.071 79.9207 172.466 79.3209 171.73 79.3209C170.995 79.3209 170.328 79.9514 170.328 80.728V82.1813H169.899V92.8383H168.023V94.676H151.429V91.908H144.189V133.66H151.429V121.58H153.291C153.268 121.626 153.245 121.672 153.222 121.719L153.206 121.757C152.747 122.695 152.478 123.748 152.478 124.871V128.693H160.385V163.332H158.148V164.224C144.603 164.408 136.283 164.662 136.283 164.947L136.276 164.954ZM225.533 118.551H220.569C219.627 118.082 218.562 117.805 217.436 117.805H215.122V116.821H210.947V111.938H203.179C203.34 111.807 203.447 111.607 203.447 111.384C203.447 111.077 203.255 110.815 202.987 110.708V108.547H204.182V107.594H204.933V106.094H207.285V104.31H225.526V118.551H225.533ZM151.421 104.31H170.635V106.094H172.987V107.594H173.738V108.547H174.933V110.708C174.665 110.815 174.473 111.077 174.473 111.384C174.473 111.607 174.58 111.807 174.741 111.938H167.272V116.821H161.832V117.805H159.519C159.197 117.805 158.883 117.836 158.569 117.874C158.025 117.951 157.504 118.082 157.006 118.274C156.861 118.335 156.715 118.389 156.569 118.458V118.289H151.429V104.303L151.421 104.31ZM202.458 108.547V110.708C202.19 110.815 201.999 111.077 201.999 111.384C201.999 111.607 202.106 111.807 202.267 111.938H175.661C175.821 111.807 175.929 111.607 175.929 111.384C175.929 111.077 175.737 110.815 175.469 110.708V108.547H176.664V107.594H177.415V106.094H179.767V104.31H198.161V106.094H200.513V107.594H201.263V108.547H202.458ZM204.243 117.805H200.988V116.867H204.243V117.805ZM190.109 117.805H186.853V116.867H190.109V117.805ZM175.975 117.805H172.719V116.867H175.975V117.805ZM171.822 82.189H171.585V80.7357C171.585 80.605 171.822 80.5435 171.822 80.6742V82.189ZM199.348 82.189H199.111V80.7357C199.111 80.605 199.348 80.5435 199.348 80.6742V82.189ZM212.295 163.901C194.43 163.909 178.097 164.001 165.188 164.139V158.803H212.295V163.901ZM261.455 96.7367L255.603 105.802L255.173 106.463L253.963 108.309C253.894 108.401 253.749 108.586 253.557 108.832C253.557 108.832 251.879 110.139 251.734 110.739C251.665 111.038 251.626 111.338 251.603 111.569C250.998 112.53 250.554 113.43 250.707 113.814C250.723 113.86 250.753 113.891 250.776 113.93H250.761L250.807 113.983C250.807 113.983 250.853 114.037 250.876 114.06C250.929 114.122 250.991 114.191 251.075 114.283L250.194 114.914C250.01 114.775 249.796 114.645 249.535 114.537L251.197 117.174C251.197 117.174 251.243 116.713 251.067 116.159L252.109 115.26C252.477 115.544 252.845 115.744 253.082 115.66C253.427 115.537 253.197 115.037 252.898 114.575L252.914 114.56C253.48 115.052 254.162 115.544 254.446 115.367C254.683 115.214 254.492 114.783 254.201 114.368C254.729 114.775 255.327 115.137 255.541 114.875C255.694 114.683 255.595 114.375 255.419 114.076C255.763 114.283 256.093 114.429 256.223 114.306C256.445 114.106 255.963 113.399 255.618 112.938C255.825 112.73 255.955 112.445 255.955 112.13C255.955 112.015 255.932 111.9 255.901 111.8C256.131 110.969 256.146 110.262 256.146 110.177L267.523 101.258L268.197 103.534L266.849 111.231H267.584L262.988 135.828L268.036 164.139H267.822C267.362 164.116 266.887 164.108 266.435 164.124C262.612 164.085 258.483 164.047 254.109 164.016V121.795L247.926 111.976H244.349V108.732L245.521 109.347L245.666 110.869L247.551 110.685L246.754 102.434C246.9 102.465 247.038 102.457 247.168 102.396C247.635 102.158 247.382 101.45 246.984 100.781C248.271 100.989 249.16 100.666 250.5 100.074L252.301 99.5201L261.478 96.7367H261.455ZM274.517 164.239C273.491 164.224 272.426 164.208 271.338 164.193L269.454 135.836L272.663 129.438L273.567 136.136L277.651 164.185C276.609 164.101 275.46 164.078 274.517 164.231V164.239Z" fill="#797979"/>
<path d="M253.216 120.434L252.028 118.551C252.028 118.551 253.323 119.02 253.216 120.434Z" fill="#797979"/>
<path d="M253.565 25.8969H252.056L238.328 36.0619H268.129L253.565 25.8969Z" fill="#797979"/>
<path d="M253.223 8.45753H252.059V31.6862H253.223V8.45753Z" fill="#797979"/>
<path d="M75.7298 25.8969H74.2205L60.4921 36.0619H90.3009L75.7298 25.8969Z" fill="#797979"/>
<path d="M75.3937 8.45753H74.2292V31.6862H75.3937V8.45753Z" fill="#797979"/>
<path d="M102.887 159.933H0V165.139L102.887 165.139V159.933Z" fill="#797979"/>
<path d="M308.607 24.7361C302.424 24.7361 296.939 23.5904 292.389 22.068C278.882 17.5468 270.402 8.81967 270.317 8.7274L270.869 8.19685C270.953 8.28143 279.327 16.8932 292.664 21.3452C304.945 25.4512 324.09 26.7583 345.525 9.69622L346 10.296C332.218 21.2683 319.355 24.7361 308.615 24.7361H308.607Z" fill="#797979"/>
<path d="M80.198 15.5784C72.8435 15.5784 65.5043 14.0867 60.2718 9.51171L60.7775 8.93503C75.3792 21.7066 107.172 9.75776 107.486 9.63474L107.762 10.3498C107.555 10.4344 93.8574 15.5784 80.198 15.5784Z" fill="#797979"/>
</g>
</svg>
