<svg width="92" height="90" viewBox="0 0 92 90" fill="none" xmlns="http://www.w3.org/2000/svg">
<path d="M92 45H46V85H92V45Z" fill="#797979"/>
<path d="M69 45H46V85H69V45Z" fill="#303030"/>
<path d="M71 45H66V55H71V45Z" fill="white"/>
<path d="M71 73H66V85H71V73Z" fill="white"/>
<path d="M69 5H22V45H69V5Z" fill="#797979"/>
<path d="M45 5H22V45H45V5Z" fill="#303030"/>
<path d="M59.1818 35H65.8182C65.9161 35 66 35.0839 66 35.1818V41.8182C66 41.9161 65.9231 42 65.8182 42H59.1818C59.0839 42 59 41.9161 59 41.8182V35.1818C59 35.0839 59.0769 35 59.1818 35Z" stroke="white" stroke-miterlimit="10"/>
<path d="M62 40V38" stroke="white" stroke-miterlimit="10"/>
<path d="M63 39L61.9959 37L61 39H63Z" fill="white"/>
<path d="M63 40V38" stroke="white" stroke-miterlimit="10"/>
<path d="M64 39L62.9959 37L62 39H64Z" fill="white"/>
<path d="M61 41H64" stroke="white" stroke-miterlimit="10"/>
<path d="M48 33H43V45H48V33Z" fill="white"/>
<path d="M46 45H0V85H46V45Z" fill="#797979"/>
<path d="M22 45H0V85H22V45Z" fill="#303030"/>
<path d="M38 76C38 76.0403 38 76.0748 38 76.1151V76.1381C38 76.2301 38.0121 76.3222 38.0303 76.4142C38.0726 76.6616 38.1573 76.8917 38.3025 77.1103C38.5808 77.5361 39.0406 77.8467 39.5608 77.9561C40.063 78.0596 40.6014 77.9791 41.043 77.7259C41.1822 77.6224 41.3213 77.5131 41.4544 77.4095C41.6964 77.1621 41.8597 76.8745 41.9444 76.5466C41.9444 76.535 41.9444 76.5235 41.9444 76.512C41.9868 76.3509 42.0049 76.1841 41.9989 76.0115H38V76Z" fill="white"/>
<path d="M40 78V81" stroke="white" stroke-miterlimit="10"/>
<path d="M39 81H40H39Z" stroke="white" stroke-miterlimit="10"/>
<path d="M36.1818 75H42.8182C42.9161 75 43 75.0839 43 75.1818V81.8182C43 81.9161 42.9231 82 42.8182 82H36.1818C36.0839 82 36 81.9161 36 81.8182V75.1818C36 75.0839 36.0769 75 36.1818 75Z" stroke="white" stroke-miterlimit="10"/>
<path d="M26 45H20V55H26V45Z" fill="white"/>
<path d="M26 73H20V85H26V73Z" fill="white"/>
<path d="M89.818 75H83.182C83.0815 75 83 75.0815 83 75.182V81.818C83 81.9185 83.0815 82 83.182 82H89.818C89.9185 82 90 81.9185 90 81.818V75.182C90 75.0815 89.9185 75 89.818 75Z" stroke="white" stroke-miterlimit="10"/>
<path d="M89 78C89 77.9595 89 77.9248 89 77.8843C89 77.8785 89 77.8669 89 77.8611C89 77.7685 88.9769 77.676 88.9614 77.5892C88.9151 77.3404 88.7994 77.1089 88.622 76.889C88.2749 76.4608 87.6964 76.1541 87.0484 76.0442C86.4159 75.94 85.7448 76.0211 85.1971 76.2757C85.0274 76.3798 84.85 76.4897 84.6803 76.5939C84.3717 76.8427 84.1712 77.132 84.0709 77.4561C84.0709 77.4676 84.0709 77.4792 84.0709 77.4908C84.0169 77.6528 83.9937 77.8206 84.0014 77.9884H89V78Z" fill="white"/>
<path d="M87 77V79.5709C87 79.9942 86 80.2308 86 79.6705" stroke="white" stroke-miterlimit="10"/>
</svg>
