<svg width="995" height="590" viewBox="0 0 995 590" fill="none" xmlns="http://www.w3.org/2000/svg">
<g clip-path="url(#clip0_943_14953)">
<path d="M380.755 267.36H345.52V302.607H380.755V267.36Z" fill="white" fill-opacity="0.4"/>
<path d="M418.564 267.623H383.328V302.87H418.564V267.623Z" fill="white" fill-opacity="0.4"/>
<path d="M457.052 267.36H421.816V302.607H457.052V267.36Z" fill="white" fill-opacity="0.4"/>
<path d="M494.865 267.623H459.629V302.87H494.865V267.623Z" fill="white" fill-opacity="0.4"/>
<path d="M533.337 267.36H498.102V302.607H533.337V267.36Z" fill="white" fill-opacity="0.4"/>
<path d="M571.162 267.623H535.926V302.87H571.162V267.623Z" fill="white" fill-opacity="0.4"/>
<path d="M609.634 267.36H574.398V302.607H609.634V267.36Z" fill="white" fill-opacity="0.4"/>
<path d="M647.458 267.623H612.223V302.87H647.458V267.623Z" fill="white" fill-opacity="0.4"/>
<path d="M685.931 267.36H650.695V302.607H685.931V267.36Z" fill="white" fill-opacity="0.4"/>
<path d="M723.744 267.623H688.508V302.87H723.744V267.623Z" fill="white" fill-opacity="0.4"/>
<path d="M762.232 267.36H726.996V302.607H762.232V267.36Z" fill="white" fill-opacity="0.4"/>
<path d="M800.04 267.623H764.805V302.87H800.04V267.623Z" fill="white" fill-opacity="0.4"/>
<path d="M838.513 267.36H803.277V302.607H838.513V267.36Z" fill="white" fill-opacity="0.4"/>
<path d="M876.337 267.623H841.102V302.87H876.337V267.623Z" fill="white" fill-opacity="0.4"/>
<path d="M914.814 267.36H879.578V302.607H914.814V267.36Z" fill="white" fill-opacity="0.4"/>
<path d="M952.638 267.623H917.402V302.87H952.638V267.623Z" fill="white" fill-opacity="0.4"/>
<path d="M991.236 267H956V302.247H991.236V267Z" fill="white" fill-opacity="0.4"/>
<path d="M380.755 305.445H345.52V340.693H380.755V305.445Z" fill="white" fill-opacity="0.4"/>
<path d="M418.564 305.708H383.328V340.956H418.564V305.708Z" fill="white" fill-opacity="0.4"/>
<path d="M457.052 305.445H421.816V340.693H457.052V305.445Z" fill="white" fill-opacity="0.4"/>
<path d="M494.865 305.708H459.629V340.956H494.865V305.708Z" fill="white" fill-opacity="0.4"/>
<path d="M533.337 305.445H498.102V340.693H533.337V305.445Z" fill="white" fill-opacity="0.4"/>
<path d="M571.162 305.708H535.926V340.956H571.162V305.708Z" fill="white" fill-opacity="0.4"/>
<path d="M609.634 305.445H574.398V340.693H609.634V305.445Z" fill="white" fill-opacity="0.4"/>
<path d="M647.458 305.708H612.223V340.956H647.458V305.708Z" fill="white" fill-opacity="0.4"/>
<path d="M685.931 305.445H650.695V340.693H685.931V305.445Z" fill="white" fill-opacity="0.4"/>
<path d="M723.744 305.708H688.508V340.956H723.744V305.708Z" fill="white" fill-opacity="0.4"/>
<path d="M762.232 305.445H726.996V340.693H762.232V305.445Z" fill="white" fill-opacity="0.4"/>
<path d="M800.04 305.708H764.805V340.956H800.04V305.708Z" fill="white" fill-opacity="0.4"/>
<path d="M838.513 305.445H803.277V340.693H838.513V305.445Z" fill="white" fill-opacity="0.4"/>
<path d="M876.337 305.708H841.102V340.956H876.337V305.708Z" fill="white" fill-opacity="0.4"/>
<path d="M914.814 305.445H879.578V340.693H914.814V305.445Z" fill="white" fill-opacity="0.4"/>
<path d="M952.638 305.708H917.402V340.956H952.638V305.708Z" fill="white" fill-opacity="0.4"/>
<path d="M991.236 305H956V340.247H991.236V305Z" fill="white" fill-opacity="0.4"/>
<g filter="url(#filter0_d_943_14953)">
<path d="M932.056 1.88281H833.781V104.358H932.056V1.88281Z" fill="#E0E0E0"/>
</g>
<path d="M925.4 1.88281H827.125V104.358H925.4V1.88281Z" fill="#FAFAFA"/>
<path d="M925.428 104.399H827.098V1.85498H925.428V104.399ZM827.153 104.344H925.359V1.9242H827.153V104.33V104.344Z" fill="#E0E0E0"/>
<path d="M912.199 15.6577H840.344V90.5827H912.199V15.6577Z" fill="white"/>
<path d="M840.344 91.0811C840.344 91.0811 839.721 91.9256 838.572 93.1438C837.423 94.3621 835.818 95.9958 834.005 97.7817C832.192 99.5676 830.531 101.146 829.313 102.281C828.082 103.402 827.293 104.067 827.238 104.012C827.182 103.942 827.86 103.167 828.995 101.963C830.144 100.744 831.763 99.1107 833.576 97.3248C835.389 95.5389 837.05 93.9468 838.282 92.8254C839.513 91.704 840.288 91.0395 840.344 91.1087V91.0811Z" fill="#E0E0E0"/>
<path d="M912.199 90.9014C912.199 90.9014 913.043 91.5244 914.261 92.6734C915.479 93.8225 917.112 95.4284 918.898 97.242C920.683 99.0556 922.261 100.717 923.396 101.935C924.53 103.154 925.181 103.956 925.125 104.012C925.056 104.067 924.281 103.389 923.077 102.254C921.873 101.105 920.226 99.4848 918.441 97.6712C916.656 95.8576 915.064 94.1963 913.943 92.9642C912.822 91.732 912.158 90.9567 912.227 90.9014H912.199Z" fill="#E0E0E0"/>
<path d="M911.988 15.8654C911.988 15.8654 912.611 15.0209 913.76 13.8026C914.908 12.5843 916.514 10.9507 918.327 9.16476C920.14 7.37885 921.801 5.80061 923.019 4.66538C924.25 3.544 925.039 2.87947 925.094 2.93485C925.15 3.00407 924.472 3.77935 923.337 4.9838C922.188 6.20209 920.569 7.83571 918.756 9.62162C916.943 11.4075 915.282 12.9996 914.05 14.121C912.819 15.2424 912.044 15.9069 911.988 15.8377V15.8654Z" fill="#E0E0E0"/>
<path d="M840.148 16.0453C840.148 16.0453 839.304 15.4223 838.086 14.2732C836.868 13.1242 835.235 11.5182 833.45 9.70462C831.664 7.89103 830.087 6.22972 828.952 5.01143C827.831 3.77929 827.167 2.99017 827.222 2.93479C827.291 2.87941 828.066 3.55778 829.27 4.69301C830.474 5.84208 832.121 7.46186 833.907 9.27545C835.692 11.089 837.283 12.7504 838.404 13.9825C839.525 15.2146 840.19 15.9899 840.121 16.0453H840.148Z" fill="#E0E0E0"/>
<path d="M911.991 90.5827C911.991 90.5827 911.991 90.4581 911.978 90.2227C911.978 89.9735 911.977 89.6274 911.964 89.1706C911.964 88.2291 911.95 86.8862 911.936 85.128C911.922 81.5839 911.894 76.42 911.867 69.8578C911.839 56.7335 911.784 38.0438 911.728 15.6576L912.005 15.9345C891.093 15.9345 866.528 15.9622 840.357 15.976L840.676 15.6576C840.662 43.1523 840.648 68.8887 840.634 90.5827L840.357 90.3058C861.823 90.3612 879.703 90.4165 892.242 90.4442C898.498 90.4719 903.425 90.4996 906.815 90.5134C908.49 90.5134 909.777 90.5411 910.677 90.5411H911.673C911.894 90.555 912.019 90.5688 912.019 90.5688C912.019 90.5688 911.922 90.5688 911.701 90.5827C911.465 90.5827 911.147 90.5827 910.732 90.5965C909.846 90.5965 908.573 90.6103 906.926 90.6242C903.549 90.638 898.65 90.6657 892.408 90.6934C879.828 90.7211 861.892 90.7765 840.357 90.8319H840.081V90.555C840.081 68.861 840.053 43.1246 840.039 15.6299V15.3115H840.357C866.528 15.3254 891.093 15.3392 912.005 15.3531H912.282V15.6299C912.227 38.0853 912.171 56.8442 912.144 70.0101C912.116 76.5446 912.088 81.6808 912.074 85.2111C912.061 86.9416 912.047 88.2707 912.047 89.1982C912.047 89.6274 912.047 89.9597 912.033 90.2089C912.033 90.4304 912.033 90.5411 912.019 90.5411L911.991 90.5827Z" fill="#E0E0E0"/>
<path d="M878.374 45.0629C875.814 41.228 871.081 38.9575 866.486 39.3867C861.891 39.8159 857.656 42.917 855.857 47.1672C854.348 50.739 854.542 54.9199 856.037 58.5056C857.532 62.0913 860.244 65.0816 863.455 67.269C871.856 72.9867 884.034 72.7375 891.854 66.2307C894.746 63.808 897.085 60.513 897.611 56.7751C898.234 52.4557 896.213 47.8594 892.615 45.3951C889.017 42.9308 884.007 42.7093 880.201 44.8413" fill="#E0E0E0"/>
<path d="M878.402 45.0489C877.904 43 875.745 41.5048 873.655 41.7678C874.596 42.8892 875.523 43.9968 876.465 45.1181C874.942 45.312 873.558 46.3918 873.005 47.8316C872.866 48.1777 872.839 48.6623 873.157 48.8284C873.378 48.9391 873.641 48.8561 873.863 48.7592C874.998 48.2885 876.146 47.8178 877.281 47.3471C877.516 49.2437 878.222 51.085 879.316 52.6494C880.091 50.9743 880.533 49.1468 880.603 47.3194C881.862 47.8731 883.121 48.4408 884.381 48.9945C884.09 47.9147 883.454 46.9317 882.609 46.198C883.73 45.9903 884.796 45.5612 885.765 44.9659C886.055 44.7859 886.374 44.4675 886.249 44.1629C886.152 43.9137 885.834 43.8583 885.585 43.8306C883.108 43.5953 880.561 44.1214 878.388 45.3258" fill="#EBEBEB"/>
<path d="M878.152 46.461C878.747 42.6539 878.415 38.7221 877.211 35.0672C878.111 34.8734 879.218 34.735 879.799 35.441C880.131 35.8563 880.173 36.4239 880.186 36.9639C880.228 40.5495 879.536 44.149 878.166 47.4717" fill="#EBEBEB"/>
<path d="M859.829 60.1391C859.829 60.1391 859.593 59.9591 859.233 59.5438C858.887 59.1423 858.417 58.5055 857.974 57.6471C857.061 55.9581 856.286 53.2447 856.77 50.2958C857.268 47.347 858.874 45.0212 860.271 43.7198C860.977 43.0553 861.614 42.5984 862.071 42.3354C862.527 42.0585 862.804 41.9478 862.818 41.9616C862.859 42.0308 861.794 42.5846 860.465 43.9275C859.15 45.2565 857.642 47.5131 857.171 50.3651C856.701 53.2031 857.407 55.8335 858.223 57.5225C859.04 59.2254 859.884 60.0975 859.815 60.1391H859.829Z" fill="white"/>
<path d="M863.622 63.0051C863.581 63.1158 862.986 62.9774 862.391 62.5482C861.782 62.119 861.477 61.593 861.56 61.5237C861.643 61.4545 862.072 61.8145 862.626 62.2021C863.18 62.6036 863.664 62.8805 863.622 62.9912V63.0051Z" fill="white"/>
<path d="M585.83 381.381H340.758V568.915H585.83V381.381Z" fill="#797979" fill-opacity="0.4"/>
<path d="M462.394 568.915C462.2 568.915 461.937 526.953 461.813 475.19C461.688 423.412 461.757 381.45 461.951 381.45C462.145 381.45 462.408 423.412 462.532 475.19C462.657 526.953 462.588 568.915 462.394 568.915Z" fill="#303030"/>
<path d="M442.313 491.831H442.811C443.675 491.831 444.375 491.13 444.375 490.266V460.044C444.375 459.18 443.675 458.48 442.811 458.48H442.313C441.449 458.48 440.749 459.18 440.749 460.044V490.266C440.749 491.13 441.449 491.831 442.313 491.831Z" fill="#E0E0E0"/>
<path d="M482.766 491.263H483.264C484.128 491.263 484.828 490.563 484.828 489.699V459.477C484.828 458.613 484.128 457.912 483.264 457.912H482.766C481.902 457.912 481.202 458.613 481.202 459.477V489.699C481.202 490.563 481.902 491.263 482.766 491.263Z" fill="#E0E0E0"/>
<g opacity="0.3">
<path d="M453.536 561.232C453.536 561.232 453.536 560.941 453.522 560.387C453.522 559.82 453.522 559.003 453.508 557.923C453.508 555.749 453.481 552.538 453.467 548.384C453.439 540.064 453.411 527.922 453.37 512.611C453.328 482.015 453.273 438.738 453.204 387.93L453.536 388.262C421.11 388.262 385.473 388.276 348.133 388.289L348.493 387.93C348.465 453.8 348.438 514.327 348.41 561.232L348.133 560.955C380.38 561.024 406.703 561.066 424.971 561.107C434.119 561.135 441.246 561.163 446.104 561.176C448.526 561.176 450.38 561.204 451.64 561.204C452.885 561.204 453.55 561.232 453.55 561.232C453.55 561.232 452.927 561.246 451.695 561.259C450.436 561.259 448.609 561.273 446.215 561.287C441.371 561.301 434.257 561.329 425.151 561.356C406.827 561.398 380.449 561.439 348.133 561.509H347.856V561.232C347.829 514.327 347.801 453.8 347.773 387.93V387.57H348.147C385.5 387.57 421.123 387.583 453.55 387.597H453.882V387.93C453.813 438.821 453.757 482.181 453.716 512.832C453.674 528.116 453.647 540.216 453.619 548.523C453.605 552.648 453.591 555.819 453.577 557.992C453.577 559.044 453.564 559.861 453.564 560.415C453.564 560.955 453.55 561.218 453.55 561.218L453.536 561.232Z" fill="#797979" fill-opacity="0.4"/>
</g>
<g opacity="0.3">
<path d="M461.963 381.45C462.088 381.603 460.316 383.222 457.991 385.064C455.68 386.905 453.701 388.275 453.576 388.123C453.452 387.971 455.223 386.351 457.548 384.51C459.86 382.669 461.839 381.298 461.963 381.45Z" fill="#797979" fill-opacity="0.4"/>
</g>
<g opacity="0.3">
<path d="M462.576 568.721C462.452 568.874 460.348 567.295 457.884 565.205C455.421 563.114 453.525 561.287 453.663 561.135C453.788 560.982 455.892 562.561 458.355 564.651C460.818 566.742 462.714 568.569 462.576 568.721Z" fill="#797979" fill-opacity="0.4"/>
</g>
<g opacity="0.3">
<path d="M575.825 561.232C575.825 561.232 575.825 560.941 575.811 560.387C575.811 559.82 575.811 559.003 575.797 557.923C575.797 555.749 575.77 552.538 575.756 548.384C575.728 540.064 575.7 527.922 575.659 512.611C575.617 482.015 575.562 438.738 575.493 387.93L575.825 388.262C543.399 388.262 507.762 388.276 470.422 388.289L470.782 387.93C470.755 453.8 470.727 514.327 470.699 561.232L470.422 560.955C502.669 561.024 528.992 561.066 547.26 561.107C556.408 561.135 563.535 561.163 568.393 561.176C570.815 561.176 572.67 561.204 573.929 561.204C575.174 561.204 575.839 561.232 575.839 561.232C575.839 561.232 575.216 561.246 573.984 561.259C572.725 561.259 570.898 561.273 568.504 561.287C563.66 561.301 556.546 561.329 547.44 561.356C529.116 561.398 502.738 561.439 470.422 561.509H470.146V561.232C470.118 514.327 470.09 453.8 470.062 387.93V387.57H470.436C507.789 387.57 543.413 387.583 575.839 387.597H576.171V387.93C576.102 438.821 576.046 482.181 576.005 512.832C575.963 528.116 575.936 540.216 575.908 548.523C575.894 552.648 575.88 555.819 575.866 557.992C575.866 559.044 575.853 559.861 575.853 560.415C575.853 560.955 575.839 561.218 575.839 561.218L575.825 561.232Z" fill="#797979" fill-opacity="0.4"/>
</g>
<g opacity="0.3">
<path d="M586.121 382.087C586.232 382.239 584.115 383.901 581.278 385.576C578.427 387.251 575.963 388.289 575.866 388.123C575.769 387.943 578.081 386.628 580.904 384.953C583.727 383.292 585.997 381.921 586.121 382.087Z" fill="#797979" fill-opacity="0.4"/>
</g>
<g opacity="0.3">
<path d="M470.478 387.459C470.353 387.597 468.443 386.31 466.021 384.759C463.585 383.209 461.814 381.617 461.966 381.45C462.091 381.312 464.001 382.599 466.423 384.15C468.844 385.701 470.63 387.293 470.478 387.459Z" fill="#797979" fill-opacity="0.4"/>
</g>
<g opacity="0.3">
<path d="M470.297 561.439C470.463 561.578 468.872 563.488 466.588 565.44C464.305 567.392 462.533 569.026 462.395 568.901C462.229 568.763 463.82 566.852 466.104 564.9C468.387 562.948 470.159 561.315 470.297 561.439Z" fill="#797979" fill-opacity="0.4"/>
</g>
<g opacity="0.3">
<path d="M587.408 568.389C587.27 568.541 584.931 566.603 581.762 564.623C578.606 562.616 575.852 561.329 575.935 561.135C576.005 560.955 578.925 561.965 582.149 564.014C585.374 566.036 587.533 568.264 587.408 568.389Z" fill="#797979" fill-opacity="0.4"/>
</g>
<path d="M945.909 568.306H341.145V589.64H945.909V568.306Z" fill="#303030"/>
<path d="M962.018 376.245H341.145V381.99H962.018V376.245Z" fill="#303030"/>
<path d="M446.228 376.937H361.668V371.496H446.228V376.937ZM363.052 375.553H444.844V372.881H363.052V375.553Z" fill="#303030"/>
<g filter="url(#filter1_d_943_14953)">
<path d="M403.755 371.51H398.219V337.495C398.219 331.154 403.381 325.99 409.719 325.99C416.058 325.99 421.22 331.154 421.22 337.495V339.032H415.684V337.495C415.684 334.2 413.013 331.528 409.719 331.528C406.426 331.528 403.755 334.2 403.755 337.495V371.51Z" fill="#303030"/>
</g>
<path d="M421.842 337.896H415.061C414.151 337.896 413.414 338.634 413.414 339.544V339.904C413.414 340.814 414.151 341.551 415.061 341.551H421.842C422.752 341.551 423.489 340.814 423.489 339.904V339.544C423.489 338.634 422.752 337.896 421.842 337.896Z" fill="#303030"/>
<path d="M384.576 363.951H373.961V367.578H384.576V363.951Z" fill="#303030"/>
<path d="M427.685 363.951H417.07V367.578H427.685V363.951Z" fill="#303030"/>
<path d="M995 589.64C995 589.834 772.251 590 497.521 590C222.79 590 0 589.834 0 589.64C0 589.446 222.707 589.28 497.521 589.28C772.334 589.28 995 589.446 995 589.64Z" fill="#303030"/>
<g filter="url(#filter2_d_943_14953)">
<path d="M959.379 227.115H793.594V238.73H959.379V227.115Z" fill="#797979" fill-opacity="0.4" shape-rendering="crispEdges"/>
</g>
<g filter="url(#filter3_d_943_14953)">
<path d="M922.078 213.962H914.688V216.897H922.078V213.962Z" fill="#303030"/>
<path d="M888.599 165.438H901.595C904.612 165.438 907.048 167.889 907.048 170.893V171.502H883.133V170.893C883.133 167.875 885.582 165.438 888.586 165.438H888.599Z" fill="#303030"/>
<path d="M877.543 175.656H869.184C868.049 175.656 867.26 176.805 867.689 177.871L875.148 196.325L877.543 175.656Z" fill="#303030"/>
<path d="M912.53 210.321L911.699 207.677C914.882 206.68 917.54 205.351 919.588 203.745C921.124 202.527 922.107 200.714 922.273 198.748L923.255 182.633C923.297 181.941 923.062 181.29 922.591 180.792C922.12 180.293 921.484 180.016 920.792 180.016H914.398V177.248H920.792C922.231 177.248 923.615 177.843 924.598 178.895C925.58 179.947 926.106 181.373 926.009 182.799L925.027 198.941C924.792 201.696 923.435 204.23 921.29 205.919C918.979 207.733 916.031 209.214 912.53 210.321Z" fill="#303030"/>
<path d="M883.05 170.09C883.05 170.09 875.618 171.267 875.23 181.401C874.843 191.535 873.141 222.076 873.141 222.076H916.666L914.756 180.543C914.756 180.543 914.673 170.035 906.757 170.049C900.322 170.049 883.036 170.09 883.036 170.09H883.05Z" fill="#797979" fill-opacity="0.4"/>
<path d="M895.146 182.605H894.51C892.912 182.605 891.617 183.901 891.617 185.499V209.657C891.617 211.255 892.912 212.551 894.51 212.551H895.146C896.744 212.551 898.039 211.255 898.039 209.657V185.499C898.039 183.901 896.744 182.605 895.146 182.605Z" fill="#E0E0E0"/>
<path d="M895.148 212.551C895.148 212.551 895.383 212.523 895.812 212.398C896.228 212.274 896.85 211.997 897.335 211.318C897.57 210.986 897.764 210.571 897.833 210.072C897.888 209.602 897.833 209.006 897.833 208.397C897.819 207.165 897.805 205.781 897.778 204.258C897.75 201.157 897.736 197.516 897.695 193.487C897.695 191.452 897.695 189.334 897.667 187.132C897.667 186.579 897.667 186.025 897.667 185.471C897.667 184.973 897.515 184.488 897.224 184.073C896.947 183.658 896.532 183.325 896.061 183.145C895.591 182.938 895.093 182.952 894.484 182.965C893.446 182.952 892.477 183.644 892.131 184.571C891.937 185.042 891.951 185.527 891.951 186.108V187.783C891.951 189.984 891.937 192.116 891.923 194.152C891.896 198.18 891.868 201.821 891.84 204.922C891.826 206.445 891.799 207.83 891.785 209.062C891.647 210.28 892.076 211.221 892.712 211.775C893.335 212.329 893.999 212.454 894.442 212.481C894.885 212.509 895.134 212.537 895.134 212.551C895.134 212.578 894.899 212.606 894.442 212.62C893.985 212.62 893.252 212.551 892.546 211.983C892.2 211.706 891.868 211.305 891.647 210.792C891.411 210.28 891.398 209.643 891.398 209.062C891.384 207.83 891.37 206.445 891.342 204.922C891.314 201.821 891.301 198.18 891.259 194.152C891.259 192.116 891.259 189.998 891.231 187.783C891.231 187.229 891.231 186.676 891.231 186.108C891.231 185.582 891.204 184.904 891.453 184.308C891.91 183.104 893.155 182.218 894.484 182.245C895.037 182.245 895.729 182.218 896.338 182.481C896.947 182.716 897.459 183.145 897.819 183.671C898.179 184.198 898.373 184.834 898.373 185.471C898.373 186.039 898.373 186.593 898.373 187.146C898.373 189.348 898.359 191.48 898.345 193.501C898.317 197.53 898.29 201.171 898.262 204.272C898.248 205.795 898.22 207.179 898.207 208.411C898.179 209.02 898.22 209.574 898.137 210.128C898.041 210.682 897.805 211.138 897.528 211.484C896.961 212.191 896.255 212.44 895.812 212.537C895.356 212.62 895.107 212.564 895.12 212.537L895.148 212.551Z" fill="#303030"/>
<path d="M916.308 222.075H873.516V227.059H916.308V222.075Z" fill="#303030"/>
</g>
<g filter="url(#filter4_d_943_14953)">
<path d="M844.772 170.021L843.941 167.377C847.125 166.38 849.782 165.051 851.83 163.445C853.366 162.227 854.349 160.413 854.515 158.447L855.498 142.333C855.539 141.64 855.304 140.99 854.833 140.491C854.363 139.993 853.726 139.716 853.034 139.716H846.64V136.947H853.034C854.473 136.947 855.857 137.543 856.854 138.595C857.836 139.647 858.349 141.073 858.265 142.499L857.283 158.641C857.048 161.396 855.691 163.93 853.546 165.619C851.235 167.432 848.287 168.914 844.786 170.021H844.772Z" fill="#303030"/>
<path d="M844.814 182.703H821.453V189.611H844.814V182.703Z" fill="#303030"/>
<path d="M842.586 176.071H823.848V184.115H842.586V176.071Z" fill="#303030"/>
<path d="M817.828 187.963L813.745 224.831C813.593 226.174 814.645 227.35 816.001 227.35H851.887C853.257 227.35 854.309 226.146 854.129 224.789L849.202 187.922C849.05 186.801 848.095 185.956 846.96 185.956H820.07C818.921 185.956 817.952 186.828 817.814 187.977L817.828 187.963Z" fill="#797979" fill-opacity="0.4"/>
<path d="M840.982 209.782C840.982 213.658 837.841 216.787 833.979 216.787C830.118 216.787 826.977 213.645 826.977 209.782C826.977 205.919 830.118 202.777 833.979 202.777C837.841 202.777 840.982 205.919 840.982 209.782Z" fill="#E0E0E0"/>
<path d="M840.981 209.782C840.912 209.782 840.926 209.159 840.621 208.107C840.331 207.068 839.611 205.573 838.061 204.41C836.552 203.261 834.089 202.611 831.709 203.51C829.342 204.327 827.308 206.847 827.335 209.782C827.308 212.717 829.342 215.237 831.709 216.053C834.089 216.953 836.566 216.303 838.061 215.153C839.625 214.004 840.331 212.495 840.621 211.457C840.912 210.405 840.898 209.782 840.981 209.782C841.009 209.782 841.023 209.934 841.037 210.239C841.05 210.53 841.023 210.973 840.898 211.526C840.677 212.62 839.999 214.254 838.365 215.555C836.788 216.856 834.103 217.618 831.473 216.676C828.858 215.818 826.574 213.035 826.602 209.782C826.574 206.529 828.858 203.746 831.473 202.887C834.103 201.946 836.788 202.708 838.365 204.009C839.999 205.31 840.677 206.944 840.898 208.038C841.009 208.591 841.05 209.034 841.037 209.339C841.037 209.63 841.009 209.796 840.981 209.796V209.782Z" fill="#303030"/>
<path d="M844.814 174.368H821.453V177.442H844.814V174.368Z" fill="#303030"/>
<path d="M813.771 132.462C813.771 132.462 813.259 137.321 815.557 140.519C817.854 143.717 817.342 143.205 817.854 150.612C818.366 158.018 819.764 172.693 822.2 174.382H845.34C845.34 174.382 846.225 173.482 846.35 170.935C846.474 168.374 850.183 133.999 849.422 133.113C848.661 132.213 813.785 132.476 813.785 132.476L813.771 132.462Z" fill="#E0E0E0"/>
<path d="M813.771 132.462C813.771 132.462 813.909 132.434 814.145 132.42C814.435 132.42 814.795 132.393 815.238 132.379C816.248 132.365 817.646 132.323 819.431 132.296C823.071 132.24 828.33 132.199 834.849 132.213C838.101 132.226 841.672 132.254 845.505 132.393C846.46 132.434 847.443 132.476 848.439 132.573C848.688 132.614 848.937 132.628 849.214 132.683C849.283 132.683 849.629 132.78 849.726 132.988C849.837 133.251 849.809 133.348 849.837 133.486C849.878 134.026 849.865 134.525 849.837 135.037C849.768 137.086 849.616 139.176 849.449 141.322C848.785 149.906 847.816 159.32 846.861 169.204C846.626 170.963 846.861 172.901 845.602 174.604L845.519 174.714H845.339C837.16 174.714 829.368 174.701 822.199 174.687H822.061L822.005 174.631L821.521 174.119C821.396 173.939 821.3 173.759 821.189 173.565C820.954 173.205 820.857 172.818 820.691 172.444C820.428 171.683 820.206 170.935 820.026 170.174C819.667 168.665 819.39 167.183 819.168 165.73C818.712 162.822 818.407 160.04 818.144 157.409C817.895 154.779 817.701 152.314 817.563 150.016C817.383 147.732 817.438 145.586 817.12 143.745C816.719 141.931 815.293 140.741 814.698 139.315C814.075 137.93 813.84 136.643 813.729 135.604C813.619 134.566 813.632 133.763 813.66 133.223C813.688 132.683 813.743 132.406 813.757 132.406C813.771 132.406 813.757 132.683 813.757 133.223C813.757 133.763 813.785 134.552 813.923 135.577C814.061 136.587 814.324 137.847 814.961 139.176C815.279 139.841 815.75 140.464 816.248 141.17C816.733 141.862 817.286 142.665 817.494 143.648C817.867 145.586 817.826 147.691 818.034 149.975C818.2 152.259 818.407 154.723 818.684 157.34C818.961 159.957 819.293 162.725 819.763 165.605C819.999 167.045 820.276 168.512 820.635 169.994C820.815 170.727 821.037 171.461 821.286 172.181C821.563 172.859 821.867 173.648 822.365 174.036L822.172 173.981C829.34 173.981 837.132 173.967 845.311 173.953L845.062 174.064C845.491 173.51 845.768 172.61 845.879 171.779C845.99 170.935 846.017 169.994 846.114 169.094C847.069 159.209 848.052 149.795 848.757 141.225C848.924 139.079 849.09 136.989 849.173 134.968C849.187 134.469 849.2 133.957 849.173 133.486C849.173 133.376 849.145 133.223 849.159 133.251L849.27 133.154C849.27 133.154 849.353 133.071 849.27 133.126C849.228 133.154 849.186 133.196 849.145 133.237H849.131C849.131 133.237 849.062 133.237 849.02 133.237C848.813 133.182 848.564 133.168 848.328 133.126C847.36 133.029 846.391 132.974 845.436 132.933C841.616 132.766 838.059 132.725 834.807 132.67C828.344 132.6 823.099 132.559 819.404 132.517C817.632 132.49 816.22 132.476 815.21 132.462C814.767 132.462 814.407 132.434 814.117 132.434C813.868 132.434 813.757 132.406 813.743 132.406L813.771 132.462Z" fill="#303030"/>
<path d="M850.612 130.496H813.453V133.237H850.612V130.496Z" fill="#303030"/>
<path d="M816.191 131.285V128.322C816.191 127.589 816.786 126.979 817.534 126.979H846.127C846.86 126.979 847.469 127.575 847.469 128.322V131.285H816.205H816.191Z" fill="#303030"/>
<path d="M844.345 177.4C844.345 177.594 839.377 177.76 833.26 177.76C827.142 177.76 822.16 177.594 822.16 177.4C822.16 177.206 827.129 177.04 833.26 177.04C839.391 177.04 844.345 177.206 844.345 177.4Z" fill="#797979" fill-opacity="0.4"/>
<path d="M843.79 182.786C843.79 182.98 838.822 183.146 832.705 183.146C826.588 183.146 821.605 182.98 821.605 182.786C821.605 182.592 826.574 182.426 832.705 182.426C838.836 182.426 843.79 182.592 843.79 182.786Z" fill="#797979" fill-opacity="0.4"/>
</g>
<g filter="url(#filter5_d_943_14953)">
<path d="M959.377 415.023C959.377 415.216 918.246 415.383 867.537 415.383C816.829 415.383 775.684 415.216 775.684 415.023C775.684 414.829 816.801 414.663 867.537 414.663C918.273 414.663 959.377 414.829 959.377 415.023Z" fill="#303030"/>
<path d="M959.365 381.99H775.672V568.306H959.365V381.99Z" fill="#E0E0E0"/>
<path d="M959.376 413.86C959.376 414.053 918.203 414.247 867.412 414.289C816.607 414.33 775.434 414.192 775.434 413.998C775.434 413.804 816.607 413.61 867.412 413.569C918.203 413.527 959.376 413.666 959.376 413.86Z" fill="#303030"/>
<path d="M879.58 393.204H847.5V404.681H879.58V393.204Z" fill="#303030"/>
<path d="M910.332 398.936C910.263 398.936 910.277 398.285 909.972 397.177C909.668 396.098 908.92 394.519 907.287 393.315C905.71 392.11 903.135 391.432 900.644 392.373C898.167 393.232 896.036 395.862 896.063 398.936C896.036 402.009 898.167 404.639 900.644 405.498C903.135 406.425 905.723 405.761 907.287 404.556C908.92 403.352 909.668 401.774 909.958 400.694C910.263 399.6 910.249 398.936 910.318 398.936C910.346 398.936 910.36 399.102 910.374 399.406C910.374 399.711 910.36 400.182 910.235 400.749C910 401.884 909.294 403.601 907.592 404.944C905.945 406.287 903.149 407.104 900.409 406.107C899.053 405.636 897.766 404.722 896.838 403.463C895.897 402.217 895.358 400.597 895.344 398.936C895.344 397.274 895.897 395.655 896.838 394.409C897.766 393.135 899.053 392.235 900.409 391.764C903.149 390.781 905.945 391.584 907.592 392.927C909.294 394.27 910 395.987 910.235 397.122C910.36 397.703 910.387 398.16 910.374 398.465C910.374 398.769 910.346 398.936 910.318 398.936H910.332Z" fill="#303030"/>
<path d="M835.596 398.936C835.596 400.957 833.963 402.591 831.943 402.591C829.922 402.591 828.289 400.957 828.289 398.936C828.289 396.914 829.922 395.281 831.943 395.281C833.963 395.281 835.596 396.914 835.596 398.936Z" fill="#797979" fill-opacity="0.4"/>
<path d="M825.272 398.936C825.272 400.957 823.639 402.591 821.618 402.591C819.598 402.591 817.965 400.957 817.965 398.936C817.965 396.914 819.598 395.281 821.618 395.281C823.639 395.281 825.272 396.914 825.272 398.936Z" fill="#797979" fill-opacity="0.4"/>
<path d="M814.948 398.936C814.948 400.957 813.315 402.591 811.294 402.591C809.274 402.591 807.641 400.957 807.641 398.936C807.641 396.914 809.274 395.281 811.294 395.281C813.315 395.281 814.948 396.914 814.948 398.936Z" fill="#797979" fill-opacity="0.4"/>
<path d="M931.961 398.936C931.892 398.936 931.906 398.285 931.601 397.177C931.297 396.098 930.549 394.519 928.916 393.315C927.339 392.11 924.764 391.432 922.273 392.373C919.796 393.232 917.665 395.862 917.692 398.936C917.665 402.009 919.796 404.639 922.273 405.498C924.764 406.425 927.352 405.761 928.916 404.556C930.549 403.352 931.297 401.774 931.587 400.694C931.892 399.6 931.878 398.936 931.947 398.936C931.975 398.936 931.989 399.102 932.002 399.406C932.002 399.711 931.989 400.182 931.864 400.749C931.629 401.884 930.923 403.601 929.221 404.944C927.574 406.287 924.778 407.104 922.038 406.107C920.682 405.636 919.395 404.722 918.467 403.463C917.526 402.217 916.986 400.597 916.973 398.936C916.973 397.274 917.526 395.655 918.467 394.409C919.395 393.135 920.682 392.235 922.038 391.764C924.778 390.781 927.574 391.584 929.221 392.927C930.923 394.27 931.629 395.987 931.864 397.122C931.989 397.703 932.016 398.16 932.002 398.465C932.002 398.769 931.975 398.936 931.947 398.936H931.961Z" fill="#303030"/>
<path d="M879.051 545.264H848.562V552.075H879.051V545.264Z" fill="#303030"/>
<path d="M775.67 567.808C775.67 567.808 775.698 568.098 775.712 568.694C775.712 569.331 775.74 570.244 775.754 571.463H775.56C775.408 560.789 775.297 523.229 775.297 478.609C775.338 451.973 775.38 427.856 775.408 410.357C775.449 401.663 775.491 394.602 775.518 389.674C775.546 387.265 775.574 385.382 775.587 384.053C775.601 383.444 775.615 382.959 775.629 382.586C775.629 382.253 775.657 382.087 775.67 382.087C775.684 382.087 775.698 382.253 775.712 382.586C775.712 382.946 775.74 383.43 775.754 384.053C775.767 385.382 775.795 387.265 775.823 389.674C775.85 394.602 775.892 401.663 775.933 410.357C775.961 427.856 776.003 451.973 776.044 478.609C776.044 523.229 775.933 560.775 775.781 571.463H775.587C775.601 570.23 775.629 569.331 775.629 568.694C775.643 568.098 775.67 567.808 775.67 567.808Z" fill="#303030"/>
</g>
<path d="M775.433 381.99H585.055V568.874H775.433V381.99Z" fill="#797979" fill-opacity="0.4"/>
<path d="M775.433 381.99H585.055V413.998H775.433V381.99Z" fill="#E0E0E0"/>
<path d="M655.084 396.222C655.001 396.222 655.042 395.405 654.655 394.007C654.281 392.636 653.34 390.629 651.278 389.092C649.285 387.542 645.991 386.683 642.808 387.874C641.244 388.442 639.749 389.508 638.684 390.989C637.59 392.443 636.981 394.312 636.968 396.236C636.981 398.16 637.604 400.029 638.684 401.483C639.749 402.964 641.244 404.03 642.808 404.598C645.991 405.789 649.271 404.916 651.278 403.38C653.34 401.843 654.281 399.835 654.655 398.465C655.028 397.067 655.001 396.236 655.084 396.25C655.111 396.25 655.125 396.457 655.125 396.845C655.125 397.233 655.084 397.814 654.931 398.548C654.627 399.988 653.727 402.12 651.596 403.809C649.534 405.498 646.033 406.495 642.6 405.249C640.912 404.653 639.293 403.518 638.13 401.926C636.94 400.362 636.276 398.34 636.262 396.25C636.276 394.173 636.954 392.152 638.13 390.588C639.279 388.995 640.898 387.86 642.586 387.265C646.019 386.019 649.52 387.016 651.582 388.705C653.727 390.394 654.627 392.526 654.918 393.966C655.084 394.699 655.125 395.267 655.111 395.668C655.111 396.056 655.097 396.264 655.07 396.264L655.084 396.222Z" fill="#303030"/>
<path d="M724.752 396.222C724.669 396.222 724.71 395.405 724.323 394.007C723.949 392.636 723.008 390.629 720.946 389.092C718.953 387.542 715.659 386.683 712.476 387.874C710.912 388.442 709.417 389.508 708.352 390.989C707.258 392.443 706.649 394.312 706.636 396.236C706.649 398.16 707.272 400.029 708.352 401.483C709.417 402.964 710.912 404.03 712.476 404.598C715.659 405.789 718.939 404.916 720.946 403.38C723.008 401.843 723.949 399.835 724.323 398.465C724.696 397.067 724.669 396.236 724.752 396.25C724.779 396.25 724.793 396.457 724.793 396.845C724.793 397.233 724.752 397.814 724.599 398.548C724.295 399.988 723.395 402.12 721.264 403.809C719.202 405.498 715.7 406.495 712.268 405.249C710.58 404.653 708.961 403.518 707.798 401.926C706.608 400.362 705.944 398.34 705.93 396.25C705.944 394.173 706.622 392.152 707.798 390.588C708.947 388.995 710.566 387.86 712.254 387.265C715.687 386.019 719.188 387.016 721.25 388.705C723.395 390.394 724.295 392.526 724.586 393.966C724.752 394.699 724.793 395.267 724.779 395.668C724.779 396.056 724.765 396.264 724.738 396.264L724.752 396.222Z" fill="#303030"/>
<path d="M695.981 388.068H664.676V402.881H695.981V388.068Z" fill="#303030"/>
<path d="M674.666 408.516C674.666 410.08 673.407 411.34 671.843 411.34C670.279 411.34 669.02 410.08 669.02 408.516C669.02 406.951 670.279 405.692 671.843 405.692C673.407 405.692 674.666 406.951 674.666 408.516Z" fill="#303030"/>
<path d="M683.275 408.516C683.275 410.08 682.016 411.34 680.452 411.34C678.888 411.34 677.629 410.08 677.629 408.516C677.629 406.951 678.888 405.692 680.452 405.692C682.016 405.692 683.275 406.951 683.275 408.516Z" fill="#303030"/>
<path d="M691.897 408.516C691.897 410.08 690.637 411.34 689.073 411.34C687.509 411.34 686.25 410.08 686.25 408.516C686.25 406.951 687.509 405.692 689.073 405.692C690.637 405.692 691.897 406.951 691.897 408.516Z" fill="#303030"/>
<path d="M760.253 423.8H601.692C599.17 423.8 597.125 425.845 597.125 428.368V429.379C597.125 431.902 599.17 433.948 601.692 433.948H760.253C762.775 433.948 764.82 431.902 764.82 429.379V428.368C764.82 425.845 762.775 423.8 760.253 423.8Z" fill="#E0E0E0"/>
<path d="M760.239 433.948C760.239 433.948 760.543 433.948 761.124 433.823C761.692 433.698 762.564 433.408 763.38 432.591C764.211 431.802 764.847 430.431 764.695 428.728C764.833 427.081 763.878 425.018 761.83 424.229C760.834 423.8 759.657 423.966 758.439 423.938C757.221 423.938 755.934 423.938 754.592 423.952C751.907 423.952 749.001 423.966 745.887 423.98C739.631 423.994 732.518 424.007 724.643 424.035C693.144 424.063 649.688 424.104 601.678 424.146C600.28 424.146 598.938 424.866 598.176 426.015C597.803 426.596 597.554 427.247 597.484 427.939C597.457 428.604 597.429 429.434 597.526 430.071C597.734 431.428 598.661 432.632 599.906 433.186C600.529 433.491 601.18 433.588 601.899 433.588H604.1C609.954 433.588 615.711 433.588 621.372 433.588C632.693 433.588 643.612 433.601 654.019 433.615C674.82 433.643 693.559 433.671 709.309 433.698C725.031 433.74 737.749 433.781 746.579 433.809C750.966 433.837 754.371 433.865 756.709 433.878C757.844 433.892 758.73 433.906 759.339 433.92C759.934 433.92 760.239 433.961 760.239 433.961C760.239 433.961 759.934 433.989 759.339 434.003C758.716 434.003 757.844 434.017 756.709 434.044C754.371 434.058 750.952 434.086 746.579 434.114C737.749 434.141 725.031 434.183 709.309 434.224C693.559 434.252 674.834 434.266 654.019 434.308C643.612 434.308 632.693 434.308 621.372 434.335C615.711 434.335 609.954 434.335 604.1 434.335H601.899C601.138 434.349 600.322 434.224 599.602 433.878C598.149 433.214 597.069 431.816 596.82 430.224C596.709 429.393 596.737 428.728 596.779 427.911C596.862 427.109 597.138 426.333 597.581 425.669C598.467 424.326 600.059 423.468 601.692 423.481C649.701 423.523 693.172 423.564 724.657 423.592C732.518 423.606 739.645 423.634 745.901 423.647C749.028 423.647 751.935 423.661 754.606 423.675C755.948 423.675 757.222 423.675 758.453 423.689C759.657 423.731 760.875 423.564 761.955 424.021C764.127 424.866 765.096 427.095 764.93 428.77C765.055 430.487 764.363 431.954 763.491 432.729C762.633 433.546 761.733 433.823 761.152 433.934C760.557 434.031 760.252 433.989 760.252 433.989L760.239 433.948Z" fill="#303030"/>
<path d="M751.573 443.625H607.586V525.333H751.573V443.625Z" fill="#797979" fill-opacity="0.4"/>
<path d="M679.58 443.625L607.586 513.095V525.333H643.583L727.146 443.625H679.58Z" fill="#797979" fill-opacity="0.4"/>
<path d="M643.595 525.361H607.543V513.081L679.551 443.583H727.214L727.159 443.639L643.595 525.347V525.361ZM607.612 525.292H643.568L727.048 443.652H679.592L607.612 513.109V525.292Z" fill="#303030"/>
<path d="M660.949 525.333L742.811 443.445H751.571V457.137L683.369 525.375L660.949 525.333Z" fill="#797979" fill-opacity="0.4"/>
<path d="M683.384 525.416H683.37L660.867 525.375L660.923 525.32L742.798 443.417H751.614V457.164L683.398 525.416H683.384ZM661.033 525.306L683.357 525.347L751.544 457.137V443.486H742.825L661.033 525.306Z" fill="#303030"/>
<g filter="url(#filter6_d_943_14953)">
<path d="M929.609 292.017H802.229C800.249 292.017 798.645 293.622 798.645 295.602V372.23C798.645 374.21 800.249 375.816 802.229 375.816H929.609C931.589 375.816 933.193 374.21 933.193 372.23V295.602C933.193 293.622 931.589 292.017 929.609 292.017Z" fill="#797979" fill-opacity="0.4"/>
<path d="M929.608 375.857H802.228C800.235 375.857 798.602 374.238 798.602 372.23V295.602C798.602 293.609 800.221 291.975 802.228 291.975H929.608C931.6 291.975 933.233 293.595 933.233 295.602V372.23C933.233 374.224 931.614 375.857 929.608 375.857ZM802.228 292.058C800.262 292.058 798.671 293.65 798.671 295.616V372.244C798.671 374.21 800.262 375.802 802.228 375.802H929.608C931.573 375.802 933.164 374.21 933.164 372.244V295.616C933.164 293.664 931.573 292.058 929.608 292.058H802.228Z" fill="#303030"/>
<g opacity="0.3">
<path d="M898.027 300.254H918.039C920.572 300.254 922.634 302.317 922.634 304.85V363.176C922.634 365.709 920.572 367.772 918.039 367.772H898.027V300.254Z" fill="#797979" fill-opacity="0.4"/>
</g>
<path d="M920.112 305.445H900.543V314.721H920.112V305.445Z" fill="#303030"/>
<path d="M907.258 319.996H902.511C901.288 319.996 900.297 320.987 900.297 322.211V322.709C900.297 323.932 901.288 324.924 902.511 324.924H907.258C908.481 324.924 909.473 323.932 909.473 322.709V322.211C909.473 320.987 908.481 319.996 907.258 319.996Z" fill="#303030"/>
<path d="M917.649 319.996H912.902C911.679 319.996 910.688 320.987 910.688 322.211V322.709C910.688 323.932 911.679 324.924 912.902 324.924H917.649C918.872 324.924 919.863 323.932 919.863 322.709V322.211C919.863 320.987 918.872 319.996 917.649 319.996Z" fill="#303030"/>
<path d="M907.258 326.544H902.511C901.288 326.544 900.297 327.536 900.297 328.759V329.257C900.297 330.481 901.288 331.472 902.511 331.472H907.258C908.481 331.472 909.473 330.481 909.473 329.257V328.759C909.473 327.536 908.481 326.544 907.258 326.544Z" fill="#303030"/>
<path d="M917.649 326.544H912.902C911.679 326.544 910.688 327.536 910.688 328.759V329.257C910.688 330.481 911.679 331.472 912.902 331.472H917.649C918.872 331.472 919.863 330.481 919.863 329.257V328.759C919.863 327.536 918.872 326.544 917.649 326.544Z" fill="#303030"/>
<path d="M907.258 333.093H902.511C901.288 333.093 900.297 334.084 900.297 335.308V335.806C900.297 337.03 901.288 338.021 902.511 338.021H907.258C908.481 338.021 909.473 337.03 909.473 335.806V335.308C909.473 334.084 908.481 333.093 907.258 333.093Z" fill="#303030"/>
<path d="M917.649 333.093H912.902C911.679 333.093 910.688 334.084 910.688 335.308V335.806C910.688 337.03 911.679 338.021 912.902 338.021H917.649C918.872 338.021 919.863 337.03 919.863 335.806V335.308C919.863 334.084 918.872 333.093 917.649 333.093Z" fill="#303030"/>
<path d="M917.666 353.18C917.666 357.237 914.373 360.532 910.318 360.532C906.263 360.532 902.969 357.237 902.969 353.18C902.969 349.124 906.263 345.829 910.318 345.829C914.373 345.829 917.666 349.124 917.666 353.18Z" fill="#E0E0E0"/>
<path d="M917.665 353.18C917.596 353.18 917.609 352.53 917.305 351.422C917 350.342 916.253 348.75 914.62 347.546C913.042 346.327 910.44 345.663 907.935 346.591C905.458 347.449 903.313 350.093 903.341 353.18C903.313 356.268 905.458 358.912 907.935 359.77C910.44 360.712 913.028 360.033 914.62 358.815C916.253 357.611 917 356.018 917.305 354.939C917.609 353.831 917.596 353.18 917.665 353.18C917.692 353.18 917.706 353.346 917.72 353.651C917.72 353.956 917.706 354.426 917.582 355.008C917.346 356.157 916.641 357.874 914.925 359.216C913.278 360.573 910.468 361.376 907.714 360.393C906.358 359.923 905.057 359.009 904.13 357.735C903.175 356.475 902.635 354.856 902.621 353.18C902.621 351.505 903.175 349.885 904.13 348.626C905.057 347.352 906.358 346.438 907.714 345.967C910.468 344.971 913.278 345.788 914.925 347.144C916.641 348.501 917.346 350.218 917.582 351.353C917.706 351.934 917.734 352.391 917.72 352.71C917.72 353.014 917.692 353.18 917.665 353.18Z" fill="#303030"/>
<path d="M810.132 299.853H889.308C891.481 299.853 893.253 301.625 893.253 303.798V364.214C893.253 366.388 891.481 368.16 889.308 368.16H810.132C807.959 368.16 806.188 366.388 806.188 364.214V303.798C806.188 301.625 807.959 299.853 810.132 299.853Z" fill="#797979" fill-opacity="0.2"/>
<path d="M891.069 306.055H813.387V359.189H891.069V306.055Z" fill="#797979" fill-opacity="0.4"/>
<path d="M891.095 359.217H813.344V306.013H891.095V359.217ZM813.413 359.147H891.026V306.082H813.413V359.147Z" fill="#303030"/>
<g opacity="0.3">
<path d="M847.816 306.055L813.383 340.998V359.189H825.313L876.076 306.055H847.816Z" fill="#797979" fill-opacity="0.4"/>
</g>
<g opacity="0.3">
<path d="M887.331 306.055C887.068 306.055 835.391 359.189 835.391 359.189H849.728L891.067 317.296V306.041H887.345L887.331 306.055Z" fill="#797979" fill-opacity="0.4"/>
</g>
</g>
<path d="M720.688 367.966H709.727V371.566H720.688V367.966Z" fill="#303030"/>
<path d="M735.191 367.966H724.23V371.566H735.191V367.966Z" fill="#303030"/>
<path d="M749.695 367.966H738.734V371.566H749.695V367.966Z" fill="#303030"/>
<path d="M764.199 367.966H753.238V371.566H764.199V367.966Z" fill="#303030"/>
<path d="M773.525 371.579H587.41V376.245H773.525V371.579Z" fill="#E0E0E0"/>
<g filter="url(#filter7_d_943_14953)">
<path d="M717.763 162.988L717.763 -24H710.11H659.263H651.596L651.596 162.988L591.961 203.261V215.195H659.263H710.11H777.412V203.261L717.763 162.988Z" fill="#E0E0E0"/>
<path d="M777.4 203.123H591.52V215.181H777.4V203.123Z" fill="#F5F5F5"/>
<path d="M777.412 215.195C777.412 215.195 777.398 214.932 777.384 214.42C777.384 213.894 777.37 213.146 777.356 212.149C777.343 210.128 777.315 207.138 777.287 203.123L777.412 203.247C750.95 203.386 677.656 203.483 591.532 203.483L591.892 203.123C591.892 207.248 591.892 211.36 591.892 215.181L591.532 214.821C643.389 214.877 689.807 214.932 723.285 214.973C740.031 215.015 753.538 215.057 762.88 215.084C767.544 215.112 771.156 215.126 773.633 215.14C774.851 215.14 775.779 215.153 776.443 215.167C777.08 215.167 777.412 215.195 777.412 215.195C777.412 215.195 777.107 215.209 776.484 215.223C775.848 215.223 774.921 215.236 773.73 215.25C771.267 215.25 767.682 215.278 763.06 215.306C753.732 215.333 740.252 215.375 723.548 215.416C690.001 215.458 643.5 215.513 591.532 215.569H591.172V215.209C591.172 211.388 591.172 207.276 591.172 203.15V202.791H591.546C677.67 202.791 750.95 202.887 777.426 203.026H777.55V203.15C777.522 207.193 777.495 210.211 777.481 212.246L777.453 214.489C777.453 214.987 777.426 215.223 777.426 215.223L777.412 215.195Z" fill="#303030"/>
<path d="M776.762 203.123C776.762 203.316 735.561 203.483 684.756 203.483C633.951 203.483 592.75 203.316 592.75 203.123C592.75 202.929 633.937 202.763 684.756 202.763C735.575 202.763 776.762 202.929 776.762 203.123Z" fill="#303030"/>
<path d="M686.997 207.317H664.992V210.82H686.997V207.317Z" fill="#303030"/>
<path d="M693.903 209.117C693.903 210.114 693.1 210.917 692.104 210.917C691.107 210.917 690.305 210.114 690.305 209.117C690.305 208.12 691.107 207.317 692.104 207.317C693.1 207.317 693.903 208.12 693.903 209.117Z" fill="#797979" fill-opacity="0.4"/>
<path d="M698.981 209.117C698.981 210.114 698.178 210.917 697.182 210.917C696.186 210.917 695.383 210.114 695.383 209.117C695.383 208.12 696.186 207.317 697.182 207.317C698.178 207.317 698.981 208.12 698.981 209.117Z" fill="#797979" fill-opacity="0.4"/>
<path d="M703.965 209.117C703.965 210.114 703.163 210.917 702.166 210.917C701.17 210.917 700.367 210.114 700.367 209.117C700.367 208.12 701.17 207.317 702.166 207.317C703.163 207.317 703.965 208.12 703.965 209.117Z" fill="#797979" fill-opacity="0.4"/>
<path d="M717.997 162.697C717.997 162.891 703.12 163.057 684.754 163.057C666.389 163.057 651.512 162.891 651.512 162.697C651.512 162.504 666.389 162.337 684.754 162.337C703.12 162.337 717.997 162.504 717.997 162.697Z" fill="#303030"/>
</g>
<g opacity="0.3">
<path d="M349.613 70.1624C349.489 70.3147 347.814 69.0964 345.877 67.4351C343.939 65.7737 342.472 64.3063 342.611 64.154C342.735 64.0017 344.41 65.22 346.347 66.8813C348.285 68.5426 349.752 70.0101 349.613 70.1624Z" fill="#797979" fill-opacity="0.4"/>
</g>
<g filter="url(#filter8_d_943_14953)">
<path d="M576.779 3.93164H342.516V251.619H576.779V3.93164Z" fill="#797979" fill-opacity="0.4" shape-rendering="crispEdges"/>
</g>
<path d="M458.78 251.619C458.587 251.619 458.324 196.187 458.213 127.824C458.102 59.4331 458.171 4.01465 458.365 4.01465C458.559 4.01465 458.822 59.4331 458.933 127.824C459.043 196.187 458.974 251.619 458.78 251.619Z" fill="#303030"/>
<path d="M439.641 149.809H439.987C440.851 149.809 441.551 149.108 441.551 148.244V107.321C441.551 106.457 440.851 105.756 439.987 105.756H439.641C438.777 105.756 438.077 106.457 438.077 107.321V148.244C438.077 149.108 438.777 149.809 439.641 149.809Z" fill="#E0E0E0"/>
<path d="M478.324 149.047H478.67C479.534 149.047 480.234 148.346 480.234 147.482V106.559C480.234 105.695 479.534 104.994 478.67 104.994H478.324C477.461 104.994 476.761 105.695 476.761 106.559V147.482C476.761 148.346 477.461 149.047 478.324 149.047Z" fill="#E0E0E0"/>
<g opacity="0.3">
<path d="M450.3 241.471C450.3 241.471 450.286 241.083 450.272 240.336C450.272 239.588 450.272 238.481 450.245 237.041C450.245 234.134 450.217 229.87 450.203 224.332C450.176 213.243 450.148 197.1 450.106 176.805C450.065 136.227 450.01 79.0504 449.94 12.5704L450.286 12.9165C418.981 12.9165 384.908 12.9165 349.534 12.9304H349.52L349.88 12.5704C349.838 101.644 349.811 182.453 349.783 241.471L349.52 241.208C380.604 241.263 405.778 241.319 423.174 241.346C431.88 241.374 438.647 241.402 443.256 241.416C445.553 241.416 447.297 241.443 448.487 241.443C449.664 241.443 450.286 241.471 450.286 241.471C450.286 241.471 449.705 241.485 448.543 241.499C447.366 241.499 445.622 241.513 443.353 241.526C438.758 241.54 432.018 241.568 423.341 241.596C405.903 241.623 380.687 241.679 349.52 241.734H349.257V241.471C349.229 182.453 349.202 101.644 349.16 12.5704V12.2104H349.534C384.908 12.2104 418.995 12.2104 450.286 12.2243H450.632V12.5704C450.563 79.1473 450.508 136.407 450.466 177.04C450.425 197.308 450.397 213.423 450.369 224.498C450.356 230.008 450.342 234.244 450.328 237.138L450.3 240.391C450.3 241.125 450.272 241.485 450.272 241.485L450.3 241.471Z" fill="#797979" fill-opacity="0.4"/>
</g>
<g opacity="0.3">
<path d="M458.367 4.01455C458.519 4.15299 456.844 6.22962 454.63 8.66621C452.415 11.1028 450.506 12.9718 450.353 12.8333C450.201 12.6949 451.876 10.6182 454.09 8.18166C456.304 5.74507 458.214 3.8761 458.367 4.01455Z" fill="#797979" fill-opacity="0.4"/>
</g>
<g opacity="0.3">
<path d="M458.948 251.37C458.796 251.494 456.762 249.362 454.409 246.593C452.056 243.825 450.271 241.485 450.423 241.347C450.575 241.222 452.61 243.354 454.963 246.123C457.315 248.892 459.101 251.231 458.948 251.37Z" fill="#797979" fill-opacity="0.4"/>
</g>
<g opacity="0.3">
<path d="M567.187 241.471C567.187 241.471 567.173 241.083 567.159 240.336C567.159 239.588 567.159 238.481 567.132 237.041C567.132 234.134 567.104 229.87 567.09 224.332C567.062 213.243 567.035 197.1 566.993 176.805C566.952 136.227 566.896 79.0504 566.827 12.5704L567.173 12.9165C535.868 12.9165 501.795 12.9165 466.421 12.9304H466.407L466.767 12.5704C466.725 101.644 466.697 182.453 466.67 241.471L466.407 241.208C497.491 241.263 522.665 241.319 540.061 241.346C548.766 241.374 555.534 241.402 560.142 241.416C562.44 241.416 564.184 241.443 565.374 241.443C566.55 241.443 567.173 241.471 567.173 241.471C567.173 241.471 566.592 241.485 565.429 241.499C564.253 241.499 562.509 241.513 560.239 241.526C555.645 241.54 548.905 241.568 540.227 241.596C522.789 241.623 497.574 241.679 466.407 241.734H466.144V241.471C466.116 182.453 466.088 101.644 466.047 12.5704V12.2104H466.421C501.795 12.2104 535.882 12.2104 567.173 12.2243H567.519V12.5704C567.45 79.1473 567.394 136.407 567.353 177.04C567.311 197.308 567.284 213.423 567.256 224.498C567.242 230.008 567.228 234.244 567.215 237.138C567.215 238.564 567.201 239.644 567.187 240.391C567.187 241.125 567.159 241.485 567.159 241.485L567.187 241.471Z" fill="#797979" fill-opacity="0.4"/>
</g>
<g opacity="0.3">
<path d="M577.041 4.87308C577.179 5.01152 575.228 7.102 572.515 9.30323C569.803 11.5183 567.353 12.9996 567.242 12.8335C567.132 12.6674 569.36 10.9369 572.058 8.74946C574.757 6.56207 576.902 4.72079 577.041 4.87308Z" fill="#797979" fill-opacity="0.4"/>
</g>
<g opacity="0.3">
<path d="M466.503 11.9476C466.364 12.0583 464.538 10.3278 462.185 8.25114C459.832 6.1745 458.185 4.15325 458.351 4.0148C458.49 3.90405 460.317 5.63458 462.669 7.71122C465.022 9.78785 466.669 11.8091 466.503 11.9476Z" fill="#797979" fill-opacity="0.4"/>
</g>
<g opacity="0.3">
<path d="M466.324 241.748C466.517 241.859 465.05 244.281 462.822 246.912C460.608 249.528 458.919 251.716 458.767 251.619C458.573 251.508 460.04 249.085 462.269 246.455C464.483 243.838 466.171 241.665 466.324 241.748Z" fill="#797979" fill-opacity="0.4"/>
</g>
<g opacity="0.3">
<path d="M578.273 250.927C578.107 251.065 575.975 248.587 572.958 245.943C569.969 243.271 567.201 241.526 567.312 241.346C567.395 241.18 570.384 242.676 573.443 245.403C576.515 248.102 578.425 250.83 578.273 250.927Z" fill="#797979" fill-opacity="0.4"/>
</g>
<path d="M332.25 3.93164H30.7539V589.64H332.25V3.93164Z" fill="#303030"/>
<path d="M342.161 33.0186H20.9297V570.618H342.161V33.0186Z" fill="#E0E0E0"/>
<path d="M117.001 179.504H117.914C120.184 179.504 122.025 181.346 122.025 183.616V412.212C122.025 414.483 120.184 416.324 117.914 416.324H117.001C114.731 416.324 112.891 414.483 112.891 412.212V183.616C112.891 181.346 114.731 179.504 117.001 179.504Z" fill="white"/>
<path d="M117.915 416.338C117.915 416.338 118.344 416.352 119.133 416.116C119.88 415.867 121.07 415.203 121.679 413.694C121.998 412.96 121.956 412.046 121.942 411.049C121.942 410.053 121.942 408.959 121.928 407.782C121.928 405.415 121.915 402.687 121.901 399.628C121.873 387.334 121.831 369.6 121.79 347.67C121.762 325.727 121.748 299.603 121.707 270.613C121.707 256.105 121.707 240.89 121.679 225.107C121.679 217.216 121.679 209.186 121.679 201.032C121.679 196.962 121.679 192.85 121.679 188.725V185.624C121.638 184.599 121.79 183.505 121.541 182.619C121.292 181.706 120.669 180.889 119.852 180.404C119.022 179.878 118.095 179.823 117.015 179.864C115.064 179.823 113.306 181.498 113.251 183.422C113.251 185.499 113.251 187.562 113.251 189.625C113.251 193.764 113.251 197.862 113.251 201.946C113.251 210.1 113.251 218.13 113.251 226.021C113.251 241.803 113.237 257.032 113.223 271.541C113.196 300.545 113.168 326.669 113.14 348.612C113.099 370.541 113.057 388.276 113.029 400.569C113.029 403.629 113.002 406.356 113.002 408.723C113.085 411.049 112.642 413.181 113.666 414.51C114.58 415.853 115.894 416.227 116.683 416.296C117.084 416.324 117.403 416.324 117.61 416.338C117.818 416.338 117.929 416.352 117.929 416.352C117.929 416.352 117.514 416.393 116.669 416.365C115.867 416.31 114.51 415.95 113.542 414.58C113.071 413.901 112.767 412.987 112.794 411.977C112.794 410.98 112.794 409.886 112.78 408.71C112.78 406.342 112.767 403.629 112.753 400.555C112.725 388.276 112.683 370.527 112.642 348.598C112.614 326.655 112.6 300.531 112.559 271.527C112.559 257.018 112.559 241.803 112.531 226.007C112.531 218.116 112.531 210.086 112.531 201.932C112.531 197.862 112.531 193.75 112.531 189.611C112.531 187.534 112.531 185.457 112.531 183.367C112.587 182.232 113.099 181.138 113.915 180.363C114.732 179.574 115.867 179.131 117.001 179.131C117.514 179.131 118.039 179.103 118.621 179.2C119.174 179.297 119.728 179.491 120.212 179.781C121.181 180.363 121.915 181.332 122.219 182.426C122.371 182.965 122.399 183.575 122.385 184.059V188.725C122.385 192.85 122.385 196.962 122.385 201.032C122.385 209.186 122.385 217.216 122.385 225.107C122.385 240.89 122.371 256.105 122.357 270.613C122.33 299.617 122.302 325.727 122.274 347.67C122.233 369.6 122.191 387.348 122.164 399.628C122.164 402.687 122.136 405.415 122.136 407.782C122.136 408.959 122.136 410.053 122.122 411.049C122.122 412.032 122.164 412.987 121.818 413.749C121.181 415.299 119.935 415.95 119.16 416.186C118.344 416.407 117.915 416.338 117.915 416.338Z" fill="#303030"/>
<path d="M144.734 27.7163H139.102V575.685H144.734V27.7163Z" fill="#303030"/>
<path d="M145.427 576.391H138.41V27.0239H145.427V576.391ZM139.794 575.007H144.043V28.4083H139.794V575.007Z" fill="#303030"/>
</g>
<defs>
<filter id="filter0_d_943_14953" x="821.781" y="-0.117188" width="132.273" height="136.475" filterUnits="userSpaceOnUse" color-interpolation-filters="sRGB">
<feFlood flood-opacity="0" result="BackgroundImageFix"/>
<feColorMatrix in="SourceAlpha" type="matrix" values="0 0 0 0 0 0 0 0 0 0 0 0 0 0 0 0 0 0 127 0" result="hardAlpha"/>
<feOffset dx="5" dy="15"/>
<feGaussianBlur stdDeviation="8.5"/>
<feComposite in2="hardAlpha" operator="out"/>
<feColorMatrix type="matrix" values="0 0 0 0 0 0 0 0 0 0 0 0 0 0 0 0 0 0 0.13 0"/>
<feBlend mode="normal" in2="BackgroundImageFix" result="effect1_dropShadow_943_14953"/>
<feBlend mode="normal" in="SourceGraphic" in2="effect1_dropShadow_943_14953" result="shape"/>
</filter>
<filter id="filter1_d_943_14953" x="397.219" y="325.99" width="37" height="59.5198" filterUnits="userSpaceOnUse" color-interpolation-filters="sRGB">
<feFlood flood-opacity="0" result="BackgroundImageFix"/>
<feColorMatrix in="SourceAlpha" type="matrix" values="0 0 0 0 0 0 0 0 0 0 0 0 0 0 0 0 0 0 127 0" result="hardAlpha"/>
<feOffset dx="6" dy="7"/>
<feGaussianBlur stdDeviation="3.5"/>
<feComposite in2="hardAlpha" operator="out"/>
<feColorMatrix type="matrix" values="0 0 0 0 0 0 0 0 0 0 0 0 0 0 0 0 0 0 0.18 0"/>
<feBlend mode="normal" in2="BackgroundImageFix" result="effect1_dropShadow_943_14953"/>
<feBlend mode="normal" in="SourceGraphic" in2="effect1_dropShadow_943_14953" result="shape"/>
</filter>
<filter id="filter2_d_943_14953" x="781.594" y="216.115" width="199.785" height="45.6152" filterUnits="userSpaceOnUse" color-interpolation-filters="sRGB">
<feFlood flood-opacity="0" result="BackgroundImageFix"/>
<feColorMatrix in="SourceAlpha" type="matrix" values="0 0 0 0 0 0 0 0 0 0 0 0 0 0 0 0 0 0 127 0" result="hardAlpha"/>
<feOffset dx="5" dy="6"/>
<feGaussianBlur stdDeviation="8.5"/>
<feComposite in2="hardAlpha" operator="out"/>
<feColorMatrix type="matrix" values="0 0 0 0 0 0 0 0 0 0 0 0 0 0 0 0 0 0 0.13 0"/>
<feBlend mode="normal" in2="BackgroundImageFix" result="effect1_dropShadow_943_14953"/>
<feBlend mode="normal" in="SourceGraphic" in2="effect1_dropShadow_943_14953" result="shape"/>
</filter>
<filter id="filter3_d_943_14953" x="855.57" y="148.438" width="92.4492" height="95.6206" filterUnits="userSpaceOnUse" color-interpolation-filters="sRGB">
<feFlood flood-opacity="0" result="BackgroundImageFix"/>
<feColorMatrix in="SourceAlpha" type="matrix" values="0 0 0 0 0 0 0 0 0 0 0 0 0 0 0 0 0 0 127 0" result="hardAlpha"/>
<feOffset dx="5"/>
<feGaussianBlur stdDeviation="8.5"/>
<feComposite in2="hardAlpha" operator="out"/>
<feColorMatrix type="matrix" values="0 0 0 0 0 0 0 0 0 0 0 0 0 0 0 0 0 0 0.2 0"/>
<feBlend mode="normal" in2="BackgroundImageFix" result="effect1_dropShadow_943_14953"/>
<feBlend mode="normal" in="SourceGraphic" in2="effect1_dropShadow_943_14953" result="shape"/>
</filter>
<filter id="filter4_d_943_14953" x="801.453" y="109.979" width="78.8203" height="134.371" filterUnits="userSpaceOnUse" color-interpolation-filters="sRGB">
<feFlood flood-opacity="0" result="BackgroundImageFix"/>
<feColorMatrix in="SourceAlpha" type="matrix" values="0 0 0 0 0 0 0 0 0 0 0 0 0 0 0 0 0 0 127 0" result="hardAlpha"/>
<feOffset dx="5"/>
<feGaussianBlur stdDeviation="8.5"/>
<feComposite in2="hardAlpha" operator="out"/>
<feColorMatrix type="matrix" values="0 0 0 0 0 0 0 0 0 0 0 0 0 0 0 0 0 0 0.2 0"/>
<feBlend mode="normal" in2="BackgroundImageFix" result="effect1_dropShadow_943_14953"/>
<feBlend mode="normal" in="SourceGraphic" in2="effect1_dropShadow_943_14953" result="shape"/>
</filter>
<filter id="filter5_d_943_14953" x="763.297" y="379.99" width="218.082" height="223.472" filterUnits="userSpaceOnUse" color-interpolation-filters="sRGB">
<feFlood flood-opacity="0" result="BackgroundImageFix"/>
<feColorMatrix in="SourceAlpha" type="matrix" values="0 0 0 0 0 0 0 0 0 0 0 0 0 0 0 0 0 0 127 0" result="hardAlpha"/>
<feOffset dx="5" dy="15"/>
<feGaussianBlur stdDeviation="8.5"/>
<feComposite in2="hardAlpha" operator="out"/>
<feColorMatrix type="matrix" values="0 0 0 0 0 0 0 0 0 0 0 0 0 0 0 0 0 0 0.13 0"/>
<feBlend mode="normal" in2="BackgroundImageFix" result="effect1_dropShadow_943_14953"/>
<feBlend mode="normal" in="SourceGraphic" in2="effect1_dropShadow_943_14953" result="shape"/>
</filter>
<filter id="filter6_d_943_14953" x="786.602" y="289.975" width="168.633" height="117.882" filterUnits="userSpaceOnUse" color-interpolation-filters="sRGB">
<feFlood flood-opacity="0" result="BackgroundImageFix"/>
<feColorMatrix in="SourceAlpha" type="matrix" values="0 0 0 0 0 0 0 0 0 0 0 0 0 0 0 0 0 0 127 0" result="hardAlpha"/>
<feOffset dx="5" dy="15"/>
<feGaussianBlur stdDeviation="8.5"/>
<feComposite in2="hardAlpha" operator="out"/>
<feColorMatrix type="matrix" values="0 0 0 0 0 0 0 0 0 0 0 0 0 0 0 0 0 0 0.13 0"/>
<feBlend mode="normal" in2="BackgroundImageFix" result="effect1_dropShadow_943_14953"/>
<feBlend mode="normal" in="SourceGraphic" in2="effect1_dropShadow_943_14953" result="shape"/>
</filter>
<filter id="filter7_d_943_14953" x="579.172" y="-26" width="220.379" height="273.569" filterUnits="userSpaceOnUse" color-interpolation-filters="sRGB">
<feFlood flood-opacity="0" result="BackgroundImageFix"/>
<feColorMatrix in="SourceAlpha" type="matrix" values="0 0 0 0 0 0 0 0 0 0 0 0 0 0 0 0 0 0 127 0" result="hardAlpha"/>
<feOffset dx="5" dy="15"/>
<feGaussianBlur stdDeviation="8.5"/>
<feComposite in2="hardAlpha" operator="out"/>
<feColorMatrix type="matrix" values="0 0 0 0 0 0 0 0 0 0 0 0 0 0 0 0 0 0 0.13 0"/>
<feBlend mode="normal" in2="BackgroundImageFix" result="effect1_dropShadow_943_14953"/>
<feBlend mode="normal" in="SourceGraphic" in2="effect1_dropShadow_943_14953" result="shape"/>
</filter>
<filter id="filter8_d_943_14953" x="329.516" y="-3.06836" width="268.262" height="281.688" filterUnits="userSpaceOnUse" color-interpolation-filters="sRGB">
<feFlood flood-opacity="0" result="BackgroundImageFix"/>
<feColorMatrix in="SourceAlpha" type="matrix" values="0 0 0 0 0 0 0 0 0 0 0 0 0 0 0 0 0 0 127 0" result="hardAlpha"/>
<feOffset dx="4" dy="10"/>
<feGaussianBlur stdDeviation="8.5"/>
<feComposite in2="hardAlpha" operator="out"/>
<feColorMatrix type="matrix" values="0 0 0 0 0 0 0 0 0 0 0 0 0 0 0 0 0 0 0.13 0"/>
<feBlend mode="normal" in2="BackgroundImageFix" result="effect1_dropShadow_943_14953"/>
<feBlend mode="normal" in="SourceGraphic" in2="effect1_dropShadow_943_14953" result="shape"/>
</filter>
<clipPath id="clip0_943_14953">
<rect width="995" height="590" fill="white"/>
</clipPath>
</defs>
</svg>
