<svg width="37" height="77" viewBox="0 0 37 77" fill="none" xmlns="http://www.w3.org/2000/svg">
<path d="M15.8852 21.2601C15.8205 21.1381 15.7638 21.0162 15.699 20.8942C13.0842 19.8534 10.2266 19.5688 7.49843 18.8451C4.59218 18.0726 1.62118 16.6009 0.277344 13.9013C5.4422 12.8686 11.0604 14.8445 14.5738 18.7638C14.1285 18.0076 13.6833 17.2595 13.2542 16.5358C12.5823 15.3243 11.8537 14.2834 11.2142 13.324C8.95559 12.2588 6.96412 10.6162 5.50696 8.58341C3.83931 6.27412 2.86787 3.46883 2.73024 0.614746C5.7822 1.86697 8.31605 4.34701 9.65179 7.37185C10.3075 8.85988 10.6961 10.478 11.2547 11.9986C11.3356 12.1043 11.4085 12.2018 11.4894 12.3075C12.2747 13.3809 13.2299 14.5599 14.1042 15.9992C14.42 16.487 14.7438 16.9993 15.0676 17.5116C13.9666 12.6491 15.3024 7.22549 18.7105 3.5664C20.2891 6.13589 19.9653 9.45346 19.0829 12.3319C18.2896 14.9177 17.0996 17.4059 16.5572 20.0485C16.6786 20.2681 16.7919 20.4876 16.9215 20.7153C17.9172 22.4229 18.7753 24.3581 19.7144 26.3666C20.1758 27.448 20.6291 28.5783 21.0582 29.7329C20.8639 24.6508 23.2844 19.4712 27.4455 16.5277C28.4736 19.3655 27.4859 22.5448 26.0368 25.1875C24.7254 27.5862 23.0416 29.7898 21.973 32.2943C22.8068 34.7662 23.5597 37.3763 24.1749 40.1003C24.3935 41.133 24.5878 42.1494 24.7578 43.1658C25.5673 38.0919 29.0321 33.457 33.7437 31.4161C34.1646 34.4003 32.5455 37.3113 30.5865 39.5962C28.8136 41.6696 26.7088 43.4748 25.1545 45.7109C25.5673 48.7439 25.794 51.6874 25.8749 54.452C25.8749 55.1676 25.8749 55.8588 25.8749 56.5499C27.4212 51.7606 31.396 47.7681 36.237 46.4102C36.2613 49.4269 34.2699 52.094 32.0193 54.0943C29.9793 55.9157 27.6397 57.4362 25.8021 59.4528C25.7778 59.8919 25.7535 60.331 25.713 60.7619C25.6321 61.7458 25.5997 62.7053 25.4864 63.6079C25.3649 64.5023 25.2435 65.3724 25.1302 66.218C25.033 67.0718 24.8873 67.8687 24.7335 68.6249C26.9759 64.2909 31.3312 61.0546 36.1642 60.3797C35.7837 63.3721 33.4522 65.7464 30.9508 67.4296C28.6598 68.9745 26.1178 70.1698 24.013 71.9424C23.9725 72.1213 23.932 72.3084 23.8835 72.4791C23.7297 72.9914 23.584 73.4874 23.4382 73.9753C22.8958 75.7723 22.5477 76.7399 22.4587 76.7155C22.3696 76.6911 22.5315 75.6666 22.912 73.8452C23.0092 73.3736 23.1144 72.8938 23.2197 72.4059C21.8434 69.7307 19.6415 67.5922 17.8767 65.1609C16.1038 62.7216 14.7114 59.6967 15.3671 56.7532C20.4996 59.4772 23.7782 65.3724 23.422 71.1944C23.4544 70.9748 23.4868 70.7553 23.5273 70.5195C23.7135 69.2185 24.0211 67.7467 24.1425 66.0879C24.2316 65.2423 24.3206 64.3885 24.4097 63.5022C24.4987 62.5996 24.4987 61.6645 24.5554 60.6887C24.5797 60.2984 24.5959 59.9081 24.6121 59.5097C22.9201 57.3224 20.6858 55.6148 18.7672 53.6145C16.6786 51.4435 14.8976 48.63 15.1567 45.6215C19.771 47.3128 23.3654 51.4353 24.6282 56.184C24.6202 55.6229 24.6121 55.0538 24.604 54.4846C24.4825 51.7199 24.2235 48.7927 23.7863 45.7597C21.8596 43.922 19.5039 42.5641 17.4072 40.8972C15.0514 39.0188 12.9142 36.4737 12.7685 33.457C17.1967 34.4328 21.042 37.5877 23.082 41.6371C23.0011 41.2224 22.9201 40.8077 22.8311 40.393C22.2239 37.6934 21.4872 35.0996 20.6777 32.6439C18.4029 31.2291 15.8043 30.3915 13.408 29.1881C10.7204 27.8383 8.10557 25.7892 7.33651 22.8701C12.0642 22.9108 16.6462 25.3908 19.4634 29.18C19.1639 28.3912 18.8643 27.6106 18.5567 26.8544C17.6662 24.8623 16.8648 22.9433 15.9257 21.2357L15.8852 21.2601Z" fill="#C82325"/>
</svg>
