<svg width="20" height="20" viewBox="0 0 20 20" fill="none" xmlns="http://www.w3.org/2000/svg">
<path d="M4.56323 6.08183C5.13709 5.51574 5.68377 4.9807 6.24792 4.42432C6.41354 4.58023 12.3358 10.4805 15.1165 13.2657C15.3093 13.4585 15.5092 13.6552 15.6528 13.8835C15.9704 14.3869 15.92 14.8941 15.5111 15.3198C15.1022 15.7449 14.6015 15.8108 14.0813 15.5191C13.9105 15.4233 13.754 15.2907 13.6149 15.1516C10.6725 12.2118 4.65122 6.18987 4.56323 6.08312V6.08183Z" fill="white"/>
<path d="M7.0725 1.68256C7.0725 1.68256 3.62226 5.12504 1.90199 6.84143C1.54422 6.43126 1.09588 6.02561 0.781453 5.53392C0.210833 4.64176 0.358334 3.55616 1.11463 2.72093C1.61409 2.16972 2.15042 1.65086 2.68546 1.13329C3.86875 -0.0124781 5.25131 -0.0791154 6.44431 1.05113C6.67657 1.27109 7.07315 1.68256 7.07315 1.68256H7.0725Z" fill="white"/>
<path d="M2.85783 7.75892C2.85783 7.75892 3.40064 7.1663 3.6633 6.87646C3.89815 7.10678 4.06377 7.28146 4.2365 7.4542C7.01844 10.2335 9.79907 13.0142 12.5784 15.7961C12.7363 15.954 13.0235 16.1959 13.0766 16.3874C13.1381 16.6119 13.0986 16.8461 12.931 17.0143C12.8126 17.1334 12.5739 17.1974 12.3539 17.1619C12.2077 17.1379 11.9942 16.9044 11.8713 16.7821C8.94962 13.8611 6.02924 10.9387 3.1095 8.01512C3.04092 7.94589 2.85718 7.75892 2.85718 7.75892H2.85783Z" fill="white"/>
<path d="M7.02932 3.58753C7.02932 3.58753 7.57213 2.99492 7.8348 2.70508C8.06964 2.9354 8.23526 3.11008 8.408 3.28282C11.1899 6.06216 13.9706 8.8428 16.7499 11.6247C16.9078 11.7826 17.195 12.0246 17.2481 12.2161C17.3095 12.4406 17.2701 12.6748 17.1025 12.843C16.9841 12.962 16.7454 13.0261 16.5254 12.9905C16.3792 12.9665 16.1657 12.733 16.0428 12.6107C13.1211 9.68967 10.2007 6.76735 7.28099 3.84373C7.21242 3.7745 7.02869 3.58753 7.02869 3.58753H7.02932Z" fill="white"/>
<path d="M13.8921 17.9901C14.0914 17.195 14.4608 16.8851 15.2281 16.7952C16.2205 16.6787 16.7834 15.9412 17.0111 14.7152C17.0764 14.3652 17.3074 14.0689 17.6315 13.9207C17.7887 13.8489 17.9544 13.7732 18.1349 13.6904C18.6104 15.5847 19.0723 17.4273 19.5679 19.4018C17.6205 18.9172 15.7657 18.4559 13.8921 17.9895V17.9901Z" fill="white"/>
</svg>
