<svg width="726" height="403" viewBox="0 0 726 403" fill="none" xmlns="http://www.w3.org/2000/svg">
<path d="M624.341 125H718.659C719.401 125 720 124.398 720 123.652V63.3484C720 62.602 719.401 62 718.659 62H624.341C623.599 62 623 62.602 623 63.3484V123.652C623 124.398 623.599 125 624.341 125ZM625.682 64.6967H717.318V122.303H625.682V64.6967Z" fill="#303030" fill-opacity="0.2"/>
<path d="M502.332 115H584.668C585.405 115 586 114.391 586 113.636V93.3644C586 92.6091 585.405 92 584.668 92H502.332C501.595 92 501 92.6091 501 93.3644V113.636C501 114.391 501.595 115 502.332 115ZM503.664 94.7288H583.348V112.271H503.664V94.7288Z" fill="#303030" fill-opacity="0.2"/>
<path d="M624.341 62H718.659C719.401 62 720 61.4007 720 60.6576V1.34236C720 0.599269 719.401 0 718.659 0H624.341C623.599 0 623 0.599269 623 1.34236V60.6576C623 61.4007 623.599 62 624.341 62ZM625.682 2.68471H717.318V59.3153H625.682V2.68471Z" fill="#303030" fill-opacity="0.2"/>
<path d="M369.341 62H463.659C464.401 62 465 61.4007 465 60.6576V1.34236C465 0.599269 464.401 0 463.659 0H369.341C368.599 0 368 0.599269 368 1.34236V60.6576C368 61.4007 368.599 62 369.341 62ZM370.682 2.68471H462.318V59.3153H370.682V2.68471Z" fill="#303030" fill-opacity="0.2"/>
<path d="M710.659 69H632.341C631.598 69 631 69.6006 631 70.3454V116.655C631 117.399 631.598 118 632.341 118H710.659C711.402 118 712 117.399 712 116.655V70.3454C712 69.6006 711.402 69 710.659 69ZM709.319 115.309H633.681V71.6909H709.319V115.309Z" fill="#303030" fill-opacity="0.2"/>
<path d="M369.341 126H463.659C464.401 126 465 125.398 465 124.652V64.3484C465 63.6019 464.401 63 463.659 63H369.341C368.599 63 368 63.6019 368 64.3484V124.652C368 125.398 368.599 126 369.341 126ZM370.682 65.6967H462.318V123.303H370.682V65.6967Z" fill="#303030" fill-opacity="0.2"/>
<path d="M273.34 125H364.66C365.402 125 366 124.402 366 123.66V1.33971C366 0.598085 365.402 0 364.66 0H273.34C272.598 0 272 0.598085 272 1.33971V123.66C272 124.402 272.598 125 273.34 125ZM274.68 2.67943H363.32V122.321H274.68V2.67943Z" fill="#303030" fill-opacity="0.2"/>
<path d="M455.659 70H377.341C376.599 70 376 70.6006 376 71.3454V117.655C376 118.399 376.599 119 377.341 119H455.659C456.402 119 457 118.399 457 117.655V71.3454C457 70.6006 456.402 70 455.659 70ZM454.319 116.309H378.681V72.6909H454.319V116.309Z" fill="#303030" fill-opacity="0.2"/>
<path d="M358.5 82C357.67 82 357 82.5989 357 83.3415V117.658C357 118.401 357.67 119 358.5 119C359.33 119 360 118.401 360 117.658V83.3415C360 82.5989 359.33 82 358.5 82Z" fill="#303030" fill-opacity="0.2"/>
<path d="M688.658 53H654.342C653.599 53 653 53.6696 653 54.5C653 55.3304 653.599 56 654.342 56H688.658C689.401 56 690 55.3304 690 54.5C690 53.6696 689.401 53 688.658 53Z" fill="#303030" fill-opacity="0.2"/>
<path d="M433.658 53H399.342C398.599 53 398 53.6696 398 54.5C398 55.3304 398.599 56 399.342 56H433.658C434.401 56 435 55.3304 435 54.5C435 53.6696 434.401 53 433.658 53Z" fill="#303030" fill-opacity="0.2"/>
<path d="M498.325 126C497.592 126 497 126.67 497 127.5C497 128.33 497.592 129 498.325 129H507.675C508.408 129 509 128.33 509 127.5C509 126.67 508.408 126 507.675 126H498.325Z" fill="#303030" fill-opacity="0.2"/>
<path d="M579.325 126C578.592 126 578 126.67 578 127.5C578 128.33 578.592 129 579.325 129H588.675C589.408 129 590 128.33 590 127.5C590 126.67 589.408 126 588.675 126H579.325Z" fill="#303030" fill-opacity="0.2"/>
<path d="M468.084 123.747C468.084 124.439 468.645 125 469.337 125H618.663C619.355 125 619.916 124.439 619.916 123.747V68.441C619.964 68.3098 620 68.1786 620 68.0235V57.3106C620 56.5709 619.403 55.9744 618.663 55.9744H571.132V1.33613C571.132 0.596487 570.535 0 569.795 0H518.205C517.465 0 516.868 0.596487 516.868 1.33613V55.9744H469.337C468.597 55.9744 468 56.5709 468 57.3106V68.0235C468 68.1666 468.036 68.3098 468.084 68.441V123.735V123.747ZM470.591 122.495V69.3596H617.421V122.495H470.591ZM519.542 2.66034H568.458V55.9625H519.542V2.67226V2.66034ZM470.674 58.6348H617.326V66.6873H470.674V58.6348Z" fill="#303030" fill-opacity="0.2"/>
<path d="M588.745 72H498.255C497.562 72 497 72.5645 497 73.2612V117.739C497 118.435 497.562 119 498.255 119H588.745C589.438 119 590 118.435 590 117.739V73.2612C590 72.5645 589.438 72 588.745 72ZM587.489 116.478H499.511V74.5104H587.489V116.478Z" fill="#303030" fill-opacity="0.2"/>
<path d="M612 181.341V240.659C612 241.401 612.599 242 613.341 242H707.659C708.401 242 709 241.401 709 240.659V181.341C709 180.599 708.401 180 707.659 180H613.341C612.599 180 612 180.599 612 181.341ZM614.682 182.682H706.318V239.318H614.682V182.682Z" fill="#303030" fill-opacity="0.2"/>
<path d="M680.668 187H620.332C619.594 187 619 187.598 619 188.339V232.661C619 233.402 619.594 234 620.332 234H680.668C681.406 234 682 233.402 682 232.661V188.339C682 187.598 681.406 187 680.668 187ZM679.337 231.322H621.663V189.678H679.337V231.322Z" fill="#303030" fill-opacity="0.2"/>
<path d="M700.665 187H685.335C684.596 187 684 187.598 684 188.339V232.661C684 233.402 684.596 234 685.335 234H700.665C701.404 234 702 233.402 702 232.661V188.339C702 187.598 701.404 187 700.665 187ZM699.33 231.322H686.67V189.678H699.33V231.322Z" fill="#303030" fill-opacity="0.2"/>
<path d="M625.339 227H675.661C676.402 227 677 226.418 677 225.696C677 224.974 676.402 224.392 675.661 224.392H669.087L669.924 224.09C670.45 223.903 670.796 223.414 670.796 222.867V222.227C670.796 221.505 670.199 220.923 669.458 220.923H661.509C661.019 220.26 660.218 219.608 659.094 219.608C659.058 219.608 659.023 219.608 658.987 219.608C658.736 219.189 658.27 218.676 657.301 218.513C657.05 218.467 656.859 218.42 656.716 218.385C656.07 218.234 655.568 218.281 654.97 218.49L654.755 218.572C654.516 218.141 654.158 217.512 653.381 217.175C653.094 217.058 652.807 217 652.508 217C651.647 217 651.074 217.489 650.691 217.815C650.631 217.873 650.572 217.92 650.512 217.966C650.404 217.966 650.428 218.013 650.117 217.885C649.675 217.71 648.767 217.477 647.858 217.861C647.237 218.129 646.878 218.572 646.675 218.909C646.52 218.828 646.4 218.735 646.257 218.618C645.814 218.269 645.157 217.687 643.639 217.978C642.503 218.187 641.977 218.839 641.691 219.235C640.926 219.142 640.28 219.363 639.79 219.852C639.479 220.166 639.288 220.539 639.168 220.9H631.566C630.825 220.9 630.228 221.482 630.228 222.204V222.844C630.228 223.391 630.574 223.868 631.1 224.066L631.925 224.369H625.339C624.598 224.369 624 224.951 624 225.673C624 226.395 624.598 226.977 625.339 226.977V227ZM640.304 223.531C640.663 223.531 641.009 223.391 641.26 223.135C641.511 222.879 641.643 222.541 641.643 222.192C641.643 222.122 641.643 221.994 641.679 221.878C642.934 221.983 643.567 221.179 643.842 220.807C643.954 220.652 644.053 220.566 644.141 220.551C644.237 220.527 644.32 220.527 644.368 220.516C644.44 220.551 644.5 220.609 644.571 220.667C644.858 220.888 645.3 221.237 646.03 221.494C646.364 221.61 646.675 221.668 646.962 221.668C648.157 221.668 648.647 220.795 648.862 220.423C648.898 220.353 648.958 220.271 648.91 220.248C648.97 220.26 649.006 220.283 649.066 220.306C649.341 220.423 649.747 220.586 650.333 220.597C650.452 220.609 650.572 220.609 650.691 220.597C651.492 220.597 652.03 220.155 652.401 219.841C652.663 220.329 653.201 221.307 654.468 221.307C654.743 221.307 655.042 221.249 655.329 221.156L655.879 220.958C655.879 220.958 655.963 220.923 655.998 220.912C656.022 220.912 656.046 220.923 656.082 220.935C656.226 220.97 656.405 221.005 656.704 221.074C657.098 222.064 657.815 222.46 659.082 222.227C659.166 222.25 659.369 222.483 659.453 222.693C659.644 223.205 660.146 223.542 660.708 223.542H663.804L661.437 224.404H639.575L637.208 223.542H640.304V223.531Z" fill="#303030" fill-opacity="0.2"/>
<path d="M692.5 212C695.536 212 698 209.536 698 206.5C698 203.464 695.536 201 692.5 201C689.464 201 687 203.464 687 206.5C687 209.536 689.464 212 692.5 212ZM692.5 203.616C694.088 203.616 695.384 204.912 695.384 206.5C695.384 208.088 694.088 209.384 692.5 209.384C690.912 209.384 689.616 208.088 689.616 206.5C689.616 204.912 690.912 203.616 692.5 203.616Z" fill="#303030" fill-opacity="0.2"/>
<path d="M694 207C694.549 207 695 206.549 695 206C695 205.451 694.549 205 694 205C693.451 205 693 205.451 693 206C693 206.549 693.44 207 694 207Z" fill="#303030" fill-opacity="0.2"/>
<path d="M690.191 198H695.809C697.022 198 698 197.045 698 195.886V194.114C698 192.943 697.011 192 695.809 192H690.191C688.978 192 688 192.955 688 194.114V195.886C688 197.057 688.978 198 690.191 198ZM690.627 194.534H695.362V195.455H690.627V194.534Z" fill="#303030" fill-opacity="0.2"/>
<path d="M478.653 292C479.399 292 480 291.419 480 290.698V287.302C480 286.581 479.399 286 478.653 286H442.347C441.601 286 441 286.581 441 287.302V290.698C441 291.419 441.601 292 442.347 292H478.653ZM443.695 288.605H477.305V289.395H443.695V288.605Z" fill="#303030" fill-opacity="0.2"/>
<path d="M515.662 298H404.338C403.597 298 403 298.597 403 299.336V368.664C403 369.403 403.597 370 404.338 370H515.662C516.403 370 517 369.403 517 368.664V299.336C517 298.597 516.403 298 515.662 298ZM514.324 367.327H405.676V300.673H514.324V367.327Z" fill="#303030" fill-opacity="0.2"/>
<path d="M187 238H188.008L190 228.019V211.993L188.008 202H187V238Z" fill="#303030" fill-opacity="0.2"/>
<path d="M196 238H197.008L199 228.019V211.993L197.008 202H196V238Z" fill="#303030" fill-opacity="0.2"/>
<path d="M205 238H206.019L208 228.019V211.993L206.019 202H205V238Z" fill="#303030" fill-opacity="0.2"/>
<path d="M214 238H215.019L217 228.019V211.993L215.019 202H214V238Z" fill="#303030" fill-opacity="0.2"/>
<path d="M223 239H224.008L226 227.899V210.101L224.008 199H223V239Z" fill="#303030" fill-opacity="0.2"/>
<path d="M232 239H233.019L235 227.899V210.101L233.019 199H232V239Z" fill="#303030" fill-opacity="0.2"/>
<path d="M241 239H242.019L244 227.07V207.93L242.019 196H241V239Z" fill="#303030" fill-opacity="0.2"/>
<path d="M251 239H252.011L254 227.07V207.93L252.011 196H251V239Z" fill="#303030" fill-opacity="0.2"/>
<path d="M560.328 262H605.672C606.407 262 607 261.382 607 260.615V256.385C607 255.618 606.407 255 605.672 255H560.328C559.593 255 559 255.618 559 256.385V260.615C559 261.382 559.593 262 560.328 262ZM561.656 257.77H604.344V259.23H561.656V257.77Z" fill="#303030" fill-opacity="0.2"/>
<path d="M629.669 243H539.331C538.594 243 538 243.599 538 244.342V401.658C538 402.401 538.594 403 539.331 403H629.669C630.406 403 631 402.401 631 401.658V244.342C631 243.599 630.406 243 629.669 243ZM628.338 400.315H540.65V245.685H628.338V400.315Z" fill="#303030" fill-opacity="0.2"/>
<path d="M654.328 262H699.672C700.407 262 701 261.382 701 260.615V256.385C701 255.618 700.407 255 699.672 255H654.328C653.593 255 653 255.618 653 256.385V260.615C653 261.382 653.593 262 654.328 262ZM655.656 257.77H698.344V259.242H655.656V257.77Z" fill="#303030" fill-opacity="0.2"/>
<path d="M724.669 243H634.331C633.594 243 633 243.599 633 244.342V401.658C633 402.401 633.594 403 634.331 403H724.669C725.406 403 726 402.401 726 401.658V244.342C726 243.599 725.406 243 724.669 243ZM723.338 400.315H635.65V245.685H723.338V400.315Z" fill="#303030" fill-opacity="0.2"/>
<path d="M699.672 335H654.328C653.593 335 653 335.618 653 336.385V340.615C653 341.382 653.593 342 654.328 342H699.672C700.407 342 701 341.382 701 340.615V336.385C701 335.618 700.407 335 699.672 335ZM698.344 339.23H655.656V337.758H698.344V339.23Z" fill="#303030" fill-opacity="0.2"/>
<path d="M358.672 255H313.328C312.593 255 312 255.618 312 256.385V260.615C312 261.382 312.593 262 313.328 262H358.672C359.407 262 360 261.382 360 260.615V256.385C360 255.618 359.407 255 358.672 255ZM357.344 259.23H314.656V257.77H357.344V259.23Z" fill="#303030" fill-opacity="0.2"/>
<path d="M379.651 243.712H362.588C362.588 243.545 362.588 243.39 362.576 243.223L359.866 223.951C359.734 223.044 359.209 222.268 358.481 221.767V219.189C358.576 219.332 358.684 219.464 358.815 219.583C359.364 220.156 360.14 220.49 360.94 220.49H362.827C362.827 220.49 362.946 220.49 363.054 220.478C363.233 220.478 363.4 220.442 363.531 220.406C363.639 220.383 363.734 220.359 363.842 220.323C363.937 220.299 364.021 220.263 364.093 220.227L364.248 220.144C364.319 220.108 364.391 220.06 364.463 220.013C364.63 219.893 364.845 219.738 364.988 219.571C365.036 219.535 365.179 219.344 365.215 219.297H365.227C365.275 219.225 365.322 219.153 365.358 219.094C365.49 218.867 365.645 218.581 365.752 218.175L368.845 204.392C368.857 204.308 368.869 204.237 368.881 204.177C368.893 204.093 368.904 204.01 368.904 203.914V203.568C368.904 203.497 368.893 203.354 368.881 203.294C368.857 203.163 368.821 203.007 368.785 202.912C368.785 202.912 368.761 202.84 368.749 202.793C368.666 202.53 368.534 202.268 368.343 201.993C368.307 201.922 368.248 201.85 368.2 201.79L364.702 197.745C364.57 197.59 364.439 197.458 364.272 197.315C363.758 196.921 363.113 196.695 362.433 196.695H360.761C359.125 195.024 354.385 194.415 349.908 194.224V192.434C349.908 191.098 348.821 190 347.472 190H346.087C344.749 190 343.651 191.086 343.651 192.434V194.236C339.77 194.427 336.761 195.036 335.269 195.382L328.499 196.695H328.045C327.304 196.695 326.707 197.291 326.707 198.031V198.127C325.693 198.604 324.737 199.594 324.737 201.277C324.737 201.945 325.227 202.506 325.884 202.602C325.884 202.602 326.719 202.757 327.185 203.342C327.316 203.509 327.543 203.855 327.83 204.308C329.131 206.313 331.472 209.941 334.194 211.528L335.221 218.378V221.779C334.504 222.28 333.967 223.056 333.836 223.951L330.946 243.223C330.922 243.39 330.922 243.557 330.922 243.724H317.442C317.454 243.605 317.478 243.486 317.478 243.366V240.884C319.854 240.288 321.621 238.128 321.621 235.574C321.621 233.02 319.854 230.86 317.478 230.263V229.894C317.478 229.154 316.881 228.557 316.14 228.557H299.603C298.863 228.557 298.266 229.154 298.266 229.894V243.366C298.266 243.486 298.29 243.605 298.302 243.724H297.657C297.669 243.605 297.693 243.486 297.693 243.366V229.894C297.693 229.154 297.096 228.557 296.355 228.557H279.818C279.078 228.557 278.481 229.154 278.481 229.894V230.263C276.104 230.86 274.337 233.02 274.337 235.574C274.337 238.128 276.104 240.288 278.481 240.884V243.366C278.481 243.486 278.505 243.605 278.516 243.724H256.773V204.26C256.773 203.747 256.355 203.33 255.842 203.33C255.328 203.33 254.91 203.747 254.91 204.26V240.085H247.806V204.26C247.806 203.747 247.4 203.33 246.887 203.33C246.373 203.33 245.955 203.747 245.955 204.26V240.085H238.851V204.26C238.851 203.747 238.433 203.33 237.919 203.33C237.406 203.33 236.988 203.747 236.988 204.26V240.085H229.884V204.26C229.884 203.747 229.466 203.33 228.952 203.33C228.439 203.33 228.021 203.747 228.021 204.26V240.085H220.916V204.26C220.916 203.747 220.499 203.33 219.985 203.33C219.472 203.33 219.054 203.747 219.054 204.26V240.085H211.949V204.26C211.949 203.747 211.531 203.33 211.018 203.33C210.504 203.33 210.087 203.747 210.087 204.26V240.085H202.982V204.26C202.982 203.747 202.564 203.33 202.051 203.33C201.537 203.33 201.119 203.747 201.119 204.26V240.085H194.015V204.26C194.015 203.747 193.597 203.33 193.084 203.33C192.57 203.33 192.152 203.747 192.152 204.26V240.085H185.143V204.26C185.143 203.747 184.725 203.33 184.212 203.33C183.699 203.33 183.281 203.747 183.281 204.26V243.963H98.2537C97.5612 243.963 97 244.524 97 245.216V401.675C97 402.368 97.5612 402.928 98.2537 402.928H190.636C191.328 402.928 191.89 402.368 191.89 401.675V245.204C191.89 244.512 191.328 243.951 190.636 243.951H185.227V242.042H192.236V244.249C192.236 244.763 192.654 245.18 193.167 245.18C193.287 245.18 193.406 245.156 193.513 245.109V401.663C193.513 402.403 194.11 403 194.851 403H285.609C286.349 403 286.946 402.403 286.946 401.663V246.374H287.567V401.663C287.567 402.403 288.164 403 288.904 403H379.663C380.403 403 381 402.403 381 401.663V245.049C381 244.309 380.403 243.712 379.663 243.712H379.651ZM300.964 231.218H314.827V231.421C314.827 232.161 315.424 232.758 316.164 232.758C317.716 232.758 318.97 234.011 318.97 235.562C318.97 237.113 317.704 238.366 316.164 238.366C315.424 238.366 314.827 238.963 314.827 239.703V243.366C314.827 243.557 314.672 243.712 314.481 243.712H301.322C301.131 243.712 300.976 243.557 300.976 243.366V231.23L300.964 231.218ZM189.37 400.422H99.4955V246.457H189.37V400.422ZM337.919 219.595H355.794V221.158H337.919V219.595ZM358.899 215.311L360.427 204.428H362.576L362.66 204.535L360.415 214.559C359.83 214.654 359.305 214.929 358.887 215.323L358.899 215.311ZM362.66 199.463L366.087 203.425C366.087 203.425 366.146 203.521 366.182 203.556C366.182 203.592 366.206 203.628 366.218 203.652L363.149 217.495C363.149 217.495 363.113 217.578 363.09 217.626H363.078L363.054 217.686C363.054 217.686 363.006 217.721 362.994 217.733C362.982 217.733 362.97 217.745 362.958 217.757C362.934 217.757 362.922 217.769 362.898 217.781C362.839 217.817 362.779 217.781 362.719 217.793H360.94C360.833 217.793 360.773 217.745 360.702 217.674C360.666 217.638 360.618 217.578 360.618 217.471C360.618 217.304 360.761 217.161 360.94 217.161H361.513C362.134 217.161 362.684 216.731 362.815 216.122L365.43 204.451C365.525 204.046 365.418 203.616 365.143 203.294L364.224 202.208C363.973 201.91 363.603 201.743 363.209 201.743H360.869L361.179 199.344H362.433C362.516 199.344 362.588 199.368 362.672 199.451L362.66 199.463ZM330.099 202.84C329.74 202.28 329.466 201.862 329.299 201.647C328.881 201.11 328.367 200.74 327.901 200.49C327.973 200.466 328.057 200.442 328.152 200.442C328.331 200.442 328.499 200.406 328.666 200.334C328.713 200.31 328.761 200.275 328.809 200.251C328.904 200.191 329 200.143 329.084 200.06C329.131 200.012 329.155 199.952 329.203 199.905C329.263 199.821 329.334 199.75 329.37 199.654C329.394 199.594 329.406 199.523 329.43 199.451C329.454 199.368 329.49 199.296 329.501 199.213L335.854 197.983C337.466 197.602 340.809 196.945 345.096 196.85C345.525 196.85 345.943 196.671 346.182 196.313C346.421 195.955 346.493 195.561 346.337 195.155V192.673H347.245L347.281 195.048C347.125 195.454 347.173 195.907 347.424 196.265C347.663 196.623 348.069 196.85 348.499 196.862C354.493 197.005 357.704 197.852 358.624 198.353L356.009 216.958H337.764L336.785 210.466C336.713 210.024 336.248 209.559 335.842 209.368C333.681 208.366 331.281 204.654 330.134 202.864L330.099 202.84ZM333.609 243.605L336.499 224.333C336.534 224.094 336.833 223.831 337.084 223.831H356.642C356.893 223.831 357.179 224.082 357.215 224.321L359.925 243.689C359.925 243.689 359.89 243.712 359.83 243.712H333.716L333.621 243.605H333.609ZM277.048 235.55C277.048 233.999 278.301 232.746 279.854 232.746C280.594 232.746 281.191 232.149 281.191 231.409V231.206H295.054V243.342C295.054 243.533 294.899 243.689 294.707 243.689H281.537C281.346 243.689 281.179 243.533 281.179 243.342V239.679C281.179 238.939 280.582 238.342 279.842 238.342C278.29 238.342 277.036 237.089 277.036 235.538L277.048 235.55ZM254.958 242.042V243.712H247.854V242.042H254.958ZM246.003 242.042V243.712H238.899V242.042H246.003ZM237.036 242.042V243.712H229.931V242.042H237.036ZM228.081 242.042V243.712H220.976V242.042H228.081ZM219.113 242.042V243.712H212.009V242.042H219.113ZM210.158 242.042V243.712H203.054V242.042H210.158ZM194.087 243.963V242.042H201.191V243.712H194.839C194.552 243.712 194.301 243.82 194.087 243.975V243.963ZM284.26 400.327H196.164V246.386H284.26V400.339V400.327ZM378.313 400.327H290.218V246.386H378.313V400.339V400.327Z" fill="#303030" fill-opacity="0.2"/>
<path d="M264.672 335H219.328C218.593 335 218 335.618 218 336.385V340.615C218 341.382 218.593 342 219.328 342H264.672C265.407 342 266 341.382 266 340.615V336.385C266 335.618 265.407 335 264.672 335ZM263.343 339.23H220.657V337.758H263.343V339.23Z" fill="#303030" fill-opacity="0.2"/>
<path d="M219.328 262H264.672C265.407 262 266 261.382 266 260.615V256.385C266 255.618 265.407 255 264.672 255H219.328C218.593 255 218 255.618 218 256.385V260.615C218 261.382 218.593 262 219.328 262ZM220.657 257.77H263.343V259.242H220.657V257.77Z" fill="#303030" fill-opacity="0.2"/>
<path d="M83.6124 298H79.3876C78.6195 298 78 298.593 78 299.328V344.672C78 345.407 78.6195 346 79.3876 346H83.6124C84.3805 346 85 345.407 85 344.672V299.328C85 298.593 84.3805 298 83.6124 298ZM82.2248 343.344H80.7752V300.656H82.2248V343.344Z" fill="#303030" fill-opacity="0.2"/>
<path d="M106.388 346H110.612C111.381 346 112 345.407 112 344.672V299.328C112 298.593 111.381 298 110.612 298H106.388C105.619 298 105 298.593 105 299.328V344.672C105 345.407 105.619 346 106.388 346ZM107.775 300.656H109.225V343.344H107.775V300.656Z" fill="#303030" fill-opacity="0.2"/>
<path d="M577.854 179.59V161.567H584.652C585.398 161.567 586 160.966 586 160.222V152.345C586 151.6 585.398 151 584.652 151H521.348C520.602 151 520 151.6 520 152.345V160.222C520 160.966 520.602 161.567 521.348 161.567H527.472V179.59C527.472 180.286 527.809 180.911 528.327 181.319V202.116C524.994 202.801 522.539 205.694 522.539 209.213V220.776C522.539 224.774 525.8 228.028 529.807 228.028H534.885C538.892 228.028 542.152 224.774 542.152 220.776V209.213C542.152 205.694 539.698 202.801 536.377 202.116V181.319C536.894 180.923 537.231 180.286 537.231 179.59V161.567H548.145V179.59C548.145 180.286 548.482 180.911 548.999 181.319V203.113C545.63 205.13 543.428 209.573 543.428 214.496C543.428 217.474 544.246 220.356 545.726 222.613C545.762 222.673 545.798 222.733 545.834 222.793C547.651 225.471 550.275 227.008 553.042 227.008C555.81 227.008 558.421 225.471 560.238 222.793C560.25 222.769 560.274 222.733 560.286 222.709C561.802 220.44 562.632 217.522 562.632 214.484C562.632 209.561 560.43 205.118 557.061 203.101V181.307C557.578 180.911 557.915 180.274 557.915 179.578V161.555H568.167V179.578C568.167 180.274 568.504 180.899 569.022 181.307V203.101C566.278 204.734 564.317 207.916 563.679 211.794C563.643 211.998 563.667 212.214 563.727 212.419L569.419 230.07C569.623 230.694 570.261 231.09 570.911 230.982C571.561 230.874 572.054 230.31 572.054 229.649V213.343H574.051V229.649C574.051 230.31 574.533 230.874 575.195 230.982C575.267 230.982 575.339 230.994 575.399 230.994C575.977 230.994 576.494 230.622 576.675 230.058L582.354 212.407C582.414 212.202 582.438 211.986 582.402 211.782C581.776 207.964 579.767 204.722 577.072 203.089V181.283C577.577 180.887 577.902 180.262 577.902 179.566L577.854 179.59ZM575.098 205.13C577.312 206.175 579.033 208.756 579.635 211.926L576.687 221.088V212.01C576.687 211.266 576.085 210.666 575.339 210.666H570.658C569.912 210.666 569.31 211.266 569.31 212.01V221.1L566.338 211.914C566.94 208.744 568.661 206.163 570.887 205.13C571.368 204.914 571.669 204.434 571.669 203.917V180.443C571.669 179.878 571.32 179.386 570.827 179.194V160.234C570.827 159.489 570.225 158.889 569.479 158.889H556.532C555.786 158.889 555.184 159.489 555.184 160.234V179.194C554.691 179.386 554.33 179.878 554.33 180.443V203.917C554.33 204.434 554.63 204.914 555.112 205.142C557.988 206.475 559.913 210.233 559.913 214.496C559.913 217.03 559.227 219.431 557.988 221.268C557.964 221.292 557.952 221.328 557.94 221.352C556.64 223.249 554.847 224.33 553.018 224.33C551.189 224.33 549.456 223.297 548.145 221.436C548.121 221.376 548.085 221.328 548.049 221.268C546.797 219.419 546.111 217.018 546.111 214.496C546.111 210.233 548.036 206.463 550.912 205.142C551.382 204.926 551.694 204.446 551.694 203.917V180.443C551.694 179.878 551.346 179.386 550.84 179.194V160.234C550.84 159.489 550.238 158.889 549.492 158.889H535.895C535.149 158.889 534.548 159.489 534.548 160.234V179.194C534.054 179.386 533.705 179.878 533.705 180.443V203.317C533.705 204.049 534.283 204.638 535.017 204.662C537.52 204.722 539.481 206.727 539.481 209.213V220.776C539.481 223.297 537.424 225.339 534.909 225.339H529.831C527.304 225.339 525.246 223.285 525.246 220.776V209.213C525.246 206.715 527.208 204.722 529.723 204.662C530.457 204.638 531.034 204.049 531.034 203.317V180.443C531.034 179.878 530.685 179.386 530.18 179.194V160.234C530.18 159.489 529.578 158.889 528.832 158.889H522.707V153.702H583.329V158.889H576.53C575.784 158.889 575.183 159.489 575.183 160.234V179.206C574.689 179.41 574.352 179.89 574.352 180.455V203.929C574.352 204.446 574.653 204.926 575.122 205.142L575.098 205.13Z" fill="#303030" fill-opacity="0.2"/>
<path d="M284.5 225C285.33 225 286 224.413 286 223.685V204.315C286 203.587 285.33 203 284.5 203C283.67 203 283 203.587 283 204.315V223.685C283 224.413 283.67 225 284.5 225Z" fill="#303030" fill-opacity="0.2"/>
<path d="M289 193.321V223.679C289 224.41 289.67 225 290.5 225C291.33 225 292 224.41 292 223.679V193.321C292 192.59 291.33 192 290.5 192C289.67 192 289 192.59 289 193.321Z" fill="#303030" fill-opacity="0.2"/>
<path d="M305.5 225C306.33 225 307 224.398 307 223.652V214.348C307 213.602 306.33 213 305.5 213C304.67 213 304 213.602 304 214.348V223.652C304 224.398 304.67 225 305.5 225Z" fill="#303030" fill-opacity="0.2"/>
<path d="M310 202.335V223.665C310 224.404 310.67 225 311.5 225C312.33 225 313 224.404 313 223.665V202.335C313 201.596 312.33 201 311.5 201C310.67 201 310 201.596 310 202.335Z" fill="#303030" fill-opacity="0.2"/>
<path d="M306 204.609V196.391C306 195.621 305.33 195 304.5 195C303.67 195 303 195.621 303 196.391V204.609C303 205.379 303.67 206 304.5 206C305.33 206 306 205.379 306 204.609Z" fill="#303030" fill-opacity="0.2"/>
<path d="M280 194.295V199.705C280 200.422 280.67 201 281.5 201C282.33 201 283 200.422 283 199.705V194.295C283 193.578 282.33 193 281.5 193C280.67 193 280 193.578 280 194.295Z" fill="#303030" fill-opacity="0.2"/>
<path d="M528.5 210C527.67 210 527 210.578 527 211.295V219.705C527 220.422 527.67 221 528.5 221C529.33 221 530 220.422 530 219.705V211.295C530 210.578 529.33 210 528.5 210Z" fill="#303030" fill-opacity="0.2"/>
<path d="M532.5 210C531.67 210 531 210.609 531 211.363V221.637C531 222.391 531.67 223 532.5 223C533.33 223 534 222.391 534 221.637V211.363C534 210.609 533.33 210 532.5 210Z" fill="#303030" fill-opacity="0.2"/>
<path d="M536.5 221C537.33 221 538 220.422 538 219.705V211.295C538 210.578 537.33 210 536.5 210C535.67 210 535 210.578 535 211.295V219.705C535 220.422 535.67 221 536.5 221Z" fill="#303030" fill-opacity="0.2"/>
<path d="M205.33 322H274.67C275.406 322 276 321.33 276 320.5C276 319.67 275.406 319 274.67 319H205.33C204.594 319 204 319.67 204 320.5C204 321.33 204.594 322 205.33 322Z" fill="#303030" fill-opacity="0.2"/>
<path d="M644.33 322H713.67C714.406 322 715 321.33 715 320.5C715 319.67 714.406 319 713.67 319H644.33C643.594 319 643 319.67 643 320.5C643 321.33 643.594 322 644.33 322Z" fill="#303030" fill-opacity="0.2"/>
<path d="M536.754 243.672H513.322L511.537 236.921C511.381 236.335 510.854 235.929 510.243 235.929H493.627C493.22 235.929 492.824 236.12 492.573 236.443C492.321 236.765 492.225 237.184 492.321 237.59L492.956 240.195C493.088 240.744 493.555 241.151 494.118 241.21L504.66 242.31L504.696 243.684H476.149L476.185 242.31L486.727 241.21C487.29 241.151 487.757 240.744 487.889 240.195L488.536 237.59C488.632 237.196 488.536 236.765 488.284 236.443C488.033 236.12 487.637 235.929 487.23 235.929H470.626C470.015 235.929 469.488 236.335 469.332 236.921L467.547 243.672H446.02L444.93 238.594H446.367C449.326 238.594 451.734 236.192 451.734 233.241V213.059H456.059C457.892 213.059 459.377 211.577 459.377 209.749C459.377 207.921 457.88 206.427 456.059 206.427H453.184V205.089C453.184 204.348 452.585 203.75 451.842 203.75H451.734V203.715C451.734 200.763 449.326 198.361 446.367 198.361H431.333V195.338C431.333 194.597 430.734 194 429.991 194H424.073C423.33 194 422.731 194.597 422.731 195.338V198.361H407.696C404.737 198.361 402.33 200.763 402.33 203.715L402.054 203.75C401.311 203.75 400.712 204.348 400.712 205.089V206.427H397.334C395.501 206.427 394.016 207.921 394.016 209.749C394.016 211.577 395.501 213.059 397.334 213.059H402.33V233.241C402.33 236.192 404.737 238.594 407.696 238.594H409.302L408.212 243.672H383.258C382.563 243.672 382 244.234 382 244.927V401.745C382 402.438 382.563 403 383.258 403H536.742C537.437 403 538 402.438 538 401.745V244.915C538 244.222 537.437 243.66 536.742 243.66L536.754 243.672ZM495.352 238.641V238.606H509.213L510.53 243.588H507.404L507.332 241.055C507.308 240.386 506.805 239.836 506.134 239.765L495.364 238.641H495.352ZM471.68 238.606H485.541L474.759 239.765C474.088 239.836 473.573 240.386 473.561 241.055L473.489 243.588H470.362L471.68 238.606ZM439.994 239.765L431.392 238.665V238.606H442.21L443.288 243.588H441.228L441.168 241.067C441.156 240.41 440.653 239.86 439.994 239.765ZM405.049 233.241V211.72C405.049 210.98 404.45 210.382 403.707 210.382H397.37C397.011 210.382 396.723 210.095 396.723 209.737C396.723 209.378 397.011 209.092 397.37 209.092H402.09C402.833 209.092 403.432 208.494 403.432 207.753V206.415H403.719C404.462 206.415 405.061 205.818 405.061 205.077V203.703C405.061 202.233 406.259 201.026 407.744 201.026H424.121C424.863 201.026 425.462 200.429 425.462 199.688V196.665H428.709V199.688C428.709 200.429 429.308 201.026 430.051 201.026H446.427C447.9 201.026 449.11 202.221 449.11 203.703V205.077C449.11 205.818 449.709 206.415 450.452 206.415H450.56V207.753C450.56 208.494 451.159 209.092 451.902 209.092H456.119C456.466 209.092 456.765 209.378 456.765 209.737C456.765 210.095 456.478 210.382 456.119 210.382H450.452C449.709 210.382 449.11 210.98 449.11 211.72V233.241C449.11 234.71 447.912 235.917 446.427 235.917H407.756C406.283 235.917 405.073 234.722 405.073 233.241H405.049ZM422.899 238.594L414.285 239.753C413.626 239.836 413.135 240.386 413.111 241.055L413.051 243.576H410.991L412.069 238.594H422.899ZM415.771 242.262L424.181 241.187C424.756 241.115 425.211 240.685 425.331 240.123L425.642 238.594H428.649L428.961 240.123C429.068 240.685 429.536 241.115 430.099 241.187L438.508 242.262L438.544 243.66H415.747L415.783 242.262H415.771ZM535.508 400.479H384.528V246.169H408.966C409.086 246.205 409.206 246.253 409.326 246.253H414.369C414.513 246.253 414.645 246.217 414.777 246.169H439.491C439.622 246.217 439.754 246.253 439.898 246.253H444.941C445.073 246.253 445.181 246.205 445.301 246.169H468.182C468.326 246.217 468.47 246.253 468.625 246.253H474.795C474.939 246.253 475.082 246.217 475.214 246.169H505.691C505.822 246.217 505.954 246.253 506.11 246.253H512.28C512.435 246.253 512.579 246.217 512.711 246.169H535.508V400.491V400.479Z" fill="#303030" fill-opacity="0.2"/>
<path d="M93.7446 243.509H89.0819V241.39C89.0819 240.647 88.4841 240.049 87.7429 240.049H85.7104C86.5712 239.366 87.1331 238.313 87.1331 237.127C87.1331 235.104 85.4713 233.452 83.4388 233.452C82.5422 233.452 81.6813 233.787 81.0238 234.374H80.701C79.3619 233.188 77.1741 233.188 75.847 234.374H75.5242C74.8666 233.775 74.0177 233.452 73.0972 233.452C71.0766 233.452 69.4268 235.104 69.4268 237.127C69.4268 238.313 69.9767 239.378 70.8375 240.049H66.2824C66.1868 239.726 65.9835 239.45 65.6966 239.283V210.392C65.6966 203.555 60.1372 198 53.3224 198C46.5077 198 40.9483 203.567 40.9483 210.392V213.529C40.9483 214.271 41.5461 214.87 42.2873 214.87H46.3044C47.0457 214.87 47.6435 214.271 47.6435 213.529V210.392C47.6435 207.255 50.19 204.705 53.3224 204.705C56.4548 204.705 59.0133 207.255 59.0133 210.392V239.414C58.8221 239.582 58.6786 239.797 58.6068 240.049H53.9322C54.793 239.366 55.3429 238.313 55.3429 237.127C55.3429 235.104 53.6931 233.452 51.6725 233.452C50.7759 233.452 49.915 233.787 49.2575 234.374H48.9347C47.5956 233.188 45.4078 233.188 44.0807 234.374H43.7579C43.1003 233.787 42.2395 233.452 41.3428 233.452C39.3223 233.452 37.6724 235.104 37.6724 237.127C37.6724 238.313 38.2224 239.378 39.0832 240.049H37.0268C36.2856 240.049 35.6878 240.647 35.6878 241.39V243.509H35.1498C35.1856 243.389 35.2095 243.282 35.2095 243.162V224.508C35.2095 217.995 30.8457 214.415 28.9208 213.158V209.877C28.9208 209.135 28.3231 208.536 27.5818 208.536H27.5101C27.8568 208.117 27.9763 207.578 27.8329 207.04C27.4622 205.675 25.4776 204.98 24.4614 204.98C23.4451 204.98 21.4724 205.663 21.1018 207.04C20.9583 207.578 21.0899 208.117 21.4246 208.536H21.3648C20.6236 208.536 20.0258 209.135 20.0258 209.877V213.158C18.1009 214.415 13.7371 218.007 13.7371 224.508V243.162C13.7371 243.282 13.773 243.401 13.7969 243.509H1.25535C0.561917 243.509 0 244.072 0 244.766V401.743C0 402.437 0.561917 403 1.25535 403H93.7446C94.4381 403 95 402.437 95 401.743V244.754C95 244.06 94.4381 243.497 93.7446 243.497V243.509ZM38.3539 242.731H44.7502C45.4914 242.731 46.0892 242.132 46.0892 241.39V238.708C46.0892 238.373 45.9338 238.025 45.7186 237.786C45.4675 237.439 45.061 237.235 44.6426 237.235H43.1242C42.6819 237.235 42.2634 237.451 42.0243 237.822C41.8808 238.025 41.6178 238.157 41.3309 238.157C40.7809 238.157 40.3385 237.702 40.3385 237.127C40.3385 236.553 40.7809 236.134 41.3309 236.134C41.6297 236.134 41.9167 236.277 42.0841 236.505C42.3351 236.852 42.7416 237.056 43.1601 237.056H44.6426C45.061 237.056 45.4556 236.864 45.7066 236.529C46.1012 236.014 46.9022 236.014 47.2967 236.529C47.5478 236.852 47.9424 237.044 48.3608 237.044H49.8433C50.2737 237.044 50.6683 236.84 50.9193 236.493C51.0867 236.253 51.3736 236.122 51.6725 236.122C52.2225 236.122 52.6649 236.565 52.6649 237.115C52.6649 237.69 52.2345 238.145 51.6725 238.145C51.3736 238.145 51.0867 238.001 50.9074 237.762C50.6563 237.427 50.2618 237.223 49.8314 237.223H48.3489C47.9304 237.223 47.488 237.475 47.237 237.81C47.0218 238.049 46.9022 238.373 46.9022 238.696V241.378C46.9022 242.12 47.5 242.719 48.2413 242.719H59.8861C60.6154 242.719 61.2012 242.144 61.2251 241.414C61.5001 241.162 61.6795 240.803 61.6795 240.408V210.38C61.6795 205.758 57.9254 202.011 53.3224 202.011C48.7195 202.011 44.9654 205.77 44.9654 210.38V212.176H43.6144V210.38C43.6144 205.016 47.9663 200.658 53.3224 200.658C58.6786 200.658 63.0305 205.016 63.0305 210.38V240.408C63.0305 240.899 63.2935 241.318 63.6761 241.557C63.7598 242.216 64.3217 242.719 65.0032 242.719H76.5404C77.2816 242.719 77.8794 242.12 77.8794 241.378V238.696C77.8794 238.373 77.7121 237.989 77.4969 237.738C77.2458 237.415 76.8512 237.223 76.4328 237.223H74.9503C74.5318 237.223 74.1254 237.427 73.8743 237.762C73.683 238.013 73.4319 238.145 73.1091 238.145C72.5592 238.145 72.1168 237.678 72.1168 237.115C72.1168 236.589 72.5831 236.122 73.1091 236.122C73.4319 236.122 73.683 236.241 73.8623 236.505C74.1134 236.852 74.5199 237.044 74.9383 237.044H76.4208C76.8393 237.044 77.2338 236.852 77.4849 236.517C77.8794 236.002 78.6805 236.002 79.075 236.517C79.3261 236.84 79.7206 237.032 80.1391 237.032H81.6096C82.0281 237.032 82.4346 236.828 82.6856 236.493C82.865 236.253 83.1399 236.11 83.4508 236.11C84.0008 236.11 84.479 236.565 84.479 237.103C84.479 237.666 84.0247 238.133 83.4508 238.133C83.1519 238.133 82.865 237.989 82.6856 237.75C82.4346 237.415 82.04 237.211 81.6096 237.211H80.1271C79.7326 237.211 79.2543 237.511 79.0033 237.81C78.8 238.049 78.6805 238.361 78.6805 238.672V241.354C78.6805 242.096 79.2783 242.695 80.0195 242.695H86.4158V243.389H38.3539V242.695V242.731ZM16.4032 224.508C16.4032 218.498 21.0659 215.6 21.9985 215.085C22.4289 214.846 22.6919 214.403 22.6919 213.912V211.218H23.5886C23.9234 211.218 24.2342 211.098 24.4733 210.883C24.7124 211.086 25.0233 211.218 25.358 211.218H26.2428V213.912C26.2428 214.403 26.5058 214.846 26.9362 215.085C27.8687 215.612 32.5315 218.51 32.5315 224.508V242.874C32.4119 243.102 32.2326 243.341 32.125 243.425H16.8456C16.738 243.389 16.5467 243.126 16.4032 242.874V224.508ZM92.4893 400.486H2.49874V246.011H16.1163C16.3195 246.071 16.5228 246.107 16.7499 246.107H32.1728C32.3999 246.107 32.6032 246.071 32.8064 246.011H36.5725C36.704 246.059 36.8475 246.095 37.0029 246.095H87.7429C87.8983 246.095 88.0418 246.059 88.1733 246.011H92.4893V400.486Z" fill="#303030" fill-opacity="0.2"/>
<path d="M395.249 257C394.559 257 394 257.557 394 258.244V279.756C394 280.443 394.559 281 395.249 281H523.751C524.441 281 525 280.443 525 279.756V258.244C525 257.557 524.441 257 523.751 257H395.249ZM522.513 278.512H396.499V259.488H522.513V278.512Z" fill="#303030" fill-opacity="0.2"/>
<path d="M412 277C416.416 277 420 273.404 420 269C420 264.596 416.416 261 412 261C407.584 261 404 264.596 404 269C404 273.404 407.596 277 412 277ZM412 263.522C415.017 263.522 417.478 265.983 417.478 269C417.478 272.017 415.017 274.478 412 274.478C408.983 274.478 406.522 272.017 406.522 269C406.522 265.983 408.983 263.522 412 263.522Z" fill="#303030" fill-opacity="0.2"/>
<path d="M434 277C438.416 277 442 273.404 442 269C442 264.596 438.404 261 434 261C429.596 261 426 264.596 426 269C426 273.404 429.596 277 434 277ZM434 263.522C437.017 263.522 439.478 265.983 439.478 269C439.478 272.017 437.017 274.478 434 274.478C430.983 274.478 428.522 272.017 428.522 269C428.522 265.983 430.983 263.522 434 263.522Z" fill="#303030" fill-opacity="0.2"/>
<path d="M457 277C461.416 277 465 273.404 465 269C465 264.596 461.404 261 457 261C452.596 261 449 264.596 449 269C449 273.404 452.584 277 457 277ZM457 263.522C460.017 263.522 462.478 265.983 462.478 269C462.478 272.017 460.029 274.478 457 274.478C453.971 274.478 451.522 272.017 451.522 269C451.522 265.983 453.983 263.522 457 263.522Z" fill="#303030" fill-opacity="0.2"/>
<path d="M479 277C483.416 277 487 273.404 487 269C487 264.596 483.404 261 479 261C474.596 261 471 264.596 471 269C471 273.404 474.596 277 479 277ZM479 263.522C482.017 263.522 484.478 265.983 484.478 269C484.478 272.017 482.017 274.478 479 274.478C475.983 274.478 473.522 272.017 473.522 269C473.522 265.983 475.983 263.522 479 263.522Z" fill="#303030" fill-opacity="0.2"/>
<path d="M510 277C514.416 277 518 273.404 518 269C518 264.596 514.404 261 510 261C505.596 261 502 264.596 502 269C502 273.404 505.596 277 510 277ZM510 263.522C513.017 263.522 515.478 265.983 515.478 269C515.478 272.017 513.017 274.478 510 274.478C506.983 274.478 504.522 272.017 504.522 269C504.522 265.983 506.983 263.522 510 263.522Z" fill="#303030" fill-opacity="0.2"/>
</svg>
