<svg width="33" height="33" viewBox="0 0 33 33" fill="none" xmlns="http://www.w3.org/2000/svg">
<path d="M12.66 5.03345H20.5V10.3668V12.0734H12.66V5.03345Z" fill="white"/>
<path d="M3.69906 5.03345H11.5391V12.0734H3.69906V5.03345Z" fill="white"/>
<path d="M12.7133 13.2466H20.5V20.2866H12.7133V13.2466Z" fill="white"/>
<path d="M11.5391 20.2333H9.8324H3.69906V13.2466H11.5391V20.2333Z" fill="white"/>
<path d="M21.6169 12.66V10.9534H26.1502L29.2969 16.2334V20.2334H21.6169V12.66ZM22.7369 16.5C22.7369 16.82 23.0035 17.0867 23.3235 17.0867H27.4835C27.6969 17.0867 27.9102 16.98 27.9635 16.82C28.0702 16.66 28.0702 16.3934 27.9635 16.2334L25.7235 12.3934C25.6169 12.2334 25.4035 12.1267 25.2435 12.1267H23.3235C23.0035 12.1267 22.7369 12.3934 22.7369 12.7134V16.5Z" fill="white"/>
<path d="M8.12448 27.9666C6.94627 27.9666 5.99115 26.9876 5.99115 25.7799C5.99115 24.5723 6.94627 23.5933 8.12448 23.5933C9.30269 23.5933 10.2578 24.5723 10.2578 25.7799C10.2578 26.9876 9.30269 27.9666 8.12448 27.9666Z" fill="white"/>
<path d="M29.2969 21.4067V24.0201H28.2835C27.6969 23.0601 26.6835 22.4201 25.4569 22.4201C24.2835 22.4201 23.2169 23.0601 22.6302 24.0201H10.8969C10.3102 23.0601 9.29687 22.4201 8.07021 22.4201C6.89687 22.4201 5.83021 23.0601 5.24354 24.0201H3.64354V21.4067H10.0969H29.2969Z" fill="white"/>
<path d="M25.4604 23.54C26.6337 23.54 27.5938 24.5534 27.5938 25.7267C27.5938 26.9 26.6337 27.9134 25.4604 27.9134C24.2871 27.9134 23.3271 26.9 23.3271 25.7267C23.3271 24.5534 24.2871 23.54 25.4604 23.54Z" fill="white"/>
</svg>
