<svg width="32" height="32" viewBox="0 0 32 32" fill="none" xmlns="http://www.w3.org/2000/svg">
<path d="M10.6693 14.6667C11.5923 14.6667 12.4945 14.393 13.2619 13.8802C14.0294 13.3674 14.6275 12.6386 14.9807 11.7859C15.3339 10.9331 15.4263 9.99483 15.2463 9.08959C15.0662 8.18434 14.6217 7.35282 13.9691 6.70018C13.3165 6.04753 12.4849 5.60308 11.5797 5.42301C10.6744 5.24295 9.73614 5.33536 8.88342 5.68857C8.03069 6.04178 7.30186 6.63992 6.78908 7.40735C6.2763 8.17478 6.00261 9.07703 6.00261 10C6.00261 11.2377 6.49427 12.4247 7.36944 13.2998C8.24461 14.175 9.4316 14.6667 10.6693 14.6667ZM10.6693 8.00001C11.0648 8.00001 11.4515 8.11731 11.7804 8.33707C12.1093 8.55683 12.3657 8.86919 12.517 9.23464C12.6684 9.6001 12.708 10.0022 12.6308 10.3902C12.5537 10.7782 12.3632 11.1345 12.0835 11.4142C11.8038 11.6939 11.4474 11.8844 11.0595 11.9616C10.6715 12.0388 10.2694 11.9991 9.90391 11.8478C9.53845 11.6964 9.2261 11.44 9.00633 11.1112C8.78657 10.7823 8.66927 10.3956 8.66927 10C8.66927 9.46958 8.87999 8.96087 9.25506 8.5858C9.63013 8.21072 10.1388 8.00001 10.6693 8.00001ZM21.3359 18.6667C20.413 18.6667 19.5107 18.9404 18.7433 19.4532C17.9758 19.9659 17.3777 20.6948 17.0245 21.5475C16.6713 22.4002 16.5789 23.3385 16.7589 24.2438C16.939 25.149 17.3835 25.9805 18.0361 26.6332C18.6888 27.2858 19.5203 27.7303 20.4255 27.9103C21.3308 28.0904 22.2691 27.998 23.1218 27.6448C23.9745 27.2916 24.7034 26.6934 25.2161 25.926C25.7289 25.1586 26.0026 24.2563 26.0026 23.3333C26.0026 22.0957 25.5109 20.9087 24.6358 20.0335C23.7606 19.1583 22.5736 18.6667 21.3359 18.6667ZM21.3359 25.3333C20.9404 25.3333 20.5537 25.216 20.2248 24.9963C19.8959 24.7765 19.6396 24.4642 19.4882 24.0987C19.3368 23.7333 19.2972 23.3311 19.3744 22.9432C19.4515 22.5552 19.642 22.1988 19.9217 21.9191C20.2014 21.6394 20.5578 21.4489 20.9458 21.3718C21.3337 21.2946 21.7359 21.3342 22.1013 21.4856C22.4668 21.637 22.7791 21.8933 22.9989 22.2222C23.2186 22.5511 23.3359 22.9378 23.3359 23.3333C23.3359 23.8638 23.1252 24.3725 22.7502 24.7476C22.3751 25.1226 21.8664 25.3333 21.3359 25.3333ZM26.3226 5.68001C26.2124 5.56955 26.0814 5.48191 25.9373 5.42212C25.7932 5.36232 25.6387 5.33154 25.4826 5.33154C25.3266 5.33154 25.172 5.36232 25.0279 5.42212C24.8838 5.48191 24.7528 5.56955 24.6426 5.68001L5.68261 24.64C5.4626 24.8645 5.33832 25.1657 5.33594 25.48C5.33558 25.715 5.40499 25.9448 5.53535 26.1402C5.66572 26.3357 5.85119 26.4881 6.06824 26.578C6.2853 26.668 6.52418 26.6915 6.75461 26.6456C6.98504 26.5996 7.19664 26.4863 7.36261 26.32L26.3226 7.36001C26.4331 7.24979 26.5207 7.11886 26.5805 6.97472C26.6403 6.83058 26.6711 6.67606 26.6711 6.52001C26.6711 6.36396 26.6403 6.20944 26.5805 6.0653C26.5207 5.92117 26.4331 5.79024 26.3226 5.68001Z" fill="#C82325"/>
</svg>
