<svg width="25" height="24" viewBox="0 0 25 24" fill="none" xmlns="http://www.w3.org/2000/svg">
<g clip-path="url(#clip0_1042_21434)">
<path d="M5.84507 11.3014C5.57242 11.3014 5.31084 11.1933 5.11741 11.0009C4.92397 10.8084 4.8144 10.5471 4.81259 10.274V6.91096H1.45533C1.18331 6.91096 0.922436 6.80272 0.730091 6.61004C0.537746 6.41737 0.429688 6.15604 0.429688 5.88356L0.429688 5.42466C0.429682 5.15154 0.537521 4.88951 0.729672 4.69575C0.921823 4.50198 1.18268 4.39222 1.45533 4.39041H4.81259V1.0274C4.8144 0.754287 4.92397 0.492978 5.11741 0.300498C5.31084 0.108018 5.57242 -5.98895e-06 5.84507 2.49032e-10L6.30319 2.49032e-10C6.57521 2.49032e-10 6.83609 0.108243 7.02843 0.300918C7.22078 0.493592 7.32883 0.754915 7.32883 1.0274V4.39041H10.6861C10.9587 4.39222 11.2196 4.50198 11.4118 4.69575C11.6039 4.88951 11.7117 5.15154 11.7117 5.42466V5.88356C11.7117 6.15604 11.6037 6.41737 11.4113 6.61004C11.219 6.80272 10.9581 6.91096 10.6861 6.91096H7.32883V10.274C7.32883 10.5465 7.22078 10.8078 7.02843 11.0005C6.83609 11.1931 6.57521 11.3014 6.30319 11.3014H5.84507ZM21.8861 10.1096C21.7512 10.111 21.6175 10.085 21.4929 10.0332C21.3683 9.98144 21.2555 9.90489 21.1613 9.80822L18.7887 7.43151L16.4092 9.80822C16.2169 10.0006 15.9562 10.1087 15.6844 10.1087C15.4126 10.1087 15.1519 10.0006 14.9596 9.80822L14.6314 9.4863C14.439 9.29381 14.3308 9.03266 14.3305 8.76027C14.3319 8.4861 14.4398 8.22324 14.6314 8.0274L17.0109 5.65068L14.6314 3.27397C14.439 3.08148 14.3308 2.82034 14.3305 2.54795C14.3305 2.27348 14.4386 2.01008 14.6314 1.81507L14.9596 1.49315C15.1519 1.30075 15.4126 1.19268 15.6844 1.19268C15.9562 1.19268 16.2169 1.30075 16.4092 1.49315L18.7887 3.86986L21.1613 1.49315C21.3535 1.30042 21.6142 1.19202 21.8861 1.19178C22.1598 1.19317 22.4222 1.30126 22.6177 1.49315L22.9391 1.81507C23.1319 2.01008 23.24 2.27348 23.2399 2.54795C23.2397 2.82034 23.1315 3.08148 22.9391 3.27397L20.5664 5.65068L22.9391 8.0274C23.1307 8.22324 23.2386 8.4861 23.2399 8.76027C23.2397 9.03266 23.1315 9.29381 22.9391 9.4863L22.6177 9.80822C22.5218 9.90447 22.4077 9.98067 22.2821 10.0324C22.1565 10.0841 22.0219 10.1104 21.8861 10.1096Z" fill="#C82325"/>
<path d="M11.7109 21.315V21.0136C11.7109 20.4008 11.215 19.9041 10.6032 19.9041H1.53658C0.924817 19.9041 0.428885 20.4008 0.428885 21.0136V21.315C0.428885 21.9278 0.924817 22.4246 1.53658 22.4246H10.6032C11.215 22.4246 11.7109 21.9278 11.7109 21.315Z" fill="#C82325"/>
<path d="M24.4297 22.8973V22.5959C24.4297 21.9831 23.9338 21.4863 23.322 21.4863H14.2553C13.6436 21.4863 13.1476 21.9831 13.1476 22.5959V22.8973C13.1476 23.5101 13.6436 24.0069 14.2553 24.0069H23.322C23.9338 24.0069 24.4297 23.5101 24.4297 22.8973Z" fill="#C82325"/>
<path d="M24.4297 17.5411V17.2397C24.4297 16.6269 23.9338 16.1301 23.322 16.1301H14.2553C13.6436 16.1301 13.1476 16.6269 13.1476 17.2397V17.5411C13.1476 18.1539 13.6436 18.6507 14.2553 18.6507H23.322C23.9338 18.6507 24.4297 18.1539 24.4297 17.5411Z" fill="#C82325"/>
</g>
<defs>
<clipPath id="clip0_1042_21434">
<rect width="24" height="24" fill="white" transform="translate(0.429688)"/>
</clipPath>
</defs>
</svg>
