<svg width="34" height="34" viewBox="0 0 34 34" fill="none" xmlns="http://www.w3.org/2000/svg">
<path d="M16.9977 1.41675L1.41434 6.19091V12.5659C1.39116 16.9778 2.79746 21.2786 5.42274 24.8245C8.04802 28.3705 11.7511 30.9708 15.9777 32.2363L16.9977 32.5834L18.0177 32.2647C22.2454 30.9988 25.9494 28.3974 28.5747 24.85C31.2001 21.3027 32.6057 17.0003 32.581 12.5872V6.21216L16.9977 1.41675ZM31.1643 12.7501C31.1679 16.8121 29.8729 20.7689 27.4682 24.0426C25.0635 27.3164 21.6752 29.7357 17.7981 30.9472L17.2102 31.1667C17.0724 31.2137 16.923 31.2137 16.7852 31.1667L16.1973 30.9826C12.3143 29.7693 8.92186 27.3447 6.51665 24.0638C4.11144 20.7829 2.81984 16.8181 2.83101 12.7501V7.79175C2.8316 7.64149 2.87996 7.49532 2.96909 7.37436C3.05822 7.25339 3.18351 7.16391 3.32684 7.11883L16.7852 2.86883C16.9225 2.81904 17.0729 2.81904 17.2102 2.86883L30.6685 7.11883C30.8118 7.16391 30.9371 7.25339 31.0263 7.37436C31.1154 7.49532 31.1637 7.64149 31.1643 7.79175V12.7501Z" fill="#C82325"/>
<path d="M22.3966 27.0796C20.8681 28.1815 19.1724 29.0305 17.3745 29.5942L16.9991 29.75L16.6236 29.6367C14.8269 29.0701 13.1317 28.2213 11.6016 27.1221C12.1755 26.209 12.9717 25.4563 13.9157 24.9347C14.8596 24.413 15.9205 24.1394 16.9991 24.1394C18.0776 24.1394 19.1385 24.413 20.0825 24.9347C21.0265 25.4563 21.8227 26.209 22.3966 27.1221V27.0796Z" fill="#C82325"/>
<path d="M29.75 8.30873V12.75C29.7509 15.3107 29.1945 17.8409 28.1193 20.165C27.0441 22.489 25.476 24.5512 23.5238 26.2083C22.8896 25.2127 22.0357 24.3758 21.0275 23.7618C20.0194 23.1478 18.8839 22.7732 17.7083 22.6667V21.25H18.4167C18.6045 21.25 18.7847 21.1754 18.9175 21.0425C19.0504 20.9097 19.125 20.7295 19.125 20.5417C19.125 20.3538 19.0504 20.1736 18.9175 20.0408C18.7847 19.9079 18.6045 19.8333 18.4167 19.8333H17.7083V14.1666H19.125C20.2522 14.1666 21.3332 13.7189 22.1302 12.9219C22.9272 12.1248 23.375 11.0438 23.375 9.91665V9.20832C23.375 9.02045 23.3004 8.84029 23.1675 8.70745C23.0347 8.57461 22.8545 8.49998 22.6667 8.49998H20.5417C19.959 8.4984 19.3824 8.61783 18.8484 8.85072C18.3143 9.08361 17.8345 9.42487 17.4392 9.8529C17.1372 9.04039 16.5941 8.33963 15.8825 7.8446C15.171 7.34956 14.3251 7.08393 13.4583 7.08332H11.3333C11.1455 7.08332 10.9653 7.15794 10.8325 7.29078C10.6996 7.42362 10.625 7.60379 10.625 7.79165V8.49998C10.625 9.62715 11.0728 10.7082 11.8698 11.5052C12.6668 12.3022 13.7478 12.75 14.875 12.75H16.2917V16.2917H15.5833C15.3955 16.2917 15.2153 16.3663 15.0825 16.4991C14.9496 16.632 14.875 16.8121 14.875 17C14.875 17.1878 14.9496 17.368 15.0825 17.5009C15.2153 17.6337 15.3955 17.7083 15.5833 17.7083H16.2917V22.6667C15.1161 22.7732 13.9806 23.1478 12.9725 23.7618C11.9643 24.3758 11.1104 25.2127 10.4763 26.2083C8.52402 24.5512 6.95587 22.489 5.88069 20.165C4.80551 17.8409 4.24906 15.3107 4.25 12.75V8.30873L17 4.2854L29.75 8.30873Z" fill="#C82325"/>
<path d="M21.9557 9.91667C21.9557 10.6681 21.6572 11.3888 21.1259 11.9201C20.5945 12.4515 19.8738 12.75 19.1224 12.75H17.7057V12.7075C17.7169 11.9634 18.0203 11.2536 18.5505 10.7314C19.0806 10.2093 19.7949 9.91658 20.5391 9.91667H21.9557ZM16.2891 11.3333H14.8724C14.1209 11.3333 13.4003 11.0348 12.8689 10.5035C12.3376 9.97212 12.0391 9.25145 12.0391 8.5H13.4557C14.2072 8.5 14.9278 8.79851 15.4592 9.32986C15.9906 9.86122 16.2891 10.5819 16.2891 11.3333Z" fill="#C82325"/>
</svg>
