<svg width="25" height="24" viewBox="0 0 25 24" fill="none" xmlns="http://www.w3.org/2000/svg">
<path d="M17.4501 14.6839L15.7196 15.6588C15.512 15.7757 15.2717 15.8214 15.0356 15.789C14.7995 15.7566 14.5805 15.6478 14.4121 15.4792L8.63634 9.70346C8.46789 9.53492 8.35917 9.31592 8.32674 9.07985C8.29432 8.84378 8.33998 8.60359 8.45675 8.39587L9.43165 6.66539C9.60713 6.35394 9.67584 5.9936 9.62727 5.63943C9.5787 5.28526 9.41553 4.95672 9.16268 4.70401L6.56903 2.11035C6.41701 1.95826 6.23652 1.83761 6.03786 1.7553C5.8392 1.67298 5.62627 1.63062 5.41123 1.63062C5.1962 1.63062 4.98327 1.67298 4.78461 1.7553C4.58595 1.83761 4.40546 1.95826 4.25344 2.11035L3.07578 3.28718C2.38713 3.97583 1.94847 4.87494 1.82955 5.84155C1.71064 6.80816 1.9183 7.78678 2.41951 8.6218L3.01041 9.60663C6.02798 14.6358 10.2872 18.8053 15.3795 21.715L15.4962 21.7821C17.2358 22.776 19.385 22.4864 20.7779 21.0944L22.0076 19.8646C22.1597 19.7125 22.2804 19.5321 22.3627 19.3334C22.445 19.1347 22.4874 18.9218 22.4874 18.7068C22.4874 18.4917 22.445 18.2788 22.3627 18.0801C22.2804 17.8815 22.1597 17.701 22.0076 17.549L19.4123 14.9537C19.1597 14.7005 18.831 14.537 18.4767 14.4883C18.1223 14.4396 17.7618 14.5083 17.4501 14.6839Z" fill="#C82325"/>
</svg>
