<svg width="28" height="28" viewBox="0 0 28 28" fill="none" xmlns="http://www.w3.org/2000/svg">
<path d="M19.4781 20.9418C18.5448 20.9418 17.7865 21.7001 17.7865 22.6918C17.7865 23.6835 18.5448 24.4418 19.4781 24.4418H24.2031V20.9418H19.4781ZM19.5365 23.2751C19.2448 23.2751 18.9531 23.0418 18.9531 22.6918C18.9531 22.3418 19.1865 22.1085 19.5365 22.1085C19.8281 22.1085 20.1198 22.3418 20.1198 22.6918C20.0615 22.9835 19.8281 23.2751 19.5365 23.2751ZM18.6615 6.88346L15.2198 5.7168C14.7531 6.4168 13.9365 6.82513 13.1198 6.7668L11.0781 12.7751H18.4281L19.6531 9.0418C19.0115 8.5168 18.6031 7.70013 18.6615 6.88346ZM17.3198 8.8668C17.1448 9.45013 16.4448 9.80013 15.8615 9.62513C15.2781 9.45013 14.8698 8.75013 15.1031 8.1668C15.3365 7.58346 15.9781 7.23346 16.5615 7.40846C17.1448 7.58346 17.4948 8.28346 17.3198 8.8668Z" fill="#C82325"/>
<path d="M12.6531 2.45003L22.6281 5.77503C22.8031 5.83337 22.9198 5.95003 22.9781 6.0667C23.0365 6.18337 23.0365 6.35837 23.0365 6.53337L20.9365 12.8334H19.7115L20.9948 8.98337C21.0531 8.80837 21.0531 8.6917 20.9365 8.5167C20.8781 8.40003 20.7615 8.28337 20.5865 8.22503C20.0031 8.05003 19.6531 7.35003 19.8281 6.7667C19.9448 6.47503 19.7698 6.12503 19.4781 6.00837L15.0448 4.55003C14.8698 4.4917 14.7531 4.4917 14.5781 4.60837C14.4615 4.6667 14.3448 4.78337 14.2865 4.95837C14.1115 5.5417 13.4115 5.8917 12.8281 5.7167C12.5365 5.60003 12.1865 5.77503 12.0698 6.0667L9.79479 12.8917H8.56979L11.8948 2.9167C12.0115 2.50837 12.3615 2.33337 12.6531 2.45003ZM6.70312 12.775V7.4667C7.51979 7.23337 8.16146 6.5917 8.39479 5.77503H9.73646L7.40312 12.775H6.70312Z" fill="#C82325"/>
<path d="M4.55 3.61665C4.66667 3.49998 4.78333 3.44165 4.95833 3.44165H10.5L10.0917 4.60832H7.875C7.7 4.60832 7.58333 4.66665 7.46667 4.78332C7.35 4.89998 7.29167 5.01665 7.29167 5.19165C7.29167 5.83332 6.76667 6.35832 6.125 6.35832C5.775 6.35832 5.54167 6.59165 5.54167 6.94165V12.8333C5.13333 12.8917 4.725 13.125 4.375 13.3583V4.02498C4.375 3.84998 4.43333 3.73332 4.55 3.61665ZM24.2083 26.1917C24.2083 27.1833 23.45 27.9417 22.4583 27.9417H6.125C5.13333 27.9417 4.375 27.1833 4.375 26.1917V15.6917C4.375 14.7 5.13333 13.9417 6.125 13.9417H22.4C23.3917 13.9417 24.15 14.7 24.15 15.6917V19.775H19.425C17.85 19.775 16.5667 21.0583 16.5667 22.6917C16.5667 24.325 17.85 25.6083 19.425 25.6083H24.15V26.1917H24.2083Z" fill="#C82325"/>
</svg>
