<svg width="390" height="180" viewBox="0 0 390 180" fill="none" xmlns="http://www.w3.org/2000/svg">
<path d="M300.883 4.07275L349.098 31.9029V157.584L300.883 129.754V4.07275Z" fill="#808080"/>
<path d="M349.098 31.8817L300.883 4.0515L307.883 0L356.098 27.8302L349.098 31.8817Z" fill="#9E9E9E"/>
<path d="M349.094 157.583V31.9023L356.094 27.8508V153.532L349.094 157.583Z" fill="#E6E6E6"/>
<path d="M233.148 156.672L249.694 166.239C281.469 184.587 320.648 184.587 352.423 166.239L368.99 156.672V151.624H233.148V156.672Z" fill="#666666"/>
<path d="M233.162 151.623L249.707 161.19C281.483 179.538 320.661 179.538 352.437 161.19L369.003 151.623L301.083 112.402L233.141 151.623H233.162Z" fill="#A3A3A3"/>
<path style="mix-blend-mode:overlay" opacity="0.3" d="M233.162 151.623L249.707 161.19C281.483 179.538 320.661 179.538 352.437 161.19L369.003 151.623L301.083 112.402L233.141 151.623H233.162Z" fill="url(#paint0_linear_1172_15654)"/>
<path d="M233.183 151.581C233.183 151.581 235.177 152.684 238.677 154.614C240.416 155.569 242.538 156.757 244.977 158.093C247.416 159.43 250.131 160.957 253.165 162.526C254.671 163.332 256.24 164.181 257.937 164.86C259.613 165.581 261.31 166.429 263.134 167.087C264.959 167.745 266.825 168.466 268.777 169.123C270.728 169.696 272.743 170.29 274.78 170.884C276.859 171.351 278.959 171.817 281.08 172.305C283.243 172.645 285.428 173.005 287.613 173.344C289.84 173.557 292.067 173.769 294.316 173.96C296.564 174.023 298.834 174.087 301.083 174.151C303.352 174.087 305.601 174.023 307.849 173.96C310.098 173.748 312.325 173.535 314.552 173.344C316.758 172.984 318.943 172.645 321.085 172.305C323.207 171.817 325.328 171.351 327.385 170.884C329.422 170.29 331.437 169.696 333.388 169.123C335.319 168.466 337.185 167.745 339.031 167.087C340.855 166.429 342.552 165.56 344.249 164.86C345.946 164.16 347.494 163.311 349 162.526C352.013 160.978 354.749 159.43 357.188 158.093C359.628 156.757 361.749 155.59 363.488 154.614C366.988 152.684 368.982 151.581 368.982 151.581L369.025 151.666C369.025 151.666 367.052 152.811 363.594 154.805C361.876 155.802 359.776 157.011 357.379 158.411C354.982 159.79 352.288 161.402 349.234 162.972C347.728 163.778 346.158 164.648 344.461 165.369C342.764 166.09 341.067 166.981 339.243 167.66C337.397 168.338 335.531 169.081 333.601 169.76C331.628 170.354 329.613 170.969 327.576 171.584C325.498 172.072 323.376 172.56 321.234 173.069C319.07 173.429 316.864 173.79 314.658 174.172C312.431 174.405 310.183 174.617 307.913 174.851C305.643 174.935 303.373 174.999 301.083 175.084C298.813 174.999 296.522 174.935 294.252 174.851C291.983 174.617 289.734 174.405 287.507 174.172C285.301 173.811 283.095 173.429 280.931 173.069C278.789 172.581 276.668 172.072 274.589 171.605C272.552 170.99 270.537 170.375 268.565 169.781C266.634 169.102 264.746 168.36 262.922 167.681C261.077 167.002 259.38 166.132 257.683 165.39C255.986 164.669 254.416 163.82 252.91 162.993C249.877 161.423 247.183 159.811 244.786 158.432C242.389 157.032 240.289 155.823 238.571 154.826C235.113 152.833 233.141 151.687 233.141 151.687L233.183 151.602V151.581Z" fill="#C9C9C9"/>
<path d="M233.148 102.92L249.694 112.487C281.469 130.835 320.648 130.835 352.423 112.487L368.99 102.92V97.8716H233.148V102.92Z" fill="#666666"/>
<path d="M233.162 97.8718L249.707 107.438C281.483 125.787 320.661 125.787 352.437 107.438L369.003 97.8718L301.083 58.6509L233.141 97.8718H233.162Z" fill="#A3A3A3"/>
<path style="mix-blend-mode:overlay" opacity="0.3" d="M233.162 97.8718L249.707 107.438C281.483 125.787 320.661 125.787 352.437 107.438L369.003 97.8718L301.083 58.6509L233.141 97.8718H233.162Z" fill="url(#paint1_linear_1172_15654)"/>
<path d="M233.183 97.8288C233.183 97.8288 235.177 98.9319 238.677 100.862C240.416 101.817 242.538 102.983 244.977 104.341C247.416 105.677 250.131 107.205 253.165 108.774C254.671 109.58 256.24 110.429 257.937 111.108C259.613 111.829 261.31 112.677 263.134 113.335C264.959 113.992 266.825 114.714 268.777 115.371C270.728 115.944 272.743 116.538 274.78 117.132C276.859 117.598 278.959 118.065 281.08 118.553C283.243 118.892 285.428 119.253 287.613 119.592C289.84 119.804 292.067 120.017 294.316 120.207C296.564 120.271 298.834 120.335 301.083 120.398C303.352 120.335 305.601 120.271 307.849 120.207C310.098 119.995 312.325 119.783 314.552 119.592C316.758 119.232 318.943 118.892 321.085 118.553C323.207 118.065 325.328 117.598 327.385 117.132C329.422 116.538 331.437 115.944 333.388 115.371C335.319 114.714 337.185 113.992 339.031 113.335C340.855 112.677 342.552 111.808 344.249 111.086C345.946 110.386 347.494 109.538 349 108.753C352.013 107.205 354.749 105.656 357.188 104.32C359.628 102.983 361.749 101.817 363.488 100.841C366.988 98.9106 368.982 97.8076 368.982 97.8076L369.025 97.8713C369.025 97.8713 367.052 99.0167 363.594 101.011C361.876 102.008 359.776 103.217 357.379 104.617C354.982 105.995 352.288 107.608 349.234 109.177C347.728 109.983 346.158 110.853 344.461 111.574C342.764 112.317 341.067 113.186 339.243 113.865C337.397 114.544 335.531 115.286 333.601 115.965C331.628 116.559 329.613 117.174 327.576 117.789C325.498 118.277 323.376 118.765 321.234 119.253C319.07 119.613 316.864 119.974 314.658 120.356C312.431 120.589 310.183 120.801 307.913 121.035C305.643 121.12 303.373 121.183 301.083 121.268C298.813 121.183 296.522 121.12 294.252 121.035C291.983 120.801 289.734 120.589 287.507 120.356C285.301 119.995 283.095 119.613 280.931 119.253C278.789 118.765 276.668 118.256 274.589 117.789C272.552 117.174 270.537 116.559 268.565 115.965C266.634 115.286 264.746 114.544 262.922 113.865C261.077 113.186 259.38 112.317 257.683 111.574C255.986 110.853 254.416 110.004 252.91 109.198C249.877 107.629 247.183 106.017 244.786 104.638C242.389 103.259 240.289 102.029 238.571 101.032C235.113 99.0379 233.141 97.8925 233.141 97.8925L233.183 97.8288Z" fill="#C9C9C9"/>
<path d="M275.422 88.0088C275.698 88.03 275.995 88.136 276.292 88.3057L312.501 109.221C312.67 109.327 312.84 109.369 312.989 109.39C313.031 109.39 313.073 109.39 313.116 109.369C313.201 109.369 313.307 109.369 313.37 109.306C313.604 109.178 313.731 108.903 313.731 108.5C313.731 107.693 313.179 106.739 312.501 106.357L278.752 86.8633L277.819 86.3118L274.68 88.136C274.807 88.0512 274.977 88.0511 275.146 88.0299C275.231 88.0299 275.295 87.9663 275.401 87.9875L275.422 88.0088Z" fill="#797979"/>
<path d="M341.762 84.1696L305.553 63.2546C304.917 62.894 304.365 62.8515 303.941 63.1061L274.711 80.0969C274.838 80.0121 275.029 80.012 275.178 80.012C275.262 80.012 275.326 79.9484 275.432 79.9696C275.708 79.9908 276.005 80.0969 276.302 80.2666L312.511 101.182C315.692 103.006 318.28 107.503 318.259 111.151C318.259 111.597 318.217 112.021 318.132 112.403C318.111 112.53 318.047 112.657 318.005 112.785C317.941 113.018 317.877 113.251 317.792 113.463C317.729 113.591 317.644 113.697 317.559 113.803C317.453 113.972 317.368 114.142 317.241 114.269C317.156 114.375 317.029 114.439 316.923 114.524C316.795 114.63 316.689 114.757 316.541 114.821L345.771 97.8302C346.81 97.2362 347.447 95.9422 347.447 94.1392C347.447 90.4908 344.88 86.0151 341.698 84.1696H341.762Z" fill="white"/>
<path opacity="0.3" d="M341.762 84.1696L305.553 63.2546C304.917 62.894 304.365 62.8515 303.941 63.1061L274.711 80.0969C274.838 80.0121 275.029 80.012 275.178 80.012C275.262 80.012 275.326 79.9484 275.432 79.9696C275.708 79.9908 276.005 80.0969 276.302 80.2666L312.511 101.182C315.692 103.006 318.28 107.503 318.259 111.151C318.259 111.597 318.217 112.021 318.132 112.403C318.111 112.53 318.047 112.657 318.005 112.785C317.941 113.018 317.877 113.251 317.792 113.463C317.729 113.591 317.644 113.697 317.559 113.803C317.453 113.972 317.368 114.142 317.241 114.269C317.156 114.375 317.029 114.439 316.923 114.524C316.795 114.63 316.689 114.757 316.541 114.821L345.771 97.8302C346.81 97.2362 347.447 95.9422 347.447 94.1392C347.447 90.4908 344.88 86.0151 341.698 84.1696H341.762Z" fill="white"/>
<path d="M317.607 113.782C317.671 113.655 317.777 113.57 317.841 113.443C317.925 113.252 317.989 112.997 318.053 112.764C318.095 112.637 318.138 112.531 318.18 112.382C318.265 112 318.307 111.576 318.307 111.131C318.307 107.482 315.741 103.006 312.559 101.161L276.35 80.246C276.032 80.0763 275.735 79.9702 275.48 79.949C275.374 79.949 275.311 79.9914 275.226 79.9914C275.056 79.9914 274.886 79.9914 274.759 80.0762C274.356 80.3096 274.102 80.8187 274.102 81.5187C274.102 82.9823 275.099 84.7217 276.35 85.4429L277.877 86.3126L278.811 86.8641L312.559 106.358C313.238 106.74 313.789 107.694 313.789 108.479C313.789 108.882 313.662 109.158 313.429 109.285C313.365 109.328 313.259 109.328 313.174 109.349C313.132 109.349 313.089 109.37 313.047 109.37C312.898 109.37 312.729 109.306 312.559 109.2L276.35 88.2853C276.032 88.1156 275.735 88.0095 275.48 87.9883C275.395 87.9883 275.311 88.0307 275.226 88.0307C275.056 88.0307 274.886 88.0308 274.759 88.1368C274.356 88.3702 274.102 88.8792 274.102 89.5792C274.102 91.0429 275.099 92.7823 276.35 93.5035L312.559 114.418C314.362 115.458 315.974 115.394 317.035 114.503C317.141 114.418 317.268 114.355 317.353 114.249C317.48 114.121 317.565 113.931 317.671 113.782H317.607Z" fill="white"/>
<path d="M275.422 73.6902C275.698 73.7114 275.995 73.8174 276.292 73.9871L312.501 94.9021C312.67 95.0082 312.84 95.0506 312.989 95.0718C313.031 95.0718 313.073 95.0718 313.116 95.0506C313.201 95.0506 313.307 95.0506 313.37 94.987C313.604 94.8597 313.731 94.584 313.731 94.1809C313.731 93.3749 313.179 92.4203 312.501 92.0385L278.752 72.5447L277.819 71.9932L274.68 73.8174C274.807 73.7326 274.977 73.7325 275.146 73.7113C275.231 73.7113 275.295 73.6477 275.401 73.6689L275.422 73.6902Z" fill="#A8A8A8"/>
<path d="M341.762 69.8508L305.553 48.9358C304.917 48.5752 304.365 48.5328 303.941 48.7661L274.711 65.7569C274.838 65.672 275.029 65.6721 275.178 65.6721C275.262 65.6721 275.326 65.6084 275.432 65.6084C275.708 65.6296 276.005 65.7357 276.302 65.9054L312.511 86.8204C315.692 88.6658 318.28 93.1415 318.259 96.79C318.259 97.2354 318.217 97.6597 318.132 98.0415C318.111 98.19 318.047 98.2749 318.005 98.4234C317.941 98.6567 317.877 98.89 317.792 99.1021C317.729 99.2294 317.644 99.3354 317.559 99.4415C317.453 99.6112 317.368 99.7809 317.241 99.9082C317.156 100.014 317.029 100.078 316.923 100.163C316.795 100.269 316.689 100.396 316.541 100.481L345.771 83.4901C346.81 82.8962 347.447 81.6023 347.447 79.7992C347.447 76.1508 344.88 71.675 341.698 69.8296L341.762 69.8508Z" fill="#F3F3F3"/>
<path style="mix-blend-mode:hard-light" opacity="0.15" d="M341.762 69.8508L305.553 48.9358C304.917 48.5752 304.365 48.5328 303.941 48.7661L274.711 65.7569C274.838 65.672 275.029 65.6721 275.178 65.6721C275.262 65.6721 275.326 65.6084 275.432 65.6084C275.708 65.6296 276.005 65.7357 276.302 65.9054L312.511 86.8204C315.692 88.6658 318.28 93.1415 318.259 96.79C318.259 97.2354 318.217 97.6597 318.132 98.0415C318.111 98.19 318.047 98.2749 318.005 98.4234C317.941 98.6567 317.877 98.89 317.792 99.1021C317.729 99.2294 317.644 99.3354 317.559 99.4415C317.453 99.6112 317.368 99.7809 317.241 99.9082C317.156 100.014 317.029 100.078 316.923 100.163C316.795 100.269 316.689 100.396 316.541 100.481L345.771 83.4901C346.81 82.8962 347.447 81.6023 347.447 79.7992C347.447 76.1508 344.88 71.675 341.698 69.8296L341.762 69.8508Z" fill="url(#paint2_linear_1172_15654)"/>
<path d="M317.607 99.4628C317.671 99.3567 317.777 99.2506 317.841 99.1234C317.925 98.9325 317.989 98.6779 318.053 98.4446C318.095 98.3173 318.138 98.2113 318.18 98.0628C318.265 97.681 318.307 97.2567 318.307 96.8113C318.307 93.1628 315.741 88.6871 312.559 86.8416L276.35 65.9266C276.032 65.7569 275.735 65.6509 275.48 65.6296C275.374 65.6296 275.311 65.6721 275.226 65.6933C275.056 65.6933 274.886 65.6933 274.759 65.7781C274.356 66.0115 274.102 66.5205 274.102 67.2205C274.102 68.6842 275.099 70.4236 276.35 71.1448L277.877 72.0145L278.811 72.566L312.559 92.0598C313.238 92.4628 313.789 93.3961 313.789 94.2022C313.789 94.6052 313.662 94.881 313.429 95.0082C313.365 95.0507 313.259 95.0507 313.174 95.0719C313.132 95.0719 313.089 95.0931 313.047 95.0931C312.898 95.0931 312.729 95.0294 312.559 94.9234L276.35 74.0084C276.032 73.8387 275.735 73.7326 275.48 73.7114C275.395 73.7114 275.311 73.7539 275.226 73.7539C275.056 73.7539 274.886 73.7538 274.759 73.8599C274.356 74.0932 274.102 74.6023 274.102 75.3023C274.102 76.7659 275.099 78.5053 276.35 79.2265L312.559 100.142C314.362 101.181 315.974 101.117 317.035 100.226C317.141 100.142 317.268 100.078 317.353 99.9718C317.48 99.8446 317.565 99.6537 317.671 99.5052L317.607 99.4628Z" fill="#D1D1D1"/>
<path d="M233.148 48.2574L249.694 57.824C281.469 76.1724 320.648 76.1724 352.423 57.824L368.99 48.2574V43.209H233.148V48.2574Z" fill="#666666"/>
<path d="M233.162 43.2085L249.707 52.7751C281.483 71.1235 320.661 71.1235 352.437 52.7751L369.003 43.2085L301.083 3.98755L233.141 43.2085H233.162Z" fill="#A3A3A3"/>
<path style="mix-blend-mode:overlay" opacity="0.3" d="M233.162 43.2085L249.707 52.7751C281.483 71.1235 320.661 71.1235 352.437 52.7751L369.003 43.2085L301.083 3.98755L233.141 43.2085H233.162Z" fill="url(#paint3_linear_1172_15654)"/>
<path d="M233.183 43.1659C233.183 43.1659 235.177 44.269 238.677 46.1993C240.416 47.1538 242.538 48.3205 244.977 49.678C247.416 51.0144 250.131 52.5416 253.165 54.1113C254.671 54.9174 256.24 55.7659 257.937 56.4447C259.613 57.1659 261.31 58.0143 263.134 58.6719C264.959 59.3295 266.825 60.0507 268.777 60.7083C270.728 61.281 272.743 61.8749 274.78 62.4689C276.859 62.9355 278.959 63.4022 281.08 63.8901C283.243 64.2295 285.428 64.5901 287.613 64.9294C289.84 65.1416 292.067 65.3537 294.316 65.5446C296.564 65.6083 298.834 65.6719 301.083 65.7355C303.352 65.6719 305.601 65.6083 307.849 65.5446C310.098 65.3325 312.325 65.1204 314.552 64.9294C316.758 64.5688 318.943 64.2295 321.085 63.8901C323.207 63.4022 325.328 62.9355 327.385 62.4689C329.422 61.8749 331.437 61.281 333.388 60.7083C335.319 60.0507 337.185 59.3295 339.031 58.6719C340.855 58.0143 342.552 57.1446 344.249 56.4234C345.946 55.7234 347.494 54.8749 349 54.0901C352.013 52.5416 354.749 50.9932 357.188 49.6568C359.628 48.3204 361.749 47.1538 363.488 46.1781C366.988 44.2478 368.982 43.1448 368.982 43.1448L369.025 43.2084C369.025 43.2084 367.052 44.3538 363.594 46.3477C361.876 47.3447 359.776 48.5538 357.379 49.9538C354.982 51.3326 352.288 52.9447 349.234 54.5144C347.728 55.3204 346.158 56.1901 344.461 56.9113C342.764 57.6325 341.067 58.5234 339.243 59.2022C337.397 59.881 335.531 60.6234 333.601 61.3022C331.628 61.8962 329.613 62.5113 327.576 63.1264C325.498 63.6143 323.376 64.1022 321.234 64.6113C319.07 64.9719 316.864 65.3325 314.658 65.7143C312.431 65.9476 310.183 66.1597 307.913 66.3931C305.643 66.4779 303.373 66.5415 301.083 66.6264C298.813 66.5415 296.522 66.4779 294.252 66.3931C291.983 66.1597 289.734 65.9476 287.507 65.7143C285.301 65.3537 283.095 64.9719 280.931 64.6113C278.789 64.1234 276.668 63.6143 274.589 63.1477C272.552 62.5325 270.537 61.9173 268.565 61.3234C266.634 60.6446 264.746 59.9022 262.922 59.2234C261.077 58.5446 259.38 57.675 257.683 56.9326C255.986 56.2114 254.416 55.3628 252.91 54.5568C249.877 52.9871 247.183 51.375 244.786 49.9962C242.389 48.5962 240.289 47.3872 238.571 46.3902C235.113 44.3963 233.141 43.2508 233.141 43.2508L233.183 43.1872V43.1659Z" fill="#C9C9C9"/>
<path d="M21.0078 140.602L134.721 75.6367L134.656 71.123L21.04 136.862L21.0078 140.602Z" fill="white"/>
<path d="M21.0234 179.967V140.602L55.134 160.301L43.7531 166.878L32.4044 160.301V173.423L21.0234 180V179.967Z" fill="#808080"/>
<path d="M21.0234 140.602L32.4044 134.025L66.515 153.724L55.1663 160.301L21.0557 140.602H21.0234Z" fill="#B3B3B3"/>
<path d="M32.3828 173.422V160.301L43.7315 166.878L32.3828 173.455V173.422Z" fill="#4D4D4D"/>
<path d="M123.367 121.547V82.1814L157.478 101.88L146.097 108.458L134.748 101.88V115.002L123.399 121.579L123.367 121.547Z" fill="#808080"/>
<path d="M123.367 82.1816L134.716 75.6045L168.826 95.3035L157.478 101.881L123.367 82.1816Z" fill="#B3B3B3"/>
<path d="M134.758 115.002V101.88L146.106 108.457L134.758 115.035V115.002Z" fill="#4D4D4D"/>
<g opacity="0.52">
<path d="M195.672 110.005C195.511 107.781 194.382 105.621 192.158 104.331L134.64 71.123L20.9922 136.733V140.569L79.8958 174.583C85.6347 177.904 92.7276 177.904 98.4665 174.583L192.158 120.483C194.447 119.162 195.607 116.905 195.672 114.616H195.704V109.941H195.64L195.672 110.005Z" fill="#797979"/>
<path d="M21.0078 136.765L79.9115 170.779C85.6503 174.1 92.7432 174.1 98.482 170.779L192.173 116.679C196.913 113.939 196.913 107.071 192.173 104.331L134.656 71.123L21.0078 136.733V136.765Z" fill="#797979" fill-opacity="0.4"/>
</g>
<path style="mix-blend-mode:overlay" opacity="0.2" d="M21.0078 136.765L79.9115 170.779C85.6503 174.1 92.7432 174.1 98.482 170.779L192.173 116.679C196.913 113.939 196.913 107.071 192.173 104.331L134.656 71.123L21.0078 136.733V136.765Z" fill="url(#paint4_linear_1172_15654)"/>
<path d="M21.04 136.862C21.04 136.862 23.9095 138.442 28.9713 141.215C34.0008 144.02 41.2549 147.888 49.8309 152.789C58.407 157.657 68.4337 163.364 79.1376 169.425C84.1672 172.714 90.8088 173.423 96.4187 170.779C101.932 167.781 107.638 164.234 113.313 160.978C136.204 147.985 159.094 134.992 176.246 125.223C180.535 122.773 184.5 120.581 188.014 118.646C189.723 117.647 191.496 116.841 192.85 115.873C194.108 114.874 194.978 113.488 195.268 112.134C195.913 109.361 194.849 107.136 193.85 106.008C193.366 105.427 192.915 105.041 192.592 104.815L192.109 104.46L192.173 104.331C192.173 104.331 192.334 104.46 192.689 104.686C193.012 104.912 193.495 105.266 194.011 105.847C195.043 106.943 196.203 109.232 195.591 112.134C195.301 113.552 194.462 115.035 193.108 116.131C191.69 117.163 190.013 117.969 188.304 119.033C184.822 121.032 180.921 123.289 176.633 125.771C159.546 135.637 136.752 148.823 113.99 162.01C108.251 165.266 102.641 168.651 96.9345 171.746C90.97 174.519 83.8126 173.649 78.6863 170.199C68.0147 164.009 58.0201 158.27 49.4763 153.305C32.3888 143.439 21.0078 136.83 21.0078 136.83L21.0723 136.733L21.04 136.862Z" fill="white"/>
<path d="M21.0078 69.479L134.721 4.51416L134.656 0.0327148L21.04 65.7391L21.0078 69.479Z" fill="white"/>
<path d="M21.0234 108.877V69.5112L55.134 89.2102L43.7531 95.7873L32.4044 89.2102V102.332L21.0234 108.909V108.877Z" fill="#808080"/>
<path d="M21.0234 69.4792L32.4044 62.9343L66.515 82.6334L55.1663 89.2104L21.0557 69.5114L21.0234 69.4792Z" fill="#B3B3B3"/>
<path d="M32.3828 102.3V89.1777L43.7315 95.7548L32.3828 102.332V102.3Z" fill="#4D4D4D"/>
<path d="M123.367 50.4559V11.0901L157.478 30.7891L146.097 37.3662L134.748 30.7891V43.911L123.399 50.4881L123.367 50.4559Z" fill="#808080"/>
<path d="M123.367 11.0903L134.716 4.51318L168.826 24.2122L157.478 30.7893L123.367 11.0903Z" fill="#B3B3B3"/>
<path d="M134.758 43.8785V30.7566L146.106 37.3337L134.758 43.8785Z" fill="#4D4D4D"/>
<g opacity="0.52">
<path d="M195.672 38.8822C195.511 36.6576 194.382 34.4975 192.158 33.2078L134.64 0L20.9922 65.6097V69.4463L79.8958 103.46C85.6347 106.781 92.7276 106.781 98.4665 103.46L192.158 49.3604C194.447 48.0385 195.607 45.7817 195.672 43.4926H195.704V38.8177H195.64L195.672 38.8822Z" fill="#797979"/>
<path d="M21.0078 65.6419L79.9115 99.6558C85.6503 102.977 92.7432 102.977 98.482 99.6558L192.173 45.556C196.913 42.8156 196.913 35.9483 192.173 33.2078L134.656 0L21.0078 65.6097V65.6419Z" fill="#797979" fill-opacity="0.4"/>
</g>
<path style="mix-blend-mode:overlay" opacity="0.2" d="M21.0078 65.6419L79.9115 99.6558C85.6503 102.977 92.7432 102.977 98.482 99.6558L192.173 45.556C196.913 42.8156 196.913 35.9483 192.173 33.2078L134.656 0L21.0078 65.6097V65.6419Z" fill="url(#paint5_linear_1172_15654)"/>
<path d="M21.04 65.7388C21.04 65.7388 23.9095 67.3186 28.9713 70.0913C34.0008 72.8962 41.2549 76.7651 49.8309 81.6656C58.407 86.534 68.4337 92.2406 79.1376 98.3341C84.1672 101.623 90.8088 102.332 96.4187 99.6882C101.932 96.6898 107.638 93.1433 113.313 89.887C136.204 76.894 159.094 63.9011 176.246 54.1322C180.535 51.6819 184.5 49.4895 188.014 47.5551C189.723 46.5556 191.496 45.7496 192.85 44.7824C194.108 43.7829 194.978 42.3966 195.268 41.0425C195.913 38.2698 194.849 36.0451 193.85 34.9167C193.366 34.3364 192.915 33.9495 192.592 33.7561L192.109 33.4014L192.173 33.2725C192.173 33.2725 192.334 33.4014 192.689 33.6271C193.012 33.8528 193.495 34.2074 194.011 34.7878C195.043 35.884 196.203 38.173 195.591 41.0747C195.301 42.4933 194.462 43.9763 193.108 45.0725C191.69 46.1042 190.013 46.9103 188.304 47.9742C184.822 49.9731 180.921 52.23 176.633 54.7125C159.546 64.5781 136.752 77.7645 113.99 90.951C108.251 94.2073 102.641 97.5925 96.9345 100.688C90.97 103.46 83.8126 102.59 78.6863 99.1401C68.0147 92.9499 58.0201 87.211 49.4763 82.246C32.3888 72.3803 21.0078 65.771 21.0078 65.771L21.0723 65.6421L21.04 65.7388Z" fill="white"/>
<defs>
<linearGradient id="paint0_linear_1172_15654" x1="233.162" y1="143.69" x2="369.025" y2="143.69" gradientUnits="userSpaceOnUse">
<stop stop-color="#808080"/>
<stop offset="1" stop-color="white"/>
</linearGradient>
<linearGradient id="paint1_linear_1172_15654" x1="233.162" y1="89.9173" x2="369.025" y2="89.9173" gradientUnits="userSpaceOnUse">
<stop stop-color="#808080"/>
<stop offset="1" stop-color="white"/>
</linearGradient>
<linearGradient id="paint2_linear_1172_15654" x1="324.708" y1="96.0052" x2="299.805" y2="51.0782" gradientUnits="userSpaceOnUse">
<stop stop-color="#E0E0E0"/>
<stop offset="0.04" stop-color="#C2C2C2"/>
<stop offset="0.13" stop-color="#757575"/>
<stop offset="0.26"/>
<stop offset="0.55" stop-color="#292929"/>
<stop offset="1" stop-color="#707070"/>
</linearGradient>
<linearGradient id="paint3_linear_1172_15654" x1="233.162" y1="35.254" x2="369.025" y2="35.254" gradientUnits="userSpaceOnUse">
<stop stop-color="#808080"/>
<stop offset="1" stop-color="white"/>
</linearGradient>
<linearGradient id="paint4_linear_1172_15654" x1="21.0078" y1="122.192" x2="195.72" y2="122.192" gradientUnits="userSpaceOnUse">
<stop stop-color="#8E8E8E"/>
<stop offset="0.16" stop-color="white"/>
<stop offset="0.4" stop-color="#B5B4B4"/>
<stop offset="0.45" stop-color="#8D8C8C"/>
<stop offset="0.5" stop-color="#6C6C6C"/>
<stop offset="0.55" stop-color="#535353"/>
<stop offset="0.6" stop-color="#414141"/>
<stop offset="0.65" stop-color="#363636"/>
<stop offset="0.71" stop-color="#333333"/>
<stop offset="0.76" stop-color="#373939"/>
<stop offset="0.82" stop-color="#444A4A"/>
<stop offset="0.89" stop-color="#596666"/>
<stop offset="0.97" stop-color="#758C8D"/>
<stop offset="1" stop-color="#84A0A1"/>
</linearGradient>
<linearGradient id="paint5_linear_1172_15654" x1="21.0078" y1="51.0692" x2="195.72" y2="51.0692" gradientUnits="userSpaceOnUse">
<stop stop-color="#8E8E8E"/>
<stop offset="0.16" stop-color="white"/>
<stop offset="0.4" stop-color="#B5B4B4"/>
<stop offset="0.45" stop-color="#8D8C8C"/>
<stop offset="0.5" stop-color="#6C6C6C"/>
<stop offset="0.55" stop-color="#535353"/>
<stop offset="0.6" stop-color="#414141"/>
<stop offset="0.65" stop-color="#363636"/>
<stop offset="0.71" stop-color="#333333"/>
<stop offset="0.76" stop-color="#373939"/>
<stop offset="0.82" stop-color="#444A4A"/>
<stop offset="0.89" stop-color="#596666"/>
<stop offset="0.97" stop-color="#758C8D"/>
<stop offset="1" stop-color="#84A0A1"/>
</linearGradient>
</defs>
</svg>
