<svg width="1360" height="162" viewBox="0 0 1360 162" fill="none" xmlns="http://www.w3.org/2000/svg">
<path opacity="0.2" fill-rule="evenodd" clip-rule="evenodd" d="M30.0906 72.6795L68.7298 0.235169H97.6709C100.22 0.235169 101.22 2.35207 99.8705 4.93936L64.9809 71.2094C63.6313 73.7967 63.781 77.9129 65.3305 80.3826L113.617 157.59C115.116 160.06 114.266 162 111.717 162H78.3266L30.0406 85.8512V72.7383L30.0906 72.6795ZM664.954 161.941C667.503 161.941 669.603 159.472 669.603 156.414V5.58619C669.603 2.58728 667.503 0.117629 664.954 0.117629H641.861L576.53 97.494V0.117629H550.888C548.289 0.117629 546.239 2.58728 546.239 5.58619V156.414C546.239 159.472 548.339 161.941 550.888 161.941H571.682C594.225 127.307 616.818 91.4374 639.362 56.8029V161.941H665.004H664.954ZM524.295 5.76259C524.295 2.76368 522.146 0.235169 519.647 0.235169H494.005L493.804 64.4472H433.222L433.422 0.235169H407.78C405.231 0.235169 403.131 2.76368 403.131 5.76259L402.931 156.473C402.931 159.53 405.031 162 407.58 162H433.222V96.0827H493.804V162H519.447C521.946 162 524.096 159.53 524.096 156.473L524.295 5.76259ZM942.272 0.235169C944.872 0.235169 946.921 2.70487 946.921 5.76259V29.1659H902.785V162H877.142C874.543 162 872.443 159.53 872.443 156.473V29.1659H828.356V5.76259C828.356 2.70487 830.455 0.235169 833.005 0.235169H942.223H942.272ZM968.665 156.473C968.665 159.53 970.765 162 973.314 162H998.956V96.7296H1023.1C1059.29 96.7296 1076.03 45.7481 1052.29 14.5829C1045.04 4.99816 1035.25 0.235169 1022.9 0.235169H968.665V156.473ZM1266.83 97.5528L1329.36 4.35139L1332.21 0H1355.35C1357.95 0 1360 2.46965 1360 5.46856L1359.7 156.414C1359.7 159.472 1357.6 161.941 1355.05 161.941H1329.36L1329.66 56.9205L1261.73 161.941H1240.93C1238.34 161.941 1236.29 159.472 1236.29 156.414L1236.59 5.46856C1236.59 2.46965 1238.69 0 1241.23 0H1266.88V97.5528H1266.83ZM339.7 73.2675C338.3 75.6784 338.3 79.4417 339.7 81.8526L387.136 157.531C388.636 160.001 387.836 161.941 385.237 161.941H350.546C340.449 145.594 330.403 129.247 320.306 112.959V112.841H320.256C318.756 110.489 316.357 110.548 314.907 112.959L285.216 161.941H251.126C248.527 161.941 247.677 159.942 249.177 157.472C264.522 132.364 279.918 107.138 295.313 82.029C296.863 79.5593 296.813 75.5607 295.313 73.0911L252.176 4.64533C250.626 2.17564 251.476 0.176399 254.025 0.176399H288.765C297.412 14.3477 306.26 28.4015 315.057 42.4552C316.556 44.6309 318.906 44.572 320.356 42.1611L345.948 0.176399H380.088C382.637 0.176399 383.537 2.17564 381.987 4.64533C367.991 27.6958 353.896 50.0994 339.9 73.2087M161.402 161.941H191.694V92.0842C191.694 89.2029 192.693 85.1455 193.943 82.5582L237.13 4.93936V4.82182C238.53 2.23453 237.58 0.176399 235.03 0.176399H203.09C194.392 17.0526 185.395 33.87 176.548 50.6874L150.205 0.176399H118.065C115.516 0.176399 114.516 2.23453 115.966 4.82182L158.903 82.3818C160.252 84.9103 161.402 89.3205 161.452 92.437V161.941H161.402ZM30.2908 156.414V0.176399H4.64829C2.09904 0.176399 0 2.70491 0 5.70382V156.414C0 159.472 2.09904 161.941 4.64829 161.941H30.2908V156.414ZM807.063 110.254V140.008C807.063 143.066 804.963 147.299 802.664 148.475C802.664 148.475 785.119 161.471 759.276 161.588C737.583 161.765 720.388 153.591 707.542 137.656C694.745 121.721 688.347 104.609 688.347 81.147C688.347 57.6849 695.095 40.9263 708.591 24.5793C722.087 8.29106 739.782 0.0587699 761.576 0.0587699C777.971 0.0587699 792.017 4.11617 803.514 12.7013C805.563 14.2301 805.713 16.9938 805.713 16.9938V44.9249C805.713 47.9826 803.814 49.3938 801.514 48.0414C801.514 48.0414 784.169 33.9876 763.825 33.9876C750.829 33.9876 740.232 38.633 732.035 47.9237C723.787 57.2145 719.688 66.0937 719.688 80.5002C719.688 94.9067 723.737 104.433 731.884 113.841C739.982 123.249 750.379 127.953 763.075 127.953C769.373 127.953 775.372 126.836 781.22 124.661C787.068 122.485 795.716 117.663 807.213 110.195M1147.91 128.13C1159.41 128.13 1168.66 123.602 1175.65 114.429C1182.7 105.256 1186.2 95.6123 1186.2 80.7354C1186.2 65.8584 1182.7 56.8617 1175.65 47.7473C1168.66 38.633 1159.36 34.1053 1147.91 34.1053C1136.47 34.1053 1127.02 38.633 1119.97 47.7473C1112.92 56.8617 1109.37 65.7996 1109.37 80.7354C1109.37 95.6711 1112.92 105.256 1119.97 114.429C1127.07 123.543 1136.37 128.13 1147.91 128.13ZM1147.91 0.117629C1168.66 0.117629 1185.4 8.52633 1198.25 25.285C1211.09 42.0436 1217.49 58.4494 1217.49 80.6766C1217.49 102.904 1210.99 120.368 1198 136.891C1184.95 153.474 1168.26 161.706 1147.91 161.706C1127.57 161.706 1110.47 153.474 1097.53 137.009C1084.58 120.544 1078.08 103.315 1078.08 80.6178C1078.08 57.9202 1084.48 41.8671 1097.38 25.1673C1110.27 8.4087 1127.12 0.0587699 1147.91 0.0587699M999.356 28.9894H1013.3L1013.65 29.1071H1014.65L1015 29.2247H1016L1016.3 29.3423H1016.95L1017.25 29.4599H1017.85L1018.15 29.5775H1018.45L1018.75 29.6951H1019.05L1019.35 29.8127H1019.6L1019.9 29.9303H1020.15L1020.4 30.0479H1020.65L1020.9 30.1655H1021.15L1021.4 30.3419H1021.65L1021.9 30.4595H1022.15C1034.5 34.5168 1035.9 57.2733 1024.85 64.1532L1024.45 64.3884L1024.05 64.6236L1023.65 64.8C1016.25 68.2693 1006.5 66.858 999.206 66.858V29.0483L999.356 28.9894Z" fill="#303030" fill-opacity="0.17"/>
</svg>
