<svg width="33" height="32" viewBox="0 0 33 32" fill="none" xmlns="http://www.w3.org/2000/svg">
<path d="M23.6807 12.36C21.974 5.33329 17.5073 2.85329 17.3207 2.74663C17.2222 2.6941 17.1123 2.66663 17.0007 2.66663C16.889 2.66663 16.7791 2.6941 16.6807 2.74663C16.454 2.87996 11.974 5.41329 10.294 12.3866C8.68065 13.7066 4.33398 17.5466 4.33398 20.6666C4.33398 20.8434 4.40422 21.013 4.52925 21.138C4.65427 21.2631 4.82384 21.3333 5.00065 21.3333H9.66732V23.3333C9.66732 23.5101 9.73756 23.6797 9.86258 23.8047C9.9876 23.9297 10.1572 24 10.334 24H23.6673C23.8441 24 24.0137 23.9297 24.1387 23.8047C24.2637 23.6797 24.334 23.5101 24.334 23.3333V21.3333H29.0007C29.1775 21.3333 29.347 21.2631 29.4721 21.138C29.5971 21.013 29.6673 20.8434 29.6673 20.6666C29.6673 17.5333 25.2807 13.68 23.6807 12.36ZM18.334 20H15.6673C15.4905 20 15.3209 19.9297 15.1959 19.8047C15.0709 19.6797 15.0007 19.5101 15.0007 19.3333C15.0007 19.1565 15.0709 18.9869 15.1959 18.8619C15.3209 18.7369 15.4905 18.6666 15.6673 18.6666H18.334C18.5108 18.6666 18.6804 18.7369 18.8054 18.8619C18.9304 18.9869 19.0007 19.1565 19.0007 19.3333C19.0007 19.5101 18.9304 19.6797 18.8054 19.8047C18.6804 19.9297 18.5108 20 18.334 20ZM17.0007 17.3333C16.3414 17.3333 15.6969 17.1378 15.1488 16.7715C14.6006 16.4053 14.1733 15.8847 13.9211 15.2756C13.6688 14.6665 13.6027 13.9963 13.7314 13.3497C13.86 12.7031 14.1775 12.1091 14.6436 11.6429C15.1098 11.1768 15.7037 10.8593 16.3503 10.7307C16.997 10.6021 17.6672 10.6681 18.2763 10.9204C18.8854 11.1727 19.4059 11.5999 19.7722 12.1481C20.1385 12.6962 20.334 13.3407 20.334 14C20.334 14.884 19.9828 15.7319 19.3577 16.357C18.7326 16.9821 17.8847 17.3333 17.0007 17.3333ZM22.334 25.3333C22.1572 25.3333 21.9876 25.4035 21.8626 25.5286C21.7376 25.6536 21.6673 25.8231 21.6673 26V27.3333C21.6673 27.5101 21.7376 27.6797 21.8626 27.8047C21.9876 27.9297 22.1572 28 22.334 28C22.5108 28 22.6804 27.9297 22.8054 27.8047C22.9304 27.6797 23.0007 27.5101 23.0007 27.3333V26C23.0007 25.8231 22.9304 25.6536 22.8054 25.5286C22.6804 25.4035 22.5108 25.3333 22.334 25.3333ZM11.6673 25.3333C11.4905 25.3333 11.3209 25.4035 11.1959 25.5286C11.0709 25.6536 11.0007 25.8231 11.0007 26V27.3333C11.0007 27.5101 11.0709 27.6797 11.1959 27.8047C11.3209 27.9297 11.4905 28 11.6673 28C11.8441 28 12.0137 27.9297 12.1387 27.8047C12.2637 27.6797 12.334 27.5101 12.334 27.3333V26C12.334 25.8231 12.2637 25.6536 12.1387 25.5286C12.0137 25.4035 11.8441 25.3333 11.6673 25.3333ZM16.5607 29.16C16.6795 29.2725 16.837 29.3352 17.0007 29.3352C17.1643 29.3352 17.3218 29.2725 17.4407 29.16C18.57 28.0977 19.4372 26.7878 19.974 25.3333H14.0273C14.5641 26.7878 15.4314 28.0977 16.5607 29.16Z" fill="#C82325"/>
</svg>
