<svg width="381" height="156" viewBox="0 0 381 156" fill="none" xmlns="http://www.w3.org/2000/svg">
<path d="M62.1161 114.463L42.0662 123.585C41.6553 123.77 41.1648 123.591 40.9792 123.173L5.47934 44.9841C5.29375 44.5728 5.47271 44.0819 5.89028 43.8962L25.9402 34.7743C26.3511 34.5886 26.8416 34.7677 27.0272 35.1856L62.5271 113.375C62.7126 113.786 62.5337 114.27 62.1161 114.463Z" fill="white"/>
<path d="M41.7316 123.823C41.6123 123.823 41.4996 123.803 41.3869 123.757C41.1417 123.664 40.9428 123.478 40.8368 123.24L5.3369 45.0571C5.22423 44.8182 5.2176 44.5462 5.31039 44.3008C5.40318 44.0553 5.58877 43.8563 5.82738 43.7502L25.8773 34.6283C26.3744 34.4028 26.9576 34.6217 27.183 35.1192L62.6829 113.308C62.7956 113.547 62.8022 113.819 62.7094 114.065C62.6166 114.31 62.431 114.509 62.1924 114.615L42.1425 123.737C42.01 123.79 41.8708 123.823 41.7316 123.823ZM26.2816 34.8738C26.1888 34.8738 26.096 34.8937 26.0098 34.9335L5.95994 44.0487C5.80087 44.1217 5.68156 44.2543 5.61528 44.4136C5.55563 44.5794 5.56226 44.7585 5.63516 44.9178L41.1351 123.107C41.208 123.266 41.3339 123.385 41.4996 123.452C41.6653 123.511 41.8443 123.505 42.0033 123.432L62.0532 114.31C62.3846 114.157 62.5304 113.773 62.378 113.441L26.8781 35.2586C26.7721 35.0131 26.5334 34.8738 26.2816 34.8738Z" fill="#565656"/>
<path d="M93.4348 121.004L71.6219 124.049C71.1712 124.108 70.7603 123.797 70.694 123.345L55.4097 13.6181C55.35 13.167 55.6615 12.7557 56.1122 12.6893L77.9252 9.64429C78.3759 9.58458 78.7868 9.89638 78.8531 10.3475L94.1374 120.075C94.1971 120.526 93.8856 120.937 93.4348 121.004Z" fill="#BCBCBC"/>
<path d="M71.5079 124.221C71.0241 124.221 70.5999 123.863 70.5336 123.372L55.2427 13.638C55.2095 13.3793 55.2758 13.1139 55.4349 12.9083C55.594 12.696 55.826 12.5633 56.0845 12.5235L77.8974 9.47846C78.1559 9.43866 78.4144 9.51163 78.6265 9.67085C78.8386 9.83007 78.9711 10.0623 79.0109 10.321L94.2952 120.048C94.3284 120.307 94.2621 120.572 94.103 120.778C93.9439 120.99 93.712 121.123 93.4535 121.163L71.6405 124.208C71.6007 124.215 71.5543 124.221 71.5079 124.221ZM78.0366 9.80353C78.0034 9.80353 77.9769 9.80353 77.9438 9.81016L56.1309 12.8552C55.9585 12.8817 55.8061 12.968 55.7 13.1073C55.594 13.2466 55.5476 13.4191 55.5741 13.5916L70.8584 123.319C70.9048 123.677 71.2362 123.929 71.6007 123.876L93.4137 120.831C93.586 120.805 93.7385 120.718 93.8445 120.579C93.9506 120.44 93.997 120.267 93.9705 120.095L78.6861 10.3674C78.6596 10.1949 78.5735 10.0424 78.4343 9.93621C78.315 9.84997 78.1758 9.80353 78.0366 9.80353Z" fill="#565656"/>
<path d="M92.6971 124.288L71.5138 118.251C71.0763 118.125 70.8245 117.674 70.9504 117.236L104.084 0.761399C104.21 0.323551 104.661 0.0714563 105.098 0.197504L126.281 6.2345C126.719 6.36055 126.971 6.81167 126.845 7.24951L93.7112 123.724C93.5852 124.162 93.1345 124.414 92.6971 124.288Z" fill="white"/>
<path d="M92.9204 124.487C92.8276 124.487 92.7414 124.473 92.6486 124.447L71.4654 118.41C70.9417 118.257 70.6368 117.713 70.7893 117.189L103.923 0.714859C103.996 0.462765 104.162 0.250475 104.394 0.124427C104.626 -0.00161971 104.891 -0.03479 105.143 0.0381847L126.326 6.07518C126.849 6.22113 127.154 6.77176 127.002 7.29585L93.8682 123.77C93.7953 124.022 93.6296 124.234 93.3976 124.361C93.2518 124.44 93.0861 124.487 92.9204 124.487ZM92.7414 124.128C92.9138 124.175 93.0861 124.155 93.2385 124.069C93.391 123.982 93.5037 123.843 93.5501 123.677L126.684 7.20297C126.73 7.03712 126.71 6.858 126.624 6.70542C126.538 6.55283 126.399 6.44006 126.233 6.39362L105.05 0.35662C104.884 0.310181 104.705 0.330083 104.553 0.416326C104.4 0.502569 104.288 0.641884 104.241 0.807736L71.1074 117.282C71.008 117.627 71.2135 117.992 71.5581 118.091L92.7414 124.128Z" fill="#565656"/>
<path d="M88.0461 105.825L77.1562 114.542C76.8049 114.827 76.2879 114.768 76.0029 114.416L22.4151 47.3124C22.1301 46.9608 22.1897 46.4433 22.541 46.158L33.4309 37.4409C33.7822 37.1556 34.2992 37.2153 34.5842 37.5669L88.1721 104.664C88.4571 105.022 88.404 105.54 88.0461 105.825Z" fill="#BCBCBC"/>
<path d="M76.6484 114.88C76.6086 114.88 76.5755 114.88 76.5357 114.874C76.2772 114.847 76.0386 114.714 75.8729 114.509L22.2916 47.4185C22.1259 47.2128 22.053 46.9541 22.0795 46.6954C22.106 46.43 22.2386 46.1978 22.4441 46.032L33.334 37.3148C33.7582 36.9765 34.3812 37.0428 34.7192 37.4674L88.3071 104.564C88.6451 104.989 88.5789 105.612 88.1547 105.951L77.2648 114.668C77.0858 114.807 76.8737 114.88 76.6484 114.88ZM33.9504 37.4276C33.8046 37.4276 33.6654 37.474 33.5395 37.5735L22.6495 46.2907C22.5104 46.3968 22.4242 46.556 22.4043 46.7285C22.3844 46.901 22.4375 47.0735 22.5435 47.2128L76.1314 114.31C76.244 114.449 76.3965 114.535 76.5688 114.555C76.7411 114.575 76.9135 114.522 77.0527 114.416L87.9426 105.699C88.2276 105.473 88.274 105.062 88.0486 104.777L34.4608 37.6797C34.3348 37.5138 34.1426 37.4276 33.9504 37.4276Z" fill="#565656"/>
<path d="M50.9281 120.101L37.44 116.559C37.0026 116.446 36.7374 115.995 36.8567 115.557L58.6564 32.4721C58.7691 32.0342 59.2198 31.7688 59.6573 31.8883L73.1454 35.4309C73.5828 35.5436 73.8479 35.9947 73.7286 36.4326L51.929 119.511C51.8163 119.949 51.3656 120.214 50.9281 120.101Z" fill="white"/>
<path d="M51.1437 120.294C51.0575 120.294 50.978 120.281 50.8918 120.261L37.4037 116.718C37.1518 116.652 36.9331 116.486 36.8005 116.26C36.668 116.035 36.6348 115.769 36.7011 115.511L58.5008 32.4256C58.5671 32.1735 58.7328 31.9546 58.9581 31.8219C59.1835 31.6892 59.4486 31.6494 59.7071 31.7224L73.1952 35.265C73.7188 35.4043 74.037 35.9417 73.8978 36.4724L52.0981 119.557C52.0318 119.81 51.8661 120.028 51.6408 120.161C51.4883 120.247 51.316 120.294 51.1437 120.294ZM59.4552 32.0209C59.3426 32.0209 59.2299 32.0541 59.1238 32.1138C58.9714 32.2001 58.8653 32.346 58.8189 32.5119L37.0193 115.59C36.9729 115.763 36.9994 115.935 37.0855 116.088C37.1717 116.24 37.3175 116.347 37.4832 116.393L50.9713 119.936C51.137 119.982 51.316 119.955 51.4684 119.869C51.6209 119.783 51.7269 119.637 51.7733 119.471L73.573 36.3861C73.6658 36.0345 73.4537 35.6763 73.1091 35.5834L59.6209 32.0408C59.5679 32.0276 59.5083 32.0209 59.4552 32.0209Z" fill="#565656"/>
<path d="M100.736 71.5933H17.2227V155.182H100.736V71.5933Z" fill="#BCBCBC"/>
<path d="M100.734 155.355H17.2204C17.1276 155.355 17.0547 155.282 17.0547 155.189V71.5999C17.0547 71.5071 17.1276 71.4341 17.2204 71.4341H100.734C100.827 71.4341 100.9 71.5071 100.9 71.5999V155.189C100.9 155.275 100.827 155.355 100.734 155.355ZM17.3861 155.023H100.568V71.7658H17.3861V155.023Z" fill="#565656"/>
<path d="M121.6 71.5933H38.0859V155.182H121.6V71.5933Z" fill="white"/>
<path d="M121.597 155.355H38.0837C37.9909 155.355 37.918 155.282 37.918 155.189V71.5999C37.918 71.5071 37.9909 71.4341 38.0837 71.4341H121.597C121.69 71.4341 121.763 71.5071 121.763 71.5999V155.189C121.763 155.275 121.69 155.355 121.597 155.355ZM38.2494 155.023H121.432V71.7658H38.2494V155.023Z" fill="#565656"/>
<path d="M121.6 71.5933L139.296 89.3129H55.7829L38.0859 71.5933H121.6Z" fill="white"/>
<path d="M139.294 89.4787H55.7809C55.7345 89.4787 55.6947 89.4588 55.6615 89.4323L37.9646 71.7193C37.9182 71.6729 37.905 71.5999 37.9315 71.5402C37.958 71.4805 38.0176 71.4407 38.0839 71.4407H121.598C121.644 71.4407 121.684 71.4606 121.717 71.4871L139.414 89.2001C139.46 89.2465 139.473 89.3195 139.447 89.3792C139.427 89.4323 139.367 89.4787 139.294 89.4787ZM55.8471 89.147H138.897L121.531 71.7657H38.4816L55.8471 89.147Z" fill="#565656"/>
<path d="M38.0871 71.5932L21.0331 88.6626H0.167969L17.2227 71.5933L38.0871 71.5932Z" fill="#BCBCBC"/>
<path d="M21.0311 88.8285H0.165958C0.0996772 88.8285 0.0400247 88.7887 0.0135124 88.729C-0.0129998 88.6693 0.000256322 88.5963 0.0466527 88.5499L17.1007 71.4804C17.1338 71.4472 17.174 71.4341 17.2204 71.4341L38.0851 71.434C38.1514 71.434 38.211 71.4738 38.2375 71.5335C38.264 71.5932 38.2508 71.6662 38.2044 71.7126L21.1438 88.7821C21.1173 88.8086 21.0709 88.8285 21.0311 88.8285ZM0.563641 88.4968H20.9582L37.6808 71.759H17.2862L0.563641 88.4968Z" fill="#565656"/>
<path d="M374.134 18.4541H379.006C379.457 18.4541 379.828 18.819 379.828 19.2767V136.706H373.312V19.2767C373.319 18.819 373.684 18.4541 374.134 18.4541Z" fill="white"/>
<path d="M379.837 136.872H373.322C373.229 136.872 373.156 136.799 373.156 136.706V19.2768C373.156 18.7328 373.6 18.2883 374.144 18.2883H379.015C379.559 18.2883 380.003 18.7328 380.003 19.2768V136.706C380.003 136.799 379.923 136.872 379.837 136.872ZM373.488 136.541H379.672V19.2768C379.672 18.9186 379.38 18.62 379.015 18.62H374.144C373.786 18.62 373.488 18.9119 373.488 19.2768V136.541Z" fill="#565656"/>
<path d="M131.119 18.4541H135.99C136.441 18.4541 136.812 18.819 136.812 19.2767V136.706H130.297V19.2767C130.297 18.819 130.661 18.4541 131.119 18.4541Z" fill="white"/>
<path d="M136.81 136.872H130.295C130.202 136.872 130.129 136.799 130.129 136.706V19.2768C130.129 18.7328 130.573 18.2883 131.116 18.2883H135.988C136.532 18.2883 136.976 18.7328 136.976 19.2768V136.706C136.976 136.799 136.903 136.872 136.81 136.872ZM130.46 136.541H136.644V19.2768C136.644 18.9186 136.353 18.62 135.988 18.62H131.116C130.759 18.62 130.46 18.9119 130.46 19.2768V136.541Z" fill="#565656"/>
<path d="M130.292 155.831H379.613V136.705H130.292V155.831Z" fill="#BCBCBC"/>
<path d="M379.616 155.998H130.295C130.202 155.998 130.129 155.925 130.129 155.832V136.706C130.129 136.613 130.202 136.541 130.295 136.541H379.616C379.709 136.541 379.781 136.613 379.781 136.706V155.832C379.781 155.925 379.709 155.998 379.616 155.998ZM130.46 155.667H379.45V136.872H130.46V155.667Z" fill="#565656"/>
<path d="M373.318 131.048H303.094V136.713H373.318V131.048Z" fill="white"/>
<path d="M373.322 136.879H303.091C302.999 136.879 302.926 136.806 302.926 136.713V131.048C302.926 130.955 302.999 130.882 303.091 130.882H373.316C373.409 130.882 373.481 130.955 373.481 131.048V136.713C373.488 136.806 373.409 136.879 373.322 136.879ZM303.257 136.547H373.15V131.214H303.257V136.547Z" fill="#565656"/>
<path d="M363.511 136.879H293.287C293.194 136.879 293.121 136.806 293.121 136.713V133.88C293.121 133.787 293.194 133.715 293.287 133.715H363.511C363.604 133.715 363.677 133.787 363.677 133.88V136.713C363.677 136.806 363.604 136.879 363.511 136.879ZM293.453 136.547H363.345V134.046H293.453V136.547Z" fill="#565656"/>
<path d="M330.975 129.555C330.763 128.487 317.526 126.709 316.32 124.361L305.205 61.3701C299.624 61.9871 295.362 62.0733 289.781 62.7964L309.122 124.719C309.274 125.648 309.308 126.45 309.162 127.001C308.453 129.628 309.447 131.054 309.447 131.054H330.332C330.338 131.048 331.187 130.623 330.975 129.555Z" fill="white"/>
<path d="M330.341 131.214H309.456C309.403 131.214 309.35 131.187 309.317 131.141C309.277 131.081 308.29 129.621 309.012 126.948C309.145 126.47 309.125 125.721 308.966 124.739L289.632 62.843C289.618 62.7966 289.625 62.7435 289.652 62.7037C289.678 62.6639 289.724 62.6373 289.771 62.6307C292.866 62.2327 295.497 62.027 298.281 61.8147C300.455 61.6489 302.709 61.4764 305.194 61.1977C305.274 61.1845 305.36 61.2508 305.373 61.3371L316.489 124.308C317.204 125.608 322.209 126.829 325.867 127.717C329.625 128.633 331.05 129.024 331.15 129.522C331.382 130.696 330.434 131.194 330.421 131.194C330.388 131.214 330.368 131.214 330.341 131.214ZM309.542 130.882H330.295C330.434 130.796 330.977 130.411 330.818 129.588C330.686 129.237 327.968 128.573 325.781 128.043C321.625 127.034 316.919 125.886 316.177 124.44C316.17 124.427 316.164 124.407 316.164 124.394L305.075 61.556C302.643 61.8213 300.435 61.9938 298.301 62.153C295.577 62.3587 293.005 62.5577 290.003 62.9425L309.284 124.672C309.456 125.727 309.469 126.517 309.33 127.047C308.734 129.23 309.37 130.57 309.542 130.882Z" fill="#565656"/>
<path d="M303.915 37.3481L283.766 50.4836L290.984 74.0345C295.59 76.6881 305.274 75.0628 311.842 70.9563L303.915 37.3481Z" fill="#303030"/>
<path d="M297.024 75.5007C294.599 75.5007 292.458 75.0761 290.907 74.1871C290.874 74.1672 290.84 74.134 290.834 74.0942L283.616 50.5433C283.596 50.4703 283.623 50.3974 283.682 50.3576L303.831 37.2221C303.878 37.1956 303.931 37.1889 303.984 37.2088C304.037 37.2287 304.07 37.2752 304.083 37.3216L312.017 70.9364C312.03 71.0028 312.004 71.0757 311.944 71.1155C307.424 73.9218 301.704 75.5007 297.024 75.5007ZM291.132 73.9284C295.58 76.4361 304.932 75.0495 311.666 70.8833L303.812 37.6135L283.967 50.5566L291.132 73.9284Z" fill="#565656"/>
<path d="M312.816 128.195C314.42 128.898 319.603 128.281 319.643 129.356C319.676 130.172 318.927 130.67 317.661 130.603C316.389 130.537 314.917 130.537 314.917 130.537L312.816 128.195Z" fill="white"/>
<path d="M317.889 130.776C317.816 130.776 317.737 130.776 317.657 130.769C316.404 130.703 314.939 130.703 314.926 130.703C314.833 130.703 314.76 130.63 314.76 130.537C314.76 130.444 314.833 130.371 314.926 130.371C314.939 130.371 316.418 130.371 317.677 130.437C318.386 130.477 318.93 130.331 319.234 130.033C319.413 129.854 319.5 129.628 319.486 129.363C319.466 128.911 317.597 128.832 316.232 128.779C314.88 128.726 313.488 128.666 312.759 128.348C312.673 128.308 312.64 128.215 312.673 128.129C312.712 128.042 312.805 128.009 312.891 128.042C313.561 128.334 314.926 128.394 316.245 128.447C318.227 128.527 319.791 128.593 319.818 129.349C319.831 129.708 319.712 130.026 319.466 130.271C319.128 130.603 318.585 130.776 317.889 130.776Z" fill="#565656"/>
<path d="M258.258 128.335L268.472 128.268L268.399 115.511L261.645 114.595L258.258 128.335Z" fill="white"/>
<path d="M258.25 128.5C258.197 128.5 258.151 128.474 258.117 128.434C258.084 128.394 258.078 128.341 258.084 128.295L261.478 114.556C261.498 114.476 261.577 114.416 261.663 114.43L268.417 115.345C268.497 115.358 268.563 115.425 268.563 115.511L268.643 128.268C268.643 128.361 268.57 128.434 268.477 128.434L258.25 128.5C258.257 128.5 258.257 128.5 258.25 128.5ZM261.77 114.781L258.469 128.169L268.311 128.102L268.232 115.657L261.77 114.781Z" fill="#565656"/>
<path d="M267.374 126.908C268.196 126.616 269.104 126.762 269.787 127.306C271.934 129.011 275.228 130.265 277.283 131.114C279.709 132.116 282.89 132.66 284.203 133.808C285.449 134.889 284.647 136.946 282.996 136.926L259.573 136.621C258.559 136.607 257.372 135.751 257.432 134.736V127.174C257.485 126.623 258.062 126.291 258.565 126.517C261.515 127.85 264.239 128.029 267.374 126.908Z" fill="#565656"/>
<path d="M270.066 131.506C270.033 131.506 269.993 131.492 269.96 131.472C269.887 131.413 269.88 131.313 269.933 131.24C270.596 130.411 271.265 129.588 271.942 128.766C272.001 128.693 272.107 128.686 272.174 128.746C272.246 128.806 272.253 128.912 272.193 128.978C271.517 129.794 270.848 130.617 270.192 131.446C270.159 131.486 270.112 131.506 270.066 131.506Z" fill="white"/>
<path d="M273.272 132.468C273.233 132.468 273.193 132.454 273.16 132.421C273.093 132.361 273.087 132.255 273.146 132.189C273.875 131.393 274.399 130.763 274.843 130.139C274.896 130.066 275.002 130.046 275.075 130.099C275.148 130.152 275.168 130.259 275.115 130.331C274.664 130.962 274.134 131.599 273.398 132.408C273.358 132.448 273.312 132.468 273.272 132.468Z" fill="white"/>
<path d="M276.073 132.998C276.02 132.998 275.967 132.972 275.94 132.925C275.887 132.852 275.907 132.746 275.98 132.693C276.384 132.408 276.802 131.95 277.173 131.545C277.279 131.433 277.378 131.327 277.471 131.22C277.531 131.154 277.637 131.147 277.703 131.214C277.769 131.273 277.769 131.38 277.71 131.446C277.617 131.545 277.518 131.652 277.412 131.764C277.034 132.182 276.603 132.653 276.165 132.959C276.139 132.985 276.106 132.998 276.073 132.998Z" fill="white"/>
<path d="M242.008 55.0344C242.008 55.0344 285.136 60.6004 293.706 70.4719C302.277 80.3434 272.132 126.059 272.132 126.059C267.148 128.036 258.028 123.425 257.299 121.912C256.569 120.4 273.292 87.3423 273.292 87.3423L231.383 80.3367L242.008 55.0344Z" fill="white"/>
<path d="M269.303 126.696C264.286 126.696 257.817 123.359 257.147 121.979C256.418 120.46 270.907 91.6811 273.042 87.4619L231.351 80.5027C231.298 80.4961 231.258 80.4629 231.232 80.4165C231.205 80.3701 231.205 80.317 231.225 80.2706L241.85 54.9682C241.876 54.9019 241.956 54.8555 242.022 54.8687C242.128 54.882 252.945 56.2884 264.67 58.889C280.438 62.3785 290.248 66.2395 293.821 70.3593C297.426 74.5056 294.881 85.1665 286.271 102.037C279.875 114.562 272.339 126.032 272.266 126.145C272.246 126.172 272.22 126.198 272.187 126.205C271.338 126.55 270.357 126.696 269.303 126.696ZM231.616 80.2042L273.32 87.17C273.373 87.1766 273.419 87.2098 273.439 87.2562C273.466 87.3027 273.466 87.3557 273.439 87.4088C266.752 100.624 256.975 120.692 257.446 121.833C258.102 123.2 266.977 127.87 272.021 125.92C273.101 124.268 301.854 80.1113 293.575 70.5782C289.181 65.5164 275.395 61.6023 264.604 59.214C253.575 56.7727 243.341 55.3796 242.102 55.2137L231.616 80.2042Z" fill="#565656"/>
<path d="M264.918 125.581C264.891 125.581 264.871 125.575 264.852 125.568C264.772 125.528 264.732 125.429 264.772 125.349L285.2 80.8742L245.02 72.2698C244.934 72.2499 244.875 72.1637 244.894 72.0708C244.914 71.9846 244.994 71.9249 245.093 71.9448L285.471 80.589C285.518 80.6022 285.564 80.6354 285.584 80.6752C285.604 80.7216 285.611 80.7747 285.584 80.8211L265.07 125.482C265.044 125.548 264.984 125.581 264.918 125.581Z" fill="#565656"/>
<path d="M152.753 113.056L149.969 122.901L164.995 123.797L168.898 114.396L152.753 113.056Z" fill="white"/>
<path d="M164.996 123.963H164.989L149.97 123.067C149.917 123.067 149.871 123.04 149.844 123.001C149.818 122.961 149.804 122.908 149.818 122.861L152.595 113.016C152.615 112.943 152.694 112.89 152.767 112.897L168.92 114.237C168.973 114.244 169.019 114.27 169.046 114.317C169.072 114.363 169.079 114.416 169.059 114.469L165.148 123.87C165.122 123.923 165.062 123.963 164.996 123.963ZM150.189 122.742L164.883 123.618L168.661 114.536L152.873 113.222L150.189 122.742Z" fill="#565656"/>
<path d="M151.578 122.218C151.631 123.087 151.233 123.923 150.524 124.427C148.29 126.012 146.169 128.832 144.784 130.577C143.147 132.627 141.742 135.539 140.277 136.481C138.892 137.377 137.142 136.036 137.619 134.451L144.426 112.014C144.718 111.039 145.878 110.144 146.832 110.482L154.09 112.585C154.6 112.791 154.759 113.434 154.402 113.859C152.3 116.327 151.372 118.894 151.578 122.218Z" fill="#565656"/>
<path d="M148.389 126.357C148.336 126.357 148.283 126.331 148.25 126.284C147.653 125.409 147.05 124.54 146.44 123.671C146.387 123.598 146.407 123.491 146.48 123.438C146.553 123.385 146.659 123.405 146.712 123.478C147.322 124.347 147.925 125.216 148.528 126.099C148.581 126.172 148.561 126.278 148.482 126.331C148.455 126.344 148.422 126.357 148.389 126.357Z" fill="white"/>
<path d="M146.269 128.772C146.222 128.772 146.169 128.752 146.136 128.706C145.659 128.095 145.188 127.405 144.618 126.477C144.572 126.397 144.592 126.298 144.671 126.251C144.751 126.205 144.85 126.231 144.897 126.304C145.46 127.226 145.917 127.903 146.388 128.5C146.447 128.573 146.434 128.679 146.361 128.732C146.341 128.759 146.308 128.772 146.269 128.772Z" fill="white"/>
<path d="M144.495 130.968C144.442 130.968 144.382 130.942 144.349 130.888C144.276 130.769 144.203 130.643 144.124 130.51C143.832 130.033 143.501 129.489 143.328 128.984C143.302 128.898 143.342 128.805 143.428 128.772C143.514 128.739 143.607 128.785 143.64 128.872C143.799 129.343 144.124 129.867 144.409 130.331C144.488 130.464 144.568 130.59 144.641 130.709C144.687 130.789 144.661 130.888 144.581 130.935C144.548 130.961 144.521 130.968 144.495 130.968Z" fill="white"/>
<path d="M209.553 55.6582C209.553 55.6582 202.481 62.5775 202.481 73.5038C202.481 84.4301 209.056 115.172 209.056 115.172L162.606 111.729C160.22 115.073 157.251 121.481 158.669 127.737C158.669 127.737 226.275 139.791 235.263 135.512C244.251 131.233 233.348 89.1005 237.377 70.4654L209.553 55.6582Z" fill="white"/>
<path d="M227.582 136.6C220.483 136.6 209.109 135.526 193.566 133.389C175.744 130.941 158.802 127.923 158.637 127.896C158.57 127.883 158.517 127.837 158.504 127.77C157.165 121.846 159.671 115.55 162.468 111.63C162.501 111.583 162.56 111.557 162.613 111.563L208.844 114.993C208.261 112.22 202.309 83.8463 202.309 73.5104C202.309 62.6372 209.361 55.6183 209.434 55.5453C209.487 55.4923 209.56 55.4856 209.626 55.5188L237.451 70.3194C237.517 70.3526 237.55 70.4255 237.537 70.4985C235.781 78.6186 236.861 91.1238 237.908 103.218C239.24 118.635 240.5 133.197 235.336 135.658C234.011 136.289 231.419 136.6 227.582 136.6ZM158.802 127.591C161.884 128.135 226.515 139.486 235.191 135.36C240.148 132.998 238.902 118.549 237.577 103.251C236.536 91.1902 235.456 78.7248 237.186 70.5516L209.58 55.8638C208.784 56.693 202.64 63.42 202.64 73.5038C202.64 84.2907 209.149 114.827 209.209 115.133C209.222 115.186 209.209 115.239 209.169 115.278C209.136 115.318 209.083 115.338 209.03 115.338L162.673 111.902C159.969 115.743 157.543 121.846 158.802 127.591Z" fill="#565656"/>
<path d="M209.051 115.172C209.051 115.172 215.898 115.338 220.431 118.795L209.051 115.172Z" fill="white"/>
<path d="M220.437 118.954C220.404 118.954 220.364 118.94 220.338 118.92C215.897 115.537 209.116 115.331 209.05 115.331C208.957 115.331 208.884 115.252 208.891 115.159C208.891 115.066 208.984 115 209.063 115C209.13 115 216.016 115.205 220.543 118.655C220.616 118.708 220.629 118.814 220.576 118.887C220.537 118.934 220.484 118.954 220.437 118.954Z" fill="#565656"/>
<path d="M219.523 125.813C202.125 125.813 160.706 124.281 158.539 124.195C158.446 124.188 158.373 124.115 158.38 124.022C158.38 123.936 158.459 123.863 158.545 123.863H158.552C181.412 124.719 225.117 126.092 226.914 125.197C227.623 124.838 225.787 118.742 223.845 112.28C220.007 99.536 214.214 80.2839 216.607 70.8768C216.627 70.7906 216.72 70.7309 216.806 70.7574C216.892 70.7773 216.945 70.8702 216.925 70.9564C214.552 80.2773 220.332 99.4763 224.156 112.187C226.768 120.851 227.974 125.037 227.059 125.495C226.602 125.721 223.785 125.813 219.523 125.813Z" fill="#565656"/>
<path d="M315.938 19.7678L295.809 22.1163L302.96 37.1026L315.991 33.3743L315.938 19.7678Z" fill="white"/>
<path d="M302.958 37.2685C302.898 37.2685 302.838 37.2353 302.805 37.1756L295.654 22.1893C295.627 22.1428 295.634 22.0831 295.66 22.0367C295.687 21.9903 295.733 21.9571 295.786 21.9504L315.916 19.602C315.962 19.5954 316.008 19.6086 316.048 19.6418C316.081 19.675 316.101 19.7148 316.101 19.7678L316.161 33.3809C316.161 33.4539 316.114 33.5203 316.042 33.5402L303.011 37.2619C302.991 37.2619 302.978 37.2685 302.958 37.2685ZM296.058 22.249L303.051 36.9036L315.829 33.2549L315.776 19.9536L296.058 22.249Z" fill="#565656"/>
<path d="M336.995 31.2113C339.401 34.7606 335.57 35.1188 332.945 35.9812C330.32 36.837 328.372 37.5933 327.02 38.2169C325.071 39.1191 325.575 40.3863 324.634 40.373C323.692 40.3531 322.665 39.0926 322.665 39.0926C322.665 39.0926 316.057 41.315 314.082 39.8489C311.762 38.1307 310.257 32.0539 310.542 29.1548C310.986 24.763 312.286 18.4474 316.813 16.2449C321.34 14.049 328.471 11.8996 331.149 15.5815L336.995 31.2113Z" fill="white"/>
<path d="M324.646 40.5323C324.639 40.5323 324.632 40.5323 324.626 40.5323C323.757 40.519 322.869 39.577 322.611 39.2784C321.716 39.5703 315.89 41.3881 313.981 39.9816C311.615 38.2303 310.084 32.0738 310.375 29.1416C311.071 22.2024 313.212 17.8106 316.738 16.099C322.094 13.4985 328.728 11.9726 331.287 15.4887C331.294 15.5019 331.3 15.5152 331.307 15.5285L337.146 31.1318C337.855 32.1866 338.081 33.0358 337.822 33.7324C337.405 34.88 335.767 35.3378 334.183 35.7823C333.779 35.8951 333.375 36.0078 332.99 36.1339C330.531 36.9366 328.543 37.6863 327.078 38.3629C326.051 38.8406 325.739 39.4177 325.514 39.849C325.322 40.2138 325.149 40.5323 324.646 40.5323ZM322.657 38.9268C322.704 38.9268 322.757 38.9467 322.783 38.9865C322.79 38.9998 323.771 40.1873 324.626 40.2006C324.944 40.2138 325.023 40.0546 325.222 39.6897C325.474 39.2254 325.812 38.5819 326.946 38.0644C328.417 37.3811 330.419 36.6314 332.891 35.8221C333.275 35.696 333.68 35.5833 334.097 35.4638C335.602 35.0459 337.153 34.6081 337.511 33.6196C337.729 33.0291 337.511 32.2729 336.854 31.3043C336.848 31.291 336.841 31.2844 336.835 31.2711L331.002 15.6678C328.549 12.3441 322.107 13.8633 316.884 16.3975C313.471 18.0561 311.389 22.3549 310.707 29.1748C310.422 32.034 311.893 38.0246 314.18 39.7163C316.062 41.1094 322.544 38.9534 322.611 38.9335C322.624 38.9268 322.644 38.9268 322.657 38.9268Z" fill="#565656"/>
<path d="M318.122 22.322C315.961 23.808 310.652 25.8048 309.757 22.7333C308.822 19.529 317.552 10.2015 321.409 8.76856C325.181 7.36877 330.244 5.57758 332.385 6.81151C334.526 8.04545 336.892 7.48155 338.185 8.33071C339.55 9.23295 340.147 12.1917 340.147 12.1917C340.147 12.1917 343.819 13.4389 345.038 16.8157C346.191 20.0199 345.065 22.0831 345.575 23.7881C346.032 25.3073 348.604 27.7022 347.484 31.3841C346.43 34.8471 342.447 36.4525 340.385 36.4193C338.324 36.3862 336.833 34.4689 336.627 33.0691C336.415 31.676 334.234 32.1802 333.181 31.4571C332.127 30.7339 331.292 28.3855 329.76 27.7353C328.269 27.0985 323.292 30.0241 322.317 29.3806C321.336 28.7371 320.547 27.0122 320.919 25.7186C321.29 24.4316 318.122 22.322 318.122 22.322Z" fill="#565656"/>
<path d="M318.153 21.566C316.225 22.8464 315.283 24.8167 316.046 25.9644C316.808 27.1121 318.989 27.006 320.917 25.719C322.846 24.4386 324.125 23.0587 323.363 21.911C322.601 20.7633 320.082 20.2857 318.153 21.566Z" fill="white"/>
<path d="M317.863 26.9195C317.008 26.9195 316.299 26.6342 315.914 26.0571C315.099 24.8364 316.067 22.7599 318.068 21.4265C320.057 20.1063 322.668 20.5574 323.503 21.8179C324.232 22.9125 323.391 24.2725 321.011 25.858C319.957 26.5612 318.817 26.9195 317.863 26.9195ZM318.247 21.7051C316.398 22.9324 315.477 24.8098 316.186 25.8779C316.895 26.946 318.976 26.82 320.826 25.586C323.026 24.1199 323.828 22.9191 323.225 22.0036C322.556 20.9953 320.169 20.4247 318.247 21.7051Z" fill="#565656"/>
<path d="M327.647 35.0793C326.984 35.2783 326.534 35.7427 326.646 36.1076C326.759 36.4725 327.382 36.6118 328.051 36.4128C328.714 36.2137 329.165 35.7494 329.052 35.3845C328.939 35.013 328.31 34.8737 327.647 35.0793Z" fill="#565656"/>
<path d="M319.472 38.967C319.518 39.0466 319.611 39.0931 319.71 39.0732C319.83 39.0466 319.903 38.9338 319.876 38.8144C319.717 38.0648 319.77 37.335 320.022 36.8507C320.082 36.7446 320.035 36.6119 319.929 36.5522C319.823 36.4991 319.691 36.5389 319.631 36.6451C319.333 37.2156 319.26 38.0581 319.445 38.9073C319.452 38.9272 319.459 38.9471 319.472 38.967Z" fill="#565656"/>
<path d="M332.393 33.8055C331.803 32.0674 330.942 31.3509 330.391 31.6826C329.848 32.0143 330.153 33.1686 330.617 34.4623C331.081 35.7426 331.823 36.8903 332.4 36.7046C332.983 36.5321 332.983 35.5436 332.393 33.8055Z" fill="#565656"/>
<path d="M302.044 28.5845C301.209 25.168 301.773 23.3436 301.667 21.5192C301.474 21.3534 301.289 21.2141 301.117 21.1212C298.492 19.675 289.04 14.0028 268.931 18.1027C236.228 24.7699 203.512 56.0893 203.512 60.0233C203.512 63.964 212.725 65.0055 217.47 71.8121C221.951 78.2405 236.725 75.9583 242.206 79.9786C247.688 83.9922 258.551 71.0757 272.265 64.2758C285.859 57.5422 293.68 48.5265 297.425 44.6456C301.17 40.7646 305.365 37.7063 305.584 36.552C304.258 34.721 302.767 31.5433 302.044 28.5845Z" fill="#303030"/>
<path d="M244.606 80.8941C243.685 80.8941 242.85 80.6486 242.107 80.1046C239.794 78.4129 235.797 77.8557 231.569 77.2653C225.849 76.4692 219.936 75.6399 217.332 71.9049C214.946 68.4818 211.366 66.5048 208.496 64.9126C205.613 63.3204 203.34 62.06 203.34 60.0233C203.34 58.0331 211.141 49.442 223.854 39.9553C232.689 33.361 250.286 21.7381 268.891 17.9368C288.51 13.9365 297.883 19.1376 300.965 20.8425L301.19 20.9686C301.369 21.0681 301.561 21.2074 301.773 21.3865C301.806 21.4131 301.826 21.4595 301.833 21.4993C301.866 22.0698 301.833 22.647 301.8 23.2573C301.72 24.6372 301.634 26.1962 302.204 28.5381C302.88 31.2978 304.292 34.4755 305.724 36.4459C305.75 36.4857 305.763 36.5321 305.75 36.5719C305.611 37.295 304.186 38.5754 302.211 40.3533C300.772 41.647 299.135 43.1131 297.551 44.7517C297.22 45.0967 296.849 45.4881 296.451 45.906C292.361 50.2248 284.752 58.2653 272.345 64.4084C267.062 67.0289 262.19 70.5648 257.895 73.6829C252.487 77.6169 247.973 80.8941 244.606 80.8941ZM282.194 16.7626C276.321 16.7626 271.39 17.771 268.958 18.2619C250.419 22.0433 232.868 33.6397 224.053 40.2206C211.612 49.5017 203.671 58.1525 203.671 60.0233C203.671 61.8676 205.872 63.0816 208.656 64.6274C211.559 66.2328 215.171 68.2363 217.603 71.7192C220.122 75.3347 225.968 76.1507 231.615 76.9402C235.884 77.5373 239.92 78.1012 242.3 79.8459C245.567 82.2342 250.916 78.3532 257.697 73.4308C261.998 70.3061 266.876 66.7635 272.192 64.1298C284.547 58.0066 292.129 49.9993 296.206 45.6937C296.61 45.2692 296.974 44.8844 297.312 44.5328C298.903 42.8809 300.54 41.4148 301.985 40.1145C303.709 38.5688 305.2 37.2287 305.405 36.5852C303.967 34.5817 302.555 31.3973 301.879 28.6243C301.296 26.236 301.382 24.6505 301.462 23.2507C301.495 22.6735 301.521 22.1296 301.501 21.5988C301.329 21.4529 301.177 21.3401 301.031 21.2671L300.799 21.1411C294.681 17.7378 287.98 16.7626 282.194 16.7626Z" fill="#565656"/>
<path d="M241.181 79.3152C241.122 79.3152 241.069 79.282 241.036 79.2289C241.003 79.1759 237.927 73.6431 239.001 66.6773C239.014 66.5844 239.1 66.5247 239.193 66.538C239.286 66.5512 239.346 66.6375 239.332 66.7304C238.272 73.5767 241.294 79.0166 241.327 79.0697C241.374 79.1493 241.347 79.2488 241.268 79.2953C241.235 79.3085 241.208 79.3152 241.181 79.3152Z" fill="#565656"/>
<path d="M217.469 71.9713C217.442 71.9713 217.422 71.9647 217.396 71.958C217.316 71.9182 217.277 71.8187 217.316 71.7391C217.343 71.686 219.895 66.2726 218.622 57.0778C218.609 56.985 218.675 56.9053 218.761 56.8921C218.861 56.8788 218.934 56.9451 218.947 57.0314C220.233 66.339 217.635 71.832 217.608 71.8851C217.588 71.9381 217.528 71.9713 217.469 71.9713Z" fill="#565656"/>
<path d="M240.099 56.713C240.007 56.713 239.934 56.64 239.934 56.5471C239.934 56.4476 239.987 46.2643 244.5 40.0217C244.553 39.9487 244.659 39.9288 244.732 39.9819C244.805 40.035 244.825 40.1411 244.772 40.2141C240.325 46.3639 240.272 56.441 240.272 56.5405C240.265 56.6334 240.192 56.713 240.099 56.713Z" fill="#565656"/>
<path d="M279.359 70.2926L286.756 58.0727C280.313 55.366 273.897 54.9812 267.322 52.5398C264.214 57.8604 262.921 66.2657 262.868 69.1316C262.689 78.7643 290.215 103.257 290.215 103.257L297.334 102.163C295.18 95.0377 287.975 83.302 279.359 70.2926Z" fill="white"/>
<path d="M290.209 103.423C290.17 103.423 290.13 103.41 290.097 103.383C290.03 103.324 283.131 97.174 276.343 89.923C267.21 80.1643 262.617 73.1719 262.696 69.1318C262.743 66.644 263.889 58.0728 267.177 52.4538C267.217 52.3874 267.303 52.3543 267.376 52.3808C270.431 53.5152 273.5 54.2184 276.463 54.8951C279.856 55.6713 283.356 56.4674 286.816 57.9202C286.862 57.9401 286.895 57.9733 286.909 58.0197C286.922 58.0662 286.915 58.1126 286.895 58.1591L279.551 70.2928C287.134 81.7498 295.18 94.4805 297.487 102.116C297.5 102.163 297.494 102.209 297.467 102.256C297.441 102.295 297.401 102.322 297.354 102.329L290.236 103.423C290.229 103.423 290.223 103.423 290.209 103.423ZM267.396 52.739C264.466 57.834 263.087 66.0403 263.034 69.1318C262.862 78.373 288.851 101.811 290.262 103.078L297.116 102.023C294.743 94.3877 286.75 81.7498 279.22 70.379C279.187 70.3259 279.18 70.253 279.213 70.1999L286.511 58.1392C283.144 56.746 279.71 55.9632 276.39 55.2069C273.46 54.5435 270.431 53.8535 267.396 52.739Z" fill="#565656"/>
<path d="M273.635 35.7427C269.95 40.6452 266.225 47.1732 262.148 54.1456C267.743 58.3781 278.738 62.531 286.129 63.5129C286.129 63.5129 295.932 49.4951 298.967 40.2273L273.635 35.7427Z" fill="#303030"/>
<path d="M286.128 63.6787C286.122 63.6787 286.115 63.6787 286.108 63.6787C278.453 62.657 267.437 58.3515 262.055 54.2782C261.989 54.2251 261.969 54.1323 262.009 54.0593L263.155 52.0956C266.761 45.9193 270.168 40.0813 273.508 35.6365C273.561 35.5635 273.667 35.5503 273.74 35.6033C273.813 35.6564 273.827 35.7625 273.773 35.8355C270.44 40.2671 267.039 46.0918 263.44 52.2615L262.367 54.0991C267.735 58.0994 278.506 62.3054 286.049 63.3337C286.864 62.1595 295.938 48.9444 298.808 40.1742C298.834 40.088 298.927 40.0415 299.02 40.0681C299.106 40.0946 299.152 40.1875 299.126 40.2803C296.123 49.4685 286.367 63.473 286.267 63.6123C286.234 63.6521 286.181 63.6787 286.128 63.6787Z" fill="#565656"/>
<path d="M275.992 120.904L276.165 106.833C276.178 105.885 276.953 105.122 277.901 105.135L282.302 105.188L282.084 122.695L277.683 122.642C276.741 122.629 275.979 121.853 275.992 120.904Z" fill="white"/>
<path d="M282.088 122.861L277.687 122.808C277.183 122.801 276.713 122.602 276.361 122.238C276.01 121.879 275.818 121.402 275.824 120.898L275.997 106.827C276.003 106.322 276.202 105.851 276.567 105.5C276.925 105.148 277.422 104.962 277.906 104.962L282.307 105.016C282.353 105.016 282.393 105.035 282.426 105.069C282.459 105.102 282.472 105.142 282.472 105.188L282.254 122.695C282.254 122.788 282.181 122.861 282.088 122.861ZM276.156 120.904C276.149 121.315 276.308 121.713 276.6 122.005C276.892 122.304 277.276 122.47 277.694 122.476L281.929 122.529L282.141 105.354L277.906 105.301C277.899 105.301 277.892 105.301 277.886 105.301C277.481 105.301 277.097 105.46 276.805 105.739C276.507 106.031 276.341 106.415 276.335 106.833L276.156 120.904Z" fill="#565656"/>
<path d="M282.086 122.695L282.305 105.188L284.339 105.215C285.287 105.228 286.049 106.004 286.036 106.953L285.884 118.994C285.857 121.063 284.154 122.722 282.086 122.695Z" fill="white"/>
<path d="M282.133 122.861C282.113 122.861 282.1 122.861 282.08 122.861C281.987 122.861 281.914 122.782 281.914 122.695L282.133 105.188C282.133 105.095 282.206 105.022 282.298 105.022L284.333 105.049C284.837 105.055 285.308 105.254 285.659 105.619C286.01 105.978 286.202 106.455 286.196 106.959L286.043 119C286.03 120.048 285.613 121.024 284.864 121.76C284.128 122.47 283.16 122.861 282.133 122.861ZM282.464 105.354L282.252 122.53C284.154 122.463 285.692 120.911 285.712 118.987L285.864 106.946C285.871 106.535 285.712 106.137 285.42 105.845C285.129 105.546 284.744 105.381 284.327 105.374L282.464 105.354Z" fill="#565656"/>
<path d="M299.225 116.472L299.331 108.186L286.016 108.021L285.949 113.653L299.225 116.472Z" fill="white"/>
<path d="M299.226 116.638C299.212 116.638 299.206 116.638 299.193 116.632L285.91 113.812C285.83 113.799 285.777 113.726 285.777 113.646L285.85 108.007C285.85 107.915 285.923 107.842 286.016 107.842L299.332 108.007C299.378 108.007 299.418 108.027 299.451 108.061C299.484 108.094 299.497 108.134 299.497 108.18L299.391 116.473C299.391 116.526 299.365 116.572 299.332 116.599C299.299 116.625 299.265 116.638 299.226 116.638ZM286.115 113.52L299.067 116.267L299.166 108.346L286.182 108.187L286.115 113.52Z" fill="#565656"/>
<path d="M299.184 120.52L299.376 105.268C299.402 103.178 301.112 101.506 303.2 101.533L305.633 101.566C307.721 101.593 309.391 103.304 309.364 105.394L309.172 120.646L299.184 120.52Z" fill="white"/>
<path d="M309.17 120.811C309.163 120.811 309.163 120.811 309.17 120.811L299.181 120.685C299.135 120.685 299.095 120.665 299.062 120.632C299.029 120.599 299.016 120.559 299.016 120.513L299.208 105.261C299.234 103.098 300.997 101.36 303.152 101.36C303.171 101.36 303.185 101.36 303.205 101.36L305.637 101.393C306.691 101.407 307.678 101.831 308.414 102.587C309.15 103.344 309.548 104.339 309.534 105.394L309.342 120.645C309.342 120.692 309.322 120.732 309.289 120.765C309.249 120.791 309.21 120.811 309.17 120.811ZM299.347 120.354L309.004 120.473L309.19 105.387C309.203 104.418 308.838 103.51 308.162 102.813C307.486 102.123 306.585 101.732 305.617 101.725L303.191 101.692C303.178 101.692 303.158 101.692 303.145 101.692C301.17 101.692 299.559 103.284 299.533 105.261L299.347 120.354Z" fill="#565656"/>
<path d="M301.633 132.089L300.957 127.412L307.154 127.492L306.438 132.149C306.432 132.852 305.849 133.416 305.146 133.409L302.892 133.383C302.19 133.37 301.626 132.792 301.633 132.089Z" fill="white"/>
<path d="M305.157 133.575C305.151 133.575 305.144 133.575 305.138 133.575L302.884 133.549C302.095 133.542 301.459 132.892 301.459 132.102L300.783 127.439C300.776 127.392 300.79 127.339 300.823 127.306C300.856 127.266 300.902 127.233 300.949 127.246L307.146 127.326C307.192 127.326 307.239 127.346 307.272 127.386C307.305 127.425 307.318 127.472 307.312 127.518L306.596 132.175C306.589 132.938 305.946 133.575 305.157 133.575ZM301.147 127.578L301.797 132.063C301.797 132.069 301.797 132.082 301.797 132.089C301.79 132.699 302.281 133.204 302.891 133.217L305.144 133.243C305.151 133.243 305.151 133.243 305.157 133.243C305.761 133.243 306.258 132.752 306.264 132.149L306.947 127.658L301.147 127.578Z" fill="#565656"/>
<path d="M300.011 126.676L299.176 120.519L309.164 120.645L308.177 126.782C308.111 127.193 307.753 127.498 307.328 127.492L300.833 127.412C300.422 127.405 300.071 127.094 300.011 126.676Z" fill="white"/>
<path d="M307.349 127.658C307.342 127.658 307.342 127.658 307.336 127.658L300.84 127.578C300.343 127.571 299.919 127.193 299.853 126.702L299.017 120.546C299.011 120.499 299.024 120.446 299.057 120.413C299.09 120.38 299.15 120.36 299.183 120.36L309.172 120.486C309.218 120.486 309.264 120.506 309.298 120.546C309.331 120.586 309.344 120.632 309.337 120.679L308.35 126.815C308.27 127.293 307.839 127.658 307.349 127.658ZM299.369 120.685L300.177 126.649C300.224 126.981 300.509 127.233 300.84 127.24L307.336 127.319C307.667 127.306 307.965 127.074 308.018 126.749L308.973 120.805L299.369 120.685Z" fill="#565656"/>
<path d="M303.935 136.799C303.842 136.799 303.77 136.72 303.77 136.633L303.809 133.396C303.809 133.303 303.889 133.23 303.975 133.23C304.068 133.23 304.141 133.31 304.141 133.396L304.101 136.633C304.101 136.726 304.021 136.799 303.935 136.799Z" fill="#565656"/>
<path d="M290.735 101.479C289.025 103.622 290.185 107.138 290.039 109.54C289.887 111.941 289.602 115.663 291.517 116.048C293.433 116.433 296.077 116.346 296.687 115.272C297.304 114.197 297.582 110.714 297.476 109.633C297.37 108.551 297.323 102.163 297.323 102.163L290.735 101.479Z" fill="white"/>
<path d="M293.662 116.42C292.88 116.42 292.104 116.333 291.488 116.207C289.48 115.803 289.712 112.141 289.864 109.719L289.877 109.527C289.924 108.804 289.851 107.981 289.765 107.105C289.586 105.142 289.38 102.913 290.606 101.373C290.639 101.327 290.706 101.307 290.752 101.314L297.347 101.997C297.433 102.004 297.493 102.077 297.493 102.163C297.493 102.229 297.539 108.558 297.645 109.62C297.745 110.655 297.486 114.21 296.837 115.358C296.379 116.154 295.021 116.42 293.662 116.42ZM290.812 101.652C289.731 103.085 289.917 105.115 290.096 107.079C290.176 107.968 290.255 108.804 290.209 109.553L290.195 109.746C290.05 112.054 289.831 115.537 291.554 115.889C293.543 116.287 296.008 116.134 296.552 115.192C297.128 114.177 297.433 110.767 297.321 109.653C297.221 108.651 297.175 103.304 297.168 102.315L290.812 101.652Z" fill="#565656"/>
</svg>
