<svg width="379" height="156" viewBox="0 0 379 156" fill="none" xmlns="http://www.w3.org/2000/svg">
<path d="M20.2943 77.7866C30.867 89.0649 40.4038 101.219 50.0145 113.275C50.699 114.137 51.3881 114.998 52.0773 115.855C58.1175 122.464 63.5796 129.301 68.9492 136.156C69.6754 136.98 70.4061 137.8 71.1415 138.62C75.5537 143.52 80.1232 148.277 84.9425 152.816C85.5391 153.085 86.1543 153.312 86.7879 153.497C89.956 154.428 93.5126 154.331 96.7316 153.048C96.7316 153.048 100.57 151.515 107.05 148.93C108.128 148.499 109.284 148.041 110.496 147.55C123.043 141.339 136.09 137.782 149.743 133.683C154.9 132.316 158.845 128.759 163.72 126.846C164.691 126.383 165.672 125.92 166.657 125.461C185.365 116.735 203.879 109 223.642 102.395C224.308 102.131 224.964 101.872 225.612 101.612C242.428 94.9009 253.963 90.297 253.963 90.297C258.69 88.4118 261.432 84.5165 261.636 80.4452C261.678 79.63 261.617 78.8102 261.451 77.995C261.09 76.8047 261.09 75.7116 260.179 74.6185C259.481 73.7709 258.782 72.9279 258.079 72.0942C248.649 62.8631 238.03 54.1091 233.78 41.256C232.263 36.6057 227.406 33.5997 223.766 30.0425C213.453 20.2001 206.168 8.98661 193.426 0.783787C189.787 -1.4024 185.841 2.42343 181.924 3.762C181.055 4.10938 180.051 4.50771 178.932 4.95699C178.182 5.25342 177.382 5.57301 176.536 5.91576C171.583 7.62025 166.426 8.71334 161.574 10.9042C145.493 17.7406 131.84 27.5831 114.223 30.7744C113.261 31.1403 112.295 31.5062 111.328 31.8721C106.495 33.697 101.629 35.4987 96.6437 37.1569C92.6986 38.5233 89.0587 39.8896 85.1136 40.9874C78.1345 43.4468 72.3717 47.2773 65.7673 50.1119C64.7682 50.5843 63.7461 51.066 62.7286 51.5524C58.6586 53.5023 54.5933 55.5357 50.5233 57.6663C44.15 60.9456 36.565 62.0433 29.5489 64.5815C29.0263 64.7899 28.7534 64.9011 28.7534 64.9011C27.8099 65.2762 26.9404 65.7348 26.1588 66.2582C25.3771 66.7816 24.6788 67.3698 24.0683 68.009C22.3061 70.5194 18.0604 72.7056 18.9253 75.9015C19.1704 76.4434 19.6236 77.0733 20.2943 77.7866Z" fill="white"/>
<path d="M91.1208 154.229C89.6547 154.229 88.184 154.021 86.7595 153.604C86.1212 153.414 85.4922 153.187 84.8956 152.918C84.8817 152.914 84.8725 152.904 84.8632 152.895C80.34 148.639 75.826 143.993 71.053 138.694C70.3176 137.879 69.5868 137.055 68.8607 136.23C63.9629 129.987 58.2232 122.756 51.9887 115.934C51.295 115.068 50.6105 114.206 49.9214 113.345L47.595 110.427C38.9046 99.5143 29.9182 88.2314 20.2011 77.8655C19.5259 77.1476 19.0634 76.4992 18.8183 75.9387C18.2031 73.6645 20.0439 71.9184 21.8291 70.2278C22.6524 69.4496 23.4294 68.7132 23.9751 67.935C24.6088 67.2681 25.321 66.6706 26.098 66.1518C26.8981 65.6145 27.7815 65.156 28.7111 64.7808L29.5066 64.4612C32.24 63.4747 35.089 62.6965 37.8455 61.9416C42.1421 60.7697 46.5821 59.5562 50.4717 57.5507C54.4492 55.4617 58.5562 53.4052 62.6771 51.4321C63.6946 50.9458 64.7121 50.4641 65.7157 49.9916C68.4722 48.8106 71.1224 47.4303 73.6892 46.0963C77.2829 44.2298 81.0014 42.2983 85.076 40.8625C88.1562 40.0056 91.0191 39.0005 94.0438 37.9306C94.8856 37.6341 95.7366 37.3331 96.6061 37.032C101.768 35.3136 106.712 33.4748 111.286 31.7472C112.252 31.3813 113.214 31.0154 114.181 30.6495C126.012 28.505 135.831 23.4795 146.228 18.1576C151.149 15.638 156.241 13.0303 161.527 10.7839C164.626 9.38511 167.9 8.42171 171.064 7.48609C172.854 6.95808 174.708 6.41153 176.498 5.79551L181.882 3.64638C183.043 3.24804 184.222 2.62739 185.36 2.02063C188.07 0.58479 190.873 -0.89737 193.486 0.672793C201.876 6.07341 208.022 12.9099 213.965 19.5194C217.087 22.9886 220.311 26.5735 223.844 29.9501C224.793 30.8764 225.842 31.7796 226.855 32.655C229.755 35.1562 232.757 37.7453 233.885 41.2099C237.544 52.2751 246.026 60.3807 254.231 68.2176C255.526 69.4543 256.862 70.7326 258.157 71.9971C258.865 72.8401 259.563 73.683 260.262 74.5307C260.942 75.3505 261.127 76.1564 261.316 77.0086C261.385 77.3143 261.455 77.6293 261.552 77.9489C261.723 78.7733 261.783 79.607 261.746 80.4361C261.529 84.7576 258.56 88.5695 253.999 90.3898L225.648 101.705C225.001 101.965 224.344 102.224 223.678 102.488C205.543 108.546 187.441 115.874 166.698 125.549C165.713 126.008 164.732 126.471 163.761 126.934C161.666 127.759 159.719 128.898 157.832 130C155.32 131.473 152.721 132.993 149.766 133.775C148.193 134.248 146.621 134.716 145.062 135.179C133.014 138.764 121.632 142.145 110.541 147.634C109.32 148.125 108.164 148.588 107.086 149.018L96.768 153.136C94.9827 153.868 93.0541 154.229 91.1208 154.229ZM85.0112 152.715C85.594 152.974 86.2045 153.196 86.8242 153.382C90.0756 154.336 93.5767 154.178 96.6893 152.937L107.008 148.819C108.085 148.389 109.242 147.93 110.453 147.439C121.553 141.946 132.94 138.555 145.002 134.97C146.565 134.507 148.133 134.039 149.71 133.567C152.638 132.789 155.223 131.279 157.721 129.815C159.612 128.708 161.573 127.56 163.673 126.735C164.635 126.272 165.62 125.813 166.605 125.35C187.353 115.67 205.465 108.338 223.604 102.279C224.265 102.02 224.922 101.761 225.565 101.501L253.916 90.186C258.393 88.3981 261.307 84.6603 261.52 80.4315C261.561 79.6209 261.496 78.8058 261.335 78.0091C261.237 77.6941 261.168 77.3745 261.099 77.0642C260.914 76.2398 260.738 75.457 260.091 74.6835C259.392 73.8359 258.694 72.9929 257.991 72.1592C256.705 70.904 255.368 69.6256 254.078 68.389C245.855 60.5289 237.349 52.4048 233.673 41.284C232.563 37.8796 229.584 35.3136 226.707 32.831C225.69 31.9556 224.64 31.0478 223.687 30.1168C220.144 26.7356 216.916 23.146 213.794 19.6769C207.86 13.0766 201.723 6.25405 193.366 0.871958C190.864 -0.628728 188.246 0.756164 185.471 2.22906C184.324 2.83582 183.135 3.46574 181.965 3.8687L176.582 6.01783C174.778 6.63848 172.923 7.18503 171.133 7.71305C167.974 8.64403 164.714 9.60744 161.624 11.0016C156.343 13.248 151.255 15.851 146.339 18.3707C135.928 23.7018 126.095 28.7366 114.25 30.8811C113.307 31.2423 112.34 31.6082 111.374 31.9741C106.8 33.7018 101.851 35.5406 96.6847 37.259C95.8198 37.56 94.9688 37.8565 94.1271 38.1575C91.0977 39.2275 88.2302 40.2372 85.15 41.0894C81.0985 42.5206 77.3892 44.4474 73.8002 46.3094C71.2333 47.6434 68.574 49.0236 65.8129 50.2093C64.8185 50.6818 63.7964 51.1588 62.7789 51.6498C58.658 53.6229 54.5556 55.6794 50.5781 57.7637C46.67 59.7785 42.2161 60.9921 37.9056 62.1685C35.1537 62.9189 32.3094 63.697 29.5852 64.6836L28.7944 64.9985C27.874 65.3644 27.0091 65.8183 26.2229 66.3464C25.4598 66.8558 24.7614 67.4394 24.1509 68.0833C23.6005 68.866 22.7819 69.6442 21.9864 70.3991C20.252 72.0434 18.4621 73.7433 19.0356 75.8646C19.2623 76.388 19.7155 77.0133 20.3676 77.708C30.0894 88.0831 39.0804 99.3707 47.7707 110.283L50.0925 113.201C50.777 114.063 51.4661 114.924 52.1552 115.781C58.3897 122.604 64.134 129.838 69.0272 136.082C69.7487 136.902 70.4795 137.722 71.2149 138.537C75.9925 143.831 80.4972 148.467 85.0112 152.715Z" fill="#565656"/>
<path d="M227.346 75.1976C226.846 74.5075 226.347 73.8174 225.843 73.1319C224.229 70.955 222.587 68.8197 221.185 67.0226C220.681 66.3742 220.173 65.7211 219.664 65.068L219.613 65.0032C215.33 58.7642 210.469 52.4465 205.174 46.2307L203.62 44.2437C200.53 40.2974 197.616 36.5735 194.749 32.6365L192.529 29.6676C191.914 28.8477 191.299 28.0233 190.697 27.2174C190.253 26.5226 189.786 25.8278 189.268 25.0914C188.801 24.4337 188.311 23.7574 187.751 23.021C186.771 21.7982 185.786 20.5801 184.801 19.3666C181.452 15.235 178.006 10.9877 174.931 6.50882C174.737 6.56903 174.538 6.63388 174.343 6.69409C177.447 11.2239 180.929 15.5176 184.31 19.6908C185.295 20.9043 186.281 22.1224 187.256 23.336C187.807 24.0631 188.297 24.7301 188.76 25.3878C189.273 26.1196 189.735 26.8051 190.184 27.5092C190.795 28.329 191.414 29.1534 192.029 29.9779L194.249 32.9422C197.122 36.8838 200.04 40.6124 203.129 44.5633L204.688 46.5595C209.979 52.7707 214.826 59.0745 219.109 65.3089L219.169 65.3876C219.678 66.0407 220.182 66.6891 220.691 67.3376C222.087 69.1347 223.729 71.2607 225.339 73.4376C225.843 74.1184 226.342 74.8039 226.846 75.508C230.875 80.538 234.635 85.8275 238.275 90.9456C239.311 92.4 240.365 93.8868 241.429 95.3643C241.614 95.2902 241.808 95.2114 241.989 95.142C240.911 93.6413 239.833 92.1313 238.784 90.6538C235.139 85.5265 231.374 80.2277 227.346 75.1976Z" fill="#565656"/>
<path d="M203.932 85.1424C203.432 84.4522 202.933 83.7621 202.429 83.0766C200.819 80.8997 199.173 78.7691 197.771 76.9673C197.332 76.4023 196.888 75.8325 196.444 75.2628L196.199 74.9479C191.916 68.7089 187.055 62.3912 181.76 56.1754L180.206 54.1884C177.121 50.2468 174.207 46.5182 171.339 42.5812L169.304 39.8578C168.629 38.9546 167.949 38.0467 167.288 37.1621C166.844 36.4673 166.377 35.7726 165.859 35.0361C165.392 34.3784 164.901 33.7022 164.342 32.9657C163.361 31.7429 162.376 30.5248 161.391 29.3113C157.895 25.0037 154.296 20.5665 151.124 15.8699C150.948 15.9579 150.772 16.0459 150.596 16.1386C153.783 20.8537 157.395 25.3094 160.905 29.6355C161.891 30.849 162.876 32.0672 163.852 33.2807C164.402 34.0079 164.892 34.6748 165.355 35.3325C165.868 36.0597 166.331 36.7499 166.779 37.4539C167.454 38.3571 168.13 39.2649 168.81 40.1681L170.845 42.8869C173.717 46.8332 176.635 50.5617 179.72 54.508L181.279 56.5043C186.57 62.7154 191.417 69.0192 195.699 75.2536L195.954 75.5824C196.398 76.1521 196.837 76.7172 197.281 77.2869C198.678 79.084 200.324 81.2146 201.929 83.3869C202.433 84.0678 202.933 84.7533 203.437 85.4573C207.465 90.4874 211.225 95.7769 214.861 100.89C215.721 102.104 216.6 103.336 217.483 104.568C217.677 104.498 217.867 104.434 218.061 104.364C217.155 103.1 216.257 101.835 215.369 100.594C211.725 95.4712 207.96 90.1724 203.932 85.1424Z" fill="#565656"/>
<path d="M180.537 95.0908C180.038 94.4007 179.538 93.7106 179.034 93.0251C177.411 90.8343 175.769 88.7083 174.377 86.9158C173.849 86.2396 173.322 85.5633 172.804 84.8964C168.521 78.662 163.66 72.3397 158.365 66.1239L156.811 64.1369C153.721 60.186 150.803 56.4574 147.94 52.5297L145.845 49.7275C145.188 48.8521 144.531 47.9721 143.889 47.1106C143.445 46.4158 142.977 45.721 142.459 44.9846C141.992 44.3222 141.497 43.6506 140.942 42.9142C139.962 41.6914 138.977 40.4733 137.992 39.2597C134.731 35.2394 131.378 31.0986 128.362 26.7494C128.173 26.8235 127.983 26.893 127.794 26.9624C130.832 31.3533 134.208 35.5266 137.497 39.5793C138.482 40.7929 139.467 42.011 140.443 43.2245C140.993 43.9471 141.484 44.6187 141.946 45.2764C142.459 46.0036 142.922 46.6937 143.371 47.3977C144.023 48.2731 144.679 49.1532 145.341 50.0332L147.436 52.8308C150.303 56.7677 153.222 60.5009 156.316 64.4518L157.875 66.4481C163.166 72.6593 168.013 78.9677 172.295 85.2021C172.823 85.8783 173.35 86.5592 173.877 87.2354C175.269 89.0232 176.906 91.1446 178.525 93.3354C179.029 94.0163 179.529 94.7018 180.033 95.4058C184.061 100.436 187.821 105.725 191.457 110.839C192.132 111.788 192.816 112.747 193.501 113.71C193.686 113.632 193.871 113.558 194.061 113.479C193.358 112.492 192.659 111.51 191.97 110.542C188.33 105.415 184.565 100.121 180.537 95.0908Z" fill="#565656"/>
<path d="M157.13 105.036C156.631 104.345 156.131 103.655 155.627 102.97C154.013 100.788 152.367 98.6576 150.97 96.8605C150.447 96.1843 149.92 95.508 149.397 94.8411C145.115 88.6021 140.254 82.2844 134.958 76.0686L133.404 74.0816C130.315 70.1353 127.401 66.4067 124.533 62.4744L122.498 59.7509C121.823 58.8477 121.143 57.9399 120.482 57.0552C120.042 56.3605 119.575 55.6657 119.053 54.9293C118.59 54.2716 118.095 53.5953 117.536 52.8589C116.555 51.6361 115.57 50.418 114.585 49.2044C110.843 44.5958 106.991 39.8344 103.656 34.7719C103.466 34.8414 103.277 34.9062 103.083 34.9757C106.436 40.0799 110.321 44.883 114.09 49.5287C115.075 50.7422 116.06 51.9603 117.036 53.1738C117.587 53.901 118.077 54.5726 118.539 55.2257C119.053 55.9575 119.515 56.6477 119.964 57.347C120.639 58.2502 121.314 59.1581 121.994 60.0613L124.029 62.7801C126.897 66.7171 129.815 70.4503 132.909 74.4011L134.468 76.3974C139.759 82.6086 144.606 88.9124 148.893 95.1514C149.42 95.8276 149.948 96.5039 150.47 97.1801C151.867 98.9772 153.509 101.103 155.118 103.28C155.623 103.961 156.122 104.646 156.626 105.35C160.655 110.381 164.415 115.67 168.055 120.788C168.776 121.802 169.507 122.831 170.247 123.864C170.427 123.78 170.608 123.697 170.793 123.613C170.043 122.567 169.299 121.52 168.568 120.492C164.928 115.364 161.163 110.07 157.13 105.036Z" fill="#565656"/>
<path d="M133.722 114.984C133.223 114.294 132.723 113.604 132.219 112.918C130.605 110.737 128.958 108.606 127.562 106.809C127.122 106.244 126.678 105.674 126.234 105.105L125.989 104.79C121.706 98.5507 116.846 92.233 111.55 86.0172L109.996 84.0302C106.906 80.0839 103.993 76.3554 101.125 72.423L98.8959 69.4402C98.2854 68.6204 97.6703 67.8052 97.0737 67.0039C96.6297 66.3091 96.1625 65.6143 95.6445 64.8779C95.182 64.2202 94.6872 63.544 94.1275 62.8075C93.147 61.5847 92.1619 60.3666 91.1768 59.1531C87.2363 54.2943 83.1617 49.2735 79.7114 43.9053C79.6004 43.7525 79.4848 43.595 79.3692 43.4422C79.1888 43.5255 79.0084 43.6135 78.828 43.6969C78.9483 43.8637 79.0732 44.0258 79.1934 44.1925C82.6483 49.5746 86.7368 54.6047 90.6819 59.4726C91.667 60.6862 92.6522 61.9043 93.628 63.1178C94.1784 63.845 94.6687 64.5166 95.1312 65.1697C95.6445 65.8969 96.107 66.587 96.5557 67.291C97.1662 68.1109 97.7767 68.9261 98.3918 69.7459L100.621 72.7241C103.489 76.6611 106.407 80.3943 109.496 84.3451L111.055 86.3414C116.346 92.5526 121.193 98.8564 125.476 105.091L125.73 105.42C126.174 105.989 126.614 106.554 127.058 107.124C128.45 108.917 130.096 111.047 131.706 113.224C132.21 113.905 132.709 114.59 133.213 115.294C137.242 120.325 141.002 125.614 144.642 130.732C145.516 131.964 146.409 133.215 147.306 134.47C147.505 134.41 147.704 134.35 147.902 134.294C146.977 133.002 146.057 131.709 145.155 130.44C141.52 125.313 137.751 120.014 133.722 114.984Z" fill="#565656"/>
<path d="M110.321 124.929C109.821 124.239 109.322 123.549 108.818 122.863C107.204 120.686 105.562 118.551 104.16 116.754C103.656 116.105 103.147 115.452 102.639 114.799L102.588 114.734C98.3051 108.495 93.4442 102.178 88.1486 95.962L86.5946 93.9749C83.5097 90.0287 80.5914 86.3048 77.7239 82.3678L75.5917 79.5146C74.9489 78.6531 74.3014 77.7916 73.6724 76.9486C73.2284 76.2539 72.7612 75.5591 72.2432 74.8227C71.7761 74.165 71.2859 73.4887 70.7262 72.7523C69.7457 71.5295 68.7606 70.3113 67.7755 69.0978C64.0015 64.4475 60.1119 59.6444 56.7634 54.531C56.5876 54.619 56.4119 54.7116 56.2361 54.7996C59.5985 59.9316 63.502 64.7532 67.2899 69.422C68.275 70.6356 69.2601 71.8537 70.236 73.0672C70.7864 73.7944 71.2766 74.4614 71.7391 75.1191C72.2525 75.8509 72.715 76.5364 73.1636 77.2404C73.8065 78.1019 74.4494 78.9634 75.0969 79.8249L77.229 82.6735C80.1011 86.6151 83.0195 90.3437 86.109 94.2945L87.6676 96.2908C92.9586 102.502 97.8056 108.806 102.088 115.04L102.148 115.119C102.657 115.772 103.161 116.42 103.67 117.069C105.067 118.866 106.709 120.992 108.318 123.169C108.822 123.85 109.322 124.535 109.826 125.239C113.854 130.269 117.614 135.559 121.254 140.677C121.666 141.26 122.087 141.844 122.508 142.437C122.697 142.367 122.887 142.293 123.077 142.224C122.637 141.608 122.198 140.992 121.768 140.385C118.114 135.258 114.349 129.964 110.321 124.929Z" fill="#565656"/>
<path d="M86.9147 134.878C86.4152 134.188 85.9157 133.497 85.4116 132.812C83.8021 130.635 82.1556 128.504 80.7542 126.703C80.3148 126.138 79.8708 125.568 79.4268 124.998L79.1817 124.683C74.899 118.444 70.0381 112.127 64.7425 105.911L63.1885 103.924C60.1036 99.9821 57.1898 96.2582 54.3177 92.3166L52.218 89.5098C51.5612 88.6344 50.9045 87.759 50.2662 86.8975C49.8222 86.2027 49.3551 85.5079 48.8371 84.7715C48.37 84.1091 47.8751 83.4329 47.3201 82.7011C46.3396 81.4783 45.3545 80.2602 44.3647 79.042C40.4242 74.1879 36.3496 69.1625 32.8994 63.7943C32.8439 63.7202 32.793 63.6507 32.7375 63.5766C32.5386 63.6368 32.3397 63.697 32.1455 63.7572C32.2241 63.8638 32.3027 63.9703 32.386 64.0815C35.8409 69.4635 39.9247 74.4936 43.8745 79.3616C44.8596 80.5751 45.8447 81.7933 46.8206 83.0114C47.371 83.734 47.8612 84.4056 48.3237 85.0633C48.8371 85.7951 49.2996 86.4806 49.7482 87.1846C50.4003 88.06 51.0571 88.94 51.7139 89.8154L53.809 92.6177C56.6857 96.5639 59.5995 100.292 62.6843 104.239L64.243 106.235C69.534 112.446 74.381 118.75 78.6637 124.984L78.9181 125.313C79.3621 125.883 79.8015 126.448 80.2455 127.018C81.6422 128.815 83.2887 130.945 84.8936 133.118C85.3977 133.799 85.8972 134.484 86.4013 135.188C90.4297 140.218 94.1898 145.508 97.8251 150.621C98.1997 151.149 98.5789 151.682 98.9582 152.214C99.1339 152.145 99.3236 152.071 99.5178 151.992C99.1201 151.436 98.7269 150.88 98.3338 150.329C94.7078 145.202 90.9431 139.908 86.9147 134.878Z" fill="#565656"/>
<path d="M92.263 84.9105C92.263 84.9105 87.4068 85.4617 85.3024 86.9114L92.263 84.9105Z" fill="white"/>
<path d="M85.2995 87.0273C85.2625 87.0273 85.2255 87.0088 85.2023 86.9764C85.1653 86.9254 85.1792 86.8513 85.2301 86.8143C87.3391 85.3645 92.0473 84.818 92.2462 84.7948C92.3156 84.7856 92.3665 84.8319 92.3757 84.8967C92.385 84.9616 92.3387 85.0172 92.274 85.0264C92.2277 85.0311 87.4223 85.5915 85.3642 87.0088C85.3457 87.0227 85.3226 87.0273 85.2995 87.0273Z" fill="#565656"/>
<path d="M124.888 58.3475C124.869 58.3475 124.851 58.3429 124.832 58.3336L110.462 50.8348C110.407 50.807 110.384 50.7376 110.411 50.6773C110.444 50.6218 110.513 50.5986 110.569 50.6264L124.939 58.1252C124.994 58.153 125.017 58.2225 124.989 58.2827C124.971 58.3244 124.929 58.3475 124.888 58.3475Z" fill="#565656"/>
<path d="M122.058 62.9606C122.04 62.9606 122.021 62.9559 122.003 62.9467L107.633 55.4479C107.577 55.4201 107.554 55.3506 107.582 55.2904C107.61 55.2348 107.684 55.2117 107.739 55.2394L122.109 62.7382C122.165 62.766 122.188 62.8355 122.16 62.8957C122.137 62.9374 122.1 62.9606 122.058 62.9606Z" fill="#565656"/>
<path d="M124.72 82.0295L109.138 67.1663C108.629 66.6799 108.634 65.8833 109.157 65.3877L134.733 40.9367C135.251 40.4411 136.088 40.4318 136.597 40.9182L152.178 55.7768C152.687 56.2631 152.682 57.0598 152.16 57.5554L126.584 82.011C126.061 82.5113 125.228 82.5159 124.72 82.0295Z" fill="white"/>
<path d="M125.631 82.5066C125.27 82.5066 124.91 82.3769 124.637 82.1176L109.055 67.2543C108.787 66.9995 108.643 66.6614 108.643 66.2955C108.643 65.9203 108.796 65.573 109.074 65.3043L134.65 40.8487C135.214 40.3114 136.121 40.3021 136.676 40.8302L152.257 55.6934C152.525 55.9482 152.669 56.2863 152.669 56.6522C152.669 57.0227 152.516 57.3748 152.239 57.6434L126.662 82.099C126.376 82.3677 126.006 82.5066 125.631 82.5066ZM124.799 81.9462C125.261 82.3908 126.029 82.3816 126.505 81.9277L152.081 57.472C152.313 57.2497 152.442 56.9579 152.442 56.6522C152.442 56.3511 152.322 56.0732 152.1 55.8602L136.518 41.0015C136.051 40.5569 135.288 40.5661 134.812 41.0201L109.235 65.4757C109.004 65.698 108.875 65.9898 108.875 66.3001C108.875 66.6012 108.995 66.8791 109.217 67.0922L124.799 81.9462Z" fill="#565656"/>
<path d="M131.49 56.1381L127.979 52.7894C127.864 52.6782 127.868 52.5022 127.984 52.3864L128.368 52.0205L133.747 46.8792C133.862 46.7681 134.052 46.7635 134.168 46.8746L137.673 50.2234C137.789 50.3345 137.784 50.5105 137.669 50.6263L131.906 56.1335C131.79 56.2493 131.605 56.2493 131.49 56.1381Z" fill="#303030"/>
<path d="M131.699 56.3371C131.597 56.3371 131.491 56.3 131.412 56.2259L127.902 52.8772C127.823 52.8031 127.782 52.7012 127.782 52.5946C127.782 52.4881 127.828 52.3862 127.907 52.3075L133.669 46.8003C133.831 46.6475 134.09 46.6428 134.247 46.7957L137.758 50.1444C137.836 50.2185 137.878 50.3204 137.878 50.4223C137.878 50.5335 137.832 50.6354 137.753 50.7095L131.99 56.2166C131.912 56.2954 131.801 56.3371 131.699 56.3371ZM133.961 46.9115C133.914 46.9115 133.864 46.93 133.827 46.967L128.064 52.4742C128.031 52.5066 128.008 52.5483 128.008 52.5946C128.008 52.6363 128.027 52.678 128.059 52.7104L131.57 56.0592C131.639 56.124 131.759 56.124 131.829 56.0545L137.591 50.5474C137.624 50.515 137.647 50.4733 137.647 50.427C137.647 50.3853 137.628 50.3436 137.596 50.3158L134.086 46.967C134.053 46.93 134.007 46.9115 133.961 46.9115Z" fill="#565656"/>
<path d="M139.408 63.8271L135.898 60.4783C135.782 60.3672 135.787 60.1912 135.902 60.0754L136.286 59.7095L141.665 54.5682C141.781 54.4571 141.97 54.4524 142.086 54.5636L145.592 57.9123C145.707 58.0235 145.703 58.1995 145.587 58.3153L139.824 63.8225C139.713 63.9382 139.524 63.9382 139.408 63.8271Z" fill="#303030"/>
<path d="M139.617 64.026C139.516 64.026 139.409 63.989 139.331 63.9149L135.82 60.5661C135.742 60.492 135.7 60.3901 135.7 60.2836C135.7 60.1771 135.746 60.0705 135.825 59.9964L141.588 54.4893C141.75 54.3364 142.009 54.3318 142.166 54.4846L145.676 57.8334C145.755 57.9075 145.796 58.0094 145.796 58.1159C145.796 58.2225 145.75 58.329 145.672 58.4031L139.909 63.9102C139.83 63.9844 139.724 64.026 139.617 64.026ZM139.493 63.7435C139.562 63.813 139.682 63.8083 139.752 63.7389L145.514 58.2317C145.547 58.1993 145.565 58.1576 145.565 58.1113C145.565 58.0696 145.547 58.0279 145.514 57.9955L142.004 54.6468C141.935 54.5819 141.814 54.5819 141.745 54.6514L135.982 60.1585C135.95 60.191 135.927 60.2326 135.927 60.279C135.927 60.3206 135.945 60.3623 135.978 60.3901L139.493 63.7435Z" fill="#565656"/>
<path d="M123.759 77.9952L120.248 74.6465C120.133 74.5353 120.137 74.3593 120.253 74.2435L120.637 73.8776L126.016 68.7364C126.131 68.6252 126.321 68.6206 126.437 68.7317L129.942 72.0805C130.058 72.1917 130.053 72.3677 129.938 72.4835L124.175 77.9906C124.059 78.1018 123.874 78.1018 123.759 77.9952Z" fill="#303030"/>
<path d="M123.964 78.1898C123.862 78.1898 123.756 78.1527 123.677 78.0786L120.167 74.7299C120.088 74.6558 120.047 74.5539 120.047 74.4473C120.047 74.3408 120.093 74.2343 120.172 74.1602L125.934 68.653C126.096 68.5002 126.355 68.4955 126.513 68.6484L130.023 71.9971C130.102 72.0712 130.143 72.1731 130.143 72.2797C130.143 72.3862 130.097 72.4927 130.018 72.5668L124.26 78.074C124.177 78.1527 124.071 78.1898 123.964 78.1898ZM126.23 68.7688C126.184 68.7688 126.133 68.7873 126.096 68.8244L120.334 74.3315C120.301 74.364 120.278 74.4056 120.278 74.452C120.278 74.4937 120.297 74.5353 120.329 74.5631L123.839 77.9119C123.909 77.9814 124.029 77.9767 124.098 77.9072L129.861 72.4001C129.893 72.3677 129.917 72.326 129.917 72.2797C129.917 72.238 129.898 72.1963 129.866 72.1685L126.355 68.8198C126.323 68.7827 126.277 68.7688 126.23 68.7688Z" fill="#565656"/>
<path d="M136.843 65.7165C136.815 65.7165 136.783 65.7072 136.764 65.6841L125.026 54.1834C124.98 54.1371 124.98 54.0676 125.026 54.0213C125.072 53.975 125.146 53.975 125.188 54.0213L136.926 65.522C136.972 65.5683 136.972 65.6377 136.926 65.6841C136.903 65.7072 136.875 65.7165 136.843 65.7165Z" fill="#565656"/>
<path d="M134.419 68.1111C134.392 68.1111 134.359 68.1018 134.341 68.0787L122.603 56.578C122.556 56.5317 122.556 56.4622 122.603 56.4159C122.649 56.3696 122.723 56.3696 122.764 56.4159L134.503 67.9165C134.549 67.9629 134.549 68.0323 134.503 68.0787C134.48 68.0972 134.447 68.1111 134.419 68.1111Z" fill="#565656"/>
<path d="M131.988 70.5012C131.96 70.5012 131.928 70.492 131.91 70.4688L120.171 58.9682C120.125 58.9219 120.125 58.8524 120.171 58.8061C120.218 58.7598 120.287 58.7598 120.333 58.8061L132.071 70.3067C132.118 70.353 132.118 70.4225 132.071 70.4688C132.048 70.492 132.016 70.5012 131.988 70.5012Z" fill="#565656"/>
<path d="M321.109 137.908L195.097 155.157L191.378 130.585L317.396 113.337L321.109 137.908Z" fill="#565656"/>
<path d="M321.109 137.25L195.097 154.504L191.378 129.927L317.396 112.679L321.109 137.25Z" fill="white"/>
<path d="M195.096 154.62C195.041 154.62 194.99 154.578 194.981 154.522L191.262 129.951C191.258 129.918 191.267 129.891 191.285 129.863C191.304 129.84 191.332 129.821 191.364 129.817L317.377 112.568C317.442 112.559 317.497 112.605 317.506 112.665L321.225 137.237C321.229 137.269 321.22 137.297 321.202 137.325C321.183 137.348 321.155 137.366 321.123 137.371L195.11 154.62C195.106 154.62 195.101 154.62 195.096 154.62ZM191.512 130.03L195.194 154.374L320.98 137.158L317.298 112.813L191.512 130.03Z" fill="#565656"/>
<path d="M331.123 156L206.692 130.359L212.219 106.093L336.645 131.734L331.123 156Z" fill="#565656"/>
<path d="M331.123 155.157L206.692 129.516L212.219 105.25L336.645 130.896L331.123 155.157Z" fill="#BCBCBC"/>
<path d="M331.117 155.273C331.108 155.273 331.103 155.273 331.094 155.268L206.667 129.627C206.635 129.622 206.612 129.604 206.593 129.576C206.575 129.548 206.57 129.516 206.579 129.488L212.106 105.222C212.12 105.162 212.176 105.12 212.24 105.134L336.667 130.775C336.699 130.78 336.722 130.799 336.741 130.826C336.759 130.854 336.764 130.887 336.755 130.914L331.228 155.18C331.219 155.236 331.172 155.273 331.117 155.273ZM206.834 129.428L331.034 155.023L336.505 130.984L212.305 105.389L206.834 129.428Z" fill="#565656"/>
<path d="M377.931 43.6707L326.14 20.5953L289.714 88.4921L289.149 88.3578V89.5435L341.898 113.045L378.888 44.0968V42.9064L377.931 43.6707Z" fill="#565656"/>
<path d="M341.898 111.855L289.149 88.3578L326.14 19.4051L378.888 42.9064L341.898 111.855Z" fill="#BCBCBC"/>
<path d="M341.897 111.971C341.883 111.971 341.864 111.966 341.851 111.961L289.102 88.4598C289.075 88.4459 289.052 88.4227 289.042 88.3903C289.033 88.3579 289.033 88.3255 289.052 88.2977L326.038 19.3495C326.065 19.2939 326.13 19.2754 326.186 19.2985L378.934 42.8C378.962 42.8139 378.985 42.8371 378.994 42.8695C379.003 42.9019 379.003 42.9343 378.985 42.9621L341.999 111.91C341.98 111.952 341.938 111.971 341.897 111.971ZM289.311 88.3023L341.846 111.711L378.726 42.9668L326.19 19.5579L289.311 88.3023Z" fill="#565656"/>
<path d="M356.953 72.7585C356.953 73.4487 356.329 74.0091 355.565 74.0091C354.798 74.0091 354.178 73.4487 354.178 72.7585C354.178 72.0684 354.802 71.508 355.565 71.508C356.329 71.508 356.953 72.0684 356.953 72.7585Z" fill="#565656"/>
<path d="M355.563 73.3652C356.582 73.3652 357.408 72.6207 357.408 71.7024C357.408 70.784 356.582 70.0396 355.563 70.0396C354.544 70.0396 353.717 70.784 353.717 71.7024C353.717 72.6207 354.544 73.3652 355.563 73.3652Z" fill="white"/>
<path d="M355.561 73.4809C354.479 73.4809 353.6 72.6843 353.6 71.7023C353.6 70.7204 354.479 69.9238 355.561 69.9238C356.644 69.9238 357.522 70.7204 357.522 71.7023C357.522 72.6843 356.644 73.4809 355.561 73.4809ZM355.561 70.1553C354.609 70.1553 353.832 70.8501 353.832 71.7023C353.832 72.5546 354.609 73.2493 355.561 73.2493C356.514 73.2493 357.291 72.5546 357.291 71.7023C357.291 70.8501 356.519 70.1553 355.561 70.1553Z" fill="#565656"/>
<path d="M56.6623 14.1064L17.9881 82.4386L0.117077 76.547L38.7913 8.21941L56.6623 14.1064Z" fill="#565656"/>
<path d="M56.6623 14.1064L56.6614 13.2172L55.4126 14.4678L56.6623 14.1064Z" fill="#565656"/>
<path d="M0.117077 76.547V75.6574L1.83758 75.4629L1.18083 76.5467L0.117077 76.547Z" fill="#565656"/>
<path d="M56.6614 13.2172L17.9881 81.5493L0.117077 75.6574L38.7913 7.32554L56.6614 13.2172Z" fill="#BCBCBC"/>
<path d="M17.9901 81.6651C17.9762 81.6651 17.9669 81.6651 17.9531 81.6605L0.0820675 75.7689C0.0496925 75.7597 0.0219425 75.7319 0.00806754 75.6994C-0.00580746 75.667 -0.00118246 75.63 0.0173175 75.6022L38.6916 7.26999C38.7193 7.22367 38.7794 7.20052 38.8303 7.21904L56.7013 13.106C56.7337 13.1153 56.7614 13.143 56.7753 13.1755C56.7892 13.2079 56.7846 13.2449 56.7661 13.2727L18.0918 81.6049C18.0733 81.642 18.0317 81.6651 17.9901 81.6651ZM0.290192 75.5929L17.9392 81.4104L56.4932 13.2866L38.8442 7.46916L0.290192 75.5929Z" fill="#565656"/>
<path d="M193.268 12.771L196.631 23.3129C196.857 24.0215 196.436 24.7765 195.687 24.9895L192.218 25.99L188.037 12.8729L191.506 11.8724C192.255 11.6594 193.042 12.0623 193.268 12.771Z" fill="#565656"/>
<path d="M196.69 21.372V23.7018L195.687 22.7013L196.69 21.372Z" fill="#565656"/>
<path d="M188.032 12.8773L192.213 25.9944L190.613 26.4576C189.864 26.6753 189.077 26.2723 188.851 25.559L185.974 16.541C185.479 14.9894 186.404 13.3498 188.032 12.8773Z" fill="#565656"/>
<path d="M185.848 15.5873V13.2853L187.014 13.9569L185.848 15.5873Z" fill="#565656"/>
<path d="M176.127 20.4966L178.106 26.7078L188.601 23.6786L187.255 19.4545L176.127 20.4966Z" fill="#565656"/>
<path d="M188.598 23.6786L188.954 22.3678H188.182L188.598 23.6786Z" fill="#565656"/>
<path d="M175.159 18.5468L178.804 29.9733C179.303 31.5388 178.374 33.1924 176.727 33.6648L174.813 34.216C173.166 34.6884 171.432 33.8084 170.932 32.2429L167.288 20.8163L175.159 18.5468Z" fill="#565656"/>
<path d="M167.295 18.5234C167.165 19.2598 167.077 20.0055 167.295 20.8161L168.567 20.7512L167.295 18.5234Z" fill="#565656"/>
<path d="M193.268 10.4783L196.631 21.0201C196.857 21.7288 196.437 22.4838 195.687 22.6968L192.219 23.6973L188.038 10.5802L191.506 9.57973C192.256 9.36667 193.042 9.76963 193.268 10.4783Z" fill="#303030"/>
<path d="M192.221 23.8178C192.17 23.8178 192.129 23.7854 192.11 23.7391L187.929 10.6219C187.92 10.5942 187.925 10.5617 187.939 10.5339C187.952 10.5061 187.98 10.4876 188.008 10.4784L191.477 9.4779C192.286 9.24631 193.137 9.6817 193.382 10.4506L196.744 20.9924C196.86 21.3583 196.823 21.7428 196.643 22.0809C196.453 22.4375 196.125 22.7015 195.722 22.8173L192.254 23.8132C192.24 23.8132 192.23 23.8178 192.221 23.8178ZM188.184 10.6636L192.295 23.5584L195.653 22.5904C195.995 22.4931 196.273 22.2708 196.435 21.9697C196.587 21.6872 196.615 21.363 196.518 21.0619L193.156 10.52C192.947 9.86697 192.221 9.50106 191.537 9.70022L188.184 10.6636Z" fill="#565656"/>
<path d="M188.04 10.5846L192.221 23.7017L190.621 24.1649C189.871 24.3826 189.085 23.9796 188.858 23.2663L185.982 14.2483C185.487 12.6967 186.412 11.057 188.04 10.5846Z" fill="white"/>
<path d="M190.213 24.3364C189.556 24.3364 188.95 23.9288 188.747 23.3036L185.87 14.2855C185.629 13.5259 185.703 12.72 186.078 12.016C186.476 11.2656 187.16 10.7191 188.007 10.4782C188.067 10.4597 188.132 10.4968 188.15 10.5524L192.331 23.6695C192.34 23.6973 192.336 23.7297 192.322 23.7575C192.308 23.7853 192.28 23.8038 192.252 23.813L190.652 24.2762C190.509 24.3179 190.361 24.3364 190.213 24.3364ZM187.965 10.7284C187.23 10.9692 186.638 11.4602 186.286 12.1225C185.939 12.771 185.87 13.5167 186.092 14.2161L188.969 23.2341C189.177 23.8825 189.903 24.2531 190.587 24.0539L192.077 23.6231L187.965 10.7284Z" fill="#565656"/>
<path d="M176.131 19.2834L178.11 25.4946L188.604 22.4654L187.259 18.2412L176.131 19.2834Z" fill="#303030"/>
<path d="M178.113 25.6103C178.062 25.6103 178.02 25.5779 178.002 25.5315L176.022 19.3204C176.013 19.288 176.018 19.2509 176.036 19.2231C176.055 19.1953 176.087 19.1768 176.124 19.1722L187.247 18.13C187.298 18.1254 187.354 18.1578 187.367 18.2088L188.713 22.4329C188.723 22.4607 188.718 22.4931 188.704 22.5209C188.69 22.5487 188.662 22.5672 188.635 22.5765L178.145 25.6057C178.131 25.6103 178.122 25.6103 178.113 25.6103ZM176.286 19.3852L178.187 25.3509L188.454 22.3866L187.173 18.3662L176.286 19.3852Z" fill="#565656"/>
<path d="M175.159 16.2539L178.804 27.6804C179.303 29.246 178.374 30.8995 176.727 31.372L174.813 31.9231C173.166 32.3956 171.432 31.5155 170.932 29.95L167.288 18.5235L175.159 16.2539Z" fill="#303030"/>
<path d="M173.913 32.1688C172.53 32.1688 171.245 31.3119 170.824 29.9872L167.179 18.5607C167.17 18.5329 167.175 18.5005 167.189 18.4727C167.202 18.4449 167.23 18.4264 167.258 18.4171L175.13 16.1476C175.194 16.129 175.255 16.1661 175.273 16.2217L178.918 27.6482C179.163 28.4124 179.084 29.2276 178.705 29.9363C178.302 30.6913 177.613 31.2424 176.762 31.4879L174.848 32.0391C174.533 32.1225 174.219 32.1688 173.913 32.1688ZM167.434 18.6024L171.041 29.9131C171.522 31.4184 173.196 32.266 174.778 31.8121L176.693 31.261C177.484 31.034 178.122 30.5245 178.497 29.8251C178.848 29.1674 178.918 28.4217 178.691 27.7177L175.083 16.4023L167.434 18.6024Z" fill="#565656"/>
<path d="M170.367 8.20387L172.064 11.5341L167.18 12.9421L166.583 9.29696C166.417 8.76894 166.727 8.2085 167.282 8.05102L169.058 7.53689C169.613 7.37478 170.2 7.67585 170.367 8.20387Z" fill="white"/>
<path d="M167.18 13.0534C167.157 13.0534 167.138 13.0488 167.12 13.0349C167.092 13.0163 167.073 12.9885 167.069 12.9561L166.472 9.31094C166.389 9.05156 166.417 8.75513 166.551 8.49575C166.694 8.22248 166.944 8.02331 167.254 7.93531L169.03 7.42118C169.64 7.24518 170.288 7.57403 170.477 8.153L172.17 11.474C172.184 11.5064 172.189 11.5434 172.175 11.5712C172.161 11.6037 172.133 11.6268 172.101 11.6361L167.217 13.0441C167.203 13.0534 167.189 13.0534 167.18 13.0534ZM169.363 7.60645C169.27 7.60645 169.183 7.62035 169.09 7.64351L167.314 8.15763C167.069 8.22711 166.87 8.38922 166.754 8.60691C166.648 8.81071 166.625 9.04229 166.694 9.25999L167.277 12.794L171.902 11.4601L170.269 8.2549C170.265 8.25027 170.265 8.24563 170.26 8.23637C170.135 7.85657 169.765 7.60645 169.363 7.60645Z" fill="#565656"/>
<path d="M172.976 11.8587L175.159 16.2539L167.288 18.5235L166.538 13.7161C166.487 13.3919 166.695 13.0815 167.024 12.9843L172.144 11.5067C172.477 11.4095 172.828 11.5623 172.976 11.8587Z" fill="white"/>
<path d="M167.294 18.6393C167.271 18.6393 167.253 18.6347 167.234 18.6208C167.207 18.6023 167.188 18.5745 167.183 18.5421L166.434 13.7297C166.374 13.3499 166.619 12.9794 167.003 12.8682L172.123 11.3907C172.511 11.2795 172.918 11.4509 173.09 11.8029L175.273 16.1984C175.286 16.2308 175.291 16.2633 175.273 16.2957C175.259 16.3281 175.231 16.3513 175.199 16.3605L167.327 18.6301C167.313 18.6393 167.304 18.6393 167.294 18.6393ZM172.345 11.5945C172.289 11.5945 172.234 11.6037 172.178 11.6176L167.059 13.0951C166.781 13.1739 166.61 13.4286 166.652 13.6973L167.382 18.38L174.995 16.1845L172.872 11.914C172.78 11.7149 172.567 11.5945 172.345 11.5945Z" fill="#565656"/>
<path d="M168.2 7.89825C168.149 7.89825 168.107 7.86583 168.089 7.81951L167.316 5.39248C167.298 5.33226 167.33 5.26742 167.39 5.24889C167.45 5.23037 167.515 5.26279 167.534 5.323L168.306 7.75004C168.325 7.81025 168.292 7.87509 168.232 7.89362C168.223 7.89825 168.209 7.89825 168.2 7.89825Z" fill="#565656"/>
<path d="M191.955 49.3153C191.941 49.3153 191.932 49.3153 191.918 49.3107C191.858 49.2921 191.825 49.2273 191.844 49.1671L194.244 41.6729C194.263 41.6127 194.327 41.5803 194.387 41.5988C194.448 41.6173 194.48 41.6822 194.461 41.7424L192.061 49.2365C192.052 49.2829 192.006 49.3153 191.955 49.3153Z" fill="#565656"/>
<path d="M194.223 46.1983C194.186 46.1983 194.149 46.1798 194.126 46.1474L189.584 39.334C189.547 39.2831 189.561 39.209 189.616 39.1719C189.667 39.1349 189.741 39.1488 189.778 39.2044L194.32 46.0177C194.357 46.0686 194.343 46.1427 194.288 46.1798C194.269 46.1937 194.246 46.1983 194.223 46.1983Z" fill="#565656"/>
<path d="M182.79 46.7541C182.753 46.7541 182.721 46.7356 182.698 46.7078C182.661 46.6568 182.67 46.5827 182.725 46.5457L189.843 41.3813C189.894 41.3442 189.968 41.3535 190.005 41.4091C190.042 41.46 190.033 41.5341 189.977 41.5712L182.859 46.7356C182.836 46.7495 182.813 46.7541 182.79 46.7541Z" fill="#565656"/>
<path d="M192.232 48.6394C192.2 48.6394 192.172 48.6255 192.149 48.6023L186.335 42.4606C186.294 42.4143 186.294 42.3402 186.34 42.2985C186.386 42.2568 186.46 42.2568 186.502 42.3031L192.315 48.4448C192.357 48.4911 192.357 48.5653 192.311 48.6069C192.292 48.6301 192.265 48.6394 192.232 48.6394Z" fill="#565656"/>
<path d="M188.673 51.3582C188.631 51.3582 188.59 51.335 188.567 51.2887L185.223 44.0354C185.195 43.9751 185.223 43.9103 185.278 43.8825C185.334 43.8547 185.403 43.8825 185.431 43.9381L188.775 51.1914C188.803 51.2516 188.775 51.3165 188.719 51.3442C188.705 51.3535 188.687 51.3582 188.673 51.3582Z" fill="#565656"/>
<path d="M158.873 14.3179C158.859 14.3179 158.85 14.3179 158.836 14.3132C158.776 14.2947 158.743 14.2299 158.762 14.1696L161.162 6.67547C161.181 6.61526 161.245 6.58284 161.306 6.60136C161.366 6.61989 161.398 6.68473 161.38 6.74495L158.979 14.2391C158.97 14.2901 158.924 14.3179 158.873 14.3179Z" fill="#565656"/>
<path d="M155.588 16.3605C155.546 16.3605 155.505 16.3373 155.482 16.291L152.133 9.03766C152.105 8.97745 152.133 8.91261 152.189 8.88482C152.244 8.85703 152.313 8.88482 152.341 8.9404L155.69 16.1937C155.717 16.2539 155.69 16.3188 155.634 16.3466C155.625 16.3558 155.607 16.3605 155.588 16.3605Z" fill="#565656"/>
<path d="M160.491 99.8803L159.437 98.551C160.121 98.1573 160.32 97.3931 159.876 96.8373C159.437 96.2815 158.526 96.1518 157.841 96.5408L156.787 95.2115L154.308 96.6288L158.012 101.293L160.491 99.8803Z" fill="#BCBCBC"/>
<path d="M158.012 101.413C157.98 101.413 157.943 101.399 157.92 101.372L154.215 96.7074C154.192 96.6796 154.188 96.6471 154.192 96.6147C154.197 96.5823 154.22 96.5545 154.248 96.536L156.727 95.1187C156.778 95.0909 156.838 95.1001 156.875 95.1465L157.869 96.397C158.586 96.0358 159.511 96.1932 159.964 96.7676C160.182 97.0408 160.269 97.379 160.205 97.7124C160.14 98.0506 159.923 98.3655 159.608 98.5832L160.584 99.8106C160.607 99.8384 160.612 99.8708 160.607 99.9033C160.602 99.9357 160.579 99.9635 160.552 99.982L158.073 101.399C158.054 101.409 158.036 101.413 158.012 101.413ZM154.484 96.6703L158.045 101.149L160.32 99.8477L159.349 98.6249C159.326 98.5971 159.321 98.5647 159.326 98.5323C159.331 98.4998 159.354 98.4721 159.381 98.4535C159.705 98.2683 159.923 97.9857 159.983 97.6708C160.034 97.4021 159.964 97.1335 159.788 96.9112C159.381 96.4017 158.535 96.2812 157.901 96.6471C157.851 96.6749 157.79 96.661 157.753 96.6193L156.759 95.3688L154.484 96.6703Z" fill="#565656"/>
<path d="M162.245 98.62L163.951 97.8604C164.381 98.444 165.311 98.657 166.028 98.3421C166.74 98.0271 166.967 97.2953 166.537 96.7163L168.243 95.9567L166.675 93.8493L160.677 96.5125L162.245 98.62Z" fill="#BCBCBC"/>
<path d="M162.243 98.7361C162.206 98.7361 162.174 98.7175 162.151 98.6898L160.583 96.5823C160.56 96.5545 160.555 96.5175 160.564 96.485C160.573 96.4526 160.597 96.4248 160.629 96.4063L166.628 93.743C166.678 93.7199 166.734 93.7384 166.766 93.7801L168.33 95.8875C168.353 95.9153 168.357 95.9524 168.348 95.9848C168.339 96.0172 168.316 96.045 168.283 96.0589L166.702 96.7629C166.859 97.0316 166.905 97.328 166.831 97.6106C166.739 97.9672 166.461 98.2729 166.068 98.4443C165.337 98.7685 164.394 98.5647 163.913 97.9996L162.285 98.7222C162.275 98.7314 162.262 98.7361 162.243 98.7361ZM160.856 96.5638L162.28 98.4813L163.903 97.7588C163.954 97.7356 164.01 97.7541 164.042 97.7958C164.445 98.3331 165.309 98.5323 165.975 98.2405C166.304 98.0969 166.53 97.8468 166.609 97.5596C166.678 97.3002 166.618 97.027 166.438 96.7907C166.415 96.7629 166.41 96.7259 166.419 96.6935C166.429 96.661 166.452 96.6333 166.484 96.6194L168.061 95.92L166.637 94.0024L160.856 96.5638Z" fill="#565656"/>
<path d="M160.632 94.9426L161.363 93.479C162.149 93.706 163.037 93.4003 163.342 92.7889C163.648 92.1775 163.259 91.4966 162.468 91.2697L163.199 89.806L160.345 88.977L157.769 94.1182L160.632 94.9426Z" fill="#BCBCBC"/>
<path d="M160.634 95.0585C160.625 95.0585 160.611 95.0585 160.601 95.0538L157.748 94.2247C157.715 94.2155 157.688 94.1923 157.674 94.1599C157.66 94.1275 157.66 94.0904 157.678 94.0626L160.255 88.9214C160.278 88.8704 160.338 88.8473 160.389 88.8612L163.242 89.6903C163.275 89.6995 163.302 89.7227 163.316 89.7551C163.33 89.7875 163.33 89.8246 163.312 89.8524L162.636 91.1956C163.03 91.3438 163.335 91.6078 163.478 91.9367C163.603 92.2285 163.594 92.548 163.45 92.8352C163.131 93.4698 162.239 93.8032 161.425 93.6087L160.736 94.989C160.717 95.0353 160.675 95.0585 160.634 95.0585ZM157.947 94.0441L160.574 94.8083L161.263 93.4327C161.286 93.3818 161.346 93.3586 161.397 93.3725C162.137 93.5856 162.96 93.303 163.242 92.738C163.358 92.5064 163.367 92.2655 163.265 92.0339C163.136 91.7329 162.835 91.4966 162.442 91.3808C162.41 91.3716 162.382 91.3484 162.368 91.316C162.354 91.2836 162.354 91.2465 162.373 91.2187L163.043 89.8802L160.416 89.1159L157.947 94.0441Z" fill="#565656"/>
<path d="M161.743 72.0343L160.013 71.497L168.056 52.2799L170.285 52.2197L162.057 71.8861C162.007 72.0065 161.868 72.0714 161.743 72.0343Z" fill="#565656"/>
<path d="M174.667 53.2382L170.25 53.09L165.602 51.7792L166.527 49.3522L171.175 50.6676L174.833 52.8029L174.667 53.2382Z" fill="#565656"/>
<path d="M165.602 51.7792V51.1448L174.833 52.1685V52.8029L174.667 53.2382L165.602 51.7792Z" fill="#565656"/>
<path d="M170.008 52.3443V52.8863L160.013 71.497V70.9501L170.008 52.3443Z" fill="#565656"/>
<path d="M161.785 71.5013L160.013 70.9501L168.056 51.733L170.008 52.3397L162.039 71.3762C161.997 71.4827 161.886 71.5337 161.785 71.5013Z" fill="#BCBCBC"/>
<path d="M161.844 71.6264C161.812 71.6264 161.78 71.6218 161.747 71.6125L159.976 71.0613C159.944 71.0521 159.92 71.0289 159.907 71.0011C159.893 70.9733 159.893 70.9363 159.907 70.9085L167.949 51.6914C167.973 51.6358 168.033 51.608 168.088 51.6265L170.045 52.2333C170.077 52.2425 170.1 52.2657 170.114 52.2935C170.128 52.3213 170.128 52.3583 170.114 52.3861L162.145 71.4226C162.094 71.5523 161.974 71.6264 161.844 71.6264ZM160.17 70.8761L161.821 71.3902C161.868 71.4041 161.918 71.3809 161.937 71.3346L169.855 52.4139L168.121 51.8766L160.17 70.8761Z" fill="#565656"/>
<path d="M174.667 52.604L170.25 52.4558L165.602 51.1448L166.527 48.7179L171.175 50.0334L174.833 52.1685L174.667 52.604Z" fill="#BCBCBC"/>
<path d="M174.669 52.7196L170.248 52.5714L165.572 51.256C165.539 51.2467 165.516 51.2236 165.498 51.1958C165.484 51.168 165.479 51.1309 165.493 51.1031L166.418 48.6807C166.437 48.6251 166.497 48.5927 166.557 48.6113L171.205 49.922C171.214 49.9267 171.223 49.9267 171.233 49.9313L174.896 52.0665C174.947 52.0943 174.965 52.1545 174.947 52.2055L174.78 52.6409C174.762 52.6918 174.72 52.7196 174.669 52.7196ZM165.757 51.0661L170.285 52.3444L174.59 52.4834L174.692 52.2148L171.131 50.1397L166.598 48.8614L165.757 51.0661Z" fill="#565656"/>
<path d="M93.8506 99.1854C93.8506 99.1854 87.9861 102.284 86.1315 103.938C84.263 105.605 82.8061 111.529 80.748 110.848C75.3228 109.051 80.3687 100.153 81.747 98.7593C84.5081 95.9663 88.8972 94.6694 88.8972 94.6694L93.8506 99.1854Z" fill="white"/>
<path d="M81.0866 111.02C80.9664 111.02 80.8415 111.001 80.712 110.959C79.417 110.533 78.6076 109.676 78.307 108.416C77.5161 105.119 80.527 99.8292 81.6647 98.6759C84.4166 95.8922 88.8196 94.5675 88.8659 94.5536C88.9029 94.5397 88.9445 94.5536 88.9769 94.5814L93.9256 99.102C93.9534 99.1252 93.9672 99.1669 93.9626 99.2039C93.958 99.241 93.9349 99.2734 93.9025 99.2919C93.8424 99.3243 88.0287 102.404 86.2065 104.03C85.485 104.674 84.8051 106.003 84.1484 107.291C83.1725 109.199 82.2475 111.02 81.0866 111.02ZM88.8705 94.7945C88.3294 94.9659 84.3611 96.2766 81.8312 98.838C81.3641 99.3104 80.3327 100.839 79.5049 102.761C78.825 104.336 78.1081 106.582 78.5336 108.361C78.8157 109.537 79.5742 110.334 80.786 110.737C81.933 111.117 82.9551 109.116 83.9449 107.18C84.6109 105.874 85.3 104.526 86.0539 103.854C87.7559 102.335 92.7139 99.6625 93.6481 99.1622L88.8705 94.7945Z" fill="#565656"/>
<path d="M105.842 115.716C105.842 115.716 102.017 118.921 100.564 120.964C99.1076 123.006 96.4112 128.884 92.6557 126.374C89.2841 124.123 96.2586 115.359 97.7154 114.049C99.1723 112.738 100.893 111.196 100.893 111.196L105.842 115.716Z" fill="white"/>
<path d="M94.4908 127.101C93.8572 127.101 93.2189 126.888 92.5899 126.471C92.0118 126.087 91.6927 125.498 91.6372 124.725C91.392 121.316 96.3778 115.1 97.6358 113.965C99.0927 112.655 100.818 111.112 100.818 111.112C100.864 111.07 100.929 111.075 100.97 111.112L105.919 115.633C105.942 115.656 105.956 115.688 105.956 115.721C105.956 115.753 105.942 115.786 105.915 115.809C105.878 115.841 102.085 119.028 100.656 121.033C100.434 121.348 100.184 121.747 99.8928 122.21C98.7365 124.063 97.1502 126.596 95.0967 127.041C94.8978 127.082 94.6943 127.101 94.4908 127.101ZM100.892 111.353C100.54 111.668 99.0649 112.993 97.7884 114.137C97.1687 114.697 95.6054 116.554 94.2827 118.588C93.1079 120.394 91.7389 122.923 91.8638 124.706C91.9147 125.406 92.2014 125.934 92.7148 126.277C93.4918 126.795 94.278 126.971 95.0458 126.809C97.0022 126.388 98.5562 123.9 99.6939 122.085C99.9853 121.617 100.235 121.214 100.466 120.894C101.78 119.051 105.045 116.235 105.665 115.711L100.892 111.353Z" fill="#565656"/>
<path d="M97.6154 111.821C89.9564 109.676 88.0463 104.595 86.9918 103.34C85.9373 102.085 84.1289 100.992 83.1854 99.4125C79.0507 92.4834 81.5898 86.6752 81.5898 86.6752L103.919 78.3427C103.919 78.3427 115.782 71.2746 121.679 75.8647C127.576 80.4548 125.06 84.9012 125.06 84.9012C125.06 84.9012 143.926 80.3575 140.105 93.8961C137.298 103.854 103.138 118.644 103.138 118.644C103.794 115.749 101.51 112.72 97.6154 111.821Z" fill="#565656"/>
<path d="M112.123 74.2666C115.263 73.808 116.401 73.5023 118.542 74.5723C120.684 75.6422 122.682 78.5509 117.113 77.7867C111.549 77.0224 110.837 77.1753 110.837 77.1753L112.123 74.2666Z" fill="white"/>
<path d="M118.725 78.0276C118.281 78.0276 117.745 77.9905 117.107 77.9025C111.7 77.1568 110.895 77.2818 110.868 77.2911C110.826 77.2957 110.784 77.2819 110.757 77.2494C110.729 77.217 110.724 77.1707 110.743 77.1336L112.028 74.2249C112.042 74.1878 112.079 74.1647 112.116 74.1554C112.394 74.1137 112.653 74.0767 112.903 74.0396C115.456 73.6552 116.621 73.4792 118.605 74.475C119.882 75.1142 121.075 76.3648 120.811 77.2124C120.682 77.6107 120.196 78.0276 118.725 78.0276ZM111.113 77.0456C111.663 77.0456 113.18 77.129 117.134 77.6709C119.872 78.0461 120.469 77.4949 120.585 77.1336C120.807 76.4111 119.664 75.2578 118.494 74.6742C116.575 73.7154 115.506 73.8729 112.926 74.2619C112.699 74.2944 112.459 74.3314 112.204 74.3685L111.025 77.0456C111.053 77.0456 111.08 77.0456 111.113 77.0456Z" fill="#565656"/>
<path d="M109.919 91.3486C109.886 91.3486 109.854 91.3347 109.831 91.3069C109.789 91.2559 109.794 91.1865 109.845 91.1448C109.858 91.1355 111.2 90.0146 113.73 88.6807C116.061 87.4486 119.918 85.7766 125.033 84.7993C125.098 84.7854 125.158 84.8271 125.167 84.8919C125.181 84.9568 125.139 85.017 125.075 85.0262C115.344 86.8928 110.043 91.2791 109.993 91.3254C109.974 91.3393 109.946 91.3486 109.919 91.3486Z" fill="white"/>
<path d="M98.7755 112.006C98.3454 112.006 97.9477 111.983 97.5962 111.937C97.5314 111.928 97.4898 111.872 97.4944 111.807C97.5036 111.742 97.5592 111.701 97.6239 111.705C102.776 112.386 117.313 107.87 122.59 103.22C122.636 103.178 122.71 103.183 122.752 103.229C122.793 103.275 122.789 103.35 122.742 103.391C117.794 107.764 104.728 112.006 98.7755 112.006Z" fill="white"/>
<path d="M96.8931 40.4501L106.379 46.2583L111.651 35.3042L102.281 31.5711L96.8931 40.4501Z" fill="white"/>
<path d="M106.379 46.3742C106.356 46.3742 106.337 46.3696 106.319 46.3557L96.8283 40.5474C96.7728 40.515 96.7543 40.4409 96.7913 40.39L102.184 31.5109C102.212 31.46 102.277 31.4414 102.327 31.4646L111.698 35.1978C111.725 35.2117 111.753 35.2348 111.762 35.2626C111.772 35.2904 111.772 35.3275 111.758 35.3553L106.485 46.3093C106.471 46.3371 106.444 46.3603 106.411 46.3696C106.402 46.3742 106.393 46.3742 106.379 46.3742ZM97.0503 40.4131L106.333 46.0916L111.494 35.3645L102.332 31.7147L97.0503 40.4131Z" fill="#565656"/>
<path d="M105.306 23.5071C102.416 29.5794 105.746 37.9999 110.329 40.1907C114.913 42.3815 117.6 36.967 120.49 30.8948C123.381 24.8225 121.48 19.6026 116.924 17.3608C110.537 14.2112 108.197 17.4349 105.306 23.5071Z" fill="white"/>
<path d="M112.315 40.793C111.677 40.793 111.001 40.6355 110.28 40.2927C108 39.2043 105.993 36.6059 104.906 33.3405C103.754 29.8759 103.86 26.2724 105.202 23.4563C107.075 19.524 108.61 17.0923 110.904 16.291C112.551 15.7167 114.479 16.0224 116.972 17.2544C121.884 19.6768 123.336 25.1747 120.589 30.9459C118.281 35.7999 115.904 40.793 112.315 40.793ZM112.602 16.2447C112.028 16.2447 111.492 16.3327 110.983 16.5087C108.763 17.2822 107.26 19.6768 105.41 23.5536C104.092 26.3187 103.99 29.8574 105.123 33.2664C106.191 36.4715 108.157 39.019 110.377 40.0843C111.071 40.4178 111.723 40.5706 112.338 40.5706C115.756 40.5706 118.013 35.8277 120.386 30.844C123.073 25.1979 121.662 19.8204 116.875 17.4628C115.219 16.6477 113.823 16.2447 112.602 16.2447Z" fill="#565656"/>
<path d="M109.206 36.7587L113.974 32.2427L117.512 32.0389L119.427 27.9306C119.427 27.9306 121.606 27.8101 122.748 26.189C123.201 25.5452 124.704 24.1742 125.162 22.9468C125.861 21.0848 125.324 19.1997 124.311 17.8519C122.632 15.6194 120.838 15.9158 117.845 14.8459C114.853 13.7759 112.911 14.341 112.911 14.341C112.911 14.341 112.328 13.4564 110.422 13.2803C108.392 13.0951 106.408 14.5448 105.464 15.7861C104.516 17.0228 103.707 18.3753 102.754 20.7328C101.801 23.0904 101.515 25.3599 101.311 27.787C101.094 30.4039 101.293 32.6827 101.293 32.6827C103.235 34.679 105.719 36.1241 109.206 36.7587Z" fill="#565656"/>
<path d="M113.347 31.9231C113.579 30.3067 114.513 29.107 115.438 29.2367C116.363 29.3664 116.927 30.7837 116.696 32.4002C116.465 34.0167 115.53 35.2163 114.605 35.0866C113.68 34.9569 113.116 33.5396 113.347 31.9231Z" fill="white"/>
<path d="M114.743 35.2117C114.692 35.2117 114.641 35.207 114.59 35.2024C113.605 35.0634 112.994 33.5859 113.235 31.9092C113.35 31.1079 113.633 30.3807 114.04 29.8574C114.46 29.3154 114.96 29.0561 115.45 29.1255C115.94 29.195 116.352 29.5841 116.602 30.2233C116.847 30.8393 116.921 31.6174 116.805 32.4187C116.583 34.0074 115.677 35.2117 114.743 35.2117ZM115.298 29.3432C114.932 29.3432 114.553 29.5702 114.225 29.9963C113.841 30.4873 113.572 31.1774 113.466 31.9416C113.249 33.4933 113.767 34.8504 114.627 34.9754C115.473 35.0959 116.366 33.9379 116.583 32.3863C116.69 31.6267 116.625 30.8856 116.394 30.3066C116.172 29.7508 115.825 29.4127 115.422 29.3525C115.376 29.3479 115.335 29.3432 115.298 29.3432Z" fill="#565656"/>
<path d="M82.4473 64.3085C83.8302 52.6272 86.4803 41.7472 88.3118 38.505C89.6761 36.0872 92.7009 36.555 95.4528 36.9024C95.4528 36.9024 96.6738 37.31 98.5099 37.6805C98.5099 37.6805 98.1676 39.8111 101.576 41.1451C104.985 42.4837 108.25 42.0714 108.25 42.0714C108.25 42.0714 113.472 45.6657 115.858 48.1714C118.245 50.6772 118.573 53.7944 118.43 57.2775C118.319 59.8851 116.52 58.3937 116.21 61.7239C115.498 69.4034 113.384 70.3344 113.291 81.2329C113.208 90.6816 114.36 91.3254 111.784 96.8326C109.346 102.048 100.355 103.868 94.1161 101.325C86.3693 98.1712 82.4935 93.3634 81.069 91.3254C79.6399 89.2967 81.0644 75.9897 82.4473 64.3085Z" fill="#303030"/>
<path d="M100.25 102.567C98.0672 102.567 95.9074 102.192 94.0666 101.441C86.6805 98.4354 82.6891 93.8592 80.9686 91.4044C79.5811 89.422 80.8021 77.2081 82.333 64.2994C83.7806 52.0716 86.4585 41.5529 88.2114 38.4496C89.5711 36.0411 92.5635 36.4209 95.1997 36.7544L95.4634 36.7868C95.4957 36.7961 96.7214 37.2037 98.5297 37.5649C98.5899 37.5788 98.6315 37.6344 98.6222 37.6946C98.6084 37.778 98.3447 39.7511 101.615 41.0341C104.958 42.3449 108.201 41.9605 108.233 41.9558C108.261 41.9512 108.288 41.9605 108.312 41.9744C108.362 42.0114 113.57 45.601 115.938 48.0883C118.45 50.7284 118.676 54.0632 118.542 57.2777C118.487 58.5699 118.024 58.908 117.538 59.2647C117.02 59.6445 116.479 60.0335 116.322 61.7288C116.031 64.8552 115.499 66.9024 114.985 68.8802C114.236 71.775 113.459 74.7671 113.404 81.2284C113.381 83.938 113.459 85.9158 113.519 87.5091C113.677 91.4507 113.732 92.9282 111.887 96.8791C110.106 100.682 105.125 102.567 100.25 102.567ZM92.2675 36.7312C90.6487 36.7312 89.2242 37.1157 88.4102 38.5608C86.6712 41.6409 84.0072 52.1225 82.5596 64.3225C81.5329 72.9746 79.6274 89.0839 81.1536 91.2654C82.8602 93.7017 86.8192 98.2362 94.1499 101.224C100.028 103.614 109.153 102.169 111.669 96.7865C113.492 92.8865 113.436 91.4275 113.283 87.523C113.219 85.9296 113.145 83.9473 113.168 81.2331C113.223 74.744 114.005 71.738 114.759 68.8292C115.272 66.8607 115.799 64.8228 116.086 61.7149C116.253 59.9131 116.859 59.4731 117.395 59.084C117.858 58.7459 118.255 58.4587 118.306 57.2777C118.44 54.1142 118.223 50.8303 115.767 48.255C113.515 45.8928 108.672 42.5163 108.21 42.1967C107.803 42.2384 104.709 42.5024 101.527 41.2564C98.4742 40.0614 98.354 38.2458 98.3771 37.778C96.615 37.4167 95.4217 37.0184 95.4079 37.0184L95.1627 36.9906C94.1869 36.8609 93.1971 36.7312 92.2675 36.7312Z" fill="#565656"/>
<path d="M149.845 72.9099C154.919 71.9234 158.434 70.4644 158.225 69.7418C157.985 68.8849 157.374 69.2555 157.374 69.2555C157.374 69.2555 157.994 68.8849 157.795 68.3338C157.583 67.7409 157.004 67.6344 157.004 67.6344C157.004 67.6344 157.263 67.2638 156.963 66.6432C156.69 66.0827 156.052 66.2819 156.052 66.2819C156.052 66.2819 157.546 65.1147 158.161 64.8183C158.776 64.5218 159.386 63.7761 158.369 63.6464C157.347 63.5214 152.393 66.7497 152.393 66.7497C152.856 65.4991 152.685 64.7812 152.412 64.3829C152.218 64.0957 151.783 64.1605 151.663 64.4801C151.191 65.7307 149.9 67.287 148.892 67.991C148.023 68.5978 148.522 69.1675 148.522 69.1675L149.845 72.9099Z" fill="white"/>
<path d="M149.845 73.0256C149.799 73.0256 149.752 72.9931 149.734 72.9468L148.42 69.2183C148.374 69.1534 148.235 68.9496 148.272 68.6671C148.305 68.3892 148.494 68.1252 148.827 67.8936C149.752 67.2451 151.061 65.7398 151.556 64.4337C151.63 64.2391 151.801 64.1048 152.009 64.0817C152.204 64.0539 152.398 64.1419 152.514 64.3132C152.759 64.6745 152.958 65.3369 152.611 66.4716C153.684 65.7861 157.467 63.4101 158.383 63.5305C158.864 63.5907 158.998 63.7899 159.026 63.9427C159.081 64.2901 158.651 64.7069 158.216 64.9154C157.786 65.1238 156.903 65.7769 156.436 66.1289C156.671 66.1567 156.926 66.2771 157.074 66.5828C157.296 67.0367 157.24 67.3748 157.176 67.5555C157.379 67.6296 157.744 67.8241 157.911 68.2919C158.017 68.5976 157.916 68.8663 157.758 69.0654C157.8 69.0701 157.842 69.0839 157.883 69.0978C158.096 69.1812 158.249 69.385 158.336 69.7092C158.364 69.8158 158.346 69.9269 158.272 70.0427C157.735 70.9135 154.123 72.1965 149.863 73.0256C149.859 73.0256 149.854 73.0256 149.845 73.0256ZM152.074 64.3132C152.06 64.3132 152.051 64.3132 152.037 64.3132C151.917 64.3271 151.82 64.4059 151.774 64.517C151.265 65.8649 149.919 67.4165 148.962 68.0835C148.684 68.278 148.531 68.4818 148.504 68.6902C148.476 68.9172 148.605 69.0793 148.615 69.084C148.624 69.0932 148.633 69.1071 148.638 69.121L149.924 72.7708C154.484 71.8723 157.652 70.6171 158.082 69.913C158.119 69.8528 158.133 69.8019 158.119 69.7648C158.05 69.5147 157.943 69.3619 157.805 69.3063C157.629 69.2368 157.448 69.3433 157.439 69.3433C157.384 69.3757 157.314 69.3572 157.282 69.3016C157.25 69.2461 157.268 69.1766 157.319 69.1442C157.347 69.1256 157.851 68.8107 157.694 68.3614C157.509 67.838 157.014 67.7407 156.991 67.7361C156.954 67.7268 156.921 67.7037 156.903 67.6666C156.889 67.6296 156.893 67.5879 156.917 67.5555C156.926 67.5416 157.129 67.2266 156.866 66.6801C156.639 66.2169 156.116 66.3697 156.093 66.379C156.042 66.3975 155.982 66.3697 155.959 66.3234C155.931 66.2725 155.945 66.2123 155.992 66.1798C156.052 66.1335 157.504 65.0034 158.119 64.7023C158.508 64.5124 158.836 64.165 158.804 63.9751C158.78 63.8269 158.517 63.7713 158.36 63.7528C157.559 63.6509 153.832 65.9436 152.463 66.8375C152.421 66.8653 152.366 66.8607 152.329 66.8329C152.292 66.8005 152.273 66.7495 152.292 66.7032C152.745 65.4666 152.56 64.7903 152.324 64.4383C152.264 64.3596 152.176 64.3132 152.074 64.3132Z" fill="#565656"/>
<path d="M114.932 47.3144C120.893 53.1458 126.027 65.5079 129.792 75.1976L147.584 67.2773C149.467 69.5746 150.475 71.8488 150.549 74.1091C150.549 74.1091 127.049 89.1345 122.753 87.0224C118.456 84.9103 112.101 64.0119 112.101 64.0119L114.932 47.3144Z" fill="#303030"/>
<path d="M123.834 87.3375C123.367 87.3375 122.992 87.268 122.701 87.1244C120.893 86.2351 118.538 82.0758 115.708 74.7669C113.604 69.3385 112.008 64.1 111.989 64.0444C111.971 63.9842 112.003 63.9194 112.068 63.9008C112.133 63.8823 112.193 63.9147 112.211 63.9796C112.276 64.188 118.603 84.8549 122.803 86.9206C126.891 88.9354 149.151 74.8642 150.432 74.049C150.34 71.8952 149.373 69.6627 147.551 67.421L129.842 75.3042C129.814 75.3181 129.782 75.3181 129.749 75.3042C129.722 75.2903 129.699 75.2671 129.685 75.2393C125.555 64.6048 120.56 52.9838 114.852 47.3979C114.806 47.3516 114.806 47.2821 114.852 47.2358C114.899 47.1895 114.968 47.1895 115.014 47.2358C120.735 52.8309 125.726 64.4196 129.856 75.0448L147.537 67.1755C147.588 67.1523 147.639 67.1662 147.671 67.2079C149.581 69.5377 150.585 71.8582 150.664 74.1092C150.664 74.1509 150.645 74.1879 150.608 74.2111C150.548 74.2482 144.656 78.0091 138.315 81.4644C131.137 85.369 126.281 87.3375 123.834 87.3375Z" fill="#565656"/>
</svg>
