<svg width="25" height="25" viewBox="0 0 25 25" fill="none" xmlns="http://www.w3.org/2000/svg">
<g clip-path="url(#clip0_233_9477)">
<path d="M15.2567 7.83899C15.2567 8.52203 15.0161 9.10417 14.5349 9.58541C14.0536 10.0666 13.4715 10.3073 12.7884 10.3073C12.1054 10.3073 11.5232 10.0666 11.042 9.58541C10.5608 9.10417 10.3202 8.52203 10.3202 7.83899C10.3202 7.15595 10.5608 6.57381 11.042 6.09257C11.5232 5.61134 12.1054 5.37072 12.7884 5.37072C13.4715 5.37072 14.0536 5.61134 14.5349 6.09257C15.0161 6.57381 15.2567 7.15595 15.2567 7.83899ZM18.5788 13.4741C18.4753 13.2671 18.3304 13.1015 18.1441 12.9773C17.9578 12.8532 17.712 12.804 17.4067 12.8299C17.1014 12.8557 16.7884 12.998 16.4676 13.2568C16.3641 13.3396 16.214 13.4431 16.0174 13.5672C15.8207 13.6914 15.4016 13.857 14.7599 14.064C14.1183 14.271 13.4611 14.3745 12.7884 14.3745C12.1157 14.3745 11.4741 14.2813 10.8635 14.0951C10.2529 13.9088 9.80788 13.7225 9.52845 13.5362L9.10931 13.2568C8.78849 12.998 8.47543 12.8557 8.17013 12.8299C7.86483 12.804 7.61903 12.8532 7.43275 12.9773C7.24646 13.1015 7.10157 13.2671 6.99808 13.4741C6.7704 13.9398 6.76005 14.3253 6.96704 14.6306C7.17402 14.9359 7.62421 15.3163 8.3176 15.7716C9.17658 16.3201 10.346 16.6668 11.826 16.8117L11.0343 17.6189C9.56467 19.0885 8.57633 20.0717 8.06922 20.5684C7.84154 20.7961 7.7277 21.0678 7.7277 21.3834C7.7277 21.6991 7.84154 21.9708 8.06922 22.1984L8.20893 22.3382C8.43662 22.5658 8.70828 22.6797 9.02393 22.6797C9.33958 22.6797 9.61124 22.5658 9.83893 22.3382L12.804 19.3731C13.9838 20.5633 14.9721 21.5516 15.769 22.3382C15.9967 22.5658 16.2683 22.6797 16.584 22.6797C16.8996 22.6797 17.1713 22.5658 17.399 22.3382L17.5387 22.1984C17.7664 21.9708 17.8802 21.6991 17.8802 21.3834C17.8802 21.0678 17.7664 20.7961 17.5387 20.5684L14.5737 17.6189L13.7664 16.8117C15.2257 16.6668 16.3899 16.3201 17.2593 15.7716C17.9527 15.3163 18.4028 14.9359 18.6098 14.6306C18.8168 14.3253 18.8065 13.9398 18.5788 13.4741ZM17.8181 7.83899C17.8181 6.4522 17.3265 5.26723 16.3434 4.28406C15.3602 3.30089 14.1752 2.8093 12.7884 2.8093C11.4016 2.8093 10.2167 3.30089 9.2335 4.28406C8.25033 5.26723 7.75875 6.4522 7.75875 7.83899C7.75875 9.22578 8.25033 10.4108 9.2335 11.3939C10.2167 12.3771 11.4016 12.8687 12.7884 12.8687C14.1752 12.8687 15.3602 12.3771 16.3434 11.3939C17.3265 10.4108 17.8181 9.22578 17.8181 7.83899ZM24.7107 5.2931V20.1959C24.7107 21.4274 24.2734 22.4805 23.3989 23.355C22.5244 24.2295 21.4714 24.6667 20.2398 24.6667H5.33704C4.1055 24.6667 3.05247 24.2295 2.17797 23.355C1.30346 22.4805 0.866211 21.4274 0.866211 20.1959V5.2931C0.866211 4.06155 1.30346 3.00852 2.17797 2.13402C3.05247 1.25952 4.1055 0.822266 5.33704 0.822266H20.2398C21.4714 0.822266 22.5244 1.25952 23.3989 2.13402C24.2734 3.00852 24.7107 4.06155 24.7107 5.2931Z" fill="#202020"/>
</g>
<defs>
<clipPath id="clip0_233_9477">
<rect width="23.8444" height="23.8444" fill="white" transform="translate(0.866211 0.822266)"/>
</clipPath>
</defs>
</svg>
