<svg width="25" height="25" viewBox="0 0 25 25" fill="none" xmlns="http://www.w3.org/2000/svg">
<g clip-path="url(#clip0_233_9475)">
<path d="M14.6432 12.1277L11.8731 10.8352C11.6314 10.7229 11.4328 10.8487 11.4328 11.1164V13.551C11.4328 13.8186 11.6314 13.9444 11.8731 13.8322L14.642 12.5396C14.8849 12.4262 14.8849 12.2412 14.6432 12.1277ZM12.6662 0.493652C6.12704 0.493652 0.826172 5.79452 0.826172 12.3337C0.826172 18.8728 6.12704 24.1737 12.6662 24.1737C19.2053 24.1737 24.5062 18.8728 24.5062 12.3337C24.5062 5.79452 19.2053 0.493652 12.6662 0.493652ZM12.6662 17.1437C6.60557 17.1437 6.49951 16.5973 6.49951 12.3337C6.49951 8.07002 6.60557 7.52365 12.6662 7.52365C18.7268 7.52365 18.8328 8.07002 18.8328 12.3337C18.8328 16.5973 18.7268 17.1437 12.6662 17.1437Z" fill="#202020"/>
</g>
<defs>
<clipPath id="clip0_233_9475">
<rect width="24.6667" height="24.6667" fill="white" transform="translate(0.333008)"/>
</clipPath>
</defs>
</svg>
