<svg width="99" height="94" viewBox="0 0 99 94" fill="none" xmlns="http://www.w3.org/2000/svg">
<path d="M10.5238 46.7889L0.398433 45.5919L1.3472 37.8089L11.4725 39.0059L11.3223 40.2385L2.38527 39.182L1.737 44.4999L10.674 45.5564L10.5238 46.7889Z" fill="#797979"/>
<path d="M13.1838 34.2006C12.9195 34.9024 12.5297 35.4493 12.0144 35.8413C11.5008 36.2289 10.9067 36.4557 10.2323 36.5218C9.5578 36.5878 8.85095 36.4858 8.1117 36.2157C7.35919 35.9409 6.75218 35.5604 6.29067 35.0745C5.82915 34.5885 5.5373 34.0331 5.41513 33.4083C5.28854 32.7818 5.35496 32.1242 5.6144 31.4355C5.88041 30.7293 6.27105 30.1802 6.78631 29.7883C7.29714 29.3947 7.88896 29.167 8.5618 29.1054C9.23185 29.0377 9.93649 29.1389 10.6757 29.4089C11.4238 29.6822 12.0317 30.0605 12.4992 30.5437C12.9624 31.0253 13.2595 31.5801 13.3905 32.2082C13.5171 32.8346 13.4482 33.4988 13.1838 34.2006ZM12.0617 33.7907C12.3376 33.0583 12.2949 32.4229 11.9338 31.8843C11.5727 31.3458 10.9981 30.9326 10.2102 30.6448C9.40015 30.3488 8.68794 30.2945 8.07358 30.4817C7.4548 30.6672 7.00912 31.1218 6.73654 31.8454C6.551 32.338 6.51116 32.7846 6.61705 33.1853C6.72294 33.586 6.94552 33.9376 7.2848 34.24C7.62408 34.5425 8.05489 34.7891 8.57723 34.9799C9.38286 35.2742 10.0981 35.3272 10.723 35.1389C11.3478 34.9506 11.7941 34.5012 12.0617 33.7907Z" fill="#797979"/>
<path d="M14.7198 29.5093L13.8056 28.9365C14.0015 28.7286 14.1089 28.5452 14.1277 28.3861C14.1451 28.2207 14.0951 28.0598 13.9777 27.9037C13.8589 27.7411 13.6927 27.5653 13.4791 27.3763C13.1437 27.0725 12.7583 26.7511 12.3226 26.412C11.8895 26.069 11.4088 25.7044 10.8804 25.3182C10.3506 24.9256 9.77849 24.512 9.16396 24.0774L12.0343 19.6349L18.4873 23.6783L17.8106 24.7256L12.3673 21.315L10.7896 23.7569C11.1409 24.01 11.4983 24.2753 11.8619 24.5527C12.228 24.8262 12.5829 25.0954 12.9265 25.3603C13.2662 25.6228 13.5795 25.8741 13.8663 26.1145C14.1516 26.3484 14.3926 26.56 14.5893 26.7493C14.9315 27.0685 15.177 27.3683 15.3258 27.649C15.4707 27.9271 15.4959 28.2129 15.4014 28.5064C15.3109 28.8024 15.0837 29.1367 14.7198 29.5093Z" fill="#797979"/>
<path d="M22.6683 23.8859L20.7861 20.0937L21.6603 20.8888L13.4145 17.6722L14.3303 16.7301L20.9153 19.3658L20.6019 19.6882L17.5283 13.4405L18.4147 12.5286L23.5155 23.0143L22.6683 23.8859Z" fill="#797979"/>
<path d="M28.8947 14.0983L27.3234 11.87C27.1867 12.1163 26.9946 12.3778 26.7472 12.6546C26.5036 12.9287 26.2131 13.1811 25.8757 13.4118C25.2359 13.8494 24.6205 14.0608 24.0295 14.046C23.4386 14.0312 22.8958 13.7995 22.4013 13.3509C22.2533 13.2144 22.1109 13.0655 21.9742 12.9043C21.8414 12.7404 21.7232 12.5891 21.6197 12.4504C21.5162 12.3118 21.4416 12.21 21.3958 12.1451L20.4021 10.7359L21.4492 10.0199L22.4428 11.4291C22.5209 11.5398 22.6218 11.6747 22.7453 11.8336C22.8662 11.9887 22.996 12.132 23.1347 12.2635C23.4789 12.5886 23.8404 12.763 24.2194 12.7869C24.6022 12.8081 25.0186 12.6649 25.4684 12.3573C25.7709 12.1505 26.0232 11.9213 26.2253 11.6699C26.4274 11.4185 26.5713 11.1701 26.6569 10.9248L24.5322 7.91162L25.5734 7.19959L29.936 13.3863L28.8947 14.0983Z" fill="#797979"/>
<path d="M34.4735 2.90874L37.5055 9.82366L36.3872 10.2992L34.1525 5.20262L32.7072 11.864L31.7515 12.2704L28.7195 5.35545L29.8378 4.87993L32.0416 9.90606L33.5243 3.31238L34.4735 2.90874Z" fill="#797979"/>
<path d="M41.1922 8.83617L39.8039 2.58162L37.2025 3.14158L36.9575 2.03784L43.3918 0.652837L43.6368 1.75658L41.0354 2.31653L42.4237 8.57109L41.1922 8.83617Z" fill="#797979"/>
<path d="M49.4461 7.94784C48.6957 7.96781 48.0352 7.8226 47.4647 7.5122C46.8987 7.19703 46.4519 6.7508 46.1244 6.17348C45.7967 5.59151 45.6221 4.90779 45.6005 4.12233C45.5779 3.29969 45.7118 2.58452 46.0021 1.9768C46.2923 1.36443 46.7067 0.888287 47.2452 0.548375C47.7884 0.203694 48.4304 0.0214964 49.1714 0.00177432C49.9407 -0.0186954 50.5991 0.138195 51.1467 0.472454C51.6991 0.806591 52.1186 1.29309 52.4053 1.93197C52.6968 2.57071 52.8359 3.33677 52.8226 4.23013L51.5483 4.26403L51.5361 3.81785C51.4966 2.89334 51.2865 2.20825 50.9058 1.76257C50.5251 1.31224 49.9713 1.09675 49.2445 1.11609C48.4658 1.13681 47.8802 1.39891 47.4878 1.90237C47.0955 2.40583 46.9119 3.11768 46.9372 4.03792C46.9615 4.92563 47.1834 5.60809 47.6026 6.0853C48.0219 6.5625 48.6068 6.79112 49.3572 6.77115C49.8622 6.75771 50.298 6.63217 50.6646 6.3945C51.0312 6.15684 51.3148 5.82139 51.5154 5.38815L52.7373 5.76725C52.4582 6.43979 52.024 6.96762 51.4347 7.35074C50.85 7.72908 50.1871 7.92812 49.4461 7.94784ZM46.522 4.3978L46.4946 3.40087L52.144 3.25053L52.1713 4.24746L46.522 4.3978Z" fill="#797979"/>
<path d="M67.2614 11.2052L68.3251 8.70266C68.0407 8.72152 67.7135 8.70258 67.3435 8.64584C66.9778 8.59089 66.6056 8.48533 66.2267 8.32915C65.5081 8.03295 64.9963 7.63551 64.6913 7.13682C64.3863 6.63813 64.293 6.06288 64.4114 5.41108C64.4488 5.21479 64.4998 5.01656 64.5644 4.81638C64.6333 4.618 64.6994 4.43856 64.7625 4.27808C64.8256 4.1176 64.8726 4.0009 64.9036 3.928L65.5763 2.3454L66.7522 2.8301L66.0795 4.41269C66.0266 4.53707 65.9654 4.69326 65.8957 4.88127C65.8278 5.065 65.7749 5.24981 65.7368 5.43573C65.6434 5.89623 65.6884 6.29025 65.8716 6.61779C66.0592 6.94712 66.4056 7.21591 66.9108 7.42415C67.2505 7.56417 67.5823 7.65053 67.9062 7.68324C68.2301 7.71594 68.5201 7.70192 68.7762 7.64117L70.2145 4.25727L71.3839 4.73928L68.4307 11.6872L67.2614 11.2052Z" fill="#797979"/>
<path d="M72.9672 14.6093C72.3474 14.1921 71.8989 13.693 71.6216 13.1121C71.3509 12.53 71.2547 11.9105 71.3332 11.2537C71.4144 10.5931 71.6801 9.93843 72.1304 9.28977C72.602 8.6104 73.1363 8.10842 73.7334 7.78385C74.3331 7.45542 74.9523 7.30905 75.5909 7.34474C76.2361 7.37923 76.8647 7.60244 77.4766 8.01439C78.1119 8.44209 78.5518 8.94942 78.7963 9.53641C79.0447 10.126 79.0948 10.7624 78.9466 11.4455C78.8023 12.1312 78.4588 12.832 77.916 13.5479L76.8637 12.8395L77.1195 12.471C77.638 11.6993 77.8758 11.0231 77.8329 10.4423C77.7927 9.85762 77.4725 9.36327 76.8722 8.95918C76.2291 8.52625 75.5988 8.40038 74.9811 8.58158C74.3635 8.76278 73.7909 9.23336 73.2633 9.99333C72.7544 10.7264 72.5277 11.4073 72.5831 12.036C72.6385 12.6647 72.9761 13.1876 73.5958 13.6048C74.0129 13.8856 74.4406 14.0355 74.8791 14.0547C75.3176 14.074 75.7471 13.966 76.1676 13.731L76.9315 14.7437C76.305 15.1273 75.6389 15.304 74.9334 15.274C74.2345 15.2428 73.5791 15.0212 72.9672 14.6093ZM72.7127 10.0451L73.2842 9.22175L77.9497 12.3625L77.3782 13.1858L72.7127 10.0451Z" fill="#797979"/>
<path d="M76.9066 17.1795L82.3199 11.8585L83.2213 12.7461L80.6173 15.3105L85.4898 14.9801L86.6466 16.1192L81.5538 16.4299L81.5187 21.7213L80.2718 20.4934L80.417 15.5077L77.813 18.0721L76.9066 17.1795Z" fill="#797979"/>
<path d="M87.8554 23.806L88.7651 23.3075L90.8312 26.964L89.9215 27.4625L87.8554 23.806Z" fill="#797979"/>
<path d="M88.8732 34.5202L89.9317 34.2924C89.9415 34.5758 89.9966 34.7805 90.097 34.9064C90.2031 35.0359 90.3536 35.1153 90.5486 35.1447C90.7492 35.1777 90.993 35.1871 91.2798 35.173C91.7351 35.1559 92.2386 35.1165 92.7904 35.0548C93.3432 34.9977 93.9451 34.9229 94.5963 34.8303C95.2532 34.7412 95.9551 34.6377 96.7022 34.5198L97.8439 39.6638L90.3718 41.2721L90.1027 40.0594L96.4055 38.7027L95.7779 35.8752C95.3475 35.9393 94.9041 35.999 94.4476 36.0545C93.9921 36.1144 93.5477 36.1696 93.1143 36.2201C92.6855 36.2696 92.2833 36.3085 91.9079 36.337C91.538 36.369 91.2156 36.3861 90.9406 36.3882C90.4694 36.3992 90.0806 36.3567 89.7742 36.2609C89.4724 36.164 89.2501 35.9787 89.1071 35.7049C88.9596 35.4321 88.8816 35.0372 88.8732 34.5202Z" fill="#797979"/>
<path d="M98.3984 48.8115L90.7513 48.9569L90.7278 47.7575L96.364 47.6504L90.6505 43.8109L90.6304 42.7859L98.2775 42.6406L98.301 43.8399L92.7427 43.9455L98.3785 47.7935L98.3984 48.8115Z" fill="#797979"/>
<path d="M89.8859 53.9641C90.028 53.2146 90.3183 52.6082 90.7568 52.1449C91.1991 51.6871 91.7456 51.3761 92.3963 51.212C93.047 51.0479 93.7561 51.0317 94.5236 51.1634C95.3062 51.3168 95.9681 51.5875 96.5093 51.9756C97.0542 52.3691 97.4439 52.8593 97.6784 53.4464C97.9129 54.0334 97.9599 54.6972 97.8195 55.4376C97.6712 56.2191 97.3489 56.8551 96.8524 57.3455C96.3551 57.8406 95.7494 58.1217 95.0354 58.1891L94.8953 56.9146C95.361 56.8395 95.7479 56.6481 96.056 56.3406C96.3632 56.0376 96.5597 55.6599 96.6456 55.2075C96.7418 54.7001 96.7004 54.2598 96.5215 53.8863C96.3472 53.5137 96.0641 53.2086 95.6721 52.9709C95.2847 52.7342 94.82 52.5635 94.2778 52.4591C93.4407 52.3146 92.7295 52.38 92.1441 52.6555C91.5625 52.9364 91.2019 53.4447 91.0624 54.1805C90.9705 54.665 91.0056 55.0877 91.1677 55.4486C91.3344 55.8103 91.6157 56.1127 92.0114 56.3558L91.4502 57.5296C90.7979 57.1448 90.3377 56.6463 90.0696 56.0341C89.8015 55.4219 89.7402 54.732 89.8859 53.9641Z" fill="#797979"/>
<path d="M88.3598 60.4491L94.4117 62.7879L95.3845 60.3469L96.4525 60.7596L94.0465 66.7973L92.9785 66.3845L93.9512 63.9435L87.8993 61.6047L88.3598 60.4491Z" fill="#797979"/>
<path d="M79.2277 74.3745C79.7418 73.8747 80.2877 73.5542 80.8652 73.4128C81.4461 73.2748 82.0487 73.3158 82.673 73.5361C83.2973 73.7564 83.9283 74.1575 84.5659 74.7394C84.863 75.0057 85.1718 75.3164 85.4923 75.6714C85.8095 76.0298 86.0999 76.3881 86.3637 76.7465C86.6241 77.1081 86.816 77.4287 86.9396 77.7081C87.0931 78.0369 87.1916 78.3837 87.235 78.7486C87.2784 79.1201 87.2651 79.4752 87.195 79.8138C87.1282 80.1623 87.0047 80.5042 86.8244 80.8396C86.6441 81.1749 86.4338 81.5037 86.1934 81.8259C85.953 82.1546 85.706 82.4768 85.4523 82.7924C85.2019 83.1113 84.9715 83.4236 84.7612 83.7294L83.8698 83.0291C84.0134 82.8089 84.1953 82.5606 84.4157 82.2845C84.6394 82.0116 84.868 81.7239 85.1017 81.4215C85.3321 81.1223 85.5374 80.8182 85.7177 80.5092C85.898 80.2067 86.0198 79.9125 86.0832 79.6264C86.1867 79.2155 86.1517 78.7864 85.9781 78.3393C85.8045 77.8988 85.5391 77.473 85.1819 77.0621C85.2954 77.5815 85.262 78.078 85.0817 78.5514C84.9014 79.0248 84.6243 79.4456 84.2504 79.8138C83.7663 80.2905 83.2355 80.5897 82.658 80.7114C82.0838 80.8363 81.5062 80.7968 80.9253 80.593C80.3411 80.3925 79.7969 80.044 79.2928 79.5475C78.7586 79.0215 78.3981 78.456 78.2111 77.8511C78.0242 77.2462 78.0158 76.6429 78.1861 76.0413C78.353 75.4429 78.7002 74.8873 79.2277 74.3745ZM80.0189 75.2621C79.4948 75.7783 79.2594 76.329 79.3128 76.9141C79.3696 77.5026 79.6684 78.0632 80.2092 78.5958C80.7634 79.1415 81.3393 79.4325 81.9369 79.4686C82.5378 79.5081 83.092 79.2779 83.5994 78.7782C84.1135 78.2719 84.3472 77.7262 84.3005 77.141C84.2538 76.5624 83.9533 76.0002 83.3991 75.4544C82.8416 74.9054 82.2674 74.6095 81.6765 74.5668C81.0856 74.5241 80.533 74.7558 80.0189 75.2621Z" fill="#797979"/>
<path d="M72.9075 79.5751C73.5334 79.1669 74.1718 78.9457 74.8227 78.9115C75.4723 78.8838 76.0912 79.0294 76.6795 79.3484C77.2704 79.6712 77.7861 80.1602 78.2267 80.8153C78.6882 81.5014 78.9591 82.1779 79.0396 82.8448C79.1226 83.5156 79.0271 84.1356 78.753 84.7047C78.4776 85.2803 78.0309 85.7697 77.4129 86.1727C76.7713 86.5912 76.1283 86.8014 75.4841 86.8034C74.8359 86.8079 74.2184 86.614 73.6317 86.2215C73.041 85.8316 72.5111 85.2543 72.042 84.4895L73.1048 83.7963L73.3551 84.1684C73.8857 84.9321 74.4323 85.4037 74.9948 85.5834C75.5599 85.7669 76.1456 85.6609 76.7518 85.2655C77.4012 84.8419 77.7571 84.3143 77.8192 83.6826C77.8814 83.0509 77.6544 82.3513 77.1382 81.5838C76.6402 80.8435 76.0851 80.3802 75.4728 80.194C74.8606 80.0077 74.2415 80.1187 73.6157 80.527C73.1945 80.8017 72.8923 81.1354 72.7091 81.5282C72.5259 81.9209 72.4656 82.3534 72.5283 82.8255L71.288 83.141C71.1631 82.425 71.2477 81.7508 71.5416 81.1185C71.8342 80.4927 72.2895 79.9782 72.9075 79.5751ZM77.2969 81.062L77.8561 81.8935L73.1444 84.9667L72.5852 84.1352L77.2969 81.062Z" fill="#797979"/>
<path d="M66.064 83.2094C66.7815 82.9229 67.4567 82.8365 68.0893 82.9501C68.7194 83.0698 69.2801 83.3552 69.7715 83.8062C70.2628 84.2572 70.6592 84.8364 70.9607 85.5439C71.2518 86.2755 71.3774 86.9704 71.3375 87.6285C71.2951 88.2926 71.0862 88.8802 70.7107 89.3914C70.3353 89.9025 69.7932 90.2996 69.0844 90.5826C68.3362 90.8813 67.6185 90.9571 66.9313 90.8101C66.2397 90.6648 65.6726 90.3143 65.2298 89.7586L66.2439 88.9548C66.5594 89.3005 66.9317 89.518 67.3609 89.6076C67.7857 89.6989 68.2146 89.658 68.6478 89.4851C69.1334 89.2912 69.4877 89.0193 69.7105 88.6695C69.935 88.3239 70.0431 87.9245 70.0348 87.4713C70.0283 87.0224 69.9235 86.545 69.7203 86.0391C69.3922 85.267 68.9525 84.7126 68.4012 84.3759C67.8473 84.0452 67.2181 84.0204 66.5137 84.3017C66.0499 84.4869 65.7074 84.744 65.4863 85.0731C65.267 85.4065 65.1601 85.8029 65.1658 86.2622L63.8594 86.4301C63.8366 85.6816 64.0145 85.0311 64.3933 84.4785C64.772 83.926 65.3289 83.5029 66.064 83.2094Z" fill="#797979"/>
<path d="M61.7692 85.0878L63.1735 92.4918L57.0125 93.625L55.6082 86.221L56.8474 85.9931L58.0319 92.2385L61.7146 91.5611L60.53 85.3157L61.7692 85.0878Z" fill="#797979"/>
<path d="M54.2854 86.5011L54.2645 87.568C53.9823 87.5115 53.7673 87.5167 53.6196 87.5836C53.4671 87.6551 53.3537 87.7809 53.2793 87.9608C53.2001 88.1453 53.1342 88.3766 53.0816 88.6546C52.9926 89.0947 52.9145 89.5861 52.8472 90.1289C52.7752 90.6716 52.7093 91.2656 52.6494 91.9109C52.5847 92.5607 52.5238 93.257 52.4668 94L47.1209 93.8984L47.2685 86.3678L48.5289 86.3917L48.4043 92.7439L51.3428 92.7998C51.3795 92.3727 51.4235 91.9341 51.4749 91.484C51.5215 91.0338 51.5702 90.5952 51.6211 90.1684C51.6718 89.7462 51.7268 89.352 51.7859 88.9857C51.8402 88.624 51.8983 88.3112 51.9601 88.0473C52.0587 87.5935 52.191 87.231 52.3569 86.9597C52.5226 86.6932 52.7574 86.5233 53.061 86.45C53.3648 86.372 53.7729 86.3891 54.2854 86.5011Z" fill="#797979"/>
<path d="M43.4674 85.5888C44.025 85.711 44.4702 85.9134 44.803 86.1959C45.1301 86.482 45.353 86.8119 45.4717 87.1856C45.5858 87.5583 45.5982 87.9421 45.5089 88.3369C45.4217 88.7227 45.2726 89.0401 45.0615 89.2891C44.8448 89.5417 44.5795 89.7312 44.2656 89.8577C43.9506 89.9887 43.5918 90.0673 43.1893 90.0934C42.8129 90.1109 42.3981 90.1057 41.9449 90.0778C41.4861 90.0534 41.0242 90.0213 40.5592 89.9813C40.0942 89.9413 39.6597 89.9056 39.2557 89.8742L39.755 89.7193C39.5935 90.3698 39.6179 90.8824 39.8283 91.2572C40.034 91.6309 40.4779 91.8925 41.1599 92.042C41.6116 92.141 42.031 92.1258 42.4182 91.9963C42.7997 91.8704 43.1109 91.5956 43.3518 91.1721L44.4416 91.7754C44.1162 92.3804 43.6539 92.8102 43.0546 93.0646C42.4554 93.3191 41.7341 93.3539 40.8907 93.1691C40.2133 93.0206 39.6598 92.773 39.2302 92.4264C38.7951 92.0834 38.5258 91.6481 38.4226 91.1205C38.3679 90.8704 38.357 90.6084 38.3898 90.3346C38.4217 90.0653 38.4704 89.7854 38.5361 89.495L39.5639 84.9475L40.6561 85.1869L40.2576 86.9501L40.0387 86.7307C40.4542 86.1977 40.9498 85.8348 41.5255 85.6419C42.0965 85.4479 42.7438 85.4302 43.4674 85.5888ZM43.0515 86.5622C42.6091 86.4652 42.2091 86.4586 41.8516 86.5421C41.4885 86.6293 41.1792 86.7782 40.9236 86.9889C40.6669 87.2041 40.4743 87.4572 40.3457 87.7482C40.2252 87.9599 40.1314 88.2037 40.0643 88.4796C39.9914 88.7589 39.9381 88.9735 39.9043 89.1232L39.5172 88.8455C39.9305 88.8789 40.3363 88.9131 40.7347 88.948C41.1331 88.983 41.5118 89.0088 41.8708 89.0256C42.2287 89.0469 42.5547 89.0492 42.8486 89.0327C43.0657 89.0136 43.2755 88.9738 43.4778 88.9134C43.6754 88.8519 43.8475 88.7539 43.9941 88.6193C44.1349 88.4882 44.2315 88.307 44.2838 88.0755C44.329 87.8758 44.3214 87.6741 44.261 87.4704C44.196 87.2656 44.0681 87.0827 43.8771 86.9218C43.6815 86.7599 43.4063 86.64 43.0515 86.5622Z" fill="#797979"/>
<path d="M35.9717 83.6676L33.3945 89.5452L35.8392 90.5848L35.3844 91.622L29.3377 89.0509L29.7925 88.0136L32.2372 89.0531L34.8144 83.1754L35.9717 83.6676Z" fill="#797979"/>
<path d="M31.2028 81.6416L26.8173 87.8125L25.7845 87.1007L27.6321 84.5009L24.3365 82.2296L22.4889 84.8294L21.4561 84.1176L25.8416 77.9467L26.8744 78.6585L25.0227 81.264L28.3184 83.5353L30.17 80.9298L31.2028 81.6416Z" fill="#797979"/>
<path d="M22.0366 74.1588C22.5501 74.7106 22.8665 75.3018 22.9856 75.9321C23.1015 76.559 23.0354 77.1831 22.7873 77.8043C22.5393 78.4254 22.1246 78.9983 21.5433 79.5229C20.9515 80.0569 20.3308 80.4152 19.6811 80.5979C19.0314 80.7806 18.3964 80.7829 17.7761 80.6049C17.1523 80.43 16.5883 80.0718 16.0844 79.5302C15.5676 78.9749 15.2497 78.3821 15.1306 77.7517C15.008 77.1245 15.0723 76.502 15.3236 75.8843C15.5682 75.2662 15.9811 74.6949 16.5624 74.1704C17.1507 73.6395 17.7698 73.2794 18.4198 73.0902C19.0663 72.9041 19.7032 72.8969 20.3305 73.0686C20.9543 73.2435 21.523 73.6069 22.0366 74.1588ZM21.1542 74.9551C20.6183 74.3792 20.0247 74.1266 19.3732 74.1973C18.7218 74.2681 18.0863 74.583 17.4667 75.1421C16.8297 75.717 16.4557 76.3163 16.3445 76.94C16.2298 77.5669 16.4372 78.1649 16.9667 78.7339C17.3272 79.1212 17.7126 79.3599 18.123 79.45C18.5334 79.54 18.9526 79.5053 19.3807 79.346C19.8088 79.1867 20.2282 78.9218 20.639 78.5511C21.2725 77.9794 21.6467 77.3768 21.7617 76.7434C21.8766 76.1099 21.6741 75.5138 21.1542 74.9551Z" fill="#797979"/>
</svg>
