<svg width="35" height="34" viewBox="0 0 35 34" fill="none" xmlns="http://www.w3.org/2000/svg">
<path d="M21.6503 4.81665H13.3203V10.4833V12.2967H21.6503V4.81665Z" fill="#C82325"/>
<path d="M31.1738 4.81665H22.8438V12.2967H31.1738V4.81665Z" fill="#C82325"/>
<path d="M21.5936 13.5432H13.3203V21.0232H21.5936V13.5432Z" fill="#C82325"/>
<path d="M22.8438 20.9665H24.6571H31.1738V13.5432H22.8438V20.9665Z" fill="#C82325"/>
<path d="M12.1287 12.92V11.1067H7.31208L3.96875 16.7167V20.9667H12.1287V12.92ZM10.9387 17C10.9387 17.34 10.6554 17.6234 10.3154 17.6234H5.89542C5.66875 17.6234 5.44208 17.51 5.38542 17.34C5.27208 17.17 5.27208 16.8867 5.38542 16.7167L7.76542 12.6367C7.87875 12.4667 8.10542 12.3534 8.27542 12.3534H10.3154C10.6554 12.3534 10.9387 12.6367 10.9387 12.9767V17Z" fill="#C82325"/>
<path d="M26.4698 29.1833C27.7216 29.1833 28.7365 28.1431 28.7365 26.86C28.7365 25.5768 27.7216 24.5366 26.4698 24.5366C25.2179 24.5366 24.2031 25.5768 24.2031 26.86C24.2031 28.1431 25.2179 29.1833 26.4698 29.1833Z" fill="#C82325"/>
<path d="M3.96875 22.2134V24.99H5.04542C5.66875 23.97 6.74542 23.29 8.04875 23.29C9.29542 23.29 10.4288 23.97 11.0521 24.99H23.5187C24.1421 23.97 25.2188 23.29 26.5221 23.29C27.7687 23.29 28.9021 23.97 29.5254 24.99H31.2254V22.2134H24.3687H3.96875Z" fill="#C82325"/>
<path d="M8.04792 24.48C6.80125 24.48 5.78125 25.5566 5.78125 26.8033C5.78125 28.05 6.80125 29.1266 8.04792 29.1266C9.29458 29.1266 10.3146 28.05 10.3146 26.8033C10.3146 25.5566 9.29458 24.48 8.04792 24.48Z" fill="#C82325"/>
</svg>
