<svg width="35" height="34" viewBox="0 0 35 34" fill="none" xmlns="http://www.w3.org/2000/svg">
<path d="M7.85313 4.76006H6.49312V3.74006C6.49312 3.36606 6.79912 3.06006 7.17313 3.06006C7.54713 3.06006 7.85313 3.36606 7.85313 3.74006V4.76006ZM11.2531 3.74006C11.2531 3.36606 10.9471 3.06006 10.5731 3.06006C10.1991 3.06006 9.89313 3.36606 9.89313 3.74006V4.76006H11.2531V3.74006ZM14.6531 3.74006C14.6531 3.36606 14.3471 3.06006 13.9731 3.06006C13.5991 3.06006 13.2931 3.36606 13.2931 3.74006V4.76006H14.6531V3.74006ZM18.0531 3.74006C18.0531 3.36606 17.7471 3.06006 17.3731 3.06006C16.9991 3.06006 16.6931 3.36606 16.6931 3.74006V4.76006H18.0531V3.74006ZM21.4531 3.74006C21.4531 3.36606 21.1471 3.06006 20.7731 3.06006C20.3991 3.06006 20.0931 3.36606 20.0931 3.74006V4.76006H21.4531V3.74006ZM24.8531 3.74006C24.8531 3.36606 24.5471 3.06006 24.1731 3.06006C23.7991 3.06006 23.4931 3.36606 23.4931 3.74006V4.76006H24.8531V3.74006ZM26.8931 6.80006C26.8931 6.42606 26.5871 6.12006 26.2131 6.12006H24.8531V7.14006C24.8531 7.51406 24.5471 7.82006 24.1731 7.82006C23.7991 7.82006 23.4931 7.51406 23.4931 7.14006V6.12006H21.4531V7.14006C21.4531 7.51406 21.1471 7.82006 20.7731 7.82006C20.3991 7.82006 20.0931 7.51406 20.0931 7.14006V6.12006H18.0531V7.14006C18.0531 7.51406 17.7471 7.82006 17.3731 7.82006C16.9991 7.82006 16.6931 7.51406 16.6931 7.14006V6.12006H14.6531V7.14006C14.6531 7.51406 14.3471 7.82006 13.9731 7.82006C13.5991 7.82006 13.2931 7.51406 13.2931 7.14006V6.12006H11.2531V7.14006C11.2531 7.51406 10.9471 7.82006 10.5731 7.82006C10.1991 7.82006 9.89313 7.51406 9.89313 7.14006V6.12006H7.85313V7.14006C7.85313 7.51406 7.54713 7.82006 7.17313 7.82006C6.79912 7.82006 6.49312 7.51406 6.49312 7.14006V6.12006H5.13313C4.75912 6.12006 4.45312 6.42606 4.45312 6.80006V9.86006H26.8931V6.80006ZM20.0931 26.1801C20.0931 26.4113 20.1067 26.6357 20.1339 26.8601H5.13313C4.75912 26.8601 4.45312 26.5541 4.45312 26.1801V11.2201H26.8931V20.1009C26.6687 20.0737 26.4443 20.0601 26.2131 20.0601C22.8403 20.0601 20.0931 22.8073 20.0931 26.1801ZM20.0931 17.3401C20.0931 17.7141 20.3991 18.0201 20.7731 18.0201H24.1731C24.5471 18.0201 24.8531 17.7141 24.8531 17.3401V13.9401C24.8531 13.5661 24.5471 13.2601 24.1731 13.2601H20.7731C20.3991 13.2601 20.0931 13.5661 20.0931 13.9401V17.3401ZM11.2531 20.7401C11.2531 20.3661 10.9471 20.0601 10.5731 20.0601H7.17313C6.79912 20.0601 6.49312 20.3661 6.49312 20.7401V24.1401C6.49312 24.5141 6.79912 24.8201 7.17313 24.8201H10.5731C10.9471 24.8201 11.2531 24.5141 11.2531 24.1401V20.7401ZM11.2531 13.9401C11.2531 13.5661 10.9471 13.2601 10.5731 13.2601H7.17313C6.79912 13.2601 6.49312 13.5661 6.49312 13.9401V17.3401C6.49312 17.7141 6.79912 18.0201 7.17313 18.0201H10.5731C10.9471 18.0201 11.2531 17.7141 11.2531 17.3401V13.9401ZM18.0531 20.7401C18.0531 20.3661 17.7471 20.0601 17.3731 20.0601H13.9731C13.5991 20.0601 13.2931 20.3661 13.2931 20.7401V24.1401C13.2931 24.5141 13.5991 24.8201 13.9731 24.8201H17.3731C17.7471 24.8201 18.0531 24.5141 18.0531 24.1401V20.7401ZM18.0531 13.9401C18.0531 13.5661 17.7471 13.2601 17.3731 13.2601H13.9731C13.5991 13.2601 13.2931 13.5661 13.2931 13.9401V17.3401C13.2931 17.7141 13.5991 18.0201 13.9731 18.0201H17.3731C17.7471 18.0201 18.0531 17.7141 18.0531 17.3401V13.9401ZM7.85313 23.4601H9.89313V21.4201H7.85313V23.4601ZM14.6531 23.4601H16.6931V21.4201H14.6531V23.4601ZM7.85313 16.6601H9.89313V14.6201H7.85313V16.6601ZM14.6531 16.6601H16.6931V14.6201H14.6531V16.6601ZM23.4931 14.6201H21.4531V16.6601H23.4931V14.6201ZM30.9731 26.1801C30.9731 28.8049 28.8379 30.9401 26.2131 30.9401C23.5883 30.9401 21.4531 28.8049 21.4531 26.1801C21.4531 23.5553 23.5883 21.4201 26.2131 21.4201C28.8379 21.4201 30.9731 23.5553 30.9731 26.1801ZM28.9331 26.1801C28.9331 25.8061 28.6271 25.5001 28.2531 25.5001H26.8931V24.1401C26.8931 23.7661 26.5871 23.4601 26.2131 23.4601C25.8391 23.4601 25.5331 23.7661 25.5331 24.1401V26.1801C25.5331 26.5541 25.8391 26.8601 26.2131 26.8601H28.2531C28.6271 26.8601 28.9331 26.5541 28.9331 26.1801Z" fill="#C82325"/>
</svg>
