<svg width="380" height="145" viewBox="0 0 380 145" fill="none" xmlns="http://www.w3.org/2000/svg">
<path d="M373.498 103.903L122.61 132.628C120.487 132.872 118.359 132.238 116.787 130.894L35.159 61.0728C30.636 57.2088 33.0763 50.2255 39.1938 49.5272L290.082 20.8028C292.205 20.5584 294.333 21.1927 295.905 22.537L377.533 92.3636C382.056 96.2276 379.616 103.205 373.498 103.903Z" fill="#565656"/>
<path d="M373.493 103.903L122.604 132.628C120.482 132.872 118.354 132.238 116.782 130.894L35.1534 61.0729C30.6305 57.2089 33.0707 50.2256 39.1882 49.5273L290.077 20.8029C292.199 20.5585 294.327 21.1928 295.899 22.5371L377.527 92.3637C382.05 96.2277 379.61 103.205 373.493 103.903Z" fill="white"/>
<path d="M121.71 132.826C119.86 132.826 118.073 132.186 116.693 131.01L35.0653 61.1834C33.0053 59.4259 32.2165 56.8829 32.9486 54.3864C33.7487 51.6455 36.1379 49.7309 39.174 49.3817L290.063 20.6573C292.225 20.4071 294.387 21.053 295.987 22.4206L377.615 92.2472C379.675 94.0046 380.464 96.5477 379.732 99.0442C378.932 101.785 376.543 103.7 373.507 104.049L122.618 132.773C122.317 132.808 122.011 132.826 121.71 132.826ZM290.982 20.8901C290.687 20.8901 290.392 20.9075 290.102 20.9425L39.208 49.6669C36.2854 50.0044 33.9928 51.8375 33.221 54.4678C32.523 56.848 33.2834 59.2746 35.2469 60.9623L116.875 130.789C118.419 132.11 120.496 132.727 122.59 132.488L373.478 103.764C376.401 103.426 378.694 101.593 379.465 98.9627C380.163 96.5826 379.403 94.1559 377.439 92.4683L295.811 22.6417C294.489 21.5069 292.764 20.8901 290.982 20.8901Z" fill="#565656"/>
<path d="M53.1388 32.8251C53.1388 32.8251 53.8879 33.4827 55.2556 34.6932C68.5236 48.6073 84.4134 59.0821 97.7551 71.7393C99.1568 73.0719 100.542 74.4278 101.886 75.8128C115.625 89.3429 129.813 102.145 145.005 113.045C146.332 114.145 147.655 115.251 148.971 116.362C155.56 121.937 162.012 127.768 168.107 134.181C169.883 135.747 171.495 137.166 172.903 138.412C177.136 142.142 179.593 144.307 179.593 144.307L53.1388 32.8251Z" fill="white"/>
<path d="M179.513 144.418L168.027 134.292C162.658 128.647 156.581 122.985 148.891 116.473C147.631 115.402 146.332 114.32 144.924 113.156C131.571 103.583 117.866 91.7466 101.795 75.9179C100.512 74.5969 99.1616 73.2642 97.6634 71.8443C91.892 66.3741 85.5134 61.2007 79.3391 56.196C71.1558 49.562 62.6888 42.6951 55.1582 34.7982L53.0471 32.9418C52.9904 32.8895 52.979 32.7964 53.0301 32.7382C53.0812 32.68 53.172 32.6683 53.2287 32.7207L55.3455 34.5887C62.8761 42.4856 71.3317 49.3408 79.5093 55.9691C85.6836 60.9737 92.0736 66.153 97.8507 71.6348C99.3489 73.0606 100.705 74.3932 101.988 75.7142C118.042 91.5312 131.741 103.356 145.089 112.929C146.502 114.099 147.801 115.187 149.067 116.258C156.768 122.775 162.851 128.443 168.214 134.088L168.384 134.24L179.689 144.208L179.513 144.418Z" fill="#565656"/>
<path d="M96.9734 24.6551C96.9734 24.6551 97.7225 25.3127 99.0901 26.5231C112.358 40.4372 128.248 50.9121 141.59 63.5692C142.991 64.9018 144.376 66.2577 145.721 67.6428C159.46 81.1728 173.647 93.9754 188.839 104.875C190.167 105.975 191.489 107.081 192.806 108.192C199.395 113.767 205.847 119.598 211.942 126.011C213.718 127.576 215.33 128.996 216.737 130.242C220.971 133.972 223.428 136.137 223.428 136.137L96.9734 24.6551Z" fill="white"/>
<path d="M223.347 136.248L211.861 126.122C206.493 120.477 200.415 114.815 192.726 108.303C191.511 107.273 190.212 106.185 188.759 104.986C175.406 95.4131 161.701 83.5765 145.629 67.7478C144.347 66.4268 142.996 65.1 141.498 63.6742C135.727 58.204 129.348 53.0306 123.174 48.026C114.99 41.3919 106.523 34.525 98.9928 26.6281L96.8817 24.7718C96.8249 24.7194 96.8136 24.6263 96.8647 24.5681C96.9157 24.5099 97.0065 24.4983 97.0633 24.5506L99.18 26.4186C106.711 34.3155 115.166 41.1707 123.344 47.799C129.518 52.8037 135.908 57.9829 141.685 63.4647C143.189 64.8905 144.54 66.2231 145.822 67.5441C161.882 83.3612 175.576 95.1861 188.923 104.759C190.382 105.969 191.681 107.052 192.901 108.088C200.602 114.605 206.686 120.273 212.049 125.918L223.523 136.032L223.347 136.248Z" fill="#565656"/>
<path d="M140.808 16.4843C140.808 16.4843 141.557 17.1419 142.925 18.3524C156.193 32.2665 172.083 42.7413 185.424 55.3985C186.826 56.7311 188.211 58.087 189.556 59.472C203.295 73.0021 217.482 85.8047 232.674 96.7044C234.002 97.8042 235.324 98.9099 236.64 100.021C243.229 105.596 249.681 111.427 255.776 117.84C257.553 119.406 259.164 120.826 260.572 122.071C264.805 125.801 267.262 127.966 267.262 127.966L140.808 16.4843Z" fill="white"/>
<path d="M267.273 128.112C267.239 128.112 267.205 128.1 267.182 128.077L255.696 117.951C250.328 112.306 244.25 106.644 236.56 100.132C235.295 99.0615 234.001 97.9791 232.593 96.8152C219.24 87.2424 205.535 75.4058 189.464 59.5771C188.181 58.2561 186.831 56.9234 185.333 55.5035C179.561 50.0333 173.183 44.8599 167.008 39.8552C158.825 33.2212 150.358 26.3543 142.827 18.4574L140.716 16.601C140.66 16.5487 140.648 16.4556 140.699 16.3974C140.75 16.3392 140.841 16.3275 140.898 16.3799L143.015 18.2479C150.545 26.1448 159.001 33 167.178 39.6283C173.353 44.6329 179.743 49.8122 185.52 55.294C187.018 56.7198 188.374 58.0524 189.657 59.3734C205.711 75.1904 219.41 87.0154 232.758 96.5883C234.171 97.758 235.471 98.8462 236.736 99.9169C244.437 106.435 250.52 112.103 255.883 117.747L267.358 127.862C267.415 127.914 267.426 128.007 267.375 128.065C267.352 128.094 267.313 128.112 267.273 128.112Z" fill="#565656"/>
<path d="M184.641 8.31414C184.641 8.31414 185.39 8.97173 186.758 10.1822C200.026 24.0963 215.916 34.5711 229.258 47.2283C230.659 48.5609 232.044 49.9168 233.389 51.3018C247.128 64.8319 261.315 77.6345 276.507 88.5342C277.835 89.634 279.157 90.7397 280.474 91.8512C287.062 97.4261 293.515 103.257 299.61 109.67C301.386 111.235 302.998 112.655 304.405 113.901C308.638 117.631 311.096 119.796 311.096 119.796L184.641 8.31414Z" fill="white"/>
<path d="M311.106 119.936C311.072 119.936 311.038 119.924 311.015 119.901L299.529 109.775C294.161 104.124 288.083 98.4679 280.393 91.9561C279.134 90.8911 277.834 89.8029 276.427 88.639C263.074 79.0662 249.369 67.2296 233.297 51.4009C232.02 50.0857 230.67 48.7531 229.166 47.3273C223.394 41.8571 217.016 36.6779 210.841 31.679C202.658 25.045 194.191 18.1839 186.661 10.2812L184.55 8.42484C184.493 8.37246 184.481 8.27936 184.533 8.22116C184.584 8.16297 184.674 8.15133 184.731 8.2037L186.848 10.0717C194.379 17.9686 202.834 24.8238 211.012 31.4521C217.186 36.4626 223.576 41.636 229.353 47.1178C230.857 48.5494 232.213 49.882 233.49 51.1972C249.55 67.0142 263.244 78.8392 276.591 88.4121C278.01 89.5876 279.304 90.67 280.569 91.7408C288.265 98.2585 294.354 103.921 299.717 109.571L311.191 119.685C311.248 119.738 311.259 119.831 311.208 119.889C311.186 119.924 311.146 119.936 311.106 119.936Z" fill="#565656"/>
<path d="M228.476 0.143988C228.476 0.143988 229.225 0.801576 230.593 2.012C243.861 15.9261 259.75 26.401 273.092 39.0581C274.494 40.3907 275.878 41.7467 277.223 43.1317C290.962 56.6617 305.15 69.4643 320.342 80.364C321.669 81.4639 322.992 82.5695 324.308 83.681C330.897 89.256 337.349 95.087 343.444 101.5C345.22 103.065 346.832 104.485 348.239 105.731C352.473 109.461 354.93 111.626 354.93 111.626L228.476 0.143988Z" fill="white"/>
<path d="M354.941 111.765C354.907 111.765 354.873 111.754 354.85 111.73L343.364 101.605C337.996 95.9541 331.918 90.2977 324.228 83.7858C322.963 82.715 321.669 81.6326 320.261 80.4688C306.908 70.8959 293.203 59.0593 277.132 43.2306C275.861 41.9213 274.51 40.5886 273.001 39.1571C267.229 33.6869 260.851 28.5076 254.676 23.5088C246.493 16.8747 238.026 10.0137 230.495 2.11096L228.384 0.254582C228.328 0.202207 228.316 0.109098 228.367 0.0509046C228.418 -0.0072891 228.509 -0.0189271 228.566 0.0334472L230.683 1.90146C238.213 9.79835 246.669 16.6536 254.846 23.2818C261.021 28.2923 267.411 33.4657 273.188 38.9476C274.697 40.3791 276.054 41.7176 277.325 43.0269C293.379 58.844 307.079 70.6689 320.426 80.2418C321.839 81.4115 323.139 82.4997 324.404 83.5705C332.099 90.0882 338.188 95.7562 343.551 101.401L343.722 101.552L355.026 111.521C355.083 111.573 355.094 111.666 355.043 111.725C355.026 111.748 354.986 111.765 354.941 111.765Z" fill="#565656"/>
<path d="M187.249 73.6012L105.95 56.8181C105.604 56.7658 105.457 56.3351 105.689 56.0733L113.895 46.8496C114.213 46.4946 114.684 46.32 115.149 46.3957L196.448 63.1787C196.794 63.2311 196.942 63.6617 196.709 63.9236L188.503 73.1473C188.186 73.5023 187.715 73.671 187.249 73.6012Z" fill="#565656"/>
<path d="M187.25 73.019L105.951 56.2359C105.605 56.1836 105.457 55.7529 105.69 55.4911L113.896 46.2674C114.213 45.9124 114.684 45.7378 115.15 45.8134L196.449 62.5965C196.795 62.6489 196.943 63.0795 196.71 63.3414L188.504 72.5651C188.186 72.9201 187.715 73.0888 187.25 73.019Z" fill="#BCBCBC"/>
<path d="M187.462 73.182C187.388 73.182 187.309 73.1762 187.229 73.1646H187.224L105.924 56.3815C105.72 56.3524 105.544 56.2011 105.471 55.9916C105.397 55.7821 105.442 55.5551 105.59 55.3922L113.796 46.1685C114.147 45.7786 114.658 45.5866 115.175 45.668L196.485 62.4511C196.689 62.4802 196.865 62.6315 196.939 62.841C197.013 63.0505 196.967 63.2775 196.82 63.4404L188.614 72.6641C188.313 72.9958 187.899 73.182 187.462 73.182ZM187.275 72.8794C187.7 72.9434 188.114 72.7863 188.398 72.4662L196.604 63.2425C196.678 63.1611 196.701 63.0447 196.667 62.9399C196.627 62.8352 196.542 62.7595 196.434 62.7421L115.129 45.9532C114.721 45.8892 114.295 46.0463 114.011 46.3664L105.805 55.5901C105.732 55.6715 105.709 55.7879 105.743 55.8927C105.783 55.9974 105.868 56.0731 105.976 56.0905L187.275 72.8794Z" fill="#565656"/>
<path d="M327.416 62.4664L238.541 33.8293C238.212 33.7071 238.149 33.259 238.433 33.0437L248.29 25.7113C248.671 25.4261 249.164 25.3563 249.607 25.525L338.482 54.1622C338.811 54.2844 338.874 54.7324 338.59 54.9478L328.732 62.2802C328.352 62.5595 327.858 62.6293 327.416 62.4664Z" fill="#565656"/>
<path d="M327.415 61.7393L238.539 33.1022C238.21 32.98 238.148 32.5319 238.432 32.3166L248.289 24.9842C248.669 24.699 249.163 24.6292 249.606 24.798L338.481 53.4351C338.81 53.5573 338.872 54.0054 338.588 54.2207L328.731 61.5531C328.351 61.8324 327.857 61.9023 327.415 61.7393Z" fill="white"/>
<path d="M327.903 61.9721C327.721 61.9721 327.545 61.943 327.369 61.8732L238.5 33.236C238.29 33.1604 238.148 32.9742 238.12 32.7589C238.091 32.5435 238.182 32.3282 238.352 32.1944L248.21 24.862C248.63 24.5477 249.174 24.4721 249.657 24.6525L338.526 53.2896C338.736 53.3652 338.878 53.5514 338.906 53.7668C338.935 53.9821 338.844 54.1974 338.674 54.3312L328.816 61.6637C328.544 61.8673 328.226 61.9721 327.903 61.9721ZM249.118 24.8561C248.851 24.8561 248.59 24.9434 248.374 25.1064L238.517 32.4388C238.426 32.5086 238.381 32.6134 238.398 32.7239C238.415 32.8345 238.483 32.9276 238.591 32.9683L327.46 61.6055H327.466C327.863 61.7568 328.306 61.6927 328.652 61.4367L338.509 54.1043C338.6 54.0345 338.645 53.9297 338.628 53.8191C338.611 53.7086 338.543 53.6155 338.435 53.5747L249.566 24.9376C249.418 24.8794 249.271 24.8561 249.118 24.8561Z" fill="#565656"/>
<path d="M197.148 73.1594L201.489 83.611C201.784 84.3152 201.239 85.0601 200.275 85.2754L195.797 86.2705L190.4 73.2642L194.878 72.2691C195.837 72.0538 196.858 72.4553 197.148 73.1594Z" fill="#565656"/>
<path d="M201.57 80.5035L201.519 84.2744L200.276 81.8245L201.57 80.5035Z" fill="#565656"/>
<path d="M190.396 73.2638L195.793 86.2701L193.727 86.7298C192.762 86.9451 191.741 86.5436 191.452 85.8395L187.74 76.9009C187.105 75.353 188.291 73.7293 190.396 73.2638Z" fill="#565656"/>
<path d="M187.608 76.2263L187.569 72.4844L189.073 73.1536L187.608 76.2263Z" fill="#565656"/>
<path d="M175.025 79.9212L177.579 86.0781L191.125 83.0753L189.389 78.8853L175.025 79.9212Z" fill="#565656"/>
<path d="M191.115 82.9822V81.5914L189.657 81.2946L191.115 82.9822Z" fill="#565656"/>
<path d="M173.772 78.8853L178.477 90.2157C179.124 91.7694 177.92 93.4047 175.798 93.876L173.324 94.4231C171.201 94.8944 168.954 94.0157 168.313 92.4678L163.608 81.1374L173.772 78.8853Z" fill="#565656"/>
<path d="M163.611 77.6812C163.44 78.4086 163.333 80.329 163.611 81.1321L178.57 91.5139L178.626 87.6964L163.611 77.6812Z" fill="#565656"/>
<path d="M197.149 69.7082L201.49 80.1598C201.785 80.8639 201.241 81.6092 200.276 81.8245L195.798 82.8192L190.401 69.8129L194.879 68.8178C195.838 68.6025 196.859 69.0041 197.149 69.7082Z" fill="#BCBCBC"/>
<path d="M195.799 82.9592C195.742 82.9592 195.691 82.9243 195.669 82.8719L190.272 69.8657C190.255 69.8249 190.255 69.7784 190.278 69.7435C190.295 69.7027 190.334 69.6794 190.374 69.6678L194.852 68.6727C195.879 68.4457 196.974 68.8822 197.286 69.6445L201.627 80.0961C201.758 80.4103 201.747 80.7595 201.588 81.0679C201.366 81.5044 200.901 81.8303 200.311 81.9583L195.833 82.9534C195.816 82.9592 195.811 82.9592 195.799 82.9592ZM190.595 69.918L195.879 82.6508L200.243 81.6848C200.748 81.5742 201.151 81.2949 201.332 80.9457C201.451 80.713 201.463 80.4627 201.361 80.2241L197.019 69.7726C196.753 69.1324 195.805 68.7658 194.903 68.9695L190.595 69.918Z" fill="#565656"/>
<path d="M190.392 69.8068L195.789 82.8131L193.723 83.2729C192.759 83.4882 191.737 83.0866 191.448 82.3825L187.736 73.4439C187.101 71.9018 188.287 70.2782 190.392 69.8068Z" fill="#BCBCBC"/>
<path d="M193.205 83.4768C192.365 83.4768 191.582 83.0695 191.321 82.441L187.609 73.5024C187.337 72.8507 187.365 72.164 187.689 71.5297C188.143 70.6277 189.124 69.9526 190.367 69.6733C190.43 69.6558 190.503 69.6966 190.526 69.7606L195.923 82.7669C195.94 82.8076 195.94 82.8542 195.917 82.8891C195.9 82.9298 195.86 82.9531 195.821 82.9647L193.755 83.4245C193.573 83.4535 193.392 83.4768 193.205 83.4768ZM190.316 69.9759C189.209 70.2494 188.347 70.8546 187.944 71.6577C187.66 72.2163 187.638 72.8157 187.876 73.386L191.587 82.3246C191.854 82.9705 192.807 83.3255 193.704 83.1277L195.605 82.7087L190.316 69.9759Z" fill="#565656"/>
<path d="M175.027 78.4372L177.58 84.594L191.126 81.5913L189.39 77.4013L175.027 78.4372Z" fill="#BCBCBC"/>
<path d="M177.581 84.7399C177.524 84.7399 177.473 84.705 177.451 84.6526L174.897 78.4957C174.88 78.455 174.88 78.4026 174.908 78.3619C174.931 78.3211 174.976 78.2979 175.022 78.292L189.385 77.262C189.447 77.262 189.504 77.2911 189.527 77.3493L191.263 81.5334C191.28 81.5742 191.28 81.6207 191.258 81.6556C191.241 81.6964 191.201 81.7196 191.161 81.7313L177.615 84.7341C177.604 84.7399 177.592 84.7399 177.581 84.7399ZM175.237 78.5655L177.672 84.4256L190.934 81.4869L189.3 77.5588L175.237 78.5655Z" fill="#565656"/>
<path d="M173.77 75.4286L178.475 86.7589C179.122 88.3127 177.919 89.9479 175.796 90.4193L173.322 90.9663C171.2 91.4377 168.952 90.5589 168.311 89.011L163.607 77.6807L173.77 75.4286Z" fill="#BCBCBC"/>
<path d="M172.166 91.2399C170.384 91.2399 168.732 90.3845 168.182 89.0693L163.477 77.739C163.46 77.6982 163.46 77.6517 163.483 77.6168C163.5 77.576 163.54 77.5528 163.58 77.5411L173.743 75.289C173.806 75.2716 173.88 75.3123 173.902 75.3763L178.607 86.7066C178.879 87.3642 178.851 88.0509 178.527 88.6969C178.068 89.6047 177.086 90.2914 175.826 90.5649L173.352 91.1119C172.96 91.1992 172.557 91.2399 172.166 91.2399ZM163.807 77.7914L168.443 88.9587C169.062 90.4485 171.241 91.2865 173.295 90.8326L175.769 90.2855C176.944 90.0237 177.858 89.401 178.278 88.563C178.561 87.9985 178.584 87.3991 178.346 86.823L173.687 75.6033L163.807 77.7914Z" fill="#565656"/>
<path d="M167.58 67.4504L169.77 70.75L163.465 72.1466L162.694 68.5328C162.478 68.0091 162.881 67.4562 163.596 67.2991L165.889 66.7928C166.604 66.6299 167.359 66.9267 167.58 67.4504Z" fill="#BCBCBC"/>
<path d="M163.457 72.2923C163.389 72.2923 163.333 72.2457 163.321 72.1759L162.549 68.5621C162.453 68.3409 162.464 68.0732 162.589 67.8346C162.759 67.5029 163.111 67.2527 163.565 67.1538L165.858 66.6475C166.641 66.4729 167.452 66.793 167.702 67.3807L169.881 70.6687C169.91 70.7094 169.915 70.7618 169.898 70.8025C169.881 70.8491 169.842 70.8782 169.796 70.8898L163.491 72.2865C163.48 72.2923 163.469 72.2923 163.457 72.2923ZM166.283 66.8919C166.164 66.8919 166.039 66.9036 165.915 66.9326L163.622 67.4389C163.259 67.5204 162.964 67.7183 162.839 67.9685C162.754 68.1314 162.748 68.306 162.816 68.4748L163.565 71.9722L169.524 70.6512L167.452 67.532C167.447 67.5262 167.441 67.5146 167.441 67.5088C167.288 67.1305 166.806 66.8919 166.283 66.8919Z" fill="#565656"/>
<path d="M170.951 71.0701L173.77 75.4286L163.607 77.6807L162.637 72.909C162.569 72.589 162.841 72.2806 163.267 72.1816L169.872 70.7151C170.304 70.6279 170.758 70.7792 170.951 71.0701Z" fill="white"/>
<path d="M163.61 77.8267C163.581 77.8267 163.553 77.8208 163.53 77.8034C163.496 77.7801 163.473 77.751 163.468 77.7103L162.497 72.9384C162.418 72.5368 162.736 72.1528 163.235 72.0422L169.841 70.5757C170.329 70.4652 170.839 70.6397 171.061 70.9831L173.881 75.3418C173.91 75.3825 173.91 75.4349 173.893 75.4756C173.875 75.5222 173.836 75.5513 173.79 75.5629L163.627 77.815C163.632 77.8267 163.621 77.8267 163.61 77.8267ZM170.141 70.8434C170.062 70.8434 169.988 70.8492 169.909 70.8667L163.303 72.3332C162.957 72.4088 162.736 72.6474 162.781 72.886L163.723 77.5124L173.541 75.336L170.834 71.1518C170.709 70.9598 170.431 70.8434 170.141 70.8434Z" fill="#565656"/>
<path d="M164.784 67.1769C164.728 67.1769 164.677 67.142 164.654 67.0896L163.655 64.6862C163.627 64.6105 163.661 64.5291 163.729 64.4941C163.797 64.465 163.882 64.4941 163.916 64.5698L164.915 66.9732C164.943 67.0489 164.909 67.1303 164.841 67.1652C164.818 67.1711 164.801 67.1769 164.784 67.1769Z" fill="#565656"/>
<path d="M338.183 111.649L335.135 110.921L349.305 84.9147L353.233 84.8332L338.733 111.445C338.648 111.614 338.41 111.701 338.183 111.649Z" fill="#565656"/>
<path d="M360.963 86.2184L353.183 86.0147L344.988 84.2398L346.611 80.9577L354.806 82.7326L361.258 85.6248L360.963 86.2184Z" fill="#565656"/>
<path d="M344.988 84.2398V83.3784L361.258 84.7634V85.6248L360.963 86.2184L344.988 84.2398Z" fill="#565656"/>
<path d="M352.75 85.0019V85.741L335.135 110.921V110.188L352.75 85.0019Z" fill="#565656"/>
<path d="M338.257 110.927L335.135 110.182L349.306 84.1751L352.75 84.9957L338.711 110.758C338.637 110.904 338.438 110.973 338.257 110.927Z" fill="#BCBCBC"/>
<path d="M338.37 111.09C338.325 111.09 338.274 111.084 338.228 111.072L335.107 110.328C335.062 110.316 335.028 110.287 335.011 110.246C334.994 110.205 334.994 110.159 335.016 110.118L349.187 84.1113C349.215 84.0531 349.283 84.024 349.34 84.0414L352.785 84.862C352.83 84.8736 352.864 84.9027 352.881 84.9434C352.898 84.9842 352.898 85.0307 352.875 85.0715L338.836 110.834C338.751 110.997 338.563 111.09 338.37 111.09ZM335.351 110.089L338.285 110.787C338.416 110.822 338.546 110.764 338.586 110.694L352.535 85.1006L349.38 84.3499L335.351 110.089Z" fill="#565656"/>
<path d="M360.965 85.3567L353.185 85.1531L344.99 83.3782L346.613 80.096L354.808 81.8767L361.26 84.7632L360.965 85.3567Z" fill="#BCBCBC"/>
<path d="M360.966 85.5025L353.18 85.3047L344.963 83.5239C344.917 83.5123 344.883 83.4832 344.866 83.4425C344.849 83.4017 344.849 83.3552 344.866 83.3144L346.495 80.0323C346.523 79.9741 346.586 79.945 346.648 79.9567L354.843 81.7316L361.323 84.6296C361.357 84.6471 361.386 84.6762 361.403 84.7111C361.414 84.746 361.414 84.7926 361.397 84.8275L361.102 85.4211C361.068 85.4734 361.017 85.5025 360.966 85.5025ZM345.201 83.2737L353.214 85.0137L360.881 85.2057L361.068 84.8333L354.758 82.0051L346.699 80.2593L345.201 83.2737Z" fill="#565656"/>
<path d="M72.8115 135.498C72.8115 135.498 70.5368 135.092 68.2688 134.06C66.0008 133.021 64.0482 132.072 61.0756 134.081C58.1031 136.083 51.4467 137.432 47.367 137.797C43.2873 138.168 47.5482 142.744 52.4532 143.542C57.3583 144.34 73.6234 142.125 73.6234 142.125L72.8115 135.498Z" fill="#BCBCBC"/>
<path d="M55.4285 143.886C54.2274 143.886 53.1941 143.831 52.4291 143.707C48.8258 143.123 45.5111 140.494 45.5648 138.884C45.5849 138.382 45.907 137.755 47.3496 137.625C50.9932 137.294 57.9179 136.001 60.9844 133.937C63.9838 131.914 66.0438 132.856 68.2246 133.854L68.3386 133.909C70.5597 134.921 72.8142 135.333 72.8411 135.333C72.9149 135.347 72.9685 135.409 72.982 135.485L73.7939 142.111C73.8073 142.207 73.7402 142.29 73.653 142.304C73.0893 142.372 61.8635 143.886 55.4285 143.886ZM64.4468 133.083C63.4671 133.083 62.4137 133.393 61.1723 134.226C58.0522 136.331 51.0603 137.638 47.3832 137.969C46.7189 138.031 45.9271 138.237 45.9003 138.898C45.8533 140.205 48.8527 142.778 52.4828 143.37C57.0523 144.113 71.7138 142.207 73.4383 141.973L72.6599 135.643C72.1566 135.54 70.1637 135.113 68.2044 134.219L68.0904 134.164C66.8557 133.599 65.715 133.083 64.4468 133.083Z" fill="#565656"/>
<path d="M40.1199 103.673C40.1199 103.673 7.91845 103.68 6.80458 117.297C4.12056 150.091 54.8082 145.11 59.465 143.733C64.1217 142.357 68.6778 140.217 68.6778 140.217L71.127 143.816C71.127 143.816 108.448 128.293 109.502 112.749C109.978 105.682 101.188 99.187 85.822 101.079C74.6229 102.455 63.236 101.802 63.236 101.802L40.1199 103.673Z" fill="white"/>
<path d="M46.5397 145C36.1794 145 22.2628 143.3 13.9692 136.33C8.44682 131.686 5.98424 125.28 6.63512 117.291C7.09811 111.635 13.0499 107.465 23.8464 105.215C31.8581 103.55 39.8364 103.509 40.1115 103.509L63.2142 101.644C63.3484 101.651 74.742 102.284 85.7934 100.921C98.6633 99.3319 104.696 103.688 106.695 105.635C108.816 107.699 109.836 110.169 109.661 112.77C109.218 119.273 102.602 126.504 90.0006 134.266C80.6334 140.032 71.2796 143.947 71.1857 143.982C71.1119 144.009 71.0313 143.989 70.9844 143.92L68.6157 140.438C67.8441 140.796 63.6906 142.667 59.5102 143.906C57.9803 144.353 52.9411 145 46.5397 145ZM63.2209 101.981L40.1316 103.846C40.1249 103.846 40.1249 103.846 40.1182 103.846C39.7961 103.846 8.05764 104.004 6.97062 117.312C6.32645 125.183 8.74878 131.493 14.1839 136.062C27.5033 147.257 55.4372 144.745 59.4163 143.569C64.006 142.206 68.5621 140.08 68.609 140.06C68.6829 140.025 68.7701 140.046 68.817 140.115L71.1857 143.603C73.5476 142.599 108.326 127.55 109.332 112.736C109.5 110.238 108.514 107.864 106.467 105.876C104.508 103.963 98.5761 99.6898 85.8404 101.252C74.7554 102.621 63.335 101.988 63.2209 101.981Z" fill="#565656"/>
<path d="M67.1138 129.683C67.0802 129.683 67.0467 129.676 67.0198 129.656C66.946 129.601 66.9259 129.497 66.9729 129.415C67.0534 129.298 74.9712 117.552 89.3643 115.481C88.6597 115.082 86.9688 114.339 84.3116 114.456C84.211 114.463 84.1439 114.387 84.1371 114.291C84.1304 114.194 84.2042 114.119 84.2982 114.112C88.0222 113.933 89.8742 115.392 89.948 115.454C90.0017 115.495 90.0218 115.571 90.0084 115.632C89.9883 115.701 89.9346 115.749 89.8675 115.756C75.3403 117.614 67.3285 129.484 67.2547 129.607C67.2211 129.662 67.1675 129.683 67.1138 129.683Z" fill="#565656"/>
<path d="M67.1176 129.511C69.0836 127.963 69.4795 125.651 72.8278 126.883C76.1761 128.114 82.9533 127.825 87.0061 127.206C91.059 126.587 87.959 132.057 83.3693 134.011C80.5511 135.215 73.2908 136.337 68.1241 137.032L67.1176 129.511Z" fill="#BCBCBC"/>
<path d="M68.1247 137.204C68.0442 137.204 67.9703 137.142 67.9569 137.053C67.9435 136.956 68.0106 136.874 68.1045 136.86C73.5128 136.138 80.545 135.03 83.3095 133.853C86.7048 132.408 89.0264 129.181 88.6842 127.922C88.5098 127.289 87.6911 127.275 87.0336 127.371C83.3833 127.936 76.2841 128.342 72.7747 127.041C70.4396 126.181 69.621 127.11 68.5809 128.287C68.1783 128.741 67.7623 129.216 67.2255 129.642C67.1517 129.697 67.0511 129.683 66.9907 129.608C66.937 129.532 66.9504 129.422 67.0242 129.367C67.5409 128.961 67.9435 128.5 68.3394 128.053C69.413 126.828 70.339 125.775 72.8955 126.718C76.3512 127.991 83.3766 127.585 86.9933 127.027C88.4225 126.807 88.8855 127.337 89.0197 127.826C89.4425 129.381 86.8121 132.732 83.4504 134.163C80.6523 135.353 73.5934 136.468 68.1582 137.19C68.1381 137.204 68.1314 137.204 68.1247 137.204Z" fill="#565656"/>
<path d="M68.1278 137.204C68.0473 137.204 67.9735 137.142 67.9601 137.053L66.7791 128.115L30.6187 119.644C30.5516 119.631 30.5046 119.576 30.4912 119.514C30.4845 119.472 29.5451 115.069 24.526 112.048C24.4454 112 24.4186 111.897 24.4656 111.814C24.5125 111.731 24.6132 111.704 24.6937 111.752C29.4042 114.587 30.612 118.619 30.7931 119.335L66.967 127.805C67.0341 127.819 67.0877 127.881 67.0945 127.949L68.2888 137.005C68.3023 137.101 68.2352 137.184 68.1479 137.197C68.1412 137.204 68.1345 137.204 68.1278 137.204Z" fill="#565656"/>
<path d="M60.7887 119.28C60.7082 119.28 60.6343 119.218 60.6209 119.136L59.1783 108.973C59.1648 108.876 59.2252 108.794 59.3192 108.78C59.4198 108.766 59.4936 108.828 59.5071 108.924L60.9229 118.915C61.3926 118.84 62.7816 118.502 62.9493 117.037C63.1573 115.186 62.0233 107.755 62.0099 107.679C61.9965 107.583 62.0569 107.5 62.1508 107.479C62.2515 107.466 62.332 107.528 62.3454 107.624C62.3924 107.934 63.4995 115.172 63.2848 117.078C63.0567 119.094 60.8155 119.28 60.7954 119.28C60.8021 119.28 60.7954 119.28 60.7887 119.28Z" fill="#565656"/>
<path d="M18.865 110.851C19.3012 112.516 25.8367 115.62 27.0781 116.528C28.3127 117.436 26.4272 118.117 25.6757 117.897C24.9242 117.67 22.7971 116.638 22.7971 116.638C22.7971 116.638 24.4813 124.138 24.0519 124.929C23.6224 125.721 22.6495 125.514 22.4213 124.916C22.2804 124.544 20.7505 119.562 20.7505 119.562C20.7505 119.562 22.012 125.686 21.3142 126.223C20.6163 126.76 19.9923 126.601 19.8313 125.961C19.6702 125.321 18.4288 119.714 18.4288 119.714C18.4288 119.714 19.4488 125.872 19.073 126.457C18.7442 126.98 17.9055 126.828 17.5163 126.175C17.1271 125.521 15.9529 119.487 15.9529 119.487C15.9529 119.487 17.5633 125.108 16.5903 125.225C15.6173 125.342 14.7652 123.23 14.4028 121.668C14.0338 120.106 12.5576 114.952 12.316 113.383L18.865 110.851Z" fill="white"/>
<path d="M18.468 126.938C18.4613 126.938 18.4546 126.938 18.4479 126.938C18.0185 126.931 17.6024 126.67 17.3609 126.257C17.2669 126.092 17.126 125.645 16.9784 125.046C16.9583 125.101 16.9381 125.149 16.9113 125.191C16.8174 125.335 16.6966 125.383 16.6094 125.39C15.4418 125.521 14.5762 123.133 14.234 121.702C14.1065 121.151 13.8448 120.168 13.5362 119.025C12.9859 116.975 12.3015 114.422 12.1405 113.397C12.127 113.314 12.174 113.239 12.2478 113.211L18.7968 110.686C18.8438 110.665 18.8908 110.672 18.931 110.693C18.9713 110.713 19.0048 110.755 19.0183 110.803C19.3135 111.931 22.9436 113.961 25.1177 115.179C26.0638 115.709 26.8153 116.128 27.1642 116.383C27.7413 116.803 27.6742 117.188 27.5803 117.381C27.2984 117.973 26.1577 118.22 25.6142 118.055C25.0237 117.876 23.6415 117.236 23.0174 116.94C23.4133 118.736 24.5876 124.255 24.1783 125.012C23.9568 125.418 23.5677 125.652 23.1449 125.617C22.7356 125.59 22.3867 125.335 22.2458 124.977C22.1787 124.791 21.7828 123.525 21.3936 122.273C21.6687 124.062 21.8432 126.016 21.4003 126.36C20.9776 126.684 20.5549 126.794 20.2059 126.67C19.9308 126.574 19.7362 126.333 19.6557 126.002C19.5953 125.768 19.4007 124.888 19.1659 123.856C19.3068 125.142 19.3672 126.278 19.1994 126.546C19.0451 126.794 18.7834 126.938 18.468 126.938ZM17.0388 123.849C17.2938 124.957 17.5286 125.865 17.6561 126.078C17.8373 126.388 18.1527 126.587 18.4613 126.594C18.6626 126.608 18.8304 126.512 18.931 126.36C19.1457 126.03 18.7566 122.734 18.26 119.741C18.2466 119.651 18.3003 119.562 18.3942 119.541C18.4882 119.521 18.5687 119.583 18.5888 119.672C18.6022 119.727 19.8369 125.287 19.9912 125.92C20.0449 126.14 20.1657 126.285 20.3267 126.346C20.5616 126.429 20.8836 126.34 21.2057 126.085C21.5815 125.796 21.1722 122.486 20.575 119.596C20.5549 119.507 20.6085 119.417 20.6958 119.397C20.7897 119.376 20.8702 119.424 20.8971 119.514C20.9105 119.562 22.427 124.496 22.5612 124.86C22.6484 125.094 22.8967 125.266 23.1718 125.287C23.4737 125.307 23.7287 125.149 23.8897 124.86C24.1783 124.324 23.2657 119.562 22.6215 116.693C22.6081 116.631 22.6283 116.562 22.6819 116.521C22.7356 116.479 22.8027 116.472 22.8564 116.5C22.8765 116.514 24.9835 117.525 25.7149 117.745C26.1644 117.883 27.1039 117.635 27.285 117.25C27.3655 117.085 27.2582 116.892 26.9697 116.686C26.6342 116.438 25.8558 116.005 24.9566 115.502C22.5679 114.167 19.3403 112.358 18.7633 111.092L12.5028 113.507C12.6974 114.594 13.3416 117.002 13.865 118.956C14.1736 120.099 14.4353 121.09 14.5628 121.64C14.9587 123.326 15.7706 125.074 16.5154 125.074C16.5355 125.074 16.5557 125.074 16.5691 125.074C16.5825 125.074 16.6026 125.067 16.6295 125.025C16.7368 124.86 16.7503 124.468 16.71 123.959C16.294 122.156 15.8578 119.92 15.784 119.541C15.7639 119.452 15.8243 119.362 15.9115 119.342C15.9987 119.321 16.086 119.369 16.1128 119.459C16.2135 119.796 16.8979 122.218 17.0388 123.849Z" fill="#565656"/>
<path d="M34.8482 57.8481C31.2382 79.158 29.507 105.264 32.6674 104.693C35.1569 104.239 46.6176 115.427 56.0922 112.392C65.8553 109.262 77.2422 106.716 79.3425 105.181C80.8992 104.046 78.7453 92.3761 79.6713 81.5319C80.349 73.557 79.5505 66.6418 80.9797 60.0086C82.7914 51.614 85.2674 42.9304 84.0395 41.4029C80.6241 37.1574 55.5822 26.0793 45.1884 30.0014L34.8482 57.8481Z" fill="#303030"/>
<path d="M52.6166 113.088C47.101 113.088 41.4042 109.599 37.3916 107.15C35.184 105.801 33.4327 104.734 32.6945 104.865C32.4463 104.906 32.2114 104.824 32.0168 104.624C29.4871 102.037 31.3727 77.3418 34.6807 57.8209C34.6941 57.7245 34.7814 57.6626 34.8753 57.6833C34.9692 57.697 35.0296 57.7865 35.0095 57.8828C31.4129 79.0964 30.0508 102.127 32.2517 104.383C32.3725 104.507 32.4932 104.555 32.6409 104.528C33.5065 104.37 35.2041 105.416 37.566 106.861C42.3905 109.812 49.6777 114.271 56.0455 112.234C59.9172 110.996 64.0707 109.833 67.7411 108.815C73.25 107.28 78.0074 105.952 79.2421 105.044C79.9601 104.521 79.7856 101.081 79.5575 96.7319C79.3293 92.3282 79.0475 86.8442 79.4971 81.5184C79.7655 78.367 79.8057 75.3876 79.8393 72.5046C79.893 68.1284 79.9466 63.993 80.8122 59.9746C81.2215 58.0686 81.6644 56.1626 82.0939 54.3117C83.4895 48.3047 84.8047 42.6349 83.9056 41.5202C80.6982 37.5362 55.8039 26.176 45.2356 30.1737C45.1484 30.2081 45.0544 30.16 45.0209 30.0705C44.9873 29.9811 45.0343 29.8847 45.1215 29.8503C55.7972 25.8182 80.9263 37.2816 84.1605 41.3069C85.167 42.5523 83.9525 47.7817 82.4159 54.4011C81.9865 56.252 81.5436 58.158 81.1343 60.064C80.2754 64.048 80.2217 68.1628 80.1681 72.5252C80.1345 75.4151 80.0943 78.4014 79.8259 81.5666C79.3763 86.8648 79.6581 92.3351 79.8862 96.7319C80.1345 101.535 80.2956 104.707 79.43 105.347C78.1416 106.289 73.5855 107.562 67.8216 109.166C64.1579 110.184 60.0044 111.347 56.1394 112.585C54.9853 112.923 53.8043 113.088 52.6166 113.088Z" fill="#565656"/>
<path d="M45.5338 29.8495C32.2949 33.4344 0.281307 62.8086 0.160526 69.2697C0.0397455 75.7377 11.5676 113.672 11.5676 113.672L22.9143 112.302L15.1709 72.4074L43.7422 51.2488L45.5338 29.8495Z" fill="#303030"/>
<path d="M11.5758 113.851C11.502 113.851 11.4349 113.803 11.4148 113.727C10.9451 112.179 -0.119799 75.6901 0.000981583 69.2703C0.068082 65.706 8.99914 56.1967 17.8228 48.3525C26.5593 40.5841 38.416 31.5977 45.4951 29.6849C45.589 29.6573 45.6762 29.7193 45.7031 29.8087C45.7299 29.8982 45.6762 29.9945 45.5823 30.022C38.5636 31.9211 26.7539 40.8731 18.0443 48.6209C7.67056 57.8412 0.390164 66.339 0.336484 69.284C0.222413 75.4561 10.9383 110.989 11.6966 113.493L22.7279 112.158L15.0181 72.4492C15.0046 72.3804 15.0315 72.3185 15.0851 72.2772L43.6565 51.1186C43.7303 51.0636 43.8377 51.0774 43.8913 51.1599C43.945 51.2356 43.9249 51.3457 43.8511 51.4008L15.367 72.4974L23.0902 112.282C23.0969 112.33 23.0902 112.379 23.0634 112.42C23.0365 112.461 22.9963 112.482 22.9493 112.489L11.6026 113.858C11.5892 113.844 11.5825 113.851 11.5758 113.851Z" fill="#565656"/>
<path d="M52.084 106.185C49.4604 106.185 46.6354 105.573 44.7432 104.204C44.6694 104.149 44.6493 104.039 44.703 103.963C44.7566 103.887 44.864 103.867 44.9378 103.922C47.8768 106.041 53.4528 106.309 56.4791 105.133C59.6328 103.908 64.9874 103.227 65.0411 103.22C65.1283 103.206 65.2155 103.275 65.229 103.371C65.2424 103.467 65.1753 103.55 65.0813 103.564C65.0277 103.571 59.7066 104.245 56.5931 105.456C55.3719 105.931 53.7682 106.185 52.084 106.185Z" fill="#565656"/>
<path d="M84.0395 41.4029C84.0395 41.4029 101.693 73.5778 97.6667 94.1997C93.6407 114.815 83.2536 98.8993 79.8583 87.7798C79.1001 85.2959 77.5232 76.7636 76.161 69.0296L84.0395 41.4029Z" fill="#303030"/>
<path d="M91.631 104.363C86.934 104.363 81.7538 94.5576 79.7006 87.8281C79.0765 85.7776 77.8285 79.461 76.0033 69.0572C75.9899 68.9609 76.0503 68.8715 76.1375 68.8577C76.2248 68.8439 76.3187 68.9058 76.3321 68.9953C78.1304 79.234 79.4053 85.7157 80.0226 87.7249C81.1969 91.5713 83.1025 95.6792 85.129 98.7136C86.7931 101.211 89.316 104.156 91.7921 104.019C94.3352 103.881 96.2609 100.565 97.509 94.1654C101.475 73.8463 84.0755 41.8092 83.8943 41.4858C83.8474 41.4032 83.8742 41.3 83.9547 41.2518C84.0352 41.2036 84.1359 41.2312 84.1829 41.3206C84.3573 41.644 101.824 73.7912 97.8311 94.2342C96.5495 100.805 94.523 104.211 91.8055 104.363C91.7518 104.363 91.6914 104.363 91.631 104.363Z" fill="#565656"/>
<path d="M89.8878 48.3999C90.0958 45.1797 88.4988 41.5673 89.1296 39.7645C89.8744 37.6452 87.7674 25.0533 87.4454 25.1496L84.8821 28.4937L83.5535 31.019C83.5535 31.019 84.6875 33.4961 83.6273 34.7346C82.5739 35.9663 78.4942 34.7897 78.4942 34.7897L77.6755 36.3585C77.6755 36.3585 79.91 37.7553 80.2589 38.7737C80.6078 39.792 82.5269 40.9205 83.0973 41.8976C83.6676 42.8815 83.7884 49.1155 83.7884 49.1155L89.8878 48.3999Z" fill="white"/>
<path d="M83.786 49.2811C83.7458 49.2811 83.7055 49.2674 83.6787 49.2398C83.6451 49.2054 83.625 49.1641 83.6183 49.116C83.5847 47.3958 83.4035 42.7581 82.954 41.9874C82.7124 41.5677 82.1823 41.0998 81.6656 40.6388C80.9946 40.047 80.3102 39.4347 80.1022 38.8291C79.7801 37.8796 77.6128 36.5172 77.5859 36.5034C77.5121 36.4553 77.4853 36.3589 77.5255 36.2764L78.3442 34.7075C78.3844 34.6387 78.4582 34.5974 78.5388 34.625C79.6459 34.9484 82.6923 35.5676 83.4975 34.625C84.4704 33.4896 83.4035 31.1226 83.3968 31.102C83.3767 31.0538 83.3767 30.9919 83.4035 30.9506L84.7321 28.4253L87.3088 25.0606C87.3289 25.0331 87.3558 25.0124 87.3893 25.0056C87.4497 24.9849 87.5369 25.0124 87.5839 25.0606C88.114 25.6317 90.0129 37.7695 89.2815 39.8406C88.9661 40.7351 89.2346 42.1182 89.5432 43.7214C89.825 45.1939 90.1471 46.8591 90.0465 48.4279C90.0398 48.5105 89.9794 48.5793 89.8989 48.5862L83.7994 49.2949C83.7994 49.2811 83.7927 49.2811 83.786 49.2811ZM77.9013 36.2901C78.3979 36.6204 80.1089 37.7833 80.4243 38.7122C80.5987 39.2282 81.2563 39.8131 81.8871 40.3773C82.444 40.8727 82.9741 41.3406 83.2425 41.8085C83.7793 42.7306 83.9269 47.8499 83.9538 48.9233L89.7311 48.249C89.8049 46.7696 89.4962 45.1801 89.2211 43.7765C88.8991 42.1251 88.6239 40.6938 88.9729 39.7099C89.6439 37.797 87.8858 27.1249 87.4161 25.4735L85.0139 28.5974L83.739 31.0194C83.9336 31.4735 84.7724 33.6479 83.7525 34.8383C82.7392 36.0218 79.3037 35.1754 78.579 34.9828L77.9013 36.2901Z" fill="#565656"/>
<path d="M84.7251 95.2578C80.7729 90.9366 83.2691 45.3924 83.2691 45.3924L92.7839 44.4291C92.7839 44.4291 97.1052 66.0211 97.8835 81.4548L84.7251 95.2578Z" fill="#303030"/>
<path d="M84.7212 95.4305C84.6743 95.4305 84.634 95.4098 84.6005 95.3754C80.6482 91.0474 82.9968 47.2509 83.0974 45.3862C83.1041 45.3037 83.1645 45.2349 83.2517 45.228L92.7666 44.2647C92.8538 44.2578 92.9276 44.3128 92.9477 44.4023C92.988 44.6156 97.2824 66.1801 98.0474 81.4555C98.0541 81.5518 97.9803 81.6344 97.8863 81.6344C97.7857 81.6413 97.7119 81.5656 97.7119 81.4693C96.9805 66.9026 93.035 46.5835 92.6458 44.6225L83.4262 45.5583C83.2786 48.4207 81.0978 91.0474 84.8487 95.1484C84.9091 95.2172 84.9091 95.3273 84.842 95.3892C84.8085 95.4098 84.7615 95.4305 84.7212 95.4305Z" fill="#565656"/>
<path d="M67.5006 15.6825L60.0056 31.0887C60.3075 36.4901 63.4881 41.4374 67.5141 46.2609C70.4933 42.5728 72.8016 34.6805 75.0964 26.6918L67.5006 15.6825Z" fill="white"/>
<path d="M67.5131 46.433C67.4662 46.433 67.4192 46.4123 67.3856 46.371C64.044 42.3733 60.1724 37.0269 59.8368 31.1025C59.8368 31.075 59.8436 31.0406 59.857 31.013L67.3521 15.6069C67.3789 15.5518 67.4326 15.5174 67.4863 15.5105C67.5534 15.5036 67.6004 15.5312 67.6339 15.5862L75.223 26.5887C75.2498 26.6299 75.2632 26.685 75.2498 26.7332C73.1227 34.1507 70.7071 42.5659 67.6339 46.3642C67.6071 46.4123 67.5601 46.4467 67.5131 46.433ZM60.1791 31.13C60.5145 36.8617 64.2453 42.0705 67.5131 45.9926C70.4723 42.1806 72.8275 33.9855 74.9143 26.7194L67.5333 16.0197L60.1791 31.13Z" fill="#565656"/>
<path d="M88.4158 15.4822C92.2942 16.9959 89.6371 22.4731 88.2548 24.8126C86.8256 27.2415 85.0675 29.4296 84.3428 30.7094C83.2961 32.5535 78.7668 40.26 73.8081 39.2004C70.2853 38.4435 67.655 35.2576 66.2794 32.7393C64.1926 28.9273 61.7233 23.0579 64.0852 18.7024C66.4472 14.3468 70.9026 8.54628 75.0696 10.005L88.4158 15.4822Z" fill="white"/>
<path d="M74.7505 39.4688C74.4284 39.4688 74.1063 39.4344 73.7776 39.3656C69.51 38.4504 66.8528 34.1224 66.1415 32.8219C62.8469 26.7943 62.1088 22.019 63.9473 18.6199C66.7454 13.4593 71.1472 8.45001 75.133 9.84682L88.4792 15.324C89.4522 15.7024 90.0964 16.3561 90.405 17.2575C91.1968 19.6107 89.4925 23.058 88.4054 24.9089C87.6002 26.2782 86.7145 27.5443 85.9294 28.659C85.3323 29.5122 84.8156 30.2485 84.5002 30.7989C82.9502 33.51 79.0718 39.4688 74.7505 39.4688ZM73.7239 9.95003C70.2951 9.95003 66.6649 14.3194 64.2359 18.7919C62.451 22.0809 63.1891 26.7461 66.4301 32.6568C67.1279 33.9297 69.718 38.1477 73.8447 39.0353C78.3404 39.9986 82.5811 33.4756 84.1982 30.6269C84.5203 30.0558 85.0437 29.3196 85.6476 28.4595C86.426 27.3448 87.3117 26.0856 88.1102 24.73C88.9624 23.2851 90.8546 19.6726 90.0762 17.3676C89.8078 16.5625 89.2241 15.9845 88.3518 15.6474L75.0122 10.1702C74.5895 10.0188 74.16 9.95003 73.7239 9.95003Z" fill="#565656"/>
<path d="M64.3333 22.7832C63.4476 25.2122 61.8304 27.2558 61.8304 27.2558C61.8304 27.2558 61.0789 13.2602 63.3402 9.90234C65.5478 6.62019 68.5606 2.28526 70.9426 2.06508C73.318 1.84489 74.8814 0.0421149 76.3778 0.000829978C77.9613 -0.0473358 80.075 2.01691 80.075 2.01691C80.075 2.01691 83.6716 0.936622 86.5099 2.98023C89.2007 4.92062 89.449 7.23946 90.7977 8.32663C92.0055 9.30371 95.3672 9.77848 96.5213 13.3978C97.6084 16.8038 95.3471 20.375 93.6964 21.5172C92.0457 22.6594 90.2944 23.6984 89.355 22.6869C88.4156 21.6754 84.4634 17.2304 81.1688 18.2419C77.8741 19.2534 75.1431 13.9483 73.5663 14.2854C72.0364 14.6157 69.3658 22.164 68.2385 22.2053C67.1112 22.2397 65.1251 21.4552 64.7023 20.2029C64.2729 18.9506 64.3333 22.7832 64.3333 22.7832Z" fill="#565656"/>
<path d="M62.8705 21.9567C62.7833 24.248 63.7831 26.154 65.1184 26.2091C66.4537 26.2641 67.6011 24.4476 67.6883 22.1563C67.7756 19.865 67.4266 18.0347 66.098 17.9796C64.7694 17.9177 62.9644 19.6585 62.8705 21.9567Z" fill="white"/>
<path d="M65.1782 26.3743C65.1581 26.3743 65.1379 26.3743 65.1111 26.3743C63.6886 26.3124 62.6082 24.3307 62.7022 21.9431C62.7425 20.849 63.1652 19.7894 63.8899 18.9637C64.5609 18.2068 65.3929 17.7733 66.0975 17.8008C66.7953 17.8283 67.2919 18.2894 67.5804 19.1701C67.8085 19.8788 67.9025 20.8903 67.8555 22.1564C67.7683 24.5027 66.5672 26.3743 65.1782 26.3743ZM63.0377 21.9637C62.9505 24.1587 63.8899 25.9821 65.1245 26.0372C65.1447 26.0372 65.1581 26.0372 65.1782 26.0372C66.3927 26.0372 67.4395 24.3101 67.52 22.1495C67.567 20.9178 67.4798 19.9545 67.265 19.2802C67.0235 18.5439 66.641 18.1724 66.0908 18.1449C65.4802 18.1105 64.7354 18.5233 64.1449 19.1976C63.4739 19.9614 63.078 20.9454 63.0377 21.9637Z" fill="#565656"/>
<path d="M75.2677 24.7997C74.9524 25.4052 74.9591 26.0451 75.2879 26.224C75.6167 26.4029 76.1334 26.0589 76.4554 25.4533C76.7708 24.8478 76.7641 24.2079 76.4353 24.029C76.0998 23.8432 75.5831 24.1941 75.2677 24.7997Z" fill="#565656"/>
<path d="M82.1716 28.109C81.8563 28.7145 81.863 29.3544 82.1918 29.5333C82.5206 29.7122 83.0372 29.3682 83.3593 28.7627C83.6747 28.1572 83.668 27.5172 83.3392 27.3383C82.9433 27.1182 82.487 27.5035 82.1716 28.109Z" fill="#565656"/>
<path d="M75.7531 21.0631C74.0286 20.6502 72.9953 21.0011 72.9886 21.641C72.9819 22.2741 74.0823 22.6181 75.3841 22.9002C76.6724 23.1823 77.9876 23.1548 78.1352 22.57C78.2895 21.992 77.4776 21.4759 75.7531 21.0631Z" fill="#565656"/>
<path d="M85.554 25.6798C84.1248 24.5995 83.0378 24.5169 82.7962 25.0949C82.5547 25.6729 83.4337 26.4367 84.5207 27.2211C85.5943 27.9986 86.8222 28.5009 87.1779 28.0261C87.5335 27.5514 86.9833 26.7532 85.554 25.6798Z" fill="#565656"/>
<path d="M76.9355 30.5244C77.5126 30.7996 78.0561 31.0611 78.5325 30.8409C78.8277 30.7102 79.0357 30.4143 79.1766 29.9464C79.445 29.045 81.1561 23.1963 81.1561 23.1963L80.7535 23.0725C80.7535 23.0725 79.0424 28.9212 78.774 29.8225C78.6734 30.1597 78.5392 30.373 78.3647 30.4487C78.0628 30.5863 77.6065 30.3661 77.1166 30.1322C77.0093 30.084 76.8885 30.1253 76.8348 30.2354C76.7879 30.3455 76.8348 30.4693 76.9355 30.5244Z" fill="#565656"/>
<path d="M74.1445 33.5997C74.0774 33.5997 74.017 33.5584 73.9901 33.4965L72.93 30.8543C72.8964 30.7648 72.9367 30.6685 73.0239 30.6272C73.1111 30.5928 73.2118 30.6341 73.2453 30.7235L74.3055 33.3658C74.3391 33.4552 74.2988 33.5516 74.2116 33.5928C74.1915 33.5997 74.1713 33.5997 74.1445 33.5997Z" fill="#565656"/>
<path d="M32.6771 104.865C32.6569 104.865 32.6368 104.858 32.6167 104.851C32.5295 104.817 32.4892 104.714 32.5228 104.631C32.5697 104.514 36.9782 92.851 36.2267 85.1307C36.22 85.0344 36.2871 84.9518 36.3743 84.945C36.4682 84.9312 36.5488 85.0069 36.5555 85.0963C37.3137 92.8923 32.8717 104.638 32.8247 104.755C32.8046 104.824 32.7442 104.865 32.6771 104.865Z" fill="#565656"/>
<path d="M52.8916 83.7199C52.8782 83.7199 52.8715 83.7199 52.858 83.713C52.7641 83.6924 52.7104 83.603 52.7305 83.5066C52.744 83.4241 54.3208 75.4079 51.1067 68.4858C47.8456 61.4673 47.9194 56.9053 47.9194 56.8641C47.9194 56.7677 48.0067 56.692 48.0939 56.6989C48.1878 56.6989 48.2616 56.7815 48.2549 56.8778C48.2549 56.9191 48.1878 61.4123 51.4087 68.3413C54.6765 75.3735 53.0795 83.4997 53.0593 83.5823C53.0325 83.6649 52.9654 83.7199 52.8916 83.7199Z" fill="#565656"/>
<path d="M158.567 126.994L257.589 95.0869C257.952 94.9472 258.021 94.4468 257.708 94.214L246.727 86.0436C246.302 85.7293 245.751 85.6479 245.258 85.8341L146.236 117.742C145.873 117.881 145.804 118.382 146.117 118.615L157.098 126.785C157.523 127.099 158.074 127.181 158.567 126.994Z" fill="#565656"/>
<path d="M158.567 126.179L257.589 94.2718C257.952 94.1321 258.02 93.6317 257.708 93.3989L246.727 85.2285C246.301 84.9143 245.751 84.8328 245.257 85.019L146.235 116.927C145.872 117.066 145.804 117.567 146.116 117.799L157.097 125.97C157.523 126.29 158.073 126.366 158.567 126.179Z" fill="#BCBCBC"/>
<path d="M158.022 126.424C157.664 126.424 157.313 126.308 157.012 126.087L146.037 117.922C145.844 117.782 145.753 117.55 145.781 117.311C145.815 117.072 145.968 116.875 146.19 116.793L245.217 84.8855C245.751 84.6818 246.347 84.7691 246.812 85.1183L257.793 93.2887C257.98 93.4283 258.077 93.6611 258.048 93.8997C258.014 94.1383 257.861 94.3303 257.64 94.4176L158.612 126.325C158.419 126.389 158.221 126.424 158.022 126.424ZM245.796 85.0717C245.632 85.0717 245.461 85.1008 245.302 85.159L146.275 117.067C146.161 117.113 146.076 117.218 146.059 117.346C146.042 117.48 146.093 117.602 146.195 117.683L157.176 125.854C157.562 126.145 158.062 126.215 158.51 126.046H158.516L257.532 94.1383C257.645 94.0918 257.73 93.987 257.748 93.859C257.765 93.7251 257.714 93.6029 257.606 93.5215L246.625 85.3511C246.392 85.1648 246.097 85.0717 245.796 85.0717Z" fill="#565656"/>
<path d="M327.54 87.3582L312.292 98.9329C312.252 98.962 312.206 98.9678 312.161 98.9504L282.192 87.2884C282.09 87.2476 282.073 87.108 282.158 87.0381L297.406 75.4634C297.446 75.4343 297.491 75.4285 297.537 75.4459L327.506 87.108C327.614 87.1487 327.631 87.2884 327.54 87.3582Z" fill="#BCBCBC"/>
<path d="M312.212 99.1078C312.178 99.1078 312.144 99.1019 312.115 99.0903L282.146 87.4283C282.05 87.3934 281.981 87.3061 281.97 87.2013C281.953 87.0966 281.999 86.9918 282.078 86.9278L297.326 75.3531C297.406 75.2949 297.502 75.2774 297.593 75.3182L327.563 86.9802C327.659 87.0151 327.727 87.1024 327.738 87.2071C327.755 87.3119 327.71 87.4166 327.631 87.4807L312.382 99.0554C312.331 99.0845 312.274 99.1078 312.212 99.1078ZM297.485 75.5859L282.243 87.1606L312.212 98.8168L327.455 87.2421L297.485 75.5859Z" fill="#565656"/>
<path d="M309.146 100.353L287.547 106.096C287.49 106.114 287.428 106.091 287.399 106.038L272.486 83.5231C272.429 83.4416 272.474 83.3253 272.571 83.302L292.813 78.3963C292.864 78.3846 292.921 78.4021 292.955 78.4486L309.219 100.126C309.282 100.207 309.242 100.324 309.146 100.353Z" fill="white"/>
<path d="M287.514 106.242C287.423 106.242 287.332 106.196 287.281 106.114L272.367 83.6048C272.316 83.5291 272.305 83.4244 272.339 83.3371C272.373 83.2498 272.447 83.1858 272.537 83.1625L292.78 78.2568C292.888 78.2335 293.001 78.2742 293.069 78.3615L309.334 100.039C309.39 100.114 309.407 100.219 309.379 100.306C309.351 100.399 309.277 100.469 309.186 100.493L287.587 106.236C287.565 106.242 287.542 106.242 287.514 106.242ZM292.848 78.5361L272.605 83.4476L287.519 105.957L309.112 100.213L292.848 78.5361Z" fill="#565656"/>
<path d="M288.282 101.982C288.219 101.982 288.163 101.935 288.146 101.871C288.129 101.796 288.174 101.714 288.248 101.697L303.468 97.9026C303.542 97.8852 303.621 97.9317 303.638 98.0074C303.655 98.083 303.61 98.1645 303.536 98.182L288.316 101.976C288.305 101.982 288.293 101.982 288.282 101.982Z" fill="#565656"/>
<path d="M285.791 97.5768C285.729 97.5768 285.672 97.5302 285.655 97.4662C285.638 97.3905 285.683 97.3091 285.757 97.2916L300.977 93.4974C301.051 93.4799 301.13 93.5265 301.147 93.6021C301.165 93.6778 301.119 93.7593 301.045 93.7767L285.825 97.5709C285.814 97.5709 285.802 97.5768 285.791 97.5768Z" fill="#565656"/>
<path d="M282.917 93.4506C282.855 93.4506 282.798 93.404 282.781 93.34C282.764 93.2644 282.809 93.1829 282.883 93.1655L298.103 89.3712C298.183 89.3538 298.257 89.4003 298.274 89.476C298.291 89.5516 298.245 89.6331 298.171 89.6505L282.951 93.4448C282.94 93.4506 282.929 93.4506 282.917 93.4506Z" fill="#565656"/>
<path d="M280.333 88.947C280.27 88.947 280.214 88.9004 280.196 88.8364C280.179 88.7608 280.225 88.6793 280.299 88.6618L295.519 84.8676C295.598 84.8502 295.672 84.8967 295.689 84.9724C295.706 85.048 295.661 85.1295 295.587 85.147L280.367 88.9412C280.355 88.947 280.344 88.947 280.333 88.947Z" fill="#565656"/>
<path d="M277.136 84.8791C277.073 84.8791 277.016 84.8325 276.999 84.7685C276.982 84.6929 277.028 84.6114 277.101 84.5939L292.322 80.7997C292.395 80.7823 292.475 80.8288 292.492 80.9045C292.509 80.9801 292.464 81.0616 292.39 81.079L277.17 84.8733C277.158 84.8791 277.147 84.8791 277.136 84.8791Z" fill="#565656"/>
</svg>
