<svg width="99" height="94" viewBox="0 0 99 94" fill="none" xmlns="http://www.w3.org/2000/svg">
<path d="M10.4311 46.6241L0.398433 45.5424L1.08847 39.206L2.26592 39.333L1.71026 44.4353L4.37866 44.723L4.67385 42.0124C4.68441 41.9154 4.70165 41.8003 4.72554 41.6673C4.74478 41.5338 4.77048 41.4056 4.80265 41.2828C4.92505 40.763 5.15012 40.336 5.47785 40.0019C5.80145 39.6628 6.19187 39.422 6.6491 39.2795C7.10685 39.1325 7.59583 39.087 8.11604 39.1431C8.6316 39.1987 9.09737 39.3448 9.51334 39.5814C9.92931 39.8179 10.2611 40.1366 10.5089 40.5374C10.7524 40.9331 10.8801 41.4004 10.8919 41.9394C10.8922 42.0657 10.8898 42.1963 10.8844 42.3314C10.8791 42.4664 10.8712 42.5825 10.8606 42.6795L10.4311 46.6241ZM9.388 45.2632L9.67866 42.5941C9.68823 42.5063 9.6944 42.4065 9.69719 42.2945C9.70048 42.178 9.69838 42.0679 9.69088 41.9642C9.64568 41.473 9.45351 41.1016 9.11438 40.85C8.77059 40.5978 8.39202 40.4494 7.97863 40.4049C7.55596 40.3593 7.15422 40.4235 6.77343 40.5975C6.38799 40.7711 6.12033 41.0929 5.97044 41.5631C5.93615 41.6622 5.91039 41.7693 5.89316 41.8844C5.87179 41.9943 5.85632 42.0932 5.84676 42.181L5.55609 44.85L9.388 45.2632Z" fill="#797979"/>
<path d="M12.7731 34.796C12.5385 35.4973 12.1782 36.059 11.6923 36.4811C11.2034 36.8974 10.6311 37.1585 9.97515 37.2646C9.31479 37.3693 8.61005 37.2975 7.86091 37.0493C7.07631 36.7895 6.44606 36.4214 5.97015 35.9453C5.48981 35.4678 5.18009 34.9217 5.04096 34.3073C4.89889 33.687 4.94369 33.0306 5.17536 32.3381C5.4159 31.6192 5.78651 31.0633 6.28719 30.6706C6.78935 30.2735 7.39055 30.0513 8.09081 30.004C8.79255 29.9523 9.56307 30.085 10.4024 30.4022L10.0039 31.5931L9.57838 31.4521C8.69184 31.1732 7.97381 31.1338 7.4243 31.3339C6.87036 31.5326 6.47976 31.9716 6.25251 32.6508C6.00903 33.3786 6.05877 34.01 6.40174 34.5449C6.7447 35.0799 7.35503 35.4927 8.23271 35.7835C9.07937 36.0639 9.79887 36.0916 10.3912 35.8664C10.9836 35.6413 11.3971 35.178 11.6317 34.4767C11.7896 34.0048 11.8182 33.5586 11.7176 33.1382C11.6169 32.7178 11.3959 32.3408 11.0545 32.0072L11.8253 31.0058C12.3662 31.4937 12.7181 32.0757 12.8809 32.7519C13.0407 33.4221 13.0048 34.1035 12.7731 34.796ZM8.43236 36.2906L7.48153 35.9756L9.24789 30.6959L10.1987 31.0109L8.43236 36.2906Z" fill="#797979"/>
<path d="M15.9006 27.7246C15.5182 28.3852 15.0451 28.8625 14.4815 29.1564C13.9161 29.444 13.3023 29.559 12.6401 29.5014C11.978 29.4438 11.3106 29.2276 10.6379 28.8528C9.95838 28.4527 9.43064 27.9813 9.05466 27.4386C8.67697 26.8895 8.47644 26.2998 8.45309 25.6695C8.42974 25.0392 8.60694 24.3977 8.98467 23.7451C9.38338 23.0563 9.89617 22.5615 10.523 22.2609C11.1522 21.9563 11.8113 21.8888 12.5003 22.0583L12.2066 23.3062C11.7468 23.2251 11.3219 23.2793 10.9318 23.4689C10.5441 23.6544 10.2348 23.9466 10.004 24.3454C9.74515 24.7925 9.63706 25.2214 9.6797 25.6321C9.71829 26.0405 9.88099 26.4207 10.1678 26.7729C10.4506 27.1227 10.8276 27.4353 11.2989 27.7108C12.0323 28.1204 12.7181 28.2907 13.3564 28.222C13.9929 28.1469 14.4989 27.785 14.8743 27.1364C15.1214 26.7094 15.2295 26.2992 15.1984 25.9059C15.1632 25.5102 15.0014 25.1331 14.7128 24.7747L15.6278 23.8506C16.1085 24.4265 16.3721 25.047 16.4185 25.7119C16.4649 26.3769 16.2923 27.0478 15.9006 27.7246Z" fill="#797979"/>
<path d="M18.1567 23.5998L12.4666 18.6341L16.556 13.9945L22.2461 18.9602L21.4236 19.8934L16.6239 15.7047L14.1795 18.478L18.9792 22.6667L18.1567 23.5998Z" fill="#797979"/>
<path d="M22.9204 18.136L22.2709 17.2872C22.525 17.1589 22.6885 17.0233 22.7613 16.8805C22.8349 16.7312 22.8444 16.5634 22.7898 16.3769C22.7361 16.1839 22.6429 15.9623 22.5102 15.7122C22.3045 15.313 22.0584 14.8801 21.7719 14.4136C21.4891 13.9442 21.1695 13.4384 20.8133 12.8962C20.4579 12.3474 20.0705 11.7645 19.6511 11.1473L23.8606 7.95788L28.4458 13.9496L27.4533 14.7015L23.5857 9.64742L21.2719 11.4006C21.5099 11.7577 21.7495 12.1284 21.9906 12.5125C22.2354 12.8938 22.4713 13.2672 22.6982 13.6328C22.9223 13.9947 23.1257 14.3373 23.3084 14.6605C23.492 14.9771 23.6422 15.2577 23.7589 15.5024C23.9657 15.9183 24.0894 16.2833 24.13 16.5973C24.1678 16.9075 24.0918 17.1842 23.902 17.4273C23.715 17.6742 23.3879 17.9104 22.9204 18.136Z" fill="#797979"/>
<path d="M31.8787 12.2661C31.3702 12.5119 30.8988 12.6261 30.4644 12.6087C30.0321 12.5851 29.6532 12.4634 29.3277 12.2435C29.0064 12.0215 28.7569 11.7287 28.5792 11.3649C28.4057 11.0095 28.3229 10.6696 28.3308 10.3454C28.3408 10.0149 28.428 9.70402 28.5922 9.41273C28.7544 9.11725 28.9832 8.83604 29.2788 8.5691C29.5595 8.32486 29.8841 8.07488 30.2527 7.81917C30.6235 7.55723 31.0015 7.29955 31.3867 7.0461C31.772 6.79265 32.131 6.55449 32.4637 6.33163L32.1736 6.75873C31.8922 6.15052 31.5529 5.76412 31.1557 5.59953C30.7627 5.43291 30.2552 5.49994 29.6333 5.80061C29.2215 5.9997 28.906 6.26849 28.6869 6.60699C28.47 6.93927 28.4006 7.34495 28.4787 7.82403L27.2572 8.01916C27.1312 7.34617 27.2208 6.72658 27.5261 6.16035C27.8314 5.59413 28.3685 5.12514 29.1375 4.75336C29.7552 4.45473 30.3388 4.30955 30.8883 4.31785C31.4399 4.31994 31.9205 4.49587 32.3302 4.84564C32.529 5.00798 32.7012 5.2064 32.8468 5.44092C32.9905 5.67125 33.1276 5.92021 33.2583 6.18782L35.304 10.3775L34.3081 10.859L33.5149 9.23456L33.8217 9.27234C33.8328 9.94402 33.6756 10.5317 33.3502 11.0353C33.0289 11.5369 32.5384 11.9471 31.8787 12.2661ZM31.5926 11.2493C31.996 11.0543 32.31 10.8146 32.5348 10.5302C32.7617 10.2396 32.9083 9.93355 32.9747 9.61204C33.039 9.28634 33.0301 8.97021 32.9479 8.66365C32.9089 8.42411 32.8292 8.17579 32.7088 7.91871C32.5906 7.65539 32.4979 7.45476 32.4305 7.31677L32.904 7.29718C32.5629 7.5241 32.2271 7.74588 31.8966 7.96253C31.566 8.17917 31.2565 8.39085 30.9678 8.59758C30.6772 8.80012 30.4231 8.99788 30.2057 9.19086C30.0494 9.33878 29.9117 9.49835 29.7928 9.66957C29.678 9.83876 29.6059 10.0209 29.5765 10.216C29.5493 10.4049 29.5877 10.606 29.6919 10.8192C29.7817 11.0032 29.9137 11.1565 30.0878 11.279C30.2661 11.3996 30.4795 11.4644 30.7281 11.4734C30.9808 11.4804 31.269 11.4057 31.5926 11.2493Z" fill="#797979"/>
<path d="M39.0305 9.16968L37.3714 2.98489L34.8255 3.66106L34.5327 2.56964L40.8296 0.897168L41.1224 1.98861L38.5766 2.66478L40.2357 8.84958L39.0305 9.16968Z" fill="#797979"/>
<path d="M43.7961 7.91414L43.3292 0.397504L44.5742 0.320928L44.7709 3.48766L48.7438 3.24331L48.5471 0.0765806L49.7921 4.2493e-06L50.259 7.51664L49.014 7.59321L48.8169 4.41952L44.844 4.66387L45.0411 7.83756L43.7961 7.91414Z" fill="#797979"/>
<path d="M54.9254 8.07061C54.3665 7.98645 53.913 7.81472 53.5649 7.55544C53.2222 7.29226 52.9794 6.9783 52.8364 6.61354C52.698 6.24949 52.6593 5.86752 52.7201 5.46763C52.7795 5.07693 52.9048 4.75023 53.0959 4.48751C53.2924 4.22088 53.5413 4.01387 53.8425 3.86645C54.1444 3.71444 54.4931 3.61179 54.8887 3.55851C55.259 3.51554 55.6689 3.49263 56.1182 3.48977C56.5728 3.483 57.031 3.48381 57.4928 3.49223C57.9546 3.50064 58.386 3.50682 58.787 3.51078L58.3048 3.69912C58.4193 3.03932 58.3598 2.52963 58.1262 2.17004C57.8973 1.81116 57.441 1.58024 56.7574 1.4773C56.3047 1.40914 55.8917 1.45274 55.5184 1.6081C55.1504 1.75957 54.8622 2.0547 54.6537 2.49347L53.5362 1.96552C53.8156 1.33995 54.2423 0.879963 54.8163 0.58556C55.3903 0.291149 56.0999 0.207592 56.9453 0.334873C57.6243 0.437122 58.1878 0.646572 58.6358 0.963215C59.0891 1.27596 59.385 1.69194 59.5234 2.21115C59.5946 2.45697 59.6235 2.71757 59.61 2.99293C59.5972 3.2637 59.5684 3.54616 59.5237 3.84034L58.8232 8.44594L57.7285 8.2811L58 6.4954L58.2312 6.69947C57.8579 7.25917 57.3937 7.65474 56.8388 7.88619C56.2884 8.11834 55.6506 8.17981 54.9254 8.07061ZM55.2687 7.07148C55.7122 7.13825 56.1075 7.11783 56.4546 7.01025C56.807 6.89875 57.1021 6.72927 57.3399 6.50177C57.5784 6.26969 57.7511 6.00419 57.8579 5.70527C57.9622 5.48588 58.0379 5.23635 58.0852 4.95666C58.1378 4.67308 58.1756 4.45544 58.1987 4.30376L58.5999 4.5546C58.1897 4.54924 57.7867 4.54263 57.391 4.53476C56.9953 4.5269 56.6196 4.52676 56.2641 4.53434C55.9093 4.53733 55.5873 4.55704 55.2983 4.59344C55.0852 4.62719 54.881 4.68106 54.6854 4.75505C54.4945 4.82975 54.3314 4.93917 54.1961 5.08335C54.066 5.22364 53.9832 5.41098 53.9476 5.6454C53.9168 5.84764 53.9383 6.04835 54.0119 6.24751C54.0902 6.44736 54.2292 6.62109 54.4288 6.7687C54.6331 6.91699 54.913 7.01792 55.2687 7.07148Z" fill="#797979"/>
<path d="M65.0088 10.4392L65.9617 7.88294L64.4308 7.31787C64.2512 7.25158 64.0544 7.17147 63.8402 7.07756C63.6321 6.98091 63.4395 6.88256 63.2626 6.78253C62.7858 6.49748 62.4359 6.11295 62.2127 5.62895C61.9939 5.14656 62.0006 4.59373 62.233 3.97046C62.4588 3.36463 62.8043 2.93928 63.2693 2.69442C63.7403 2.44682 64.2392 2.35827 64.766 2.42877C65.0046 2.45731 65.2363 2.51063 65.4613 2.58873C65.6924 2.66408 65.8867 2.73086 66.0444 2.78907L68.8105 3.81007L66.1849 10.8733L65.0088 10.4392ZM60.2321 8.67611L63.1902 6.49551L64.4517 6.96113L61.4936 9.14175L60.2321 8.67611ZM64.7037 6.32528L66.32 6.92188L67.2827 4.33944L65.6664 3.74285C65.5657 3.70566 65.4304 3.6607 65.2607 3.60798C65.0954 3.55688 64.9302 3.52564 64.765 3.51425C64.6102 3.50174 64.4454 3.52272 64.2706 3.57721C64.1002 3.63331 63.9404 3.72801 63.791 3.86129C63.6417 3.99459 63.5247 4.17456 63.4402 4.40119C63.3184 4.72809 63.3112 5.02791 63.4189 5.30067C63.5281 5.56907 63.7011 5.78664 63.9379 5.95338C64.0695 6.04161 64.2037 6.11595 64.3406 6.1764C64.4819 6.23847 64.6029 6.28809 64.7037 6.32528Z" fill="#797979"/>
<path d="M77.6724 18.9517C77.1703 18.4521 76.8713 17.908 76.7755 17.3196C76.683 16.7279 76.7606 16.1313 77.0084 15.5298C77.2628 14.9282 77.6559 14.3628 78.1877 13.8336C78.7262 13.2978 79.2961 12.905 79.8973 12.6551C80.5019 12.4086 81.0982 12.3346 81.6862 12.4333C82.2775 12.5352 82.8243 12.8359 83.3264 13.3356C83.822 13.8287 84.1242 14.376 84.2332 14.9775C84.3489 15.5791 84.2894 16.1872 84.0549 16.8019C83.8203 17.4166 83.4354 17.9902 82.9003 18.5227C82.3651 19.0553 81.7886 19.4382 81.1709 19.6716C80.5531 19.905 79.9386 19.9674 79.3275 19.859C78.7229 19.7505 78.1712 19.4481 77.6724 18.9517ZM72.9797 18.72L80.71 11.028L81.4979 11.812L77.5584 15.7319L77.6575 15.8305L73.8667 19.6026L72.9797 18.72ZM78.3711 18.0395C78.7246 18.3912 79.1061 18.5934 79.5158 18.646C79.9254 18.6986 80.34 18.6312 80.7596 18.4438C81.1824 18.2532 81.5838 17.9688 81.9637 17.5908C82.3403 17.2161 82.6228 16.82 82.8111 16.4025C83.0027 15.9883 83.0687 15.5741 83.0093 15.16C82.9531 14.7491 82.7433 14.3628 82.38 14.0012C82.0331 13.6561 81.6598 13.4556 81.26 13.3997C80.8636 13.3405 80.4573 13.4063 80.041 13.5969C79.6281 13.7843 79.2234 14.0752 78.827 14.4697C78.4372 14.8575 78.1432 15.2586 77.9449 15.6728C77.7533 16.0869 77.6856 16.4962 77.7418 16.9005C77.8012 17.3015 78.011 17.6812 78.3711 18.0395Z" fill="#797979"/>
<path d="M82.5123 24.6154C82.2054 24.143 82.0342 23.6913 81.9988 23.2601C81.9698 22.8303 82.0453 22.4413 82.2251 22.093C82.4075 21.7487 82.6694 21.4668 83.0107 21.2472C83.3442 21.0326 83.6731 20.9095 83.9975 20.8779C84.3284 20.8477 84.6491 20.896 84.9596 21.0229C85.2741 21.1472 85.5824 21.3391 85.8845 21.5986C86.1623 21.8462 86.4511 22.1365 86.7509 22.4695C87.0572 22.8038 87.3602 23.1459 87.6598 23.4956C87.9594 23.8454 88.2405 24.171 88.5033 24.4726L88.042 24.2379C88.6145 23.8861 88.9588 23.5041 89.0747 23.0918C89.1932 22.6834 89.0647 22.1903 88.6893 21.6125C88.4407 21.23 88.1342 20.9511 87.77 20.7758C87.4122 20.6019 86.9991 20.5826 86.5306 20.7179L86.1877 19.5352C86.8437 19.329 87.4727 19.3423 88.0746 19.575C88.6765 19.8078 89.2095 20.2813 89.6738 20.9957C90.0467 21.5696 90.2624 22.1283 90.3208 22.672C90.3857 23.2171 90.2686 23.7132 89.9694 24.1603C89.8316 24.3763 89.6546 24.5705 89.4383 24.7428C89.226 24.9127 88.9943 25.0783 88.7432 25.2399L84.8122 27.7692L84.211 26.844L85.7351 25.8633L85.7347 26.1709C85.066 26.2634 84.4607 26.1796 83.9188 25.9193C83.3794 25.6629 82.9106 25.2282 82.5123 24.6154ZM83.4919 24.2093C83.7354 24.5841 84.0127 24.8652 84.3236 25.0526C84.6411 25.2414 84.9642 25.3491 85.2929 25.3756C85.6257 25.3995 85.9399 25.3523 86.2358 25.234C86.47 25.1663 86.708 25.0575 86.9498 24.9074C87.1982 24.7587 87.387 24.6427 87.5165 24.5594L87.5935 25.0247C87.3258 24.7153 87.0638 24.4106 86.8075 24.1104C86.5513 23.8103 86.3025 23.5302 86.0612 23.2703C85.8239 23.0078 85.5958 22.7809 85.3769 22.5896C85.2103 22.4531 85.0344 22.3366 84.8492 22.2399C84.6665 22.1471 84.476 22.098 84.2778 22.0926C84.0861 22.0887 83.8902 22.1511 83.6901 22.2798C83.5175 22.3909 83.3806 22.5398 83.2795 22.7267C83.1809 22.9174 83.1422 23.1361 83.1633 23.3827C83.187 23.6332 83.2965 23.9087 83.4919 24.2093Z" fill="#797979"/>
<path d="M86.5449 32.0001C86.264 31.3108 86.165 30.641 86.2478 29.9905C86.335 29.3384 86.5803 28.7528 86.9839 28.2338L87.9553 28.9104C87.6735 29.3201 87.5007 29.7434 87.4368 30.1805C87.3773 30.6159 87.4397 31.0597 87.624 31.5121C87.8171 31.986 88.0789 32.3193 88.4095 32.512C88.7444 32.7029 89.0981 32.7233 89.4704 32.5731C89.7475 32.4613 89.9316 32.3068 90.0226 32.1095C90.1136 31.9123 90.1346 31.673 90.0856 31.3918C90.0365 31.1107 89.9392 30.7913 89.7935 30.4337L89.4986 29.7099L90.4532 29.3248L90.7455 30.0421C90.9298 30.4944 91.1535 30.8331 91.4166 31.058C91.6797 31.283 91.9887 31.3238 92.3437 31.1806C92.7074 31.0339 92.9171 30.7938 92.9728 30.4603C93.0346 30.1294 92.9908 29.7808 92.8416 29.4146C92.6836 29.0269 92.4504 28.6896 92.1419 28.4027C91.8378 28.1141 91.5106 27.8924 91.1602 27.7378L91.6616 26.7229C92.1814 26.9345 92.6366 27.235 93.0271 27.6242C93.4237 28.016 93.7352 28.4898 93.9617 29.0456C94.1442 29.4936 94.2309 29.9352 94.2217 30.3703C94.2185 30.808 94.108 31.1987 93.8901 31.5424C93.6783 31.8887 93.3538 32.1501 92.9165 32.3265C92.5442 32.4767 92.1778 32.5242 91.8175 32.4689C91.4572 32.4136 91.1004 32.2616 90.747 32.0129L91.1377 31.8026C91.1843 32.1149 91.1522 32.4012 91.0415 32.6616C90.9369 32.9245 90.7775 33.1518 90.5633 33.3436C90.349 33.5354 90.1055 33.6863 89.8327 33.7963C89.3738 33.9815 88.9307 34.0198 88.5033 33.9113C88.082 33.8054 87.7001 33.5857 87.3576 33.2524C87.0194 32.9173 86.7485 32.4999 86.5449 32.0001Z" fill="#797979"/>
<path d="M88.7458 39.199C88.6154 38.5044 88.6778 37.8875 88.933 37.3482C89.1929 36.8081 89.5958 36.3596 90.1419 36.0027C90.6935 35.6496 91.339 35.4043 92.0784 35.2669C92.8269 35.1278 93.5202 35.1242 94.1581 35.2563C94.7968 35.393 95.3307 35.6674 95.7598 36.0795C96.1897 36.4961 96.4698 37.0518 96.6002 37.7464C96.7289 38.4318 96.6673 39.0533 96.4155 39.6109C96.1692 40.1721 95.7747 40.6403 95.232 41.0155C94.6893 41.3906 94.046 41.6473 93.302 41.7856C92.558 41.9239 91.8649 41.9155 91.2227 41.7606C90.5805 41.6057 90.0382 41.3116 89.5957 40.8783C89.1586 40.4488 88.8753 39.8891 88.7458 39.199ZM85.0063 36.3684L95.7528 34.3712L95.9574 35.4611L90.4808 36.4789L90.5066 36.616L85.2367 37.5954L85.0063 36.3684ZM89.8403 38.8395C89.9321 39.3285 90.132 39.7099 90.4401 39.9837C90.7481 40.2575 91.1284 40.4351 91.5809 40.5165C92.038 40.597 92.5307 40.5882 93.0588 40.4901C93.5824 40.3928 94.0404 40.2249 94.4329 39.9864C94.8262 39.7525 95.116 39.448 95.3022 39.0729C95.4893 38.7024 95.5357 38.2658 95.4413 37.7631C95.3513 37.2833 95.1572 36.9079 94.8592 36.637C94.5658 36.3652 94.1933 36.1909 93.7416 36.114C93.2945 36.0363 92.7954 36.0487 92.2443 36.1511C91.7024 36.2518 91.2321 36.4173 90.8333 36.6475C90.4399 36.8814 90.1516 37.1809 89.9682 37.546C89.7895 37.9103 89.7468 38.3414 89.8403 38.8395Z" fill="#797979"/>
<path d="M89.5345 46.814C89.5519 46.2518 89.6693 45.7833 89.8866 45.4086C90.1084 45.0387 90.3928 44.7614 90.7397 44.5767C91.0865 44.3967 91.4631 44.3129 91.8693 44.3254C92.2663 44.3376 92.6072 44.4225 92.8921 44.5801C93.1815 44.7424 93.4177 44.9636 93.6006 45.2437C93.7883 45.5238 93.9322 45.8562 94.0324 46.2406C94.1194 46.6014 94.191 47.0036 94.2474 47.4472C94.3083 47.8955 94.362 48.3483 94.4086 48.8056C94.4551 49.2628 94.5003 49.6897 94.5441 50.0864L94.2988 49.6324C94.9708 49.667 95.4723 49.5475 95.8033 49.274C96.1341 49.0051 96.3102 48.5268 96.3316 47.8391C96.3457 47.3838 96.2531 46.9809 96.0536 46.6306C95.8587 46.2851 95.5299 46.0355 95.0672 45.8817L95.461 44.7148C96.1185 44.9164 96.6283 45.2832 96.9904 45.8153C97.3524 46.3473 97.5203 47.0385 97.4939 47.8888C97.4727 48.5718 97.3308 49.1535 97.0681 49.6338C96.81 50.1189 96.4302 50.4607 95.9285 50.6592C95.6917 50.7589 95.4351 50.8184 95.1588 50.8378C94.8871 50.8574 94.6018 50.8626 94.3029 50.8534L89.6239 50.7096L89.6581 49.6084L91.4722 49.6641L91.2961 49.9168C90.6932 49.6146 90.2432 49.2031 89.9462 48.6824C89.6491 48.1663 89.5118 47.5435 89.5345 46.814ZM90.5723 47.0342C90.5585 47.4803 90.6259 47.8684 90.7745 48.1986C90.9277 48.5335 91.132 48.8049 91.3873 49.0127C91.6473 49.2207 91.9327 49.3597 92.2437 49.4297C92.4751 49.5066 92.7331 49.5517 93.0178 49.5651C93.307 49.5833 93.5287 49.5948 93.6828 49.5995L93.4802 50.0258C93.4368 49.6198 93.3954 49.2209 93.3561 48.829C93.3169 48.4371 93.2723 48.066 93.2224 47.7157C93.1772 47.3655 93.1192 47.0497 93.0485 46.7685C92.9895 46.562 92.9114 46.3666 92.8143 46.1823C92.717 46.0025 92.5884 45.8544 92.4285 45.7379C92.273 45.6261 92.0762 45.5666 91.838 45.5593C91.6326 45.5529 91.4349 45.598 91.2449 45.6945C91.0548 45.7956 90.898 45.9536 90.7745 46.1684C90.6508 46.3878 90.5834 46.6765 90.5723 47.0342Z" fill="#797979"/>
<path d="M88.5688 55.4787C88.7366 54.7873 89.026 54.2317 89.4369 53.8119C89.8523 53.3932 90.3809 53.1155 91.0225 52.9788C91.6642 52.8421 92.4072 52.8555 93.2516 53.0192C93.6425 53.0914 94.0667 53.1952 94.5243 53.3306C94.9807 53.4706 95.4147 53.6245 95.8263 53.7922C96.2368 53.9644 96.5679 54.1372 96.8198 54.3106C97.123 54.5103 97.3895 54.7539 97.6192 55.0415C97.8524 55.3347 98.0291 55.6434 98.1495 55.9675C98.2778 56.2983 98.355 56.653 98.3809 57.0315C98.4068 57.41 98.404 57.7985 98.3724 58.197C98.3443 58.601 98.3072 59.003 98.2609 59.4029C98.2191 59.8038 98.1908 60.1887 98.1758 60.5576L97.0553 60.425C97.0594 60.1633 97.081 59.858 97.1201 59.509C97.1638 59.1611 97.2038 58.798 97.2402 58.4197C97.2755 58.0459 97.2872 57.681 97.2752 57.3248C97.2667 56.9743 97.2134 56.661 97.1153 56.385C96.9847 55.9821 96.7281 55.6357 96.3453 55.3458C95.9661 55.0615 95.5175 54.8374 94.9994 54.6735C95.3699 55.056 95.6047 55.4952 95.7037 55.9911C95.8028 56.4869 95.7925 56.9883 95.673 57.4952C95.5183 58.1514 95.2303 58.6811 94.8089 59.0841C94.3921 59.4882 93.8855 59.7543 93.289 59.8824C92.6915 60.0151 92.0493 60.0013 91.3625 59.841C90.6348 59.6711 90.0321 59.3776 89.5546 58.9605C89.0771 58.5435 88.7507 58.0351 88.5753 57.4355C88.3989 56.8405 88.3967 56.1882 88.5688 55.4787ZM89.7042 55.8225C89.5367 56.5331 89.6303 57.1231 89.9851 57.5927C90.3444 58.0634 90.8925 58.3847 91.6293 58.5567C92.3844 58.733 93.0227 58.6814 93.5445 58.4021C94.0708 58.1239 94.415 57.6408 94.5772 56.9529C94.7415 56.2559 94.6491 55.6709 94.3 55.1978C93.9543 54.7304 93.404 54.4085 92.6489 54.2322C91.8893 54.0549 91.2497 54.1014 90.7301 54.3716C90.2105 54.6419 89.8686 55.1255 89.7042 55.8225Z" fill="#797979"/>
<path d="M86.1344 62.86C86.4555 62.1832 86.887 61.6713 87.4288 61.3244C87.9686 60.9816 88.5738 60.8059 89.2444 60.7971C89.9151 60.7883 90.6032 60.9496 91.3087 61.2811C92.0269 61.6185 92.5925 62.0488 93.0056 62.5719C93.4187 63.095 93.6586 63.6729 93.7251 64.3057C93.7959 64.9404 93.6737 65.5899 93.3586 66.2541C93.0354 66.9351 92.603 67.449 92.0612 67.796C91.5236 68.1449 90.9205 68.3217 90.2519 68.3263C89.5854 68.337 88.8995 68.1767 88.1939 67.8452C87.48 67.5098 86.9133 67.0816 86.494 66.5608C86.0789 66.0419 85.8339 65.4641 85.7588 64.8273C85.688 64.1926 85.8132 63.5368 86.1344 62.86ZM87.2053 63.3632C86.8702 64.0694 86.8575 64.706 87.167 65.273C87.4766 65.84 88.0074 66.3002 88.7594 66.6535C89.5326 67.0167 90.23 67.131 90.8519 66.9965C91.4779 66.8639 91.9565 66.4487 92.2876 65.7509C92.513 65.2759 92.5908 64.8343 92.521 64.4262C92.4511 64.0181 92.262 63.6491 91.9536 63.3191C91.6452 62.9892 91.2417 62.7071 90.7432 62.4729C89.9743 62.1116 89.2737 61.9984 88.6414 62.1332C88.0092 62.268 87.5305 62.6779 87.2053 63.3632Z" fill="#797979"/>
<path d="M82.4585 69.7011L87.6051 73.5418L89.1861 71.4443L90.0943 72.1221L86.1839 77.3101L85.2757 76.6323L86.8567 74.5348L81.7101 70.6941L82.4585 69.7011Z" fill="#797979"/>
<path d="M79.4871 73.5429L84.6559 79.0442L83.7353 79.9022L81.2441 77.2557L81.4183 82.0616L80.2368 83.1628L80.0896 78.1407L74.7765 77.9332L76.0501 76.7463L81.0525 77.0522L78.5614 74.4057L79.4871 73.5429Z" fill="#797979"/>
<path d="M72.3435 79.3148C72.8216 79.0146 73.2774 78.8493 73.7111 78.8188C74.1434 78.7947 74.5335 78.8741 74.8814 79.0568C75.2254 79.2421 75.5059 79.5057 75.7228 79.8478C75.9348 80.1819 76.0548 80.5106 76.083 80.8337C76.1097 81.1633 76.0576 81.4818 75.9268 81.7894C75.7984 82.1009 75.6021 82.4055 75.338 82.7033C75.0862 82.9769 74.7913 83.2611 74.4533 83.5558C74.1139 83.8568 73.7669 84.1545 73.4121 84.4488C73.0573 84.743 72.727 85.0192 72.4211 85.2773L72.662 84.8209C73.0092 85.3944 73.3893 85.7412 73.8024 85.8611C74.2115 85.9835 74.7084 85.8611 75.2931 85.4938C75.6803 85.2507 75.964 84.9489 76.1441 84.5884C76.3228 84.2343 76.3468 83.8234 76.216 83.3559L77.4083 83.0276C77.6082 83.6827 77.588 84.3083 77.3475 84.9046C77.1069 85.501 76.6252 86.0261 75.9022 86.4802C75.3214 86.8449 74.7575 87.0533 74.2105 87.1055C73.662 87.1641 73.1648 87.0421 72.7187 86.7395C72.5032 86.6 72.31 86.4217 72.1392 86.2047C71.9709 85.9915 71.8069 85.7592 71.6473 85.5076L69.1488 81.5684L70.0852 80.9804L71.0539 82.5077L70.7449 82.5039C70.6592 81.8375 70.7502 81.2362 71.0177 80.6999C71.2813 80.166 71.7232 79.7044 72.3435 79.3148ZM72.7408 80.2939C72.3615 80.5321 72.076 80.8049 71.8842 81.1122C71.691 81.426 71.5792 81.7463 71.549 82.0731C71.5212 82.4039 71.5652 82.7171 71.6809 83.0128C71.7463 83.2465 71.8531 83.4846 72.0012 83.7269C72.1479 83.9756 72.2624 84.1648 72.3447 84.2945L71.8763 84.366C72.1901 84.103 72.4992 83.8457 72.8037 83.594C73.1081 83.3423 73.3923 83.0979 73.6562 82.8607C73.9226 82.6275 74.1531 82.403 74.3478 82.1873C74.4867 82.0231 74.6058 81.8494 74.705 81.6661C74.8003 81.4853 74.8517 81.2964 74.8592 81.0992C74.8653 80.9085 74.8048 80.7129 74.6776 80.5124C74.5679 80.3394 74.4197 80.2016 74.2331 80.0989C74.0424 79.9988 73.8231 79.9578 73.5751 79.9762C73.3231 79.997 73.045 80.1029 72.7408 80.2939Z" fill="#797979"/>
<path d="M59.2587 85.4205L60.3049 92.8792L54.1625 93.7323L53.1163 86.2736L54.3517 86.102L55.2342 92.3935L58.9058 91.8836L58.0233 85.5921L59.2587 85.4205Z" fill="#797979"/>
<path d="M47.8943 86.0268C48.6025 86.0786 49.1861 86.296 49.645 86.6791C50.1036 87.0669 50.4366 87.569 50.6441 88.1855C50.8466 88.8062 50.9203 89.4898 50.8652 90.2363C50.8094 90.992 50.636 91.6598 50.3449 92.2399C50.0492 92.8196 49.6464 93.2633 49.1365 93.5709C48.6219 93.8783 48.0105 94.0061 47.3023 93.9543C46.6034 93.9033 46.0152 93.6855 45.5376 93.301C45.0551 92.9208 44.7007 92.4218 44.4746 91.804C44.2485 91.1862 44.1632 90.5017 44.2186 89.7507C44.274 88.9996 44.4589 88.3349 44.7733 87.7565C45.0877 87.1782 45.5118 86.7314 46.0457 86.4162C46.5745 86.1052 47.1907 85.9754 47.8943 86.0268ZM51.5988 83.1511L50.7983 94L49.687 93.9188L50.095 88.3901L49.9552 88.3798L50.3478 83.0597L51.5988 83.1511ZM47.9644 87.1716C47.4659 87.1352 47.0443 87.2303 46.6996 87.4568C46.355 87.6833 46.0854 88.0039 45.8909 88.4185C45.696 88.8378 45.5789 89.314 45.5395 89.8472C45.5005 90.3757 45.5468 90.8592 45.6784 91.2976C45.8054 91.7358 46.0273 92.0922 46.3443 92.3671C46.6567 92.6416 47.0691 92.7976 47.5816 92.8351C48.0709 92.8708 48.4851 92.7799 48.8244 92.5623C49.1634 92.3493 49.4278 92.0354 49.6177 91.6204C49.8072 91.2101 49.9225 90.7267 49.9636 90.1704C50.004 89.6233 49.9632 89.1286 49.8412 88.6862C49.7143 88.248 49.4968 87.8942 49.1888 87.6247C48.8804 87.3598 48.4723 87.2087 47.9644 87.1716Z" fill="#797979"/>
<path d="M39.6333 84.6774C40.353 84.895 40.9248 85.2452 41.3487 85.728C41.7681 86.2094 42.031 86.7796 42.1375 87.4385C42.2439 88.0975 42.1837 88.7983 41.9569 89.5412C41.7261 90.2973 41.3807 90.9168 40.9208 91.3997C40.4609 91.8826 39.9212 92.2029 39.3017 92.3606C38.681 92.5227 38.0174 92.4971 37.3111 92.2836C36.587 92.0646 36.0129 91.7138 35.5891 91.231C35.1638 90.7526 34.9002 90.1847 34.7982 89.5271C34.6904 88.8726 34.7499 88.174 34.9767 87.4311C35.2062 86.6794 35.5494 86.0592 36.0062 85.5706C36.4617 85.0863 37.0004 84.7609 37.6226 84.5943C38.2434 84.4322 38.9136 84.4599 39.6333 84.6774ZM39.2891 85.805C38.5381 85.578 37.9033 85.6582 37.3846 86.0455C36.866 86.4329 36.4858 87.0225 36.244 87.8142C35.9955 88.6282 35.9834 89.3315 36.2078 89.924C36.4308 90.521 36.9133 90.9317 37.6554 91.156C38.1605 91.3087 38.6109 91.3209 39.0065 91.1927C39.402 91.0645 39.7414 90.8246 40.0246 90.4729C40.3077 90.1212 40.5294 89.6829 40.6896 89.1581C40.9368 88.3485 40.9473 87.6424 40.7212 87.0396C40.4951 86.4368 40.0177 86.0253 39.2891 85.805Z" fill="#797979"/>
<path d="M31.3944 81.3482C32.0435 81.7076 32.5315 82.164 32.8582 82.7173C33.1787 83.2725 33.3305 83.8806 33.3137 84.5416C33.2946 85.2067 33.0932 85.8825 32.7092 86.569C32.3072 87.288 31.8269 87.836 31.2685 88.2131C30.7078 88.5943 30.1112 88.7959 29.4786 88.8181C28.8397 88.842 28.1997 88.6765 27.5588 88.3217C26.8934 87.9532 26.4131 87.4878 26.1181 86.9255C25.819 86.3608 25.711 85.7318 25.7941 85.0383C25.873 84.3426 26.1469 83.6138 26.6158 82.8519L27.718 83.4622L27.4999 83.8522C27.0601 84.6673 26.8881 85.3621 26.9839 85.9365C27.0775 86.515 27.4386 86.9783 28.0673 87.3264C28.7409 87.6994 29.3736 87.7677 29.9655 87.5316C30.5574 87.2954 31.0782 86.7751 31.528 85.9708C31.9619 85.1949 32.1226 84.4965 32.01 83.8756C31.8975 83.2547 31.5166 82.7645 30.8675 82.4051C30.4307 82.1632 29.9954 82.0525 29.5615 82.073C29.1277 82.0935 28.7145 82.2397 28.3217 82.5117L27.4757 81.5724C28.0577 81.1339 28.6977 80.8978 29.3956 80.8639C30.0872 80.8319 30.7535 80.9933 31.3944 81.3482ZM32.0658 85.8696L31.5785 86.7409L26.6919 84.0352L27.1791 83.1638L32.0658 85.8696Z" fill="#797979"/>
<path d="M27.1212 79.0657L22.2508 84.8302L21.2845 84.0234L23.627 81.2457L18.8527 81.9929L17.6126 80.9575L22.6058 80.2111L22.1771 74.9375L23.5138 76.0536L23.8071 81.0321L26.1496 78.2544L27.1212 79.0657Z" fill="#797979"/>
<path d="M20.5838 73.0723L15.6557 77.1871L17.3495 79.1956L16.4798 79.9217L12.2904 74.954L13.1601 74.2279L14.8539 76.2363L19.7819 72.1215L20.5838 73.0723Z" fill="#797979"/>
<path d="M16.4585 67.1664C16.7334 67.6579 16.8741 68.12 16.8808 68.5525C16.8811 68.9833 16.7799 69.3665 16.5773 69.7021C16.3724 70.0336 16.0924 70.2978 15.7372 70.4944C15.3902 70.6866 15.0538 70.7877 14.728 70.7979C14.3959 70.8062 14.0791 70.7369 13.7777 70.5899C13.4722 70.4452 13.1773 70.2334 12.893 69.9545C12.6324 69.6892 12.3635 69.3805 12.0865 69.0285C11.8031 68.6747 11.5235 68.3135 11.2479 67.9448C10.9722 67.5761 10.7133 67.2326 10.4712 66.9145L10.9158 67.179C10.3211 67.4923 9.95225 67.8508 9.80913 68.2546C9.66375 68.6543 9.75916 69.1548 10.0954 69.756C10.318 70.1541 10.6052 70.4525 10.957 70.6514C11.3025 70.8485 11.7134 70.895 12.1898 70.7908L12.4534 71.9935C11.7851 72.156 11.1584 72.1014 10.5733 71.8295C9.98816 71.5576 9.48775 71.05 9.07203 70.3066C8.7381 69.7095 8.56004 69.1377 8.53789 68.5914C8.50937 68.0433 8.65923 67.556 8.98747 67.1295C9.13934 66.9231 9.3289 66.741 9.55613 66.5832C9.77929 66.4278 10.0215 66.2777 10.2828 66.133L14.3734 63.8681L14.9118 64.8308L13.3257 65.709L13.3466 65.4022C14.02 65.3538 14.6184 65.4774 15.1418 65.7728C15.6629 66.0641 16.1018 66.5286 16.4585 67.1664ZM15.4541 67.5071C15.236 67.1171 14.978 66.8184 14.6802 66.6109C14.376 66.4016 14.0608 66.2729 13.7345 66.2248C13.4041 66.179 13.0874 66.2054 12.7843 66.304C12.5461 66.3561 12.3014 66.4491 12.0501 66.5829C11.7924 66.7149 11.5963 66.8182 11.4615 66.8928L11.4156 66.4235C11.6622 66.7498 11.9034 67.0711 12.1391 67.3874C12.3749 67.7038 12.6045 67.9996 12.8279 68.2749C13.0473 68.5524 13.2598 68.7939 13.4655 68.9992C13.6226 69.1462 13.7904 69.2741 13.9688 69.3828C14.1449 69.4875 14.3317 69.549 14.5291 69.5674C14.7202 69.5839 14.9198 69.5346 15.128 69.4193C15.3076 69.3198 15.4541 69.1802 15.5674 69.0004C15.6785 68.8166 15.7316 68.6009 15.7269 68.3535C15.7199 68.102 15.629 67.8199 15.4541 67.5071Z" fill="#797979"/>
</svg>
